<?xml version="1.0" encoding="UTF-8" standalone="no"?>
<!-- Created with Inkscape (http://www.inkscape.org/) -->

<svg
   version="1.1"
   id="svg2"
   width="726.79999"
   height="768"
   viewBox="0 0 726.79999 768"
   sodipodi:docname="ADream_Primary_Icon_rgb.eps"
   xmlns:inkscape="http://www.inkscape.org/namespaces/inkscape"
   xmlns:sodipodi="http://sodipodi.sourceforge.net/DTD/sodipodi-0.dtd"
   xmlns="http://www.w3.org/2000/svg"
   xmlns:svg="http://www.w3.org/2000/svg">
  <defs
     id="defs6" />
  <sodipodi:namedview
     id="namedview4"
     pagecolor="#ffffff"
     bordercolor="#000000"
     borderopacity="0.25"
     inkscape:showpageshadow="2"
     inkscape:pageopacity="0.0"
     inkscape:pagecheckerboard="0"
     inkscape:deskcolor="#d1d1d1" />
  <g
     id="g8"
     inkscape:groupmode="layer"
     inkscape:label="ink_ext_XXXXXX"
     transform="matrix(1.3333333,0,0,-1.3333333,0,768)">
    <g
       id="g10"
       transform="scale(0.1)">
      <path
         d="M 2726.28,0 C 2200.27,0 1692.23,190.012 1295.74,535.02 903.34,876.5 645.586,1346.76 569.965,1859.17 L 0,5760 H 5450.96 L 4883.15,1860.56 C 4807.42,1347.34 4549.56,876.699 4157.03,535.141 3760.46,190.039 3252.33,0 2726.28,0"
         style="fill:#ffffff;fill-opacity:1;fill-rule:nonzero;stroke:none"
         id="path12" />
      <path
         d="M 2726.28,114.922 C 2228,114.922 1746.76,294.898 1371.19,621.711 999.477,945.199 755.293,1390.62 683.684,1875.95 L 132.949,5645.07 H 5318.09 L 4769.4,1877.13 C 4697.7,1391.1 4453.44,945.41 4081.59,621.852 3705.9,294.941 3224.58,114.922 2726.28,114.922"
         style="fill:#9a9f9d;fill-opacity:1;fill-rule:nonzero;stroke:none"
         id="path14" />
      <path
         d="m 2726.28,282.09 c -457.92,0 -900.22,165.41 -1245.35,465.742 C 1139.29,1045.13 914.867,1454.45 849.063,1900.36 L 326.328,5477.91 H 5124.83 L 4603.97,1901.21 C 4538.1,1454.74 4313.63,1045.36 3971.84,747.961 3626.6,447.539 3184.25,282.09 2726.28,282.09"
         style="fill:#313532;fill-opacity:1;fill-rule:nonzero;stroke:none"
         id="path16" />
      <path
         d="m 2423.56,1817.39 v 8.36 h -145.12 v -8.36 c 0,-201.7 -101.92,-384.74 -272.83,-491.45 -93.36,78.94 -174.15,173.23 -237.91,279.75 H 1602 c 212.73,-417.39 649.01,-690.37 1121.97,-690.37 473.75,0 908.61,272.56 1121.31,690.37 h -165.74 c -63.33,-105.98 -143.38,-199.78 -235.87,-278.44 -169.69,106.89 -270.83,289.25 -270.83,490.14 v 9.19 h -145.1 v -9.19 c 0,-232.49 108.41,-445.06 292.7,-581.44 -154.88,-98.98 -334.05,-160 -522.24,-172.82 v 947.56 h -145.12 v -947.76 c -188.38,12.3 -368.16,73.07 -523.72,171.91 185.2,136.32 294.2,349.43 294.2,582.55"
         style="fill:#5590d3;fill-opacity:1;fill-rule:nonzero;stroke:none"
         id="path18" />
      <path
         d="m 2726.59,642.52 c -632.17,0 -1192.8,387.91 -1421.81,963.17 h -155.17 c 236.55,-659.299 865.4,-1108.292 1576.98,-1108.292 710.6,0 1339.94,449.204 1576.47,1108.292 H 4147.73 C 3918.67,1030.65 3357.81,642.52 2726.59,642.52"
         style="fill:#e4173d;fill-opacity:1;fill-rule:nonzero;stroke:none"
         id="path20" />
      <path
         d="m 1242.48,4619.73 307.82,-224.41 83.22,-561.85 -199.38,-520.67 z m 299.56,-1430.75 20.65,53.74 219.95,574.37 -67.88,458.34 191.24,-139.42 53.92,140.29 -911.17,664.22 279.34,-1904.68 -196.75,-513.77 -382.504,2586.48 H 2279.76 l 55.78,145.13 H 580.676 l 488.154,-3300.66 473.28,1235.94 -0.07,0.02"
         style="fill:#e4173d;fill-opacity:1;fill-rule:nonzero;stroke:none"
         id="path22" />
      <path
         d="m 3817.45,3833.19 84.13,561.1 309.65,225.53 -192.51,-1312.76 z m -702.27,1420.49 55.77,-145.13 h 1531.5 l -383.42,-2586.48 -194.28,507.85 280.16,1910.5 -913.61,-665.44 53.9,-140.25 191.67,139.59 -68.59,-457.35 208.48,-544.94 31.91,-83.05 -0.12,-0.05 472.81,-1235.91 489.3,3300.66 H 3115.18"
         style="fill:#e4173d;fill-opacity:1;fill-rule:nonzero;stroke:none"
         id="path24" />
      <path
         d="m 2721.64,3841.27 362.97,-1043.35 h -721.3 z m -976.17,939.23 319.11,-231.84 164.57,-119.57 71.28,-51.78 -974.28,-2553.93 702.94,1.41 135.45,394.38 h 1121.41 l 136.24,-391.63 702.94,1.41 -981.69,2542.97 78.24,56.85 164.58,119.56 319.55,232.17 H 3297.02 3086.5 2985.72 l -181.2,469.38 -78.88,242.76 -6.78,-20.87 -0.45,1.19 -264.17,-692.46 h -90.03 -210.53 -408.21"
         style="fill:#ffffff;fill-opacity:1;fill-rule:nonzero;stroke:none"
         id="path26" />
    </g>
  </g>
</svg>
