<?xml version="1.0" encoding="UTF-8" standalone="no"?>
<!-- Created with Inkscape (http://www.inkscape.org/) -->

<svg
   version="1.1"
   id="svg2"
   width="768"
   height="768"
   viewBox="0 0 768 768"
   sodipodi:docname="CSky_Primary_Icon_rgb.eps"
   xmlns:inkscape="http://www.inkscape.org/namespaces/inkscape"
   xmlns:sodipodi="http://sodipodi.sourceforge.net/DTD/sodipodi-0.dtd"
   xmlns="http://www.w3.org/2000/svg"
   xmlns:svg="http://www.w3.org/2000/svg">
  <defs
     id="defs6" />
  <sodipodi:namedview
     id="namedview4"
     pagecolor="#ffffff"
     bordercolor="#000000"
     borderopacity="0.25"
     inkscape:showpageshadow="2"
     inkscape:pageopacity="0.0"
     inkscape:pagecheckerboard="0"
     inkscape:deskcolor="#d1d1d1" />
  <g
     id="g8"
     inkscape:groupmode="layer"
     inkscape:label="ink_ext_XXXXXX"
     transform="matrix(1.3333333,0,0,-1.3333333,0,768)">
    <g
       id="g10"
       transform="scale(0.1)">
      <path
         d="M 5760,2880 C 5760,1289.42 4470.58,0 2880,0 1289.41,0 0,1289.42 0,2880 0,4470.58 1289.41,5760 2880,5760 4470.58,5760 5760,4470.58 5760,2880"
         style="fill:#061922;fill-opacity:1;fill-rule:nonzero;stroke:none"
         id="path12" />
      <path
         d="m 2511.69,3156.72 -256.38,-43.86 v 990.28 l 256.38,90.97 z m 364.92,2203.15 C 1419.22,5351 313.031,4122.56 405.484,2706.79 491.996,1382.13 1609.15,383.172 2901.22,400.309 4188.5,417.371 5283.82,1438.65 5356.09,2755.72 c 77.21,1407 -1028.23,2612.97 -2479.48,2604.15"
         style="fill:#4d90cd;fill-opacity:1;fill-rule:nonzero;stroke:none"
         id="path14" />
      <path
         d="m 2228.94,2881.93 -257.4,-48.27 -0.12,-2156.43 257.52,-88.929 V 2881.93"
         style="fill:#061922;fill-opacity:1;fill-rule:nonzero;stroke:none"
         id="path16" />
      <path
         d="m 2228.94,2881.93 -257.4,-48.27 -0.12,-2156.43 257.52,-88.929 V 2881.93"
         style="fill:#061922;fill-opacity:1;fill-rule:nonzero;stroke:none"
         id="path18" />
      <path
         d="m 2838.43,4502.3 h -0.01 l 0.01,-0.01 z"
         style="fill:#ffd520;fill-opacity:1;fill-rule:nonzero;stroke:none"
         id="path20" />
      <path
         d="M 2838.41,4502.3 V 591.27 h 0.02 v -91.899 c 13.92,-0.25 27.75,-1.019 41.72,-1.019 193.81,0 384.05,23.277 567.73,68.027 V 3108.35 l -282.74,48.37 v 1241.26 l -127.71,40.77 v 817.21 c -35.36,2.29 -70.86,3.74 -106.5,4.49 v -787.67 l -92.52,29.52"
         style="fill:#ffffff;fill-opacity:1;fill-rule:nonzero;stroke:none"
         id="path22" />
      <path
         d="m 5261.77,2834.09 c -323.66,198.55 -673.99,357.83 -1044.35,471.26 71.6,398.92 243.57,771.19 503.54,1086.42 350.57,-425.22 541.37,-954.15 541.37,-1512.41 0,-15.15 -0.3,-30.22 -0.56,-45.27 z m -76.8,-558.26 c -86.21,-331.08 -243.33,-640.12 -463.88,-907.72 -220.74,267.52 -378.13,576.52 -464.48,907.72 -50.71,194.66 -77.07,397.02 -77.07,603.53 0,62.42 2.49,124.49 7.19,186.11 126.98,-40.28 252.42,-86.3 375.98,-138.57 238.04,-100.69 464.7,-221.69 679.04,-361.72 -12.81,-98.08 -32.07,-194.61 -56.78,-289.35 z M 2880.15,498.352 c -13.97,0 -27.8,0.769 -41.72,1.019 l -0.02,2142.959 v 365.7 1494.26 l -92.51,-29.51 v 784.88 c 44.5,2.46 89.17,4.02 134.09,4.02 633.8,0 1229.79,-245.88 1679.13,-692.49 -285.16,-337.62 -486.47,-748.31 -571.89,-1200.05 -265.61,66.25 -540.37,109.33 -822.09,126.79 v -238.92 c 267.62,-17.31 530.98,-58.7 788.4,-124.54 -7.96,-83.3 -12.18,-167.72 -12.18,-253.11 0,-207.76 24.35,-409.79 70.14,-603.53 95.98,-406.16 287.23,-776.49 547.81,-1085.11 C 4109.86,744.391 3513.73,498.352 2880.15,498.352 Z m -240.78,3940.398 -127.68,-40.73 v -1241.3 l -282.75,-48.37 V 588.719 c -384.31,108.652 -736.98,313.043 -1027.96,602.001 260.91,308.83 451.55,678.96 547.49,1085.11 45.78,193.74 70.17,395.77 70.17,603.53 0,85.39 -4.21,169.81 -12.21,253.11 147.66,37.76 297.64,65.84 448.88,87.7 v 240.53 c -163.61,-22.48 -324.93,-52.24 -482.58,-91.56 -85.38,451.74 -286.69,862.43 -571.89,1200.05 391.98,389.6 895.61,626.34 1438.53,680.46 z M 575,2275.83 c -24.695,94.74 -43.945,191.27 -56.809,289.35 214.387,140.03 441.024,261.03 679.059,361.72 123.57,52.27 249.04,98.29 375.98,138.57 4.72,-61.62 7.19,-123.69 7.19,-186.11 0,-206.51 -26.35,-408.87 -77.06,-603.53 -86.35,-331.2 -243.42,-640.2 -464.15,-907.72 C 818.551,1635.9 661.363,1944.59 575,2275.83 Z m -77.344,603.53 c 0,558.26 190.778,1087.17 541.394,1512.41 259.93,-315.23 431.89,-687.5 503.49,-1086.45 -370.37,-113.43 -720.677,-272.71 -1044.349,-471.23 -0.296,15.05 -0.535,30.12 -0.535,45.27 z M 4882.72,4569.19 c -51.3,60.77 -105.26,119.14 -161.76,174.94 -473.3,467.25 -1123.38,755.78 -1840.97,755.78 -717.57,0 -1367.7,-288.53 -1840.94,-755.78 C 982.504,4688.33 928.52,4629.96 877.246,4569.19 491.871,4112.94 259.449,3523.33 259.449,2879.36 c 0,-66.33 2.52,-132.08 7.364,-197.18 6.742,-90.89 18.121,-180.52 33.925,-268.59 8.321,-46.38 17.918,-92.27 28.676,-137.76 96.129,-406.43 287.207,-776.44 548.012,-1085.11 51.496,-60.86 105.078,-119.13 161.784,-174.78 473.36,-467.131 1123.6,-755.838 1840.94,-755.838 717.33,0 1367.56,288.707 1840.94,755.838 56.69,55.65 110.79,113.92 161.77,174.78 260.8,308.67 451.56,678.68 547.7,1085.11 10.74,45.49 20.34,91.38 28.66,137.76 15.8,88.07 27.2,177.7 33.96,268.59 4.82,65.1 7.37,130.85 7.37,197.18 0,644 -232.45,1233.58 -617.83,1689.83"
         style="fill:#ffd520;fill-opacity:1;fill-rule:nonzero;stroke:none"
         id="path24" />
    </g>
  </g>
</svg>
