<?xml version="1.0" encoding="UTF-8"?>
<svg id="Ebene_1" xmlns="http://www.w3.org/2000/svg" version="1.1" viewBox="0 0 136 150">
  <!-- Generator: Adobe Illustrator 29.7.1, SVG Export Plug-In . SVG Version: 2.1.1 Build 8)  -->
  <defs>
    <style>
      .st0 {
        fill: #fff;
      }

      .st1 {
        fill: #0a2240;
      }

      .st2 {
        fill: #f05023;
      }
    </style>
  </defs>
  <path class="st0" d="M133.38,72.14c-2.73-1.15-9.57-3.31-16.64-5.23.08-2.86.16-5.99.08-9.19,4.68-5.96,6.81-10.54,6.34-13.64-.26-1.67-1.14-2.37-1.43-2.55l-.86-.57-.96.42c-2.68,1.17-5.36,2.06-8.42,2.84-4.08-1.61-8.06-2.92-11.85-3.9,2.62-9.27,2.91-15.62.94-18.9-1.01-1.67-2.26-2-2.62-2.06l-1.01-.18-.7.76c-6.73,7.18-13.54,11.3-17.08,13.17-.36-2.29-1.17-6.01-2.81-12.16-1.72-6.43-4.21-14.89-5.64-18.27l-.16-.34-.13-.13c-.13-.36-.29-.65-.49-.91-.39-.65-1.09-1.28-2-1.28-1.04,0-1.79.78-2.16,1.51l-.49.99c-1.4,3.2-3.74,11.56-5.46,18.46-1.53,6.22-2.31,9.97-2.63,12.29-3.54-1.85-10.55-6.07-17.36-13.59l-.7-.78-1.04.18c-.36.08-1.61.42-2.63,2.06-2.03,3.31-1.72,9.68.86,19.03-3.98,1.04-7.9,2.32-11.7,3.8-2.94-.89-5.61-1.85-8.14-2.92l-.94-.39-.86.55c-.29.18-1.2.89-1.48,2.55-.52,3.02,1.48,7.5,5.93,13.3-.16,3.46-.08,6.87,0,10.02-6.84,1.9-13.57,4.04-16.43,5.26-1.25.42-2.7,1.25-2.7,2.81s1.51,2.24,2.16,2.5c.08.03.18.08.26.1l.1.05c3.07,1.3,11.41,3.62,18.14,5.34.36,2.26.78,4.48,1.3,6.77-5.95,5.31-9.02,9.66-9.07,12.94-.03,1.77.78,2.65,1.04,2.92l.78.73,1.01-.29c3.3-.91,6.78-1.48,10.32-1.69,2.31,6.46,5.2,12.47,8.58,17.91l.42.65.75.18c8.14,2.03,16.09,3.31,23.71,3.8,1.87,7.78,4.44,17.1,5.98,20.54l.44.91c.36.73,1.12,1.51,2.16,1.51s1.61-.62,2.03-1.28c.18-.23.34-.55.47-.91l.13-.13.16-.34c1.46-3.38,4.18-12.44,6.11-20.33,7.38-.52,15.05-1.74,22.77-3.62l.75-.18.42-.65c3.17-5.05,6.08-11.04,8.63-17.83,2.55.16,6.14.62,10.48,1.8l1.01.26.78-.73c.26-.23,1.07-1.15,1.04-2.89-.05-3.31-3.07-7.73-8.99-13.15.49-2.27.94-4.61,1.3-7,7.3-1.8,15.31-4.14,18.38-5.42l.23-.1c.73-.31,2.24-.94,2.24-2.53s-.83-2.03-2.65-2.79"/>
  <path class="st2" d="M132.65,73.88c-2.96-1.25-10.68-3.62-17.83-5.54.1-3.64.21-7.39.1-11.27,9.31-11.61,5.77-14.01,5.77-14.01-3.4,1.48-6.47,2.4-9.3,3.07-4.55-1.82-9.31-3.41-14.09-4.53,5.88-19.45.31-20.46.31-20.46-9.07,9.68-18.27,14.01-20.2,14.81,1.01-1.35-5.93-26.74-8.45-32.64,0,0-.1-.1-.23-.34-.1-.34-.23-.57-.34-.68-.1-.23-.34-.44-.44-.44s-.34.23-.44.47c-.1.23-.23.44-.44.91-2.6,5.91-9.51,33.35-7.93,32.98h-.1c0-.1-.1-.1-.1-.1,0,0-10.35-4.09-20.46-15.23,0,0-5.56,1.04.26,20.59-4.76,1.15-9.44,2.63-13.96,4.45-2.73-.78-5.8-1.82-8.97-3.18,0,0-3.51,2.29,5.35,13.64-.23,4.09-.1,8.2,0,12.05-7.15,1.95-14.76,4.35-17.7,5.6,0,0-1.48.47-1.48,1.02s.91.68,1.35.91c2.96,1.25,11.46,3.62,19.08,5.55.47,3.07,1.04,6.04,1.72,8.98-12.24,10.6-8.84,13.77-8.84,13.77,4.55-1.25,8.73-1.72,12.14-1.82,2.39,6.93,5.35,13.2,8.89,18.87,8.19,2.03,16.48,3.38,24.77,3.85,1.95,8.2,4.68,18.2,6.16,21.5l.47.91c.1.23.34.44.44.44s.34-.24.44-.44c.1-.1.23-.34.34-.68.1-.23.23-.34.23-.34,1.48-3.41,4.42-13.3,6.34-21.4,7.95-.47,15.91-1.72,23.84-3.67,3.51-5.57,6.47-11.95,8.94-18.77,3.41.1,7.62.68,12.27,1.93,0,0,3.4-3.2-8.76-13.98.68-2.97,1.25-6.04,1.69-9.22,7.62-1.82,16.25-4.35,19.31-5.6.55-.23,1.35-.5,1.35-.91s-1.48-1.02-1.48-1.02"/>
  <path class="st0" d="M110.16,71.07c.31-5.62.26-10.41.16-14.08,4.63-3.49,4.03-4.01,4.03-4.01-.36-.31-1.95.1-4.13.89,0-.34-.03-.65-.05-.96,5.15-4.19,3.72-4.71,3.72-4.71-.65-.42-2.39,0-4.68.86l-.99-.29c-5.49-1.64-10.63-2.92-15.65-3.85,2.47-4.82,4.73-9.92,3.48-10.34-.7-.31-4.81,3.59-8.14,9.55-.18-.03-.34-.05-.52-.08,2.52-4.87,4.94-10.18,3.67-10.6-.73-.34-5.04,3.77-8.42,10-3.07-.34-6.16-.55-9.31-.65.08-10.57-1.19-17.05-2.39-17.05,0,0-2.52-.18-2.75,16.95h-.88c.08-10.52-1.12-16.95-2.39-16.95,0,0-2.52-.18-2.76,17.08-2.76.1-5.48.31-8.19.6-3.33-6.17-7.64-10.23-8.37-9.92-1.27.42,1.12,5.68,3.64,10.49-.21.03-.42.05-.62.08-3.3-5.91-7.33-9.76-8.14-9.45-1.17.42,1.09,5.44,3.56,10.2-5.25.96-10.61,2.29-16.38,4.01l-.91.29c-2.26-.86-4.03-1.28-4.65-.86,0,0-1.53.52,3.69,4.69,0,.31-.03.62-.03.96-2.18-.78-3.74-1.17-4.11-.86,0,0-.6.52,4,4.06-.16,3.77-.29,8.56-.05,14.11-10.5,1.02-9.96,2.11-9.96,2.11.16.91,4.55,1.12,10.14.99v.23c-9.2,1.09-8.24,1.98-8.24,1.98.1.91,3.69,1.12,8.47.99.44,4.5,1.17,9.35,2.31,14.45-7.1,2.73-7.36,4.24-7.36,4.24,0,0,1.17.88,8.24-.68.1.42.23.83.34,1.25-3.59,1.25-6.24,2.42-6.08,3.05,0,0,.49.81,6.76-.73,1.82,6.04,4.32,12.31,7.69,18.67l.57,1.15,1.25.23c10.35,2.03,20.67,3.28,28.28,3.28s17.93-1.27,28.28-3.33l1.25-.23.57-1.15c3.17-6.38,5.54-12.7,7.3-18.77,6.52,1.61,6.99.78,6.99.78.21-.65-2.62-1.85-6.34-3.12.1-.42.23-.83.34-1.22,7.41,1.61,8.6.73,8.6.73,0,0-.26-1.56-7.75-4.35,1.14-5.08,1.87-9.89,2.34-14.34,5.17.16,9.18,0,9.25-.96,0,0,1.14-.91-8.97-2.03v-.16c5.98.16,10.76,0,10.89-.99,0,0,.57-1.15-10.68-2.16M91.24,47.43c4.6.83,9.23,1.93,14.01,3.31-4.78,2.19-10.27,5.18-13.15,6.79-.55-2.08-1.82-3.83-3.61-5.1.62-1.07,1.64-2.92,2.75-5ZM73.25,45.5c2.76.1,5.41.29,8.06.55-.57,1.25-1.07,2.55-1.48,3.9h-6.76c.08-1.54.16-3.02.18-4.45ZM62.15,45.53c0,1.38,0,2.84.05,4.43h-5.43c-.42-1.35-.91-2.68-1.48-3.93,2.26-.21,4.52-.39,6.86-.47M45.38,47.35c1.09,2.03,2.11,3.85,2.76,4.97-1.95,1.33-3.41,3.15-4.16,5.28-2.89-1.61-8.42-4.61-13.23-6.79,4.96-1.46,9.8-2.6,14.63-3.46ZM28.28,70.99c-.23-4.69-.18-8.8-.05-12.18,4.68,2.58,12.06,4.56,15.28,5.36v5.41c-4.06.42-9.62.94-15.21,1.41M28.75,77.39c4.91-.23,10.55-.73,14.87-1.14v9.89c.03.39.1.78.18,1.15-5.51,1.41-9.7,2.66-12.87,3.72-1.07-4.79-1.77-9.37-2.18-13.64M101.14,103.69c-3.56-1.09-15.7-4.27-33.09-4.24-17.88,0-30.31,3.41-33.4,4.42-.65-1.82-1.25-3.62-1.79-5.41,3.54-.99,8.42-2.53,15.18-4.95,2.18,1.54,4.99,2.45,8.08,2.45h23.63c3.33-.03,6.21-.89,8.4-2.42,6.47,2.29,11.23,3.8,14.74,4.76-.52,1.8-1.09,3.59-1.71,5.42M104.78,90.83c-3.12-1.07-7.23-2.26-12.53-3.59.16-.57.18-1.22.21-1.95v-9.11c4.13.39,9.62.86,14.53,1.09-.44,4.22-1.14,8.77-2.18,13.56M107.51,70.83c-5.61-.49-11.12-1.02-15.08-1.38v-5.34c3.22-.81,10.61-2.81,15.26-5.39.08,3.36.08,7.47-.18,12.11Z"/>
  <path class="st1" d="M66.57,102.18c-3.15.03-6.11.16-8.86.36,1.17,1.12,1.87,2.68,2.08,4.32,2.18-.18,4.44-.31,6.78-.34v-4.35ZM78.37,102.52c-2.78-.18-5.77-.31-8.97-.34v4.35c2.31.03,4.57.13,6.79.31.21-1.64.94-3.18,2.18-4.32ZM78.94,107.1c5.54.65,10.55,1.8,14.69,3.33,1.53.6,2.96,1.22,4.24,1.93.88-2.08,1.64-3.88,2.52-6.12-1.35-.42-4.08-1.17-8.01-1.95-2.6-.52-5.75-.99-9.31-1.38-2.47.55-3.79,2.19-4.11,4.19h-.03ZM76.37,109.57c-2.24-.21-4.55-.31-6.94-.36v10.54h.26c.68,0,1.35-.03,2.03-.05,3.59-.16,7.38-.55,11.15-1.04-2.75-2.84-5.64-5.68-6.5-9.06v-.03ZM85.1,117.04c.36.39.73.76,1.09,1.12,3.35-.52,6.6-1.09,9.59-1.72.29-.57.55-1.12.81-1.69-1.17-.65-2.5-1.28-4-1.85-3.64-1.35-8.19-2.39-13.28-3.04.96,2.16,3.25,4.69,5.8,7.13v.05ZM64.41,119.7c.65,0,1.3.05,1.92.05h.23v-10.52c-2.39.05-4.7.16-6.94.39-.81,3.38-3.61,6.25-6.37,9.09,3.77.49,7.56.86,11.15,1.01v-.03ZM56.74,109.94c-5.09.65-9.64,1.72-13.31,3.07-1.51.57-2.86,1.22-4.03,1.87.29.55.55,1.09.83,1.67,3.02.6,6.32,1.2,9.7,1.69.36-.36.73-.76,1.09-1.15,2.44-2.47,4.7-5,5.72-7.16ZM42.5,110.48c4.08-1.56,9.07-2.71,14.66-3.38-.34-2-1.66-3.62-4.13-4.17-3.61.39-6.78.88-9.41,1.41-3.69.73-6.6,1.54-8.06,1.98.81,2.03,1.66,4.06,2.65,6.12,1.3-.7,2.73-1.35,4.29-1.95ZM46.11,85.93c.47,4.43,5.02,7.39,10.01,7.39h23.63c4.89-.03,9.07-2.08,9.98-6.51.1-.57.23-1.15.23-1.82v-6.82h-.34c-2.83,0-5.33.68-7.38,2.29-1.92,1.38-2.6,2.84-2.6,2.84h-22.82v-20.7h22.82l.13,5.13c5.22,0,10.11-2.29,10.11-7.39v-.23c0-5.23-4.89-7.5-10.11-7.5h-23.63c-4.99.03-9.54,2.99-9.98,7.55v12.86l.03,12.96-.08-.05Z"/>
</svg>