<svg width="200" height="200" viewBox="0 0 200 200" fill="none" xmlns="http://www.w3.org/2000/svg">
<path d="M165.375 97.1364C162.645 95.991 155.809 93.8303 148.739 91.9039C148.817 89.0403 148.895 85.9163 148.817 82.7143C153.495 76.7529 155.627 72.1711 155.159 69.0732C154.899 67.4071 154.015 66.7043 153.729 66.522L152.872 65.9493L151.91 66.3658C149.232 67.5373 146.555 68.4224 143.488 69.2034C139.407 67.5894 135.43 66.2877 131.635 65.2985C134.26 56.0309 134.546 49.6789 132.57 46.3988C131.557 44.7327 130.309 44.3943 129.945 44.3422L128.931 44.16L128.229 44.915C121.497 52.1 114.687 56.2131 111.151 58.0875C110.787 55.7966 109.982 52.0739 108.344 45.9302C106.628 39.5002 104.133 31.0396 102.703 27.6553L102.547 27.3169L102.417 27.1867C102.287 26.8223 102.131 26.5359 101.924 26.2756C101.534 25.6248 100.832 25 99.922 25C98.8823 25 98.1284 25.781 97.7645 26.5099L97.2706 27.4991C95.867 30.7011 93.5275 39.0576 91.8119 45.9563C90.2783 52.1781 89.4985 55.9268 89.1865 58.2437C85.6514 56.3953 78.633 52.1781 71.8226 44.6546L71.1208 43.8737L70.081 44.0559C69.7171 44.134 68.4694 44.4724 67.4557 46.1125C65.4281 49.4186 65.7401 55.7966 68.3135 65.1423C64.3364 66.1836 60.4113 67.4592 56.6162 68.9431C53.6789 68.058 51.0015 67.0948 48.4801 66.0274L47.5443 65.6369L46.6865 66.1836C46.4006 66.3658 45.4908 67.0687 45.2049 68.7348C44.685 71.7546 46.6865 76.2322 51.1315 82.0375C50.9755 85.4998 51.0535 88.9101 51.1315 92.06C44.2951 93.9604 37.5627 96.0951 34.7034 97.3186C33.4557 97.7352 32 98.5682 32 100.13C32 101.692 33.5076 102.369 34.1575 102.629C34.2355 102.655 34.3394 102.707 34.4174 102.733L34.5214 102.785C37.5887 104.087 45.9327 106.404 52.6651 108.122C53.0291 110.387 53.445 112.6 53.9648 114.891C48.0122 120.201 44.945 124.549 44.893 127.829C44.867 129.599 45.6728 130.484 45.9327 130.745L46.7125 131.473L47.7263 131.187C51.0275 130.276 54.5107 129.703 58.0459 129.495C60.3593 135.951 63.2446 141.965 66.6239 147.405L67.0398 148.056L67.7936 148.238C75.9297 150.269 83.8838 151.545 91.5 152.039C93.3716 159.823 95.945 169.143 97.4786 172.579L97.9205 173.49C98.2844 174.219 99.0382 175 100.078 175C101.118 175 101.69 174.375 102.106 173.724C102.287 173.49 102.443 173.178 102.573 172.813L102.703 172.683L102.859 172.345C104.315 168.96 107.044 159.901 108.968 152.013C116.35 151.493 124.018 150.269 131.739 148.395L132.492 148.212L132.908 147.562C136.08 142.511 138.991 136.524 141.538 129.729C144.086 129.885 147.673 130.354 152.014 131.526L153.028 131.786L153.807 131.057C154.067 130.823 154.873 129.911 154.847 128.167C154.795 124.861 151.78 120.436 145.853 115.021C146.347 112.756 146.789 110.413 147.153 108.018C154.457 106.222 162.463 103.879 165.531 102.603L165.765 102.499C166.492 102.187 168 101.562 168 99.974C168 98.386 167.168 97.9434 165.349 97.1885" fill="white"/>
<path d="M164.647 98.8806C161.683 97.631 153.963 95.2621 146.815 93.3356C146.919 89.6911 147.023 85.9424 146.919 82.0635C156.225 70.453 152.689 68.058 152.689 68.058C149.284 69.5418 146.217 70.453 143.384 71.1298C138.835 69.3075 134.078 67.7195 129.295 66.6001C135.17 47.1538 129.607 46.1385 129.607 46.1385C120.535 55.8226 111.333 60.144 109.41 60.9511C110.423 59.5974 103.483 34.2155 100.962 28.3061C100.962 28.3061 100.858 28.202 100.728 27.9677C100.624 27.6293 100.494 27.395 100.39 27.2909C100.286 27.0566 100.052 26.8483 99.9479 26.8483C99.8439 26.8483 99.61 27.0826 99.506 27.3169C99.402 27.5512 99.2721 27.7595 99.0641 28.228C96.4647 34.1374 89.5504 61.5758 91.136 61.2114H91.032C91.032 61.1072 90.928 61.1072 90.928 61.1072C90.928 61.1072 80.5825 57.0201 70.4708 45.8782C70.4708 45.8782 64.9082 46.9195 70.7308 66.47C65.9739 67.6154 61.295 69.0993 56.7721 70.9215C54.0427 70.1406 50.9754 69.0993 47.8042 67.7456C47.8042 67.7456 44.295 70.0364 53.1589 81.3867C52.925 85.4738 53.0549 89.5869 53.1589 93.4398C46.0106 95.3922 38.3944 97.7872 35.4571 99.0368C35.4571 99.0368 33.9754 99.5054 33.9754 100.052C33.9754 100.599 34.8852 100.729 35.3271 100.963C38.2904 102.213 46.7904 104.582 54.4066 106.508C54.8745 109.58 55.4464 112.548 56.1222 115.489C43.8791 126.085 47.2843 129.261 47.2843 129.261C51.8332 128.011 56.0182 127.543 59.4234 127.438C61.8149 134.363 64.7782 140.637 68.3134 146.312C76.5014 148.343 84.7935 149.696 93.0855 150.165C95.0351 158.365 97.7644 168.362 99.2461 171.668L99.714 172.579C99.8179 172.813 100.052 173.022 100.156 173.022C100.26 173.022 100.494 172.787 100.598 172.579C100.702 172.475 100.832 172.241 100.936 171.902C101.04 171.668 101.17 171.564 101.17 171.564C102.651 168.153 105.589 158.261 107.512 150.165C115.466 149.696 123.42 148.447 131.349 146.494C134.858 140.923 137.821 134.545 140.29 127.725C143.696 127.829 147.907 128.402 152.56 129.651C152.56 129.651 155.965 126.449 143.8 115.672C144.475 112.704 145.047 109.632 145.489 106.456C153.105 104.634 161.735 102.109 164.803 100.859C165.349 100.625 166.154 100.364 166.154 99.9479C166.154 99.5314 164.673 98.9327 164.673 98.9327" fill="#F05023"/>
<path d="M142.162 96.0691C142.474 90.446 142.422 85.656 142.318 81.9854C146.945 78.4971 146.347 77.9764 146.347 77.9764C145.983 77.664 144.397 78.0805 142.214 78.8615C142.214 78.5231 142.188 78.2107 142.162 77.8983C147.308 73.707 145.879 73.1864 145.879 73.1864C145.229 72.7699 143.487 73.1864 141.2 74.0455L140.212 73.7591C134.727 72.1191 129.581 70.8435 124.564 69.9063C127.033 65.0902 129.295 59.9879 128.047 59.5713C127.345 59.2589 123.238 63.1638 119.911 69.1253C119.729 69.0993 119.573 69.0732 119.391 69.0472C121.912 64.1791 124.33 58.8685 123.056 58.4519C122.328 58.1135 118.013 62.2267 114.634 68.4485C111.567 68.11 108.474 67.9018 105.328 67.7976C105.406 57.2284 104.133 50.7463 102.937 50.7463C102.937 50.7463 100.415 50.564 100.182 67.6935C100.13 67.6935 100.052 67.6935 99.9996 67.6935C99.7656 67.6935 99.5317 67.6935 99.2977 67.6935C99.3757 57.1763 98.18 50.7463 96.9063 50.7463C96.9063 50.7463 94.3849 50.564 94.1509 67.8237C91.3956 67.9278 88.6662 68.1361 85.9629 68.4224C82.6356 62.2527 78.3207 58.1916 77.5928 58.504C76.3191 58.9205 78.7106 64.1791 81.232 68.9951C81.024 69.0212 80.8161 69.0472 80.6081 69.0732C77.3069 63.1638 73.2778 59.311 72.472 59.6234C71.3023 60.0399 73.5638 65.0642 76.0332 69.8282C70.7824 70.7914 65.4277 72.1191 59.6571 73.8372L58.7473 74.1236C56.4858 73.2645 54.7182 72.848 54.0944 73.2645C54.0944 73.2645 52.5607 73.7851 57.7855 77.9504C57.7855 78.2628 57.7595 78.5752 57.7595 78.9136C55.576 78.1326 54.0164 77.7421 53.6525 78.0545C53.6525 78.0545 53.0546 78.5752 57.6555 82.1156C57.4996 85.8903 57.3696 90.6803 57.6035 96.2253C47.102 97.2405 47.6479 98.3339 47.6479 98.3339C47.8038 99.2451 52.1968 99.4533 57.7855 99.3232C57.7855 99.4013 57.7855 99.4794 57.7855 99.5574C48.5837 100.651 49.5454 101.536 49.5454 101.536C49.6494 102.447 53.2366 102.655 58.0194 102.525C58.4613 107.029 59.1892 111.871 60.3329 116.973C53.2366 119.707 52.9766 121.217 52.9766 121.217C52.9766 121.217 54.1463 122.102 61.2167 120.54C61.3207 120.956 61.4506 121.373 61.5546 121.789C57.9675 123.039 55.3161 124.21 55.472 124.835C55.472 124.835 55.9659 125.642 62.2304 124.106C64.05 130.146 66.5454 136.42 69.9246 142.772L70.4965 143.917L71.7442 144.151C82.0898 146.182 92.4093 147.431 100.026 147.431C107.642 147.431 117.961 146.156 128.307 144.099L129.555 143.865L130.126 142.72C133.298 136.342 135.663 130.016 137.431 123.95C143.955 125.564 144.423 124.731 144.423 124.731C144.631 124.08 141.798 122.883 138.081 121.607C138.185 121.191 138.315 120.774 138.419 120.384C145.827 121.998 147.022 121.112 147.022 121.112C147.022 121.112 146.763 119.551 139.276 116.765C140.42 111.689 141.148 106.873 141.616 102.421C146.789 102.577 150.792 102.421 150.87 101.458C150.87 101.458 152.013 100.547 141.902 99.4273C141.902 99.3752 141.902 99.3232 141.902 99.2711C147.88 99.4273 152.663 99.2711 152.793 98.2819C152.793 98.2819 153.365 97.1364 142.11 96.1211M123.238 72.4314C127.839 73.2645 132.466 74.3579 137.249 75.7376C132.466 77.9243 126.981 80.9181 124.096 82.5321C123.55 80.4495 122.276 78.7053 120.483 77.4297C121.107 76.3624 122.12 74.5141 123.238 72.4314ZM105.25 70.505C108.006 70.6092 110.657 70.7914 113.308 71.0517C112.737 72.3013 112.243 73.6029 111.827 74.9566C111.775 74.9566 111.749 74.9566 111.697 74.9566H105.068C105.146 73.4207 105.224 71.9368 105.25 70.505ZM94.1509 70.5311C94.1509 71.9108 94.1509 73.3686 94.2029 74.9566H88.7702C88.3543 73.6029 87.8604 72.2753 87.2885 71.0257C89.55 70.8174 91.8115 70.6352 94.1509 70.5571M77.3849 72.3534C78.4766 74.3839 79.4904 76.2062 80.1402 77.3256C78.1907 78.6532 76.735 80.4755 75.9812 82.6102C73.0959 80.9962 67.5592 78.0024 62.7503 75.8157C67.7152 74.3579 72.55 73.2124 77.3849 72.3534ZM60.2809 95.991C60.047 91.3051 60.0989 87.192 60.2289 83.8077C64.9078 86.3849 72.2901 88.3634 75.5133 89.1704V94.5852C71.4583 95.0017 65.8956 95.5224 60.3069 95.991M60.7488 102.395C65.6616 102.161 71.3023 101.666 75.6173 101.25V111.142C75.6433 111.532 75.7213 111.923 75.7993 112.287C70.2886 113.693 66.1035 114.943 62.9323 116.01C61.8665 111.22 61.1647 106.638 60.7488 102.369M133.142 128.688C129.581 127.595 117.441 124.419 100.052 124.445C82.1678 124.445 69.7427 127.855 66.6494 128.87C65.9996 127.048 65.4017 125.252 64.8558 123.455C68.391 122.466 73.2778 120.93 80.0363 118.509C82.2197 120.045 85.0271 120.956 88.1204 120.956H111.749C115.076 120.93 117.961 120.071 120.145 118.535C126.617 120.826 131.374 122.336 134.883 123.299C134.363 125.095 133.792 126.892 133.168 128.714M136.781 115.828C133.662 114.761 129.555 113.563 124.252 112.235C124.408 111.663 124.434 111.012 124.46 110.283V101.171C128.593 101.562 134.078 102.031 138.99 102.265C138.548 106.482 137.847 111.038 136.807 115.828M139.51 95.8348C133.896 95.3402 128.385 94.8195 124.434 94.4551V89.1184C127.657 88.3114 135.039 86.3068 139.692 83.7296C139.77 87.0878 139.77 91.201 139.51 95.8348Z" fill="white"/>
<path d="M98.57 127.178C95.4248 127.204 92.4615 127.334 89.7061 127.543C90.8758 128.662 91.5777 130.224 91.7856 131.864C93.9691 131.682 96.2306 131.552 98.57 131.525V127.178ZM110.371 127.516C107.59 127.334 104.601 127.204 101.403 127.178V131.525C103.717 131.552 105.978 131.656 108.188 131.838C108.396 130.198 109.124 128.662 110.371 127.516ZM110.943 132.098C116.48 132.749 121.497 133.894 125.63 135.43C127.163 136.029 128.593 136.654 129.867 137.357C130.75 135.274 131.504 133.478 132.388 131.239C131.036 130.823 128.307 130.068 124.382 129.287C121.783 128.766 118.637 128.297 115.076 127.907C112.607 128.454 111.281 130.094 110.969 132.098H110.943ZM108.37 134.571C106.134 134.363 103.821 134.259 101.429 134.207V144.75C101.533 144.75 101.611 144.75 101.689 144.75C102.365 144.75 103.041 144.724 103.717 144.698C107.304 144.542 111.099 144.151 114.868 143.657C112.113 140.819 109.228 137.982 108.37 134.597V134.571ZM117.104 142.043C117.468 142.433 117.831 142.798 118.195 143.162C121.549 142.641 124.798 142.069 127.787 141.444C128.073 140.871 128.333 140.325 128.593 139.752C127.423 139.101 126.098 138.476 124.59 137.903C120.951 136.55 116.402 135.509 111.307 134.858C112.269 137.018 114.556 139.544 117.104 141.991V142.043ZM96.4125 144.698C97.0624 144.698 97.7122 144.75 98.3361 144.75H98.57V134.233C96.1786 134.285 93.8651 134.389 91.6297 134.623C90.8239 138.008 88.0165 140.871 85.2612 143.709C89.0303 144.203 92.8254 144.568 96.4125 144.724V144.698ZM88.7443 134.936C83.6495 135.587 79.1006 136.654 75.4355 138.008C73.9278 138.58 72.5761 139.231 71.4064 139.882C71.6924 140.429 71.9523 140.975 72.2382 141.548C75.2535 142.147 78.5547 142.746 81.9339 143.24C82.2979 142.876 82.6618 142.485 83.0257 142.095C85.4691 139.622 87.7306 137.096 88.7443 134.936ZM74.4997 135.482C78.5807 133.921 83.5716 132.775 89.1602 132.098C88.8223 130.094 87.4966 128.48 85.0272 127.933C81.4141 128.323 78.2428 128.818 75.6174 129.339C71.9263 130.068 69.015 130.875 67.5593 131.317C68.3651 133.348 69.2229 135.378 70.2107 137.435C71.5104 136.732 72.9401 136.081 74.4997 135.482ZM78.1128 110.934C78.5807 115.359 83.1297 118.327 88.1205 118.327H111.749C116.636 118.301 120.821 116.244 121.731 111.819C121.835 111.246 121.965 110.673 121.965 109.997V103.176H121.627C118.793 103.176 116.298 103.853 114.244 105.467C112.321 106.847 111.645 108.304 111.645 108.304H88.8223V87.6085H111.645L111.775 92.7369C117 92.7369 121.887 90.446 121.887 85.3436V85.1093C121.887 79.8768 117 77.6119 111.775 77.6119H88.1465C83.1557 77.638 78.6067 80.6057 78.1648 85.1614V98.0215L78.1908 110.986L78.1128 110.934Z" fill="#0A2240"/>
</svg>
