<?xml version="1.0" encoding="UTF-8" standalone="no"?>
<!-- Created with Inkscape (http://www.inkscape.org/) -->

<svg
   version="1.1"
   id="svg2"
   width="768"
   height="479.05334"
   viewBox="0 0 768 479.05334"
   sodipodi:docname="DWings_Primary_Icon_rgb.eps"
   xmlns:inkscape="http://www.inkscape.org/namespaces/inkscape"
   xmlns:sodipodi="http://sodipodi.sourceforge.net/DTD/sodipodi-0.dtd"
   xmlns="http://www.w3.org/2000/svg"
   xmlns:svg="http://www.w3.org/2000/svg">
  <defs
     id="defs6" />
  <sodipodi:namedview
     id="namedview4"
     pagecolor="#ffffff"
     bordercolor="#000000"
     borderopacity="0.25"
     inkscape:showpageshadow="2"
     inkscape:pageopacity="0.0"
     inkscape:pagecheckerboard="0"
     inkscape:deskcolor="#d1d1d1" />
  <g
     id="g8"
     inkscape:groupmode="layer"
     inkscape:label="ink_ext_XXXXXX"
     transform="matrix(1.3333333,0,0,-1.3333333,0,479.05333)">
    <g
       id="g10"
       transform="scale(0.1)">
      <path
         d="m 5532.2,2941.26 72.64,124.44 -133.47,-58.38 c -43.72,-19.11 -96.69,-35.46 -148.7,-48.87 268.31,192.02 437.33,634.41 437.33,634.41 l -105.86,-64.72 -32.95,-19.39 c -5.06,-3.01 -512.38,-304.36 -1190.88,-541.52 -167.45,-58.52 -316.44,-100.38 -447.9,-137.29 -411.58,-115.6 -660.01,-185.39 -642.24,-561.72 6.61,-140.49 -19.53,-245.25 -75.69,-302.98 -17.67,-18.15 -36.93,-30.28 -55.51,-38.36 -6.88,8.91 -10.51,25.98 -10.51,64.72 1.73,48.71 65.83,208.82 65.83,208.82 71.42,178.56 38.71,307.42 38.71,307.42 0,0 -27.09,41.6 -67.27,81.96 112.82,151.84 54.14,328.34 51.35,336.41 l -12.34,35.83 -38.29,-4.28 c -111.67,-12.57 -208.81,-47.46 -275.72,-99.21 -16.74,18.16 -30.38,28.07 -32.64,29.7 l -64.21,45.22 -10.9,-76.09 c -34.98,11.35 -73.75,14.09 -73.75,14.09 -60.55,38.68 -144,73.72 -255.68,86.29 l -38.3,4.28 -12.33,-35.83 c -2.79,-8.07 -61.46,-184.57 51.34,-336.41 -40.17,-40.36 -67.26,-81.96 -67.26,-81.96 0,0 -32.71,-128.86 38.71,-307.42 0,0 64.1,-160.11 65.83,-208.82 0,-38.74 -3.63,-55.81 -10.5,-64.72 -18.59,8.08 -37.85,20.21 -55.53,38.36 -56.15,57.73 -82.29,162.49 -75.68,302.98 17.77,376.33 -230.66,446.12 -642.25,561.72 -131.45,36.91 -280.44,78.77 -447.9,137.29 -678.489,237.16 -1185.817,538.51 -1190.875,541.52 l -32.95,19.39 L 0,3592.86 c 0,0 169.02,-442.39 437.328,-634.41 -52.012,13.41 -104.973,29.76 -148.695,48.87 l -133.473,58.38 72.641,-124.44 c 5.816,-9.97 119.109,-201.28 308.996,-332.32 -17.402,-0.38 -35.375,-0.64 -53.434,-0.64 -64.457,0 -117.543,2.99 -157.769,8.86 l -137.129,19.97 95.551,-98.6 c 8.879,-9.19 179.195,-183.43 362.07,-271.63 -51.281,-14.96 -112.051,-29.59 -170.664,-36.27 l -99.641,-11.38 71.793,-68.69 c 7.102,-6.81 154.246,-145.77 412.422,-255.49 -122.117,-31.07 -199.379,-47.86 -199.379,-47.86 57.145,-68.43 132.504,-163.24 234.559,-279.58 h -1.172 C 1508.57,871.391 1961.22,593 2430.39,275.43 2562.09,186.281 2877.79,0 2877.79,0 c 0,0 320.11,186.281 451.82,275.43 C 3798.78,593 4251.42,871.391 4866,1567.63 h -1.17 c 102.05,116.34 177.41,211.15 234.56,279.58 0,0 -77.27,16.79 -199.39,47.86 258.18,109.72 405.32,248.68 412.42,255.49 l 71.8,68.69 -99.64,11.38 c -58.61,6.68 -119.38,21.31 -170.66,36.27 182.87,88.2 353.18,262.44 362.07,271.63 l 95.54,98.6 -137.13,-19.97 c -40.22,-5.87 -93.31,-8.86 -157.77,-8.86 -18.06,0 -36.02,0.26 -53.44,0.64 189.9,131.04 303.19,322.35 309.01,332.32 v 0"
         style="fill:#4aaae4;fill-opacity:1;fill-rule:nonzero;stroke:none"
         id="path12" />
      <path
         d="m 5490.77,2964.54 c -145.05,-63.44 -381.07,-96.71 -381.07,-96.71 320.95,174.49 491.7,500.85 537.62,599.54 -0.81,0.88 -1.29,1.4 -1.29,1.4 0,0 -508.13,-303.95 -1199.7,-545.66 -691.57,-241.74 -1079.64,-203.78 -1058.47,-652.71 13.42,-285.23 -101.26,-371.22 -186.77,-396.1 -33.41,19.2 -50.29,31.57 -50.29,118.96 1.79,50.38 35.63,140.55 66.35,217.16 0.76,1.91 1.42,3.81 2.15,5.7 0.2,0.5 0.37,0.89 0.56,1.39 66.61,166.5 38.35,273.39 38.35,273.39 -3.23,6.06 -7.29,12 -11.8,17.77 -34.75,47.86 -79.5,73.68 -79.5,73.68 139.91,140.28 74.99,328.86 74.99,328.86 -0.27,-0.02 -0.51,-0.07 -0.77,-0.1 l -0.05,0.1 c -141.57,-15.91 -233.08,-70.17 -288.83,-119.35 -24.08,38.53 -52.1,58.39 -52.1,58.39 0,0 -4.46,-33.22 -20.14,-53.27 -15.69,20.05 -20.14,53.27 -20.14,53.27 0,0 -28.04,-19.86 -52.1,-58.39 -55.75,49.18 -147.27,103.44 -288.85,119.35 l -0.03,-0.1 c -0.26,0.03 -0.5,0.08 -0.76,0.1 0,0 -64.93,-188.58 74.99,-328.86 0,0 -44.76,-25.82 -79.51,-73.68 -4.51,-5.77 -8.57,-11.71 -11.81,-17.77 0,0 -28.25,-106.89 38.35,-273.39 0.19,-0.5 0.36,-0.89 0.57,-1.39 0.74,-1.89 1.39,-3.79 2.15,-5.7 30.71,-76.61 64.56,-166.78 66.35,-217.16 0,-98.46 -25.93,-101.12 -50.31,-118.96 -85.5,24.88 -200.17,110.87 -186.75,396.1 21.17,448.93 -366.91,410.97 -1058.47,652.71 -691.577,241.71 -1199.694,545.66 -1199.694,545.66 0,0 -0.484,-0.52 -1.305,-1.4 45.926,-98.69 216.668,-425.05 537.633,-599.54 0,0 -236.035,33.27 -381.086,96.71 0,0 169.328,-290.08 437.492,-393.73 0,0 -243.843,-21 -388.121,0 0,0 261.09,-269.35 472.801,-303.87 0,0 -160.496,-65.78 -310.531,-82.86 0,0 193.887,-185.52 528.391,-294.93 -130.938,-41.29 -263.672,-70.9 -263.672,-70.9 0,0 545.712,-680.31 1245.542,-1171.941 C 2303.42,426.922 2543.5,250.73 2879.99,53.2383 l 0.02,0.1133 0.02,-0.1133 C 3216.52,250.73 3456.59,426.922 3768.88,646.309 4468.7,1137.94 5014.43,1818.25 5014.43,1818.25 c 0,0 -132.74,29.61 -263.69,70.9 334.51,109.41 528.4,294.93 528.4,294.93 -150.04,17.08 -310.55,82.86 -310.55,82.86 211.72,34.52 472.82,303.87 472.82,303.87 -144.28,-21 -388.12,0 -388.12,0 268.17,103.65 437.48,393.73 437.48,393.73 v 0"
         style="fill:#1e2e57;fill-opacity:1;fill-rule:nonzero;stroke:none"
         id="path14" />
      <path
         d="m 2194.52,636.621 c 78.54,-58.781 160.27,-115.152 239.46,-167.109 21.1,42.519 48.32,81.527 80.57,115.957 l -320.03,51.152 v 0"
         style="fill:#4aaae4;fill-opacity:1;fill-rule:nonzero;stroke:none"
         id="path16" />
      <path
         d="m 3565.91,636.621 -324.1,-52 c 32.51,-34.859 59.89,-74.402 80.94,-117.5 80.37,52.598 163.38,109.777 243.16,169.5 v 0 0"
         style="fill:#4aaae4;fill-opacity:1;fill-rule:nonzero;stroke:none"
         id="path18" />
      <path
         d="m 3108.16,332.281 c 30.11,19.778 60.84,40.438 91.66,61.731 -38.6,38.078 -90.86,72.808 -161.94,93.898 6.18,-57.648 35.33,-108.051 70.28,-155.629 v 0 0"
         style="fill:#ffffff;fill-opacity:1;fill-rule:nonzero;stroke:none"
         id="path20" />
      <path
         d="M 2907.1,508.531 V 206.48 c 46.84,27.821 100,60.461 156.3,96.629 -41.53,56.922 -77.28,120.86 -80.11,197.5 -23.67,4.102 -48.99,6.852 -76.19,7.922 v 0 0"
         style="fill:#b6da17;fill-opacity:1;fill-rule:nonzero;stroke:none"
         id="path22" />
      <path
         d="m 2777.2,500.699 c -2.87,-76.679 -38.62,-140.621 -80.1,-197.508 56.29,-36.191 109.41,-68.902 156.34,-96.722 v 302.062 c -27.22,-1.07 -52.59,-3.73 -76.24,-7.832 v 0 0"
         style="fill:#ffffff;fill-opacity:1;fill-rule:nonzero;stroke:none"
         id="path24" />
      <path
         d="m 2560.25,394.371 c 30.97,-21.41 61.8,-42.141 92.06,-62.039 34.94,47.629 64.09,98.027 70.25,155.727 -71.3,-21.008 -123.67,-55.637 -162.31,-93.688 v 0 0"
         style="fill:#b6da17;fill-opacity:1;fill-rule:nonzero;stroke:none"
         id="path26" />
      <path
         d="m 2907.1,561.16 c 27.98,-1.051 54.4,-3.551 79.12,-7.609 6.35,39.14 22.08,69.687 47,91.23 2.55,2.18 5.17,4.239 7.84,6.18 -41.75,16.84 -86.81,27.5 -133.96,30.398 v -120.199 0"
         style="fill:#ffffff;fill-opacity:1;fill-rule:nonzero;stroke:none"
         id="path28" />
      <path
         d="m 2721.77,542.211 c -4.09,27.891 -13.94,48.918 -29.55,62.629 -10.39,9.129 -22.21,13.808 -32.61,16.32 -71.48,-42.84 -128.92,-105.93 -164.26,-181.058 7.39,-5.293 14.74,-10.563 22.09,-15.813 47.1,48.871 112.82,93.453 204.33,117.922 v 0 0"
         style="fill:#ffffff;fill-opacity:1;fill-rule:nonzero;stroke:none"
         id="path30" />
      <path
         d="m 3100.75,621.199 c -10.38,-2.508 -22.11,-7.219 -32.53,-16.359 -15.6,-13.668 -25.48,-34.699 -29.56,-62.61 91.53,-24.48 157.28,-69.109 204.37,-118 7.32,5.211 14.7,10.481 22.05,15.739 -35.31,75.25 -92.78,138.32 -164.33,181.23 v 0 0"
         style="fill:#b6da17;fill-opacity:1;fill-rule:nonzero;stroke:none"
         id="path32" />
      <path
         d="m 2727.2,644.73 c 24.91,-21.519 40.63,-52.101 47.06,-91.16 24.68,4.032 51.13,6.539 79.17,7.571 V 681.34 c -47.25,-2.91 -92.27,-13.52 -134.06,-30.399 2.64,-1.929 5.25,-3.992 7.83,-6.211 v 0 0"
         style="fill:#b6da17;fill-opacity:1;fill-rule:nonzero;stroke:none"
         id="path34" />
      <path
         d="m 2277.63,2122.46 c -19.36,135.29 15.2,235.6 -26.96,309.1 -73.66,128.5 -174.12,158.67 -479.52,247.8 -305.42,89.15 -668.81,178.55 -1235.951,451.14 0,0 274.723,-230.6 654.991,-352.32 380.21,-121.75 439.73,-143.5 677.78,-207.7 238.02,-64.16 327.12,-143.84 325.82,-253.48 -1.04,-87.71 -29.99,-391.21 190.06,-530.35 -51.8,90.54 -93.89,208.58 -106.22,335.81 v 0"
         style="fill:#4aaae4;fill-opacity:1;fill-rule:nonzero;stroke:none"
         id="path36" />
      <path
         d="m 3989.34,2679.36 c -305.4,-89.13 -405.86,-119.3 -479.53,-247.8 -39.42,-68.74 -11.76,-160.94 -23.84,-283.25 0.04,0.04 0.43,0.54 0.43,0.54 -8.5,-137.09 -53.64,-264.89 -108.89,-361.62 219.09,139.37 190.22,442.18 189.2,529.77 -1.32,109.64 87.78,189.32 325.81,253.48 238.03,64.2 297.57,85.95 677.78,207.7 380.24,121.72 654.96,352.32 654.96,352.32 -567.1,-272.59 -930.51,-361.99 -1235.92,-451.14 v 0"
         style="fill:#4aaae4;fill-opacity:1;fill-rule:nonzero;stroke:none"
         id="path38" />
      <path
         d="m 2471.21,1553.27 c 0,0 -9.1,6.11 -24.43,17.86 -39.28,29.15 -119.75,94.49 -191.12,181.46 -53.64,72.86 -140.83,214.37 -141.77,366.69 -1.44,220.94 31.61,287.23 -268.71,372.79 -300.33,86.04 -780.27,220.96 -1066.7,299.46 0,0 149.922,-128.34 476.12,-219.07 326.18,-90.73 643.27,-198.38 643.27,-198.38 0,0 -859.3,64.4 -1110.284,108.12 0,0 126.449,-95.43 538.374,-148.55 411.45,-53.13 654.77,-62.53 654.77,-62.53 0,0 -803.73,-106.72 -1104.535,-103.43 0,0 137.945,-66.75 537.895,-46.54 382.23,19.28 559.92,51.73 575.26,54.54 -16.76,-13.16 -298.88,-222.36 -946.95,-372.8 0,0 277.82,-11.75 518.74,62.99 190.63,59.24 419.59,183.35 452.64,201.21 -10.06,-16.92 -155.67,-252.91 -719.43,-560.83 29.22,7.52 503.4,133.03 750.07,439.08 -33.03,-100.61 -127.88,-320.14 -396.1,-644.05 0,0 305.11,201.21 441.14,493.61 10.06,-101.54 27.78,-331.42 1.43,-490.33 0,0 107.78,169.72 93.89,408.06 57.95,-55.47 138.9,-109.53 253.38,-148.56 10.54,-3.76 21.55,-7.52 33.05,-10.8 z m -455.04,513.82 -0.95,0.95 c 0.95,0.47 1.44,0.93 2.39,0.93 -0.47,-0.46 -0.95,-0.93 -1.44,-1.88 v 0"
         style="fill:#b6da17;fill-opacity:1;fill-rule:nonzero;stroke:none"
         id="path40" />
      <path
         d="M 4971.5,2482.2 C 4721,2438.48 3861.7,2374.08 3861.7,2374.08 c 0,0 317.08,107.65 643.27,198.38 326.18,90.73 476.11,219.07 476.11,219.07 -286.43,-78.5 -766.37,-213.42 -1066.69,-299.46 -300.33,-85.56 -267.76,-151.85 -269.19,-372.79 -0.48,-152.32 -87.66,-293.83 -141.3,-366.69 -75.21,-91.66 -160.94,-159.37 -197.35,-186.15 -9.58,-7.06 -15.81,-11.29 -17.72,-12.7 8.14,2.34 15.81,4.69 23.48,7.52 119.26,39.02 203.08,94.48 262.48,151.37 -14.38,-238.34 93.38,-408.06 93.38,-408.06 -25.84,158.91 -8.13,388.79 1.94,490.33 136.02,-292.4 440.65,-493.61 440.65,-493.61 -267.74,323.91 -363.06,543.44 -395.63,644.05 246.19,-306.05 720.87,-431.56 750.09,-439.08 -563.77,307.92 -709.38,543.91 -719.44,560.83 33.05,-17.86 261.53,-141.97 452.64,-201.21 240.93,-74.74 518.26,-62.99 518.26,-62.99 -648.07,150.44 -929.71,359.64 -946.47,372.8 15.33,-2.81 193.03,-35.26 575.26,-54.54 399.95,-20.21 537.9,46.54 537.9,46.54 -300.8,-3.29 -1104.54,103.43 -1104.54,103.43 0,0 242.84,9.4 654.77,62.53 411.93,53.12 537.9,148.55 537.9,148.55 z M 3743.39,2067.09 c -0.48,0.95 -1.44,1.42 -1.44,1.88 0.96,0 1.44,-0.46 2.4,-0.93 l -0.96,-0.95 v 0"
         style="fill:#b6da17;fill-opacity:1;fill-rule:nonzero;stroke:none"
         id="path42" />
      <path
         d="m 3334.42,1010.33 c -37.09,51.87 -74.07,52.35 -92.89,181.43 l -134.38,-143.4 v 0.01 -0.01 c 19.59,211.36 -6.48,450.35 -25.9,591.15 l -35.15,-101.29 c 0,0 -43.57,-48.43 -167.15,-38.07 l -3.66,0.45 -3.65,-0.45 c -123.58,-10.36 -167.17,38.07 -167.17,38.07 l -35.13,101.3 c -19.44,-140.8 -45.49,-379.79 -25.9,-591.16 l -134.39,143.4 c -18.82,-129.08 -55.8,-129.56 -92.9,-181.43 -30.3,-42.35 -58.09,-97.228 -88.14,-194.26 24.42,-64.531 65.39,-133.558 66.99,-136.25 l 163.76,-32.648 c 115.31,75.32 223.24,100.148 316.53,100.367 93.29,-0.219 201.22,-25.047 316.54,-100.367 l 163.76,32.648 c 1.59,2.68 42.56,71.719 66.98,136.25 -30.04,97.032 -57.83,151.91 -88.15,194.26 v 0"
         style="fill:#ffffff;fill-opacity:1;fill-rule:nonzero;stroke:none"
         id="path44" />
      <path
         d="m 2340.33,690.73 0.02,-0.011 -0.02,0.011 v 0 0"
         style="fill:#ffffff;fill-opacity:1;fill-rule:nonzero;stroke:none"
         id="path46" />
      <path
         d="m 3410.26,690.73 -0.09,-0.031 0.09,0.031 v 0 0"
         style="fill:#ffffff;fill-opacity:1;fill-rule:nonzero;stroke:none"
         id="path48" />
      <path
         d="m 3573,724.449 c -3.57,49.731 -43.68,153.461 -116.4,260.922 12.13,-60.019 -30.33,-163.519 -30.62,-160.57 -13.47,135.14 -35.96,200.059 -59.9,242.369 v 0.47 c -9.11,15.51 -21.77,35.02 -30.18,41.84 -33.32,33.87 -64.67,117.99 -64.67,117.99 l -29.7,-35.71 v 0 c 18.82,-129.08 55.8,-129.56 92.89,-181.43 30.32,-42.35 58.11,-97.228 88.15,-194.26 -24.42,-64.531 -65.39,-133.57 -66.98,-136.25 -0.03,-0.039 -0.3,-0.48 -0.3,-0.48 l 54.88,11.359 0.09,0.031 162.74,33.719 v 0"
         style="fill:#b6da17;fill-opacity:1;fill-rule:nonzero;stroke:none"
         id="path50" />
      <path
         d="m 2416.15,1010.33 c 37.1,51.87 74.08,52.35 92.9,181.43 l -29.7,35.71 c 0,0 -31.34,-84.12 -64.66,-117.99 -8.41,-6.82 -21.08,-26.33 -30.18,-41.84 v -0.47 c -23.95,-42.31 -46.44,-107.229 -59.89,-242.369 -0.31,-2.949 -42.76,100.551 -30.63,160.57 C 2221.27,877.91 2181.16,774.18 2177.59,724.449 l 162.74,-33.719 0.02,-0.011 54.94,-11.379 c 0,0 -0.26,0.441 -0.29,0.48 -1.6,2.692 -42.57,71.719 -66.99,136.25 30.05,97.032 57.84,151.91 88.14,194.26 v 0"
         style="fill:#b6da17;fill-opacity:1;fill-rule:nonzero;stroke:none"
         id="path52" />
      <path
         d="m 2669.34,1639.52 v 0 l -41.5,119.65 c -52.17,-178.14 -59.67,-288.18 -59.67,-386.34 0,-156.64 42.87,-272.2 75.27,-324.47 -19.59,211.37 6.46,450.36 25.9,591.16 v 0"
         style="fill:#b6da17;fill-opacity:1;fill-rule:nonzero;stroke:none"
         id="path54" />
      <path
         d="m 3107.15,1048.36 v 0.01 c 32.4,52.28 75.25,167.83 75.25,324.46 0,98.16 -7.5,208.2 -59.65,386.34 l -41.5,-119.65 c 0,-0.01 0,-0.01 0,-0.01 19.42,-140.8 45.49,-379.79 25.9,-591.15 v 0"
         style="fill:#b6da17;fill-opacity:1;fill-rule:nonzero;stroke:none"
         id="path56" />
      <path
         d="m 2711.06,2592.48 c -23.88,-22.7 -52.69,-53.65 -63.64,-79.71 47.68,63.94 107.69,88.95 107.69,88.95 -13.57,94.57 -114.25,178.29 -167.78,216.68 -8.78,-126.99 72.92,-195.71 123.73,-225.92 v 0"
         style="fill:#b6da17;fill-opacity:1;fill-rule:nonzero;stroke:none"
         id="path58" />
      <path
         d="m 2721.22,1860.71 c 0,0 18.19,20.23 34.96,55.48 58.44,98.25 26.82,214.37 15.32,264.2 -6.22,28.68 -8.61,45.17 -8.61,45.17 0,0 -12.89,19.37 -40.63,34.23 -27.7,14.9 -36.98,20.06 -47.54,42.03 -10.56,21.99 -3.89,46.81 -3.89,46.81 -9.82,-6.87 -25.8,-30.03 -25.8,-30.03 -21.8,29.76 -2.96,48.86 -2.96,48.86 -18.78,38.48 -19.22,57.26 -19.22,57.26 -19.16,15.99 -39.58,36.33 -39.58,36.33 0,0 -0.48,-3.29 -0.48,-9.88 -2.88,-36.19 -5.27,-167.82 80.47,-219.53 0,0 -6.23,-56.42 22.99,-140.57 1.44,-5.17 11.5,-31.97 11.5,-31.97 8.48,19.05 15.35,62.31 16.28,74.75 15.33,-36.66 40.71,-126.94 7.19,-273.14 v 0"
         style="fill:#b6da17;fill-opacity:1;fill-rule:nonzero;stroke:none"
         id="path60" />
      <path
         d="m 3112,2512.77 c -10.98,26.06 -39.83,57.01 -63.68,79.71 50.84,30.21 132.48,98.93 123.7,225.92 -53.52,-38.39 -154.18,-122.11 -167.75,-216.68 0,0 60.04,-25.01 107.73,-88.95 v 0"
         style="fill:#b6da17;fill-opacity:1;fill-rule:nonzero;stroke:none"
         id="path62" />
      <path
         d="m 2879.78,1619.08 c -27.01,0 -60.83,6.12 -82.87,13.17 l -11.97,4.21 8.62,-31.01 1.44,-1.41 c 0.96,-0.94 26.35,-23.04 84.78,-23.04 58.44,0 83.81,22.1 84.78,23.04 l 1.44,1.41 8.62,31.01 -11.49,-4.21 c -22.52,-7.05 -56.34,-13.17 -83.35,-13.17 v 0"
         style="fill:#b6da17;fill-opacity:1;fill-rule:nonzero;stroke:none"
         id="path64" />
      <path
         d="m 3176.54,2451.17 c 0,6.59 -0.47,9.88 -0.47,9.88 0,0 -20.2,-20.34 -39.36,-36.33 0,0 -0.43,-18.78 -19.23,-57.26 0,0 18.86,-19.1 -2.94,-48.86 0,0 -15.98,23.16 -25.81,30.03 0,0 6.68,-24.82 -3.9,-46.81 -10.55,-21.97 -19.83,-27.13 -47.53,-42.03 -27.74,-14.86 -40.63,-34.23 -40.63,-34.23 0,0 -2.62,-16.49 -8.84,-45.17 -11.5,-49.83 -43.11,-165.95 15.33,-264.2 16.76,-35.25 34.96,-55.95 34.96,-55.95 v 0.47 c -33.53,146.2 -8.14,236.48 7.18,273.14 0.93,-12.44 7.81,-55.7 16.29,-74.75 0,0 10.06,26.8 11.5,31.97 29.22,84.15 22.99,140.57 22.99,140.57 85.74,51.71 83.34,183.34 80.46,219.53 v 0"
         style="fill:#b6da17;fill-opacity:1;fill-rule:nonzero;stroke:none"
         id="path66" />
      <path
         d="m 3013.18,1774.68 c -0.01,-0.02 -0.61,-0.06 -0.71,-0.09 -0.28,-0.47 -0.2,-0.95 -0.55,-1.42 -17.4,-24.39 -36.75,-22.87 -36.75,-22.87 0,0 15.46,18.3 -9.66,35.08 0,0 -21.28,-21.25 -52.21,-33.43 0,0 -20.9,-8.28 -33.63,-8.28 -12.46,0 -34.2,8.28 -34.2,8.28 -30.87,12.17 -52.14,33.37 -52.18,33.41 -0.03,-0.01 -0.06,-0.02 -0.09,-0.04 -25.04,-16.77 -9.6,-35.02 -9.6,-35.02 0,0 -19.35,-1.52 -36.77,22.87 -0.34,0.5 -0.27,1.01 -0.57,1.49 -0.01,0.01 -0.11,0.02 -0.12,0.02 -26.3,21.36 -44.06,55.95 -44.06,55.95 -11.25,-17.82 57.96,-140.56 57.96,-140.56 30.21,-19.62 79.23,-30.01 119.47,-30.07 v -0.03 c 0.05,0 0.11,0.01 0.16,0.01 0.05,0 0.11,-0.01 0.16,-0.01 v 0.03 c 40.24,0.06 89.25,10.45 119.47,30.07 0,0 69.21,122.74 57.96,140.56 0,0 -17.77,-34.59 -44.08,-55.95 v 0"
         style="fill:#b6da17;fill-opacity:1;fill-rule:nonzero;stroke:none"
         id="path68" />
      <path
         d="m 3112.09,2512.76 c -0.1,0.12 -0.18,0.22 -0.27,0.35 0.04,-0.12 0.13,-0.23 0.18,-0.34 -47.69,63.94 -107.73,88.95 -107.73,88.95 13.56,94.51 114.07,178.16 167.64,216.6 -0.6,-0.16 -118.87,-29.77 -171.9,-93.54 l -15.81,-19.28 c 7.67,-55.95 -3.83,-127.87 -61.31,-214.84 -44.07,-66.75 -11.97,-117.53 -11.97,-117.53 0,0 -50.78,2.83 -84.31,69.58 -42.62,85.09 28.26,153.73 -31.13,237.88 l -20.12,25.38 c -32.09,37.14 -68.03,62.53 -99.14,79.45 -45.99,22.57 -88.62,32.91 -88.62,32.91 0.03,-0.07 0.07,-0.12 0.1,-0.19 53.59,-38.5 153.87,-122.04 167.41,-216.42 0,0 -58.66,-24.61 -106.08,-87 -0.52,-0.69 -1.03,-1.26 -1.56,-1.96 0,0 -44.06,-25.38 -64.18,-51.71 l 0.01,-0.02 c 0.07,-0.08 20.43,-20.35 39.55,-36.31 56.07,-48.55 86.27,-56.23 119.94,-95.64 48.82,-57.13 20.1,-103.52 20.1,-103.52 0,0 2.39,-16.49 8.61,-45.17 11.5,-49.83 43.12,-165.95 -15.32,-264.2 -16.77,-35.25 -34.96,-55.48 -34.96,-55.48 l -19.14,-30.08 c 0,0 17.76,-34.59 44.06,-55.95 0.01,0 0.11,-0.01 0.12,-0.02 -19.61,31.37 43.12,67.14 43.12,67.14 29.86,-19.37 52.28,-79.17 56.09,-89.85 0,0 21.74,-8.28 34.2,-8.28 12.73,0 33.63,8.28 33.63,8.28 0.76,2.21 23.72,68.84 56.1,89.85 0,0 62.87,-35.83 43.07,-67.21 0.1,0.03 0.7,0.07 0.71,0.09 26.31,21.36 44.08,55.95 44.08,55.95 l -19.14,29.61 c 0,0 -18.2,20.7 -34.96,55.95 -58.44,98.25 -26.83,214.37 -15.33,264.2 6.22,28.68 8.84,45.17 8.84,45.17 0,0 -28.72,46.39 20.1,103.52 33.67,39.41 63.87,47.09 119.94,95.64 19.16,15.99 39.36,36.33 39.36,36.33 -20.12,26.33 -63.98,51.71 -63.98,51.71 v 0"
         style="fill:#ffffff;fill-opacity:1;fill-rule:nonzero;stroke:none"
         id="path70" />
    </g>
  </g>
</svg>
