<?xml version="1.0" encoding="UTF-8"?>
<svg xmlns="http://www.w3.org/2000/svg" version="1.1" viewBox="0 0 648 648">
  <defs>
    <style>
      .cls-1 {
        fill: #b896d4;
      }
    </style>
  </defs>
  <!-- Generator: Adobe Illustrator 28.7.1, SVG Export Plug-In . SVG Version: 1.2.0 Build 142)  -->
  <g>
    <g id="Layer_1">
      <g>
        <polygon points="35.82 14.84 323.82 92.01 611.82 14.84 323.82 632.46 35.82 14.84"/>
        <path class="cls-1" d="M323.82,112.2L71.17,44.5l252.65,541.81L576.47,44.5l-252.65,67.7ZM297.45,349.79l6.53-85.46h16.33l-.6,76.74h8.22l-.6-76.74h16.33l6.53,85.46h-52.75ZM326.73,187.17h11.04l4.97,65.14h-37.86l4.97-65.14h11.04l-.44,55.98h6.7l-.44-55.98ZM296.24,126.12l-113.74,121.25-25.85-55.44,139.59-65.81ZM151.25,180.36l-22.62-48.51,163.57-10.28-140.95,58.79ZM299.11,131.54l-79.32,195.8-31.43-67.41,110.75-128.4ZM304.24,133.98l-34.41,300.66-42.6-91.36,77.02-209.29ZM343.41,133.98l77.02,209.29-42.6,91.36-34.41-300.66ZM348.54,131.54l110.75,128.4-31.43,67.41-79.32-195.8ZM351.4,126.12l139.59,65.81-25.85,55.44-113.74-121.25ZM355.45,121.57l163.57,10.28-22.62,48.51-140.95-58.79ZM367.99,116.06l181.01-48.5-24.2,51.89-156.81-3.39ZM321.38,127.24l-.31,40.32h5.52l-.31-40.32,1.48-.4,5.32-1.42,3.93,51.45h-26.34l3.93-51.45,5.32,1.42,1.48.4ZM279.66,116.06l-156.81,3.39-24.2-51.89,181.01,48.5ZM288,473.61l8.41-110.08h23.13l-1.14,146.03,5.43,11.64,5.43-11.64-1.14-146.03h23.13l8.41,110.08-35.83,76.83-35.83-76.83Z"/>
      </g>
    </g>
  </g>
</svg>