<?xml version="1.0" encoding="utf-8"?>
<!-- Generator: Adobe Illustrator 28.0.0, SVG Export Plug-In . SVG Version: 6.00 Build 0)  -->
<svg version="1.1" id="Layer_2_1_" xmlns="http://www.w3.org/2000/svg" xmlns:xlink="http://www.w3.org/1999/xlink" x="0px" y="0px"
	 viewBox="0 0 400 400" style="enable-background:new 0 0 400 400;" xml:space="preserve">
<style type="text/css">
	.st0{fill:#A7A8AA;}
	.st1{fill:#FFFFFF;}
</style>
<g>
	<g>
		<path class="st0" d="M296.2,192.7c-0.5-0.6-49.4-58-86.4-160.9l-9.9-27.5L190.4,32c-0.3,1-35,100.4-86.6,160.8l-5.8,6.7l5.8,6.7
			c0.5,0.6,49.4,58,86.4,160.9l9.9,27.5l9.5-27.7c0.3-1,35-100.4,86.6-160.8l5.8-6.7L296.2,192.7z"/>
		<path d="M205.6,33.3L200,17.6l-5.5,15.8c-0.3,1-35.2,101.2-87.4,162.3l-3.3,3.8l3.3,3.8c0.5,0.6,49.9,58.5,87.2,162.3l5.7,15.7
			l5.5-15.8c0.3-1,35.2-101.2,87.4-162.3l3.3-3.8l-3.3-3.8C292.4,195.1,243,137.1,205.6,33.3z"/>
	</g>
	<path class="st0" d="M227.6,234.5c-7-11.1-13.7-20.7-20.4-30h-25.9c0,0,16,18.6,34.5,50.2c3.9,6.6,7.9,13.9,11.8,21.6
		c4-7.8,8-15,11.9-21.7c18.4-31.5,34.4-50.1,34.4-50.1h-25.9C241.1,214.2,234.5,223.6,227.6,234.5"/>
	<path class="st0" d="M200.3,285.4c-17.8-37.4-32.9-59.9-48.1-80.9h-25.9c0,0,48.6,56.4,73.8,139.2c6.5-21.5,13.8-38.8,22.2-56.2
		c-3.9-8-7.8-15.5-11.7-22.5C207,271.9,204.2,277,200.3,285.4"/>
	<path class="st0" d="M186.2,167.9c7.2,2.8,12,9,13.6,22.5c1.7-13.5,6.4-19.7,13.6-22.5c-7.2-2.8-12-9-13.6-22.5
		C198.2,158.9,193.4,165,186.2,167.9"/>
	<path class="st1" d="M200.1,113.2c17.8,37.4,32.9,59.9,48.1,80.9h25.9c0,0-48.6-56.4-73.8-139.2c-25.2,82.9-73.8,139.2-73.8,139.2
		h25.9C167.9,172.6,181.7,152.3,200.1,113.2"/>
</g>
</svg>
