<?xml version="1.0" encoding="UTF-8"?>
<svg id="Layer_2" xmlns="http://www.w3.org/2000/svg" version="1.1" viewBox="0 0 204 390.3">
  <!-- Generator: Adobe Illustrator 29.7.1, SVG Export Plug-In . SVG Version: 2.1.1 Build 8)  -->
  <defs>
    <style>
      .st0 {
        fill: #a7a8aa;
      }

      .st1 {
        fill: #fff;
      }
    </style>
  </defs>
  <g>
    <path class="st0" d="M198.2,188.4c-.5-.6-49.4-58-86.4-160.9L101.9,0l-9.5,27.7c-.3,1-35,100.4-86.6,160.8l-5.8,6.7,5.8,6.7c.5.6,49.4,58,86.4,160.9l9.9,27.5,9.5-27.7c.3-1,35-100.4,86.6-160.8l5.8-6.7-5.8-6.7Z"/>
    <path d="M107.6,29l-5.6-15.7-5.5,15.8c-.3,1-35.2,101.2-87.4,162.3l-3.3,3.8,3.3,3.8c.5.6,49.9,58.5,87.2,162.3l5.7,15.7,5.5-15.8c.3-1,35.2-101.2,87.4-162.3l3.3-3.8-3.3-3.8c-.5-.5-49.9-58.5-87.3-162.3Z"/>
  </g>
  <path class="st0" d="M129.6,230.2c-7-11.1-13.7-20.7-20.4-30h-25.9s16,18.6,34.5,50.2c3.9,6.6,7.9,13.9,11.8,21.6,4-7.8,8-15,11.9-21.7,18.4-31.5,34.4-50.1,34.4-50.1h-25.9c-6.9,9.7-13.5,19.1-20.4,30"/>
  <path class="st0" d="M102.3,281.1c-17.8-37.4-32.9-59.9-48.1-80.9h-25.9s48.6,56.4,73.8,139.2c6.5-21.5,13.8-38.8,22.2-56.2-3.9-8-7.8-15.5-11.7-22.5-3.6,6.9-6.4,12-10.3,20.4"/>
  <path class="st0" d="M88.2,163.6c7.2,2.8,12,9,13.6,22.5,1.7-13.5,6.4-19.7,13.6-22.5-7.2-2.8-12-9-13.6-22.5-1.6,13.5-6.4,19.6-13.6,22.5"/>
  <path class="st1" d="M102.1,108.9c17.8,37.4,32.9,59.9,48.1,80.9h25.9s-48.6-56.4-73.8-139.2C77.1,133.5,28.5,189.8,28.5,189.8h25.9c15.5-21.5,29.3-41.8,47.7-80.9"/>
</svg>