<?xml version="1.0" encoding="UTF-8" standalone="no"?>
<!-- Created with Inkscape (http://www.inkscape.org/) -->

<svg
   version="1.1"
   id="svg2"
   width="768"
   height="680.5733"
   viewBox="0 0 768 680.5733"
   sodipodi:docname="MLynx_Primary_Icon_pms.eps"
   xmlns:inkscape="http://www.inkscape.org/namespaces/inkscape"
   xmlns:sodipodi="http://sodipodi.sourceforge.net/DTD/sodipodi-0.dtd"
   xmlns="http://www.w3.org/2000/svg"
   xmlns:svg="http://www.w3.org/2000/svg">
  <defs
     id="defs6" />
  <sodipodi:namedview
     id="namedview4"
     pagecolor="#ffffff"
     bordercolor="#000000"
     borderopacity="0.25"
     inkscape:showpageshadow="2"
     inkscape:pageopacity="0.0"
     inkscape:pagecheckerboard="0"
     inkscape:deskcolor="#d1d1d1" />
  <g
     id="g8"
     inkscape:groupmode="layer"
     inkscape:label="ink_ext_XXXXXX"
     transform="matrix(1.3333333,0,0,-1.3333333,0,680.57333)">
    <g
       id="g10"
       transform="scale(0.1)">
      <path
         d="m 4973.74,3354.47 -12.1,34.66 c -38.63,111.4 -84.85,218.46 -137.39,321.55 180.9,366.86 935.75,1313.8 935.75,1313.8 0,0 -431.32,-328.95 -680.28,-454.96 4.69,26.35 44.41,261.78 44.41,261.78 0,0 -356.21,-325.34 -689.13,-558.77 -473.74,518.33 -1152.04,831.75 -1883.59,831.75 -284.35,0 -565.82,-47.67 -836.63,-141.73 C 385.809,4501.09 -319.93,3044.48 141.176,1715.33 497.742,689.301 1466.36,0 2551.41,0 c 284.35,0 566,47.8516 837.17,141.91 1317.06,457.309 2021.89,1892.62 1584.8,3212.2 l 0.36,0.36"
         style="fill:#999d9e;fill-opacity:1;fill-rule:nonzero;stroke:none"
         id="path12" />
      <path
         d="m 4826.86,3305.54 0.35,0.36 -11.37,32.68 c -36.65,105.44 -80.52,206.72 -130.35,304.22 20.22,132.87 65.54,250.59 144.61,373.35 116.99,181.45 419.94,511.66 419.94,511.66 -112.48,-89.19 -396.47,-241.39 -396.47,-241.39 19.31,28.53 93.71,189.57 93.71,189.57 -60.3,-64.45 -413.81,-327.86 -413.81,-327.86 -41.7,-15.17 -91.53,-34.12 -146.05,-55.43 -446.85,532.06 -1113.77,857.21 -1835.94,857.21 -267.2,0 -531.52,-44.77 -786.26,-133.23 C 516.957,4383.2 -146.176,3014.68 286.941,1765.88 622.035,802.152 1531.97,154.551 2551.48,154.551 c 267.2,0 531.7,44.758 786.44,133.23 621.79,215.93 1098.25,664.028 1366.53,1213.789 4.32,-3.61 6.85,-5.6 6.85,-5.6 3.62,14.26 6.87,28.34 10.12,42.43 250.59,536.03 305.12,1164.31 105.44,1767.14"
         style="fill:#16243a;fill-opacity:1;fill-rule:nonzero;stroke:none"
         id="path14" />
      <path
         d="m 2411.53,4260.43 c 288.5,-87.38 365.6,-38.82 688.76,-91.54 66.26,107.97 129.63,228.39 185.78,362.17 -469.05,-58.14 -874.54,-270.63 -874.54,-270.63"
         style="fill:#305c98;fill-opacity:1;fill-rule:nonzero;stroke:none"
         id="path16" />
      <path
         d="m 2174.88,3999.53 c 0,0 186.31,-196.61 228.56,-243.38 0,0 91.71,-48.02 237.59,-144.07 107.97,97.86 240.66,236.69 369.58,420.13 -282.74,31.41 -514.01,29.42 -720.37,120.96 0,0 -94.42,-112.12 -115.36,-153.64"
         style="fill:#305c98;fill-opacity:1;fill-rule:nonzero;stroke:none"
         id="path18" />
      <path
         d="m 3398.61,4106.01 c 50,-12.46 103.44,-26.54 161.75,-42.79 147.5,-40.99 275.87,-91.89 388.17,-146.78 76.38,31.41 160.51,65.53 243.37,98.93 -341.05,379.33 -712.6,529.9 -712.6,529.9 -53.44,-1.09 -106.7,-4.88 -159.41,-10.47 0.89,-98.94 13.72,-268.83 78.72,-428.79"
         style="fill:#305c98;fill-opacity:1;fill-rule:nonzero;stroke:none"
         id="path20" />
      <path
         d="m 3767.76,3842.01 c -96.42,40.26 -188.13,72.39 -275.69,97.67 42.97,-56.15 96.22,-106.16 162.85,-144.61 0,0 43.87,18.41 112.84,46.94"
         style="fill:#305c98;fill-opacity:1;fill-rule:nonzero;stroke:none"
         id="path22" />
      <path
         d="m 2312.61,3645.97 c -147.51,46.58 -442.15,85.94 -442.15,85.94 -25.1,-10.83 -189.21,-98.76 -189.21,-98.76 131.61,-103.63 232.9,-221.17 311.44,-350.97 214.48,92.98 414.52,147.68 414.52,147.68 0,0 45.49,27.44 117.89,84.13 -130.71,86.48 -212.49,131.98 -212.49,131.98"
         style="fill:#305c98;fill-opacity:1;fill-rule:nonzero;stroke:none"
         id="path24" />
      <path
         d="m 1824.17,3849.66 c 0,0 181.44,-28.89 346.64,-61.02 -95.15,106.88 -210.33,185.41 -210.33,185.41 l 149.48,221.34 -302.94,-155.44 c 0,0 -217.74,16.25 -332.2,18.59 104.9,-66.44 196.25,-142.99 196.25,-142.99 l -132.7,-224.41 285.8,158.52"
         style="fill:#69c32f;fill-opacity:1;fill-rule:nonzero;stroke:none"
         id="path26" />
      <path
         d="m 3043.57,1116.55 c -269.01,143.89 -544.52,29.96 -625.94,-129.28 151.11,-475.54 410.19,-605.711 410.19,-605.711 216.65,37.004 405.85,94.242 570.87,162.132 -18.77,168.438 -91.53,431.848 -355.12,572.859"
         style="fill:#305c98;fill-opacity:1;fill-rule:nonzero;stroke:none"
         id="path28" />
      <path
         d="m 2372.62,716.16 c -214.49,-28.168 -699.42,-29.609 -727.95,528.8 0,0 -62.1,115.01 -53.44,243.37 0,0 -176.21,81.25 -249.15,308.37 0,0 -174.22,87.55 -178.01,302.58 -3.79,215.03 173.68,346.1 240.3,412.54 66.44,66.62 99.48,100.92 88.11,139.2 -11.56,38.27 -80.53,195.34 67.16,358.92 72.39,80.16 185.59,152.02 305.83,212.68 -154.9,252.22 -316.49,325.87 -316.49,325.87 -25.99,-17.33 -89.01,-74.02 -89.01,-74.02 -96.04,-148.58 -435.1,-650.31 -459.11,-1449.21 -24.016,-799.08 250.95,-1233.088 250.95,-1233.088 757.92,-519.973 1385.3,-429.52 1385.3,-429.52 -113.74,105.258 -199.13,224.59 -264.49,353.508"
         style="fill:#305c98;fill-opacity:1;fill-rule:nonzero;stroke:none"
         id="path30" />
      <path
         d="m 1431.64,3734.29 c 19.32,34.66 86.3,152.2 86.3,152.2 -243.55,196.43 -589.108,146.06 -589.108,146.06 -225.504,-207.81 -428.246,-703.03 -428.246,-703.03 518.334,534.22 931.054,404.77 931.054,404.77"
         style="fill:#305c98;fill-opacity:1;fill-rule:nonzero;stroke:none"
         id="path32" />
      <path
         d="m 1780.32,4174.52 c 56.87,25.08 254.56,111.02 254.56,111.02 -167.18,160.15 -115.55,372.82 -115.55,372.82 -511.83,-151.29 -845.29,-480.24 -845.29,-480.24 250.23,14.44 706.28,-3.6 706.28,-3.6"
         style="fill:#305c98;fill-opacity:1;fill-rule:nonzero;stroke:none"
         id="path34" />
      <path
         d="m 1280.56,3459.01 c 10.65,21.29 78.17,145.33 78.17,145.33 -504.253,52.72 -953.8,-606.8 -953.8,-606.8 C 155.238,1747.64 1032.49,977.102 1032.49,977.102 533.113,2441.47 1280.56,3459.01 1280.56,3459.01"
         style="fill:#305c98;fill-opacity:1;fill-rule:nonzero;stroke:none"
         id="path36" />
      <path
         d="m 2185.81,4348.41 c 606.26,261.24 992.62,312.87 992.62,312.87 -640.38,176.93 -1106,37.56 -1106,37.56 -72.04,-259.08 113.38,-350.43 113.38,-350.43"
         style="fill:#305c98;fill-opacity:1;fill-rule:nonzero;stroke:none"
         id="path38" />
      <path
         d="m 1569.65,2786.7 c 0,0 57.95,-123.68 170.97,-111.94 0,0 -200.76,-152.92 -170.97,111.94"
         style="fill:#69c32f;fill-opacity:1;fill-rule:nonzero;stroke:none"
         id="path40" />
      <path
         d="m 2242.94,2691.19 c 0,0 142.44,39.36 206.72,94.96 64.63,55.43 193.35,119.53 193.35,119.53 0,0 -115.18,-348.09 -400.07,-214.49"
         style="fill:#69c32f;fill-opacity:1;fill-rule:nonzero;stroke:none"
         id="path42" />
      <path
         d="m 1750.44,2186.8 c 0,0 -157.62,2.16 -245.73,-20.23 0,0 14.63,-31.41 22.39,-36.83 0,0 122.77,13.72 200.77,15.35 l 22.57,41.71"
         style="fill:#69c32f;fill-opacity:1;fill-rule:nonzero;stroke:none"
         id="path44" />
      <path
         d="m 1870.88,1838.77 c 0,0 60.29,-9.76 125.65,-1.81 0,0 3.07,-100.74 34.12,-167.18 0,0 -117.35,53.98 -159.77,168.99"
         style="fill:#ffffff;fill-opacity:1;fill-rule:nonzero;stroke:none"
         id="path46" />
      <path
         d="m 1448.34,1799.39 c 0,0 33.76,-108.69 149.48,-155.27 0,0 -38.63,107.79 -34.66,173.14 0,0 -69.33,-25.82 -114.82,-17.87"
         style="fill:#ffffff;fill-opacity:1;fill-rule:nonzero;stroke:none"
         id="path48" />
      <path
         d="m 1752.71,1304.78 c 0,0 63.55,21.3 91.35,25.45 0,0 -69.14,57.41 -100.92,122.77 0,0 -29.61,-77.27 9.57,-148.22"
         style="fill:#ffffff;fill-opacity:1;fill-rule:nonzero;stroke:none"
         id="path50" />
      <path
         d="m 1994.03,1485.64 c 0,0 -15.36,-64.27 14.25,-137.58 0,0 52.72,11.2 102.73,4.7 0,0 -63,46.76 -116.98,132.88"
         style="fill:#ffffff;fill-opacity:1;fill-rule:nonzero;stroke:none"
         id="path52" />
      <path
         d="m 4720.35,4062.01 c 0,0 -114.83,-122.58 -160.86,-375.34 -45.86,-252.59 53.62,-673.79 -172.24,-995.33 0,0 -100.21,105.8 -101.83,209.79 -1.63,104.17 0.19,245.89 -33.22,375.88 0,0 -56.5,-187.58 -171.33,-248.78 0,0 -122.4,180 0,432.58 122.59,252.76 513.1,539.82 639.48,601.2"
         style="fill:#ffffff;fill-opacity:1;fill-rule:nonzero;stroke:none"
         id="path54" />
      <path
         d="m 2349.08,2824.74 c 139.02,112.66 408.02,241.75 597.42,282.55 0,0 -169,-153.46 -228.75,-285.98 -6.32,-13.9 -16.08,-29.79 -28.17,-46.76 56.33,9.39 125.3,26.73 125.3,26.73 -100.92,-120.43 -380.77,-214.67 -380.77,-214.67 5.42,1.8 11.56,5.05 18.06,8.48 -61.75,-21.12 -129.27,-26.72 -196.97,-4.15 -36.29,-28.35 -48.75,-73.48 -48.75,-73.48 -38.09,38.46 -70.95,127.64 -79.98,154 -25.82,24.91 -51.28,55.07 -75.83,91.54 0,0 159.6,-50.92 298.44,61.74 m 858.83,-294.28 c -704.47,0 -1225.15,-283.27 -1225.15,-283.27 0,0 402.07,378.96 1194.65,378.96 972.4,0 1370.67,-500.28 1370.67,-500.28 -114.82,403.33 -342.13,536.03 -513.11,758.09 -185.95,241.56 -186.3,497.76 12.83,745.46 198.95,247.52 543.61,436.37 543.61,436.37 0,0 -630.45,-252.58 -867.87,-349.71 -237.41,-96.95 -341.95,-125.12 -571.59,-181.27 -229.83,-56.15 -589.83,-128.9 -884.48,-297.35 -294.82,-168.44 -311.07,-321.36 -311.07,-321.36 -74.75,116.08 -43.87,220.62 -43.87,220.62 -72.58,-42.06 -299.88,-136.67 -292.3,-250.23 10.83,-158.16 246.44,-145.7 246.44,-145.7 C 1795.35,2598.88 1686.85,2570 1686.85,2570 c -53.8,-85.39 -102.18,-85.58 -102.18,-85.58 -4.88,14.08 -17.34,48.02 -17.34,48.02 -268.65,-198.41 -290.85,-331.29 -290.85,-331.29 45.86,-23.83 79.62,-57.59 79.62,-57.59 -18.78,-1.44 -87.2,-6.32 -87.2,-6.32 -5.96,-26.9 0,-79.63 0,-79.63 89.73,-27.79 111.03,-57.4 111.03,-57.4 -19.32,1.98 -97.85,-1.99 -97.85,-1.99 0,0 19.13,-82.15 111.03,-86.11 91.9,-3.8 155.09,86.11 155.09,86.11 -76.56,88.11 -120.6,212.5 -120.6,212.5 l 105.79,160.5 c -10.83,-40.63 -38.46,-147.5 -38.46,-147.5 88.29,26.36 248.61,31.05 248.61,31.05 133.96,88.11 296.27,180.54 296.27,180.54 C 1759.79,2190.68 1730,1998.22 1730,1998.22 c 210.69,-156.89 443.95,18.23 524.66,57.6 0,0 271.71,107.06 398.09,149.3 126.38,42.07 486.37,122.41 486.37,122.41 -635.68,15.35 -1121.88,-244.99 -1121.88,-244.99 0,0 275.69,329.3 1110.33,329.3 914.99,0 1443.26,-562.93 1443.26,-562.93 -160.68,390.7 -719.65,681.55 -1362.92,681.55"
         style="fill:#999d9e;fill-opacity:1;fill-rule:nonzero;stroke:none"
         id="path56" />
      <path
         d="m 2706.42,3525.99 c 0,0 278.93,231.63 533.86,682.44 0,0 36.47,-307.28 258.72,-464.17 0,0 -168.45,-68.96 -291.04,-91.89 -122.58,-22.93 -501.54,-126.38 -501.54,-126.38"
         style="fill:#999d9e;fill-opacity:1;fill-rule:nonzero;stroke:none"
         id="path58" />
      <path
         d="m 1772.86,1200.07 c 0,0 228.02,67.88 433.48,63 0,0 465.62,291.04 229.47,732.64 0,0 254.02,196.61 933.04,142.99 0,0 -479.88,211.96 -1141.02,-96.95 0,0 487.64,312.88 962.28,283.27 574.31,-35.75 787.17,-176.75 913.72,-339.42 142.99,-183.79 150.75,-457.49 86.85,-667.82 0,0 -37.74,487.82 -599.58,517.79 0,0 734.8,-476.09 -63.38,-1265.058 0,0 -28.7,677.398 -710.25,727.048 0,0 61.39,62.82 118.62,100.38 0,0 -284.71,23.83 -551.19,-219 -260.35,-237.409 -133.25,-335.088 -133.25,-335.088 0,0 -401.52,-85.93 -478.79,356.218"
         style="fill:#ffffff;fill-opacity:1;fill-rule:nonzero;stroke:none"
         id="path60" />
    </g>
  </g>
</svg>
