<?xml version="1.0" encoding="UTF-8"?>
<svg id="Layer_1" xmlns="http://www.w3.org/2000/svg" version="1.1" viewBox="0 0 471 575.9">
  <!-- Generator: Adobe Illustrator 29.7.1, SVG Export Plug-In . SVG Version: 2.1.1 Build 8)  -->
  <defs>
    <style>
      .st0 {
        fill: #86cebc;
      }

      .st1 {
        fill: #fff;
      }
    </style>
  </defs>
  <g>
    <path d="M434,315.1h-11.8c7.6-15.7,14.9-32.1,21.9-49.3,0,0-34.4-20.2-98.5-33.2l10.4-33.8-7.6,6.1c1.5-7.4,2.3-15,2.3-22.8,0-38.5-19.1-74.3-51-95.9-5.8-3.9-11.9-7.3-18.3-10.1l-3.3-1.6c-49.7-18.8-52.9-55.3-52.9-55.3,0,0-12,22.7-6.1,42.7,1.5,5.2,3.8,10.4,6.8,15.5-13.8-6.7-34.5-14.4-58.2-18.6C116,49.7,118,0,118,0c0,0-47.5,62.6,4.6,114.2-26.2-16-40.4-42.4-40.4-42.4,0,0-8.8,47.5,13.9,75.6,4.3,5.3,8,11.1,12.2,16.6,7.2,9.3,13.6,32.6,13.5,41.3l-8.3-6.5,10.2,33.5.2.5c-63.7,13-97.9,33-97.9,33,7,17.2,14.4,33.6,21.9,49.3H10.7v104.7h97.6c7.6,11.2,15.1,21.6,22.5,31.5,1.6,2.1,3.1,4.1,4.7,6.1,2.2,2.9,4.4,5.6,6.5,8.4,1.3,1.7,2.6,3.3,4,5,2.3,2.9,4.6,5.7,6.9,8.4,1.2,1.5,2.4,2.9,3.6,4.4,2,2.3,3.9,4.6,5.8,6.9,1.5,1.7,3,3.5,4.5,5.2,1.6,1.8,3.1,3.5,4.7,5.3.9,1.1,1.9,2.1,2.8,3.1,2.4,2.6,4.7,5.2,7,7.6.8.9,1.6,1.7,2.4,2.5,2.3,2.5,4.6,4.9,6.8,7.2.7.7,1.4,1.5,2.1,2.2,2.2,2.2,4.3,4.4,6.4,6.4l2,2c2,2,3.9,3.8,5.8,5.6.6.6,1.2,1.2,1.8,1.8,1.1,1.1,2.2,2.1,3.3,3.1.7.7,1.4,1.3,2,1.9,1.5,1.4,2.9,2.7,4.3,3.9.6.6,1.3,1.1,1.9,1.7,1.2,1.1,2.4,2.1,3.5,3.1.6.5,1.2,1,1.7,1.5.9.8,1.8,1.5,2.6,2.2.6.5,1.1,1,1.6,1.4s.9.8,1.3,1.1c.6.5,1.2,1,1.7,1.4.3.3.7.5.9.8.2.2.5.4.6.5.7.5,1.1.8,1.1.8,0,0,.5-.4,1.5-1.2l.1-.1c.3-.2.6-.5.9-.7.5-.4,1.2-.9,1.9-1.5.3-.2.6-.5.8-.7.9-.7,1.8-1.5,2.8-2.4.1-.1.3-.2.4-.4,1.2-1,2.5-2.1,3.8-3.3.2-.2.4-.3.6-.5,1.5-1.3,3-2.7,4.7-4.2.2-.2.4-.4.7-.6,1.7-1.6,3.6-3.3,5.5-5.1.1-.1.3-.2.4-.4,4.1-3.9,8.7-8.3,13.7-13.3q.1-.1.2-.2c2.4-2.4,5-5,7.6-7.7.2-.2.4-.4.6-.6,2.6-2.7,5.3-5.5,8-8.5l.5-.5c5.6-6.1,11.5-12.7,17.7-19.8.2-.2.4-.4.6-.7,2.9-3.4,5.9-6.9,8.9-10.6.4-.5.8-1,1.2-1.4,3-3.6,6-7.3,9.1-11.2.4-.5.8-1,1.2-1.5,3.2-4,6.3-8.1,9.5-12.3,7.9-10.4,15.9-21.5,23.9-33.4h98.4v-104.9h-26.3Z"/>
    <g>
      <g>
        <path class="st0" d="M282.5,205.2c-1.9,14.7-11.4,29.5-28.2,43.4l11.7,11.7,26.7-33.2c1.8-7.7,3.1-16.1,3.6-25.3-4.3,1.4-8.9,2.5-13.8,3.4Z"/>
        <path class="st0" d="M314.3,194.7c-3.3,1.7-6.9,3.3-10.8,4.7-.4,12.2-2.2,23.1-4.7,32.9l6.2,6.4,23.5-18.4c-8.4-6.9-12.6-15.9-14.2-25.6Z"/>
      </g>
      <polygon class="st1" points="133.2 332.2 133.2 342.2 126.3 342.2 126.3 392.1 133.2 392.1 133.2 402 108.7 402 73.1 370.3 73.5 402 42.7 402 42.7 392.1 49.5 392.1 49.5 342.2 42.7 342.2 42.7 332.2 67.3 332.2 102.7 362.5 102.7 332.2 133.2 332.2"/>
      <polygon class="st1" points="428.2 332.2 421.1 332.2 421.1 332.2 397.6 332.2 397.6 356.9 368.4 362.8 368.4 332.2 344.9 332.2 344.9 332.2 337.7 332.2 337.7 342.2 344.9 342.2 344.9 379.1 397.6 367.9 397.6 392.1 344.9 392.1 344.9 402 421.1 402 421.1 402 421.1 392.1 421.1 342.2 428.2 342.2 428.2 332.2"/>
      <polygon class="st1" points="330.5 249.5 318.5 265.9 303.8 251.1 293.9 241 293.8 241.1 293.8 241 293.7 241.2 266.8 274.7 234.9 243.7 234.6 309.4 258.4 279.8 267.5 289.1 292.4 258.1 289.2 300.5 313.5 274.3 320.7 281.6 330.5 249.5"/>
      <polygon class="st0" points="202.9 274.7 175.8 241 151.3 266.1 139.1 249.5 148.9 281.6 175.1 255.4 175.1 255.5 182.7 304 194.6 279.7 202.1 289.1 234.8 256.5 234.9 243.7 202.9 274.7"/>
      <path class="st0" d="M216.7,357.9c-1.3-.1-2.4-.1-3.4-.2-21-1.8-44.1-12.1-44.1-12.1,12.6,11.6,26,15,32.2,16-1,4.3-1.6,9.8,1.4,11.1,8.2,3.4,27.8-.6,28.7-7.4,1.1-8.7-7.1-7-14.8-7.4Z"/>
      <path class="st0" d="M225.4,386.9c-2.9.4-5.6.6-8,.7-21.1-2-44.3-12.6-44.3-12.6,13.1,12.4,27.2,15.7,32.9,16.5-1.5,4.9-2.8,6.9,3.3,7.5,16.7,1.6,26.5-8.3,26.2-11.4-.2-3.1-.2-2.2-10.1-.7Z"/>
      <path class="st0" d="M223.5,411.8c-1.8.4-3.6.6-5.3.8h.1c-21.3-1.8-45.1-12.7-45.1-12.7,13.4,12.7,27.9,15.8,33.3,16.6-1.2,4.6-2.4,6.6,3.2,6.8,14.9.7,23.2-8.5,22.9-11.2-.5-2.9-.4-2-9.1-.3Z"/>
      <path class="st0" d="M223.5,434c-1.7.3-3.3.6-4.9.7-16.7-1.6-35.2-10-35.2-10,9.2,8.7,19,11.7,24.3,12.8-1.1,5-2.8,7.1,2.8,7.4,14.1.7,22-8,21.6-10.6-.4-2.7-.3-1.9-8.6-.3Z"/>
      <g>
        <path class="st0" d="M220.2,450.7l1.3,11.6s3.3,5.8,13.3,5.8l.6-25.8c-6.5,6.5-12.9,8.1-15.2,8.4Z"/>
        <path class="st0" d="M234.9,468.1h0Z"/>
      </g>
    </g>
    <path class="st1" d="M234.9,468.1l.6-25.8s11.6-9.5-1-18.4c0,0,15.1-11.5,1.7-20,0,0,17.7-11.3,7.2-24.7,0,0,7.2,8,13.3,9.5l-8.5,73.6s-4,6.4-13.3,5.8"/>
    <path class="st0" d="M234.8,477.3h0c-8.5,0-12.3-2-15.8-7.5-1.1,1.4-1.8,2.9-1.8,4.5,0,5.7,7.9,10.3,17.6,10.3h0c5.6-3.8,0-7.3,0-7.3Z"/>
    <path class="st1" d="M252.4,474.3c0-1.6-.6-3.1-1.8-4.5-3.8,5.5-7.3,7.5-15.8,7.5h0s5.7,3.5,0,7.3c.4,0,.8-.1,1.2-.1,1.3-.1,3.5-.3,5.9-.8,6.2-1.7,10.5-5.2,10.5-9.4Z"/>
    <g>
      <path class="st1" d="M282.2,488.9c16.6-18.5,35.5-41.5,54.9-69h-12.8c-15.2,21.1-29.9,39.2-43.3,54.6l1.2,14.4Z"/>
      <path class="st1" d="M188.5,473.4c-13.2-15.2-27.6-33-42.4-53.6h-12.8c19.2,27.2,37.8,49.9,54.2,68.3l1-14.7Z"/>
    </g>
    <g>
      <path class="st1" d="M413.1,273.5c-12.7-5.2-37.9-14.2-73.4-21.2l-3.1,10.1c31,6,54,13.6,67.5,18.8-5.3,11.8-10.8,23-16.3,33.9h11.7c5.6-11.2,11.1-22.7,16.4-34.7l2.2-4.9-5-2Z"/>
      <path class="st1" d="M133.1,262.5l-3.1-10.1c-35.2,7-60.2,15.9-72.8,21.1l-5,2,2.2,4.9c5.3,12,10.8,23.5,16.4,34.7h11.7c-5.6-11-11.1-22.2-16.3-33.9,13.4-5.2,36.2-12.7,66.9-18.7Z"/>
    </g>
    <g>
      <path class="st0" d="M234.8,326.9h0c-39.1,0-71.9-11.5-81.6-27-3.5-.8-9.8-1.1-11.9,5.4-.2,1-.4,1.9-.4,2.9,0,20.1,42,36.5,93.9,36.5h0c12.3-10.2,0-17.8,0-17.8Z"/>
      <path class="st1" d="M328.6,308.1c0-.8-.2-1.7-.4-2.5-1.9-6.9-8.4-6.6-11.9-5.8-9.6,15.6-42.5,27-81.6,27,0,0,12.3,7.6,0,17.7h0c51.9.1,93.9-16.2,93.9-36.4Z"/>
    </g>
    <path class="st0" d="M460.4,304.5h-21.4c5.2-11.2,10.3-22.6,15.1-34.6l3.5-8.5-7.9-4.7c-2.1-1.2-37-21.3-100.8-34.3l-3.1,10.3c64.1,13,98.5,33.2,98.5,33.2-7,17.2-14.4,33.6-21.9,49.3h38.1v104.6h-98.4c-8.1,11.9-16.1,23-23.9,33.4-3.2,4.2-6.4,8.3-9.5,12.3-.4.5-.8,1-1.2,1.5-3.1,3.9-6.1,7.6-9.1,11.2-.4.5-.8,1-1.2,1.4-3,3.6-6,7.2-8.9,10.6-.2.2-.4.4-.6.7-6.1,7.1-12.1,13.7-17.7,19.8l-.5.5c-2.8,3-5.4,5.8-8,8.5-.2.2-.4.4-.6.6-2.4,2.5-4.7,4.8-6.9,7.1-1.7-24.3-6.5-94.8-6.1-95.1,17.3-11.6,25.9-45.1,26.3-46.5,1.5-3.3,4.6-15.5,4.6-21.5,0-.7,0-1.3-.1-1.9v-.1l-.1-.1s-2.4-2.7-5.4-5.5c-3-2.7-6.2-5.5-8.6-5.6-.2,0-.4,0-.6.1-9.2,2.8-18.4,4-18.4,4h-.1c-2.6.8-5.1,1-7.4,1-2,0-4-.1-5.6-.1s-3,.1-4,.7c-1.1.6-1.7,1.8-1.8,3.5v.1c.1,4.2,5.8,12.3,13.5,15.5,2.7,1.1,5.5,1.5,8.1,1.5,6.2,0,11.8-2.2,14.4-3.4-3.4,6-8.1,12-12.1,16.8-2.1,2.5-4,4.6-5.4,6.1l-9.1,64.3c.9.9,2,2.3,2.9,3.9,2,2.8,3,6,3,9.3,0,7.2-4.7,13.1-12.1,16.6l-.1.9c-.2,4.6-.8,14.7-1.5,22.1,2.1,2.7,3.3,6.1,3.3,9.8,0,9-7.2,16.2-16.2,16.4v22.3l-.3.3s-.4-.3-1.1-.8c-.2-.1-.4-.3-.6-.5-.3-.2-.6-.5-.9-.8-.5-.4-1.1-.9-1.7-1.4-.4-.3-.9-.7-1.3-1.1-.5-.4-1.1-.9-1.6-1.4-.8-.7-1.7-1.4-2.6-2.2-.5-.5-1.1-1-1.7-1.5-1.1-1-2.3-2-3.5-3.1-.6-.5-1.2-1.1-1.9-1.7-1.4-1.2-2.8-2.5-4.3-3.9-.7-.6-1.3-1.2-2-1.9-1.1-1-2.2-2-3.3-3.1-.6-.6-1.2-1.2-1.8-1.8-1.9-1.8-3.8-3.6-5.8-5.6-.6-.6-1.3-1.3-2-2-2.1-2.1-4.2-4.2-6.4-6.4-.7-.7-1.4-1.5-2.1-2.2-2.2-2.3-4.5-4.7-6.8-7.2-.8-.8-1.6-1.7-2.4-2.5-2.3-2.4-4.6-5-7-7.6-.9-1-1.9-2-2.8-3.1-1.5-1.7-3.1-3.5-4.7-5.3-1.5-1.7-3-3.4-4.5-5.2-1.9-2.2-3.9-4.5-5.8-6.9-1.2-1.4-2.4-2.9-3.6-4.4-2.3-2.7-4.6-5.6-6.9-8.4-1.3-1.6-2.6-3.3-4-5-2.2-2.7-4.3-5.5-6.5-8.4-1.5-2-3.1-4.1-4.7-6.1-7.4-9.8-14.9-20.3-22.5-31.5H10.7v-104.7h37.4c-7.6-15.7-14.9-32.1-21.9-49.3,0,0,34.2-20.1,97.9-33l-3.1-10.3c-63.5,13-98.1,32.9-100.2,34.2l-7.9,4.7,3.5,8.5c4.9,12,10,23.4,15.1,34.6H0v125.9h102.7c18,26.2,35.3,48.1,50.1,65.5,42.3,49.5,74.4,74.1,75.7,75.1l6.4,4.9,6.4-4.9c1.3-1,33.4-25.6,75.8-75.1,14.9-17.4,32.2-39.3,50.2-65.5h103.7v-125.9h-10.6Z"/>
    <path class="st0" d="M275.8,199c-.1-1.9-.3-3.8-.6-5.7-4.1-21.7-21.6-26.4-54.8-33.6-3.5-.8-7.2-1.6-10.9-2.4-2.2-.5-4.7-1.2-7.2-1.9-52.3-11.4-95.9-35.9-112.3-58.8,0,0-4.3,30.9,27.1,59.4,56.6,45.9,121.2,48.6,158.7,43Z"/>
    <path class="st0" d="M221.9,152.8c31.9,6.9,55,11.9,60.2,39.2.4,1.9.6,3.9.7,5.8,5.4-1,10-2.2,13.8-3.4,0-6.3-.3-12.9-1.1-19.8-5.6-47.5-45.8-75.9-72.8-89.8-13.6-6.6-33.4-14.2-55.9-17-27.7-3.4-49.7-22.4-52.4-41.8,0,0-.8,1.6-1.9,4.4-9.2,24.3-4,51.7,13.2,71.1,22.8,25.7,60.9,43.4,85.2,48.9,3.8.9,7.5,1.7,11,2.4Z"/>
    <path class="st0" d="M295.1,93c-5.4-3.6-11.1-6.8-17.2-9.4-19.8-9.6-41.9-19.1-51.8-41.7,0,0-7.6,23,24.3,51.6,30.4,21.8,48.4,49.5,52,80.3.7,6.3,1.1,12.3,1.2,18,3.6-1.5,6.9-3.1,10-4.7-.5-13,2.4-26.6,5-38.4.9-4.4,1.8-8.5,2.5-12.2,1.8-10.2-2-19.6-6.7-26.9-5.8-6.3-12.3-11.9-19.3-16.6Z"/>
    <path class="st0" d="M328,137.7c-.7,3.9-1.6,8.1-2.5,12.5-2.3,10.4-4.7,21.8-4.9,32.5,10.3-7,16.6-14.2,20.2-19.5-2.2-12.3-6.5-23.9-12.5-34.5.2,3,.2,5.9-.3,9Z"/>
    <path class="st0" d="M342,173.3c-5,5.7-11.8,12-21.1,17.7,1.1,9.7,5,18.4,13.5,24.9l3.4-2.7c3-9.9,4.6-20.3,4.6-31.1,0-3-.1-5.9-.4-8.8Z"/>
    <path class="st0" d="M176.4,226.5l27.2,33.9,31.1-31.1v-.1l.1.1.1-.1v.1l14.3,14.3c12.1-9.9,23.3-22.6,26-37.2-8.7,1.3-18.1,2-28.2,2-36.8,0-81.1-9.8-121.2-37.2l-5.1-3.3s9.7,14.8,11.7,45.5l32.3,25.2,11.7-12.1Z"/>
  </g>
  <path class="st0" d="M238,519.6l1.9-26c-1.6.2-3.2.3-5,.3-1.7,0-3.2-.1-4.8-.3l1.9,26c-1.3.9-2.2,2.4-2.2,4.1,0,2.9,2.3,5.2,5.2,5.2s5.2-2.3,5.2-5.2c-.1-1.7-.9-3.2-2.2-4.1Z"/>
</svg>