<?xml version="1.0" encoding="UTF-8" standalone="no"?>
<!-- Created with Inkscape (http://www.inkscape.org/) -->

<svg
   version="1.1"
   id="svg2"
   width="768"
   height="736.89331"
   viewBox="0 0 768 736.89331"
   sodipodi:docname="PMercury_Primary_Icon_rgb.eps"
   xmlns:inkscape="http://www.inkscape.org/namespaces/inkscape"
   xmlns:sodipodi="http://sodipodi.sourceforge.net/DTD/sodipodi-0.dtd"
   xmlns="http://www.w3.org/2000/svg"
   xmlns:svg="http://www.w3.org/2000/svg">
  <defs
     id="defs6" />
  <sodipodi:namedview
     id="namedview4"
     pagecolor="#ffffff"
     bordercolor="#000000"
     borderopacity="0.25"
     inkscape:showpageshadow="2"
     inkscape:pageopacity="0.0"
     inkscape:pagecheckerboard="0"
     inkscape:deskcolor="#d1d1d1" />
  <g
     id="g8"
     inkscape:groupmode="layer"
     inkscape:label="ink_ext_XXXXXX"
     transform="matrix(1.3333333,0,0,-1.3333333,0,736.89333)">
    <g
       id="g10"
       transform="scale(0.1)">
      <path
         d="m 3251.42,1225.04 -345.96,-107.41 c -40.27,-12.54 -115.45,-35.8 -195.39,-35.8 -70.56,0.08 -144.4,17.94 -202.01,77.04 -32.97,34.05 -51.51,72.42 -61.33,112.21 l -3.35,14.11 -109.71,-154.61 c 0.9,-2.49 1.86,-4.98 2.82,-7.55 l 4.7,6.62 99.07,139.79 c 9.9,-40.64 29.25,-80.16 63.11,-115.11 126.09,-129.51 328.1,-66.77 404.1,-43.06 l 345.88,107.44 c 94.38,29.18 354.68,110.28 479.64,356.46 5.73,11.32 11.32,22.92 16.39,34.87 -1.72,0 -3.96,0 -7.23,0.07 -116.49,-268.47 -392.34,-354.59 -490.73,-385.07"
         style="fill:#ffffff;fill-opacity:1;fill-rule:nonzero;stroke:none"
         id="path12" />
      <path
         d="m 3663.03,2179.52 1.03,-6.59 -1.1,6.59 c -53.6,-9.53 -107.04,-16.08 -160.03,-20.09 l -4.4,-0.37 -1.41,-4.17 c -16.45,-48.31 -33.27,-97.77 -49.8,-146.6 2.46,0.34 4.84,0.64 7.22,0.97 v 0.11 c 16.31,47.79 32.83,96.16 48.91,143.4 53.29,4.24 106.87,10.63 160.61,20.16 365.4,64.05 682.78,241.31 922.3,489.25 13.84,17.37 27.17,35.09 40.26,53.14 -243.16,-272.35 -576.1,-467.91 -963.59,-535.8"
         style="fill:#ffffff;fill-opacity:1;fill-rule:nonzero;stroke:none"
         id="path14" />
      <path
         d="m 1673.38,3143.27 c 28.43,0 54.94,-3.35 79.57,-9.79 39.3,-10.39 73.53,-28.77 103.16,-55.53 l 10.5,7.9 c -70.94,142.12 -123.04,296.34 -151.92,460.69 -17.27,98.33 -25.6,196.13 -25.6,292.56 0,801.92 575.5,1512.28 1392.77,1655.48 96.09,16.9 191.51,25.19 285.89,25.56 -29.02,1.27 -58.28,1.84 -87.68,1.57 -7.96,0.37 -16.08,0.63 -24.11,0.9 -7.97,-0.57 -16.08,-1.35 -24.05,-1.98 -2.68,-0.19 -5.35,-0.41 -8.11,-0.67 -42.87,-3.83 -85.89,-9.38 -129.06,-16.56 -4.62,-0.71 -9.39,-1.42 -14,-2.2 -918.93,-161.18 -1533.67,-1036.73 -1372.6,-1955.78 29.03,-164.97 81.36,-319.9 152.44,-462.52 -29.7,26.77 -64.01,45.37 -102.94,56.13 -2.68,0.78 -5.51,1.37 -8.26,2.08 -2.61,0.63 -5.36,1.3 -8.04,1.82 -56.05,11.91 -120.58,8.41 -193.75,-10.9 0.67,-2.09 1.63,-4.1 2.31,-6.21 44.51,11.61 85.67,17.45 123.48,17.45"
         style="fill:#ffffff;fill-opacity:1;fill-rule:nonzero;stroke:none"
         id="path16" />
      <path
         d="m 1214.06,654.52 c -1.19,-1.61 -2.6,-3.129 -4.02,-4.77 1.42,1.641 2.83,3.16 4.02,4.77 z m 14.73,17.832 c -0.59,-0.903 -1.33,-1.832 -2.08,-2.684 0.75,0.852 1.49,1.781 2.08,2.684 z m 2523.48,944.308 c -0.89,-2.22 -1.78,-4.35 -2.89,-6.62 -5.07,-11.95 -10.66,-23.55 -16.39,-34.87 -11.09,-27.58 -24.48,-53.59 -39.59,-78.26 -147.83,-241.06 -466.84,-350.36 -558.99,-378.76 l -345.96,-107.33 c -40.27,-12.539 -115.44,-35.84 -195.16,-35.84 -70.79,0.079 -144.47,18.09 -201.93,77.08 -21.29,21.93 -36.55,45.63 -47.2,70.3 -1.03,2.46 -2.08,4.76 -2.97,7.29 l -4.7,-6.62 -4.39,-6.17 -34.31,-48.58 c -22.4,-31.29 -44.73,-59.61 -67.21,-85.409 -1.71,-1.902 -3.12,-3.832 -4.84,-5.609 -13.84,-15.641 -27.61,-30 -41.75,-43.653 -11.17,-13.808 -22.18,-26.73 -33.64,-39.351 -118.5,-129.988 -250.55,-193.817 -394.94,-221.09 -30.15,-5.848 -57.84,-8.379 -82.99,-8.379 -118.2,0.039 -185.49,55.262 -218.02,92.859 -26.2,30.403 -51.13,73.981 -62,134.082 -0.67,3.2 -1.12,6.36 -1.71,9.68 l -5.29,-8.18 -5.36,-8.121 -76.95,-117.078 c -7.9,-12.883 -25.76,-39.16 -54.27,-71.011 -1.94,-2.161 -4.1,-4.321 -5.95,-6.59 -12.73,-13.879 -27.54,-28.621 -44.29,-43.84 C 1188.01,634.719 1177,622.512 1165.16,610.16 1090.58,532.891 984.734,450.828 820.09,399.66 L 522.066,307.301 212.652,211.09 l 97.286,309.262 580.414,1845.098 -222.918,113.77 -381.243,194.83 -4.992,-4.88 -5.062,-4.79 L 74.582,2470.14 462.223,2272.34 680.234,2160.95 101.152,321.18 0,-0.0117188 321.773,99.8086 619.719,192.379 c 225.23,69.961 413.471,196.723 582.131,433.48 12.35,-30 28.66,-54.519 45.19,-73.578 40.18,-46.742 134.12,-120.133 307.18,-86.59 154.74,29.059 412.72,155.957 605.65,410.559 7.22,-10.121 15.18,-20.281 24.34,-29.891 125.94,-129.129 328.09,-66.609 404.1,-42.828 l 345.8,107.328 c 101.31,31.493 623.08,240.611 785.11,604.651 12.51,27.99 22.93,56.98 30.67,86.83 0.6,1.6 0.89,3.42 1.41,4.98 l 0.82,2.72 1.42,6.62 h -0.97 c 0,0 -0.15,0 -0.3,0"
         style="fill:#232458;fill-opacity:1;fill-rule:nonzero;stroke:none"
         id="path18" />
      <path
         d="m 3664.06,2172.93 c -53.74,-9.53 -107.32,-15.92 -160.61,-20.16 -16.08,-47.24 -32.6,-95.61 -48.91,-143.4 v -0.11 c 2.61,0.4 4.91,0.74 7.6,1.04 0,0.15 0,0.15 0.07,0.26 14.29,2.16 28.73,4.2 43.09,6.7 410.05,71.86 773.58,280.87 1039.6,594.19 14.06,16.6 27.91,33.49 41.46,50.73 -239.52,-247.94 -556.9,-425.2 -922.3,-489.25"
         style="fill:#232458;fill-opacity:1;fill-rule:nonzero;stroke:none"
         id="path20" />
      <path
         d="m 1545.28,3138.28 c -0.07,-0.03 -0.07,-0.03 -0.07,-0.03 0.67,-1.94 1.42,-3.73 2.15,-5.66 -0.07,0 -0.07,0.07 -0.07,0.07 0.15,-0.22 0.3,-0.41 0.3,-0.63 73.17,19.31 137.7,22.81 193.75,10.9 2.68,-0.52 5.43,-1.19 8.04,-1.82 2.75,-0.71 5.58,-1.3 8.26,-2.08 -1.12,2.6 -2.31,5.09 -3.58,7.66 -55,123.56 -95.93,255.72 -120.57,394.93 -17.2,98.33 -25.38,196.14 -25.38,292.71 0,786.87 554.14,1485.48 1347,1646.74 15.17,3.06 30.36,5.92 45.62,8.6 31.41,5.62 62.6,10.01 94.01,13.73 43.17,7.18 86.19,12.73 129.06,16.56 2.76,0.26 5.43,0.48 8.11,0.67 7.97,0.63 16.08,1.41 24.05,1.98 2.01,0.14 3.79,0.21 6.02,0.36 -31.48,1.12 -63.19,1.35 -94.9,0.79 -89.91,-1.78 -180.57,-10.42 -271.82,-26.39 -959.58,-168.15 -1603.19,-1085.56 -1435.13,-2045.1 19.06,-108.19 47.72,-213.17 85.15,-313.99"
         style="fill:#232458;fill-opacity:1;fill-rule:nonzero;stroke:none"
         id="path22" />
      <path
         d="m 1165.16,610.16 c 11.84,12.352 22.85,24.559 33.42,36.43 -59.25,-53.18 -144.4,-110.602 -259.619,-146.371 L 640.938,407.629 319.234,307.82 420.391,629.031 999.547,2468.91 l -218.164,111.28 -387.418,197.73 -5.059,-4.81 -102.715,-99.06 -4.992,-4.88 L 664.527,2473.3 882.387,2362.06 303.379,522.289 202.68,200.93 l 321.324,99.922 298.023,92.476 c 192.183,59.742 305.473,161.563 381.463,248.871 -11.68,-10.597 -24.63,-21.371 -38.33,-32.039"
         style="fill:#bebfbf;fill-opacity:1;fill-rule:nonzero;stroke:none"
         id="path24" />
      <path
         d="m 3752.27,1616.66 c -0.89,-2.22 -1.78,-4.35 -2.89,-6.62 -5.07,-11.95 -10.66,-23.55 -16.39,-34.87 -124.96,-246.18 -385.26,-327.28 -479.64,-356.46 l -345.88,-107.44 c -76,-23.71 -278.01,-86.45 -404.1,43.06 -33.86,34.95 -53.21,74.47 -63.11,115.11 l -99.07,-139.79 c 0.89,-2.53 1.94,-4.83 2.97,-7.29 l -4.46,-6.25 c 10.94,-24.04 26.05,-47.26 46.96,-68.74 125.72,-129.292 327.88,-66.608 403.8,-42.98 l 345.97,107.44 c 101.44,31.59 479.19,160.4 601.7,458.72 4.24,10.42 8.19,21.04 11.76,31.79 0.6,1.6 0.89,3.42 1.41,4.98 l 0.82,2.72 1.42,6.62 2.9,10.98 c -1.34,-3.68 -2.83,-7.29 -4.17,-10.98"
         style="fill:#bebfbf;fill-opacity:1;fill-rule:nonzero;stroke:none"
         id="path26" />
      <path
         d="M 2183.99,933.609 C 2093.4,845.508 1996.27,796.641 1873.53,773.5 c -173.2,-33.57 -266.99,39.75 -307.26,86.559 -35.65,41.429 -69.29,106.222 -69.44,202.381 l -106.14,-161.03 -5.29,-8.18 c 0.53,-3.171 0.97,-6.492 1.56,-9.57 11.77,-57.84 36.55,-100.379 62.46,-130.441 40.41,-46.711 134.05,-120.059 307.32,-86.641 159.36,30.172 304.51,104.762 432.23,262.551 12.51,15.34 24.63,31.121 36.77,48.133 -13.84,-15.641 -27.61,-30 -41.75,-43.653"
         style="fill:#bebfbf;fill-opacity:1;fill-rule:nonzero;stroke:none"
         id="path28" />
      <path
         d="m 3093.25,5509.95 c -31.27,-3.72 -62.37,-8.27 -93.64,-13.69 -919.09,-161.08 -1533.6,-1036.77 -1372.53,-1955.82 24.05,-137.97 64.69,-269 118.72,-391.63 1.27,-2.61 2.46,-5.13 3.58,-7.7 2.75,-0.71 5.58,-1.3 8.26,-2.08 38.93,-10.76 73.24,-29.36 102.94,-56.13 -71.08,142.62 -123.41,297.55 -152.44,462.52 -161.07,919.05 453.67,1794.6 1372.6,1955.78 4.61,0.78 9.38,1.49 14,2.2 43.17,7.18 86.19,12.73 129.06,16.56 2.76,0.26 5.43,0.48 8.11,0.67 -46.22,-1.64 -92.36,-5.17 -138.66,-10.68"
         style="fill:#bebfbf;fill-opacity:1;fill-rule:nonzero;stroke:none"
         id="path30" />
      <path
         d="m 4586.36,2662.18 c -239.52,-247.94 -556.9,-425.2 -922.3,-489.25 -53.74,-9.53 -107.32,-15.92 -160.61,-20.16 -16.08,-47.24 -32.6,-95.61 -48.91,-143.4 v -0.11 c -16.07,-47.34 -31.93,-94.12 -47.12,-138.67 l 150.88,46.85 295.79,91.85 0.38,0.08 0.97,0.29 -73.69,-302.38 c -6.86,-28.2 -15.41,-54.55 -25.31,-79.64 -1.34,-3.68 -2.83,-7.29 -4.17,-10.98 -0.89,-2.22 -1.78,-4.35 -2.89,-6.62 -5.07,-11.95 -10.66,-23.55 -16.39,-34.87 -124.96,-246.18 -385.26,-327.28 -479.64,-356.46 l -345.88,-107.44 c -76,-23.71 -278.01,-86.45 -404.1,43.06 -33.86,34.95 -53.21,74.47 -63.11,115.11 l -99.07,-139.79 -4.7,-6.62 -4.39,-6.17 -34.31,-48.58 c -22.4,-31.29 -44.73,-59.61 -67.21,-85.409 -1.64,-1.902 -3.12,-3.832 -4.84,-5.609 -13.84,-15.641 -27.61,-30 -41.75,-43.653 -90.59,-88.101 -187.72,-136.968 -310.46,-160.109 -173.2,-33.57 -266.99,39.75 -307.26,86.559 -35.65,41.429 -69.29,106.222 -69.44,202.381 l -106.14,-161.03 -5.29,-8.18 -5.36,-8.121 -76.95,-117.078 c -7.9,-12.883 -25.76,-39.16 -54.27,-71.011 -1.94,-2.161 -4.1,-4.321 -5.95,-6.59 l 0.07,-0.629 c -4.54,-5.66 -9.15,-11.61 -14.15,-17.449 -0.59,-0.903 -1.33,-1.832 -2.08,-2.684 -4.09,-4.879 -8.34,-9.977 -12.65,-15.148 -1.19,-1.61 -2.6,-3.129 -4.02,-4.77 -2.08,-2.449 -4.4,-5.02 -6.55,-7.551 -11.68,-10.597 -24.63,-21.371 -38.33,-32.039 -56.49,-43.89 -130.48,-87.199 -224.265,-116.269 L 642.938,401.18 309.109,297.77 l 104.957,333.3 577.442,1834.5 -213.246,108.7 -387.496,197.73 -1.86,1.11 5.059,4.81 415.859,127.84 708.066,217.82 c 10.04,3.05 19.95,5.88 29.7,8.45 v 0 c 73.17,19.31 137.7,22.81 193.75,10.9 2.68,-0.52 5.43,-1.19 8.04,-1.82 2.75,-0.71 5.58,-1.3 8.26,-2.08 38.93,-10.76 73.24,-29.36 102.94,-56.13 -71.08,142.62 -123.41,297.55 -152.44,462.52 -161.07,919.05 453.67,1794.6 1372.6,1955.78 4.61,0.78 9.38,1.49 14,2.2 43.17,7.18 86.19,12.73 129.06,16.56 -44.29,-1.71 -89.09,-5.32 -133.83,-10.53 1.05,0.11 2.08,0.3 3.28,0.52 46.3,5.51 92.44,9.04 138.66,10.68 7.97,0.63 16.08,1.41 24.05,1.98 2.01,0.14 3.79,0.21 6.02,0.36 850.09,56.8 1623.97,-535.79 1774.47,-1394.29 96.98,-553.48 -87.39,-1091.14 -450.09,-1466.5"
         style="fill:#141b1f;fill-opacity:1;fill-rule:nonzero;stroke:none"
         id="path32" />
      <path
         d="m 4870.91,3396.12 c -95.65,-281.43 -269.75,-526.09 -503.46,-707.85 -227.61,-177.05 -499.3,-285.45 -785.7,-313.55 l -10.28,-1.12 3.21,9.71 55.82,164.12 11.32,33.43 4.16,-8.38 8.56,4.21 -12.72,4.17 c 64.74,188.46 48.89,333.72 -46.09,431.78 -99.73,102.6 -253.44,103.75 -332.4,79.42 -206.86,-61.15 -280.84,-142.16 -378.27,-268.15 l -14.22,-18.38 2.61,23.11 c 10.86,111.54 -16,201.75 -80.38,268.18 -102.72,106.21 -253.67,95.73 -319.17,75.43 -65.28,-20.24 -122.59,-43.83 -175.29,-72.08 -43.46,-23.37 -148.49,-24.12 -166.13,5.21 -229.33,383.47 -278.45,845.85 -134.8,1268.48 130.55,383.62 402.68,693.63 766.35,872.6 363.9,179.08 775.36,205.77 1159.07,75.17 383.77,-130.66 693.62,-402.82 872.7,-766.42 179.09,-363.6 205.74,-775.28 75.11,-1159.09"
         style="fill:#e64e1d;fill-opacity:1;fill-rule:nonzero;stroke:none"
         id="path34" />
      <path
         d="m 4906.63,4535.04 c 38.64,-65.1 31.87,-66.32 31.87,-66.32 l 2.15,-1.05 501.38,588.28 C 2510.45,4789 1054.41,3646.69 1054.41,3646.69 c 0,0 705.61,346.75 1160.54,487.16 982.79,302.86 2587.34,578.07 2691.68,401.19"
         style="fill:#141b1f;fill-opacity:1;fill-rule:nonzero;stroke:none"
         id="path36" />
      <path
         d="m 5022.16,3995.81 c 36.39,-61.63 39.08,-89.62 39.08,-94.68 l 566.28,637.41 C 2533.82,4256.07 997.387,3050.75 997.387,3050.75 c 0,0 745.443,366.17 1226.193,514.36 1015.11,312.99 2676.8,636.25 2798.58,430.7"
         style="fill:#141b1f;fill-opacity:1;fill-rule:nonzero;stroke:none"
         id="path38" />
      <path
         d="m 4972.06,3427.3 -24.85,-180.46 1.26,-0.45 657.23,727.17 h -0.81 C 2490.86,3690.72 1122.66,2593.32 1122.66,2593.32 c 0,0 586.52,305.74 1062.59,451.44 1021.07,312.31 2664.59,589.01 2786.81,382.54"
         style="fill:#141b1f;fill-opacity:1;fill-rule:nonzero;stroke:none"
         id="path40" />
      <path
         d="m 5442.03,5055.95 136.44,160.07 C 2569.17,4846.31 1050.98,3646.69 1050.98,3646.69 c 0,0 4.69,2.57 11.98,6.77 123.49,92.86 1577.29,1147.41 4379.07,1402.49"
         style="fill:#bebfbf;fill-opacity:1;fill-rule:nonzero;stroke:none"
         id="path42" />
      <path
         d="M 5760,4687.77 C 2616.36,4320.53 997.387,3050.75 997.387,3050.75 c 0,0 1536.433,1205.32 4630.133,1487.79 L 5760,4687.77"
         style="fill:#bebfbf;fill-opacity:1;fill-rule:nonzero;stroke:none"
         id="path44" />
      <path
         d="M 5741.85,4124.35 C 3875.98,3901.55 2614.36,3413.79 1890.94,3049.93 c 2.01,-2.42 3.95,-4.73 5.67,-7.07 708.36,337.59 1920.64,768.25 3708.28,930.7 h 0.81 l 136.59,150.91 -0.44,-0.12"
         style="fill:#bebfbf;fill-opacity:1;fill-rule:nonzero;stroke:none"
         id="path46" />
      <path
         d="m 3185.69,1655.3 -6.18,2.12 6.18,-2.12 z m -1931.07,957.42 -360.472,183.95 724.002,222.67 c 37.22,11.5 72.95,19.13 104.58,19.13 v 0 c 30.6,0 57.68,-7.26 77.04,-25.98 v 0 c 19.35,-18.79 30.15,-48.19 30.15,-89.77 v 0 c 0,-38.29 -9.01,-87.34 -28.74,-149.9 v 0 l -303.16,-968.63 607.52,876.89 c 128.91,187.42 212.27,314.51 466.83,393.33 v 0 c 8.41,2.57 26.06,5.85 48.02,5.89 v 0 c 28.42,-0.04 63.71,-5.55 92.58,-27.24 v 0 c 28.96,-21.55 50.1,-59.32 50.02,-120.18 v 0 c 0,-40.82 -9.45,-92.33 -31.85,-157.31 v 0 l -272.42,-790.1 540.89,711.55 c 137.7,180.89 173.72,242.19 361.44,297.02 v 0 c 8.49,2.63 26.8,5.79 49.65,5.79 v 0 c 30.96,0 69.67,-5.79 101.6,-28.54 v 0 c 32.08,-22.74 55.98,-62.93 55.75,-127.69 v 0 c 0,-40.23 -8.93,-89.88 -30.15,-151.8 v 0 l -347.89,-1024.19 479.94,149.09 -2.83,-11.35 c -61.49,-251.58 -305.47,-332.9 -413.77,-366.73 v 0 l -345.96,-107.33 c -62.3,-19.43 -110.98,-28.25 -148.56,-28.25 v 0 c -38.19,0 -65.5,9.42 -83.07,27.22 v 0 c -17.57,17.93 -24.49,43.16 -24.49,72.42 v 0 c 0.07,40.59 13.02,90.02 31.34,143.84 v 0 l 228.8,667.39 -701.74,-989.46 C 2106.8,1080.53 2017.26,1021.55 1892.21,998.168 v 0 c -19.65,-3.758 -37.29,-5.578 -53.29,-5.578 v 0 c -43.1,-0.039 -74.43,13.32 -94.23,36.65 v 0 c -19.8,23.26 -27.91,55.5 -27.91,91.78 v 0 c 0,40.67 10.04,87.01 26.72,134.01 v 0 l 343.79,995.2 -876.73,-1332.339 c -0.52,-0.813 -79.72,-138.141 -271.822,-197.762 v 0 L 628.727,624 1254.62,2612.72 v 0"
         style="fill:#ffffff;fill-opacity:1;fill-rule:nonzero;stroke:none"
         id="path48" />
    </g>
  </g>
</svg>
