<?xml version="1.0" encoding="UTF-8"?>
<svg id="Ebene_1" xmlns="http://www.w3.org/2000/svg" version="1.1" viewBox="0 0 648.05 552.11">
  <!-- Generator: Adobe Illustrator 29.7.1, SVG Export Plug-In . SVG Version: 2.1.1 Build 8)  -->
  <defs>
    <style>
      .st0 {
        fill: #c4ced4;
      }

      .st1 {
        fill: #fff;
      }

      .st2 {
        fill: #e03a3e;
      }

      .st3 {
        fill: #002b5c;
      }
    </style>
  </defs>
  <path class="st2" d="M638.9,266.01c-4.7-12.8-17.2-38.1-8.8-58.2,6-14.6,13.3-19.6,12.7-41.4-4-47.2-37.6-57.3-45-58.2-16-1.8-25.1,8.3-25.3,16.2-.1,7.8,2.3,11.4,8.1,15.5,0,0-2.7-13.6,9.7-11.9,8.5,1.2,13.1,11.5,9.1,19-10,13.6-26.4,7.3-36.4-4.2-7.3-7.2-23.3-27.3-54.1-27.6-48.6-.3-62.7,38.9-98.1,26.4-13.5-5.3-20.9-17.7-13-33.1,6.5-8.7,16.8-10.5,23.6-6.5,5.3,4,8.2,10.1,5.9,16.4-2.2,4.4-6.4,5.6-11.3,2.8-3.6-2.6-3.8-5.6-2.3-7.2,2.8-1.9,4.5-.6,4.5-.6-2.7-3.7-5.5-5-10-2.9-10,6.8-9.1,26,18,27.1,30.4-2.9,49.4-27.1,38.7-64.8C456.8,52.31,427.7-.69,323.9,0c-103.8-.6-132.9,52.3-141,72.8-10.8,37.7,8.3,61.8,38.7,64.8,27.2-.9,28-20.3,18-27.1-4.5-2.1-7.3-.6-10,2.9,0,0,1.7-1.3,4.5.6,1.5,1.4,1.2,4.5-2.3,7.2-4.7,2.8-9,1.5-11.3-2.8-2.2-6.3.6-12.4,5.9-16.4,6.8-4,17.2-2.2,23.6,6.5,8.1,15.5.5,28-13,33.1-35.4,12.4-49.4-26.7-98.1-26.4-30.8.1-46.8,20.3-54.1,27.6-10,11.5-26.4,17.8-36.4,4.2-4-7.4.6-17.8,9.1-19,12.6-1.7,9.7,11.9,9.7,11.9,5.8-4.1,8.2-7.8,8.1-15.5-.1-7.8-9.2-18-25.1-16.2-7.4.9-41,10.9-45,58.2-.5,21.8,6.7,26.8,12.7,41.4,8.3,20.1-4.1,45.4-8.7,58.2-4.1,11.2-18.7,59.3.4,88.9,27.6,42.6,72.6,22.6,73,46.9.3,19.4-26.8,16.9-23.7,6.8,2.4-8,10.6-4.2,10.6-4.2-4.4-11.9-18.6-14.7-27.2-.5-8.2,13.6-2.8,30.8,9.4,38.7,29.5,19.1,59.5,7.4,82.9-6.3,22.8-13.5,45.1-28.1,56.4-28.3,17.1-.4,23,13.7,19,24.6-4.1,11.2-13.3,32.2-.9,49,12.6,16.7,31.2,21.8,60.5,27.4,26,5,48,28.7,54.3,43.1,6.3-14.4,28.2-38.1,54.3-43.1,29.2-5.6,48-10.8,60.5-27.4,12.6-16.8,3.2-37.8-.9-49-4-10.9,2.1-25.1,19-24.6,11.3.4,33.6,15,56.4,28.3,23.3,13.7,53.4,25.4,82.9,6.3,12.2-8,17.6-25.1,9.4-38.7-8.6-14.2-22.8-11.4-27.2.5,0,0,8.2-3.7,10.6,4.2,3.1,10.1-24,12.6-23.7-6.8.4-24.4,45.4-4.4,73-46.9,19.5-29.8,4.7-77.8.7-88.9"/>
  <path class="st0" d="M629.4,269.31l-2.2-5.5c-5.8-14.5-15.3-38.7-6.4-60,1.8-4.5,3.7-8.1,5.4-11.3,4.1-7.7,6.8-12.8,6.5-25.8-3.8-43.9-35.9-48.7-36.2-48.9-1.7-.1-3.2-.1-4.5,0,6.8,1,13,5.5,16.2,12.1,3.6,6.9,3.5,15-.1,21.5l-.4.6-.4.5c-5.4,7.3-12.8,11.4-21.3,11.8-10.4.4-21.7-5.1-30.4-15-.8-.8-1.5-1.7-2.4-2.6-7.8-8.2-21-21.8-44.5-21.9-20.6-.1-34.2,7.8-47.3,15.5-15.4,9-31.3,18.3-54,10.4l-.1-.1h-.1c-10.1-4-17.4-11-20.6-19.8-2.2-5.9-3.6-15.5,2.6-27.3l.4-.8.5-.6c9-12.2,24.8-16.2,36.7-9.2l.5.4.5.4c9.4,7.1,12.8,17.7,9.2,27.8l-.3.6-.3.5c-.5,1-1.2,1.9-1.8,2.8,7.6-2.3,13.6-6.5,17.7-12.4,6.3-9.2,7.4-22.2,3.2-37.3-10-25.1-40.4-66.6-131.5-66.1-90.9-.5-121.3,40.9-131.3,66.1-4.2,15.1-3.1,28.1,3.2,37.3,4.1,5.9,10.1,10.1,17.7,12.4-.6-.9-1.3-1.8-1.8-2.8l-.3-.5-.3-.6c-3.6-10.1,0-20.6,9.2-27.8l.5-.4.5-.4c11.9-6.8,27.7-2.9,36.7,9.2l.5.6.4.8c6.2,11.8,4.7,21.4,2.6,27.3-3.3,8.7-10.6,15.8-20.6,19.8l-.1.1c-22.7,8-38.6-1.3-54-10.4-13.1-7.7-26.7-15.6-47.3-15.5-23.5.1-36.7,13.7-44.5,21.9-.9.9-1.7,1.8-2.4,2.6-8.7,9.7-20,15.4-30.4,15-8.5-.3-15.9-4.4-21.3-11.8l-.4-.5-.4-.6c-3.6-6.5-3.6-14.6,0-21.5,3.3-6.5,9.4-11,16.2-12.1-1.3-.1-2.8-.1-4.5,0-.4,0-32.3,5-36.2,48.9-.3,13,2.4,18.1,6.5,25.8,1.7,3.2,3.6,6.8,5.4,11.3,8.7,21.2-.8,45.4-6.4,60-.8,2.1-1.5,4-2.2,5.5-6.9,19.2-15,57.7-.6,80,13,20,29.9,23.6,44.8,26.9,13.1,2.8,29.5,6.4,29.8,25.3.1,10-4.9,18.3-13.3,22.3-8.5,4-19.2,2.8-25.4-2.6-2.4-2.2-4.1-4.7-4.7-7.7-2.1,8,1.9,16.4,8.2,20.5,20.1,13.1,42.5,11,72.3-6.5l10.9-6.4c23.7-14.2,38.9-23,50.3-23.2,10.8-.3,19.8,3.7,25.3,11.4,5.4,7.4,6.7,17.7,3.3,26.7l-.9,2.6c-3.8,10.3-9.6,25.8-1.3,36.9,9.9,13.2,24.8,18,54.4,23.7,21.9,4.2,41,19.9,52.5,34.2,11.4-14.5,30.4-30,52.5-34.2,29.6-5.8,44.5-10.5,54.4-23.7,8.3-11.2,2.6-26.7-1.3-36.9l-.9-2.6c-3.3-9-1.9-19.1,3.3-26.7,5.5-7.7,14.5-11.8,25.3-11.4,11.4.3,26.5,9,50.3,23.2l10.9,6.4c29.9,17.6,52.2,19.6,72.3,6.5,6.2-4,10.3-12.6,8.2-20.5-.8,2.8-2.3,5.5-4.7,7.7-6.2,5.4-16.9,6.5-25.4,2.6-8.6-4-13.5-12.3-13.3-22.3.3-18.9,16.7-22.4,29.8-25.3,14.9-3.2,31.8-6.9,44.8-26.9,13.7-22.2,5.7-60.8-1.4-80"/>
  <path class="st3" d="M620.1,272.81c-.5-1.4-1.3-3.3-2.1-5.3-6.3-15.9-16.7-42.6-6.4-67.5,2.1-4.9,4.1-8.8,5.9-12.1,3.8-7.1,5.5-10.4,5.4-20.5-.6-6.4-1.8-11.7-3.5-16.2-.6,1.8-1.3,3.5-2.3,5.1l-.4.6-.3.6-.4.5-.4.5c-7.2,9.7-17.4,15.4-29,15.8-13.2.5-27.3-6.2-38-18.1-.9-.8-1.7-1.7-2.4-2.6-7.2-7.4-18.1-18.7-37.3-18.9-18-.1-29.8,6.8-42.2,14.1-15.6,9.2-35.3,20.6-62.3,11.2l-.1-.1s-.1,0-.4-.1h-.1c-12.8-5-22.2-14.1-26.4-25.5-2.9-7.8-4.9-20.4,3.1-35.5l.4-.8.4-.8.5-.6.5-.6c12.1-16.2,33.5-21.4,49.8-11.9l.5.3.5.4.5.4.5.4c6.2,4.6,10.4,10.6,12.7,17.2,2.9-7.7,1.5-16.9-.3-24-9.2-22.6-37.3-59.8-122.1-59.3-84.5-.5-112.6,36.7-121.8,59.3-1.9,7.1-3.2,16.3-.4,24,2.3-6.5,6.5-12.4,12.7-17.2l.5-.4.5-.4.5-.4.5-.3c16.3-9.4,37.7-4.2,49.8,11.9l.5.6.5.6.4.8.4.8c7.8,15.1,5.9,27.7,2.9,35.5-4.2,11.4-13.7,20.5-26.4,25.5h-.1s-.1.1-.4.1l-.1.1c-27.1,9.5-46.7-1.9-62.3-11.2-12.4-7.3-24.2-14.2-42.2-14.1-19.2.1-30.1,11.4-37.3,18.9-.8.9-1.7,1.8-2.4,2.6-10.6,11.8-24.8,18.6-38,18.1-11.4-.4-21.7-6-29-15.8l-.4-.5-.4-.5-.4-.6-.4-.6c-.9-1.7-1.7-3.3-2.3-5.1-1.7,4.5-2.9,9.9-3.5,16.2-.1,10.1,1.5,13.3,5.4,20.5,1.7,3.2,3.8,7.2,5.9,12.1,10.3,24.9-.1,51.6-6.4,67.5-.8,1.9-1.5,3.8-2.1,5.3-5.9,16.3-13.9,52.2-1.7,71.2,10.6,16.5,24.2,19.5,38.5,22.6,13,2.8,37.2,8.1,37.7,34.9.3,13.5-6.8,25.3-18.3,31,11.4.1,24.4-4.2,40.1-13.5,0,0,10.9-6.5,10.9-6.4,25.9-15.5,41.2-24.2,55.1-24.6,14.1-.4,26.2,5.1,33.7,15.6,7.3,10.1,9.1,23.9,4.6,35.9,0,0-.9,2.6-1,2.6-3.2,8.7-7.7,20.6-2.7,27.4,7.2,9.5,18,14,48.4,19.9,17.7,3.5,35.9,14,50.5,29,14.6-15,32.8-25.5,50.5-29,30.4-5.9,41.2-10.3,48.4-19.9,5.1-6.8.6-18.7-2.7-27.4-.4-1.3-.8-2.1-1-2.7v.1c-4.4-12.1-2.6-25.8,4.6-35.9,7.6-10.5,19.5-16,33.6-15.6,14,.4,29.4,9.2,55.1,24.6l5.4,3.2c2.3,1.3,4.1,2.4,5.5,3.5l-.1-.3c15.8,9.2,28.7,13.7,40.1,13.6-11.5-5.8-18.5-17.6-18.3-31,.5-26.8,24.6-32.1,37.7-34.9,14.4-3.1,27.8-6,38.5-22.6,12.2-19.1,4.3-55.1-1.6-71.3"/>
  <path class="st2" d="M323.6,65.51c-28.1,0-51-5.8-51.2-12.8-.3-7.1,22.7-12.8,51.2-12.8s51.4,5.8,51.2,12.8c-.2,7.2-23.1,12.8-51.2,12.8M323.2,36.31c-35.7,0-64.1,8.5-63.7,19s29,19,63.7,19,63.4-8.5,63.7-19c.4-10.6-28.2-19-63.7-19"/>
  <path class="st0" d="M299.2,41.91c-.8,12.6,23.7,15.9,28.5,9.4-7.6.3-10.6-3.1-9.4-8.1,5.4-21.7,75-16.7,76.7,11.7,1.3,21-32.8,9.5-60,68,23.6-50.7,73-48.1,73.4-65.4.7-35.2-107.2-45.2-109.2-15.6"/>
  <path class="st0" d="M390.3,288.21c-2.4-6.5-2.4-16.4,7.6-16.4-7.1-9.2-22.1,1.4-10.8,18.3,3.6,5.3,5.9,14.4,6.7,28.7,1.5,30-34,29.2-24.9,74.3-1.3-1.7-2.7-3.2-4.2-4.7-6.9-7.1-14.4-12.3-16.8-19.4-7.6-22.3,20.1-23.1,7.2-60.5-14.9-42.8-59.4-6.3-82-51.3-19.1-38.2,16.2-84.4,44.8-115.3-6,6.2-10.9,11.3-10.4,10.6-23.6,23.1-68.2,62.1-46.9,110.3,14.4,32.4,64.5,16.4,71.1,51.4,6.7,35.7-25.7,24.2-40.8,60.5-2.7,6.5-9.4,15.1-14.1,21.5-5.1,7.1-10.1,20.4-10.1,32.4v1.5c-2.6-.3-10.3-1.7-12.1-11.9-.3-1.4-.4-3.1-.4-4.9,0-1,.1-2.1.4-3.1,3.2-14.9,26.5-23.3,29-41.9,2.6-18.7-23.1-21.3-31.3-18.7,0,0,14.4,4.6,14.4,18.1,0,11.3-15,16.9-18.7,38.2-1.7,9.7-.6,23.2,19.1,29.1,2.6,16.9,15.8,43.7,56.9,43.6,46.7-.1,57.5-34.6,57.5-49.9,0-5.8-.9-11.4-2.4-16.9-13.6-62.6,13-44.2,22.7-72.3.3-.9.6-1.8.9-2.8,5.9-22-9.6-41.1-12.4-48.5h0Z"/>
  <path class="st3" d="M320.6,442.61c-11.8,1.2-21.5,10.3-26.9,20.1,7.3,6.5,16.7,10.6,26.9,11.4v-31.5ZM353.3,394.31c-7.3-6.3-16.5-10.1-26.8-10.8v17.4c8.1-.4,13.1-2.3,17.6-4,3.2-1.1,6-2.2,9.2-2.6M320.6,417.81v-10.5c-8.5-.4-14-2.2-18.5-3.8-5-1.8-8.6-2.9-14.6-1.7-5.6,7.6-9,16.9-9,27.1v1.4c12-7.9,26.3-12.1,42.1-12.5M326.6,424.01v12.3c12.8,1.4,25.5,10.5,31.4,22.3,5.4-6.2,9.1-13.6,10.5-21.9-10.6-8-24.3-12.2-41.9-12.7"/>
  <path class="st1" d="M320.6,436.31v-12.3c-15.8.5-29.9,5-41.3,13.3,1.4,7.7,4.9,14.7,9.7,20.5,7.5-12.4,19.3-20.5,31.6-21.5M346.4,402.81c-4.7,1.8-10.6,4-19.8,4.5v10.5c17.4.5,31.4,4.4,42.6,11.8v-.8c0-10.6-3.6-20.3-9.7-28.1-4.5-.7-8.6.4-13.1,2.1M304.2,397.61c4.2,1.5,9.1,3.2,16.4,3.5v-17.4c-10.3.8-19.6,4.9-26.9,11.4,4,.1,7.2,1.3,10.5,2.5M326.6,442.71v31.4c10.1-.6,19.4-4.5,26.7-10.8-4.1-9.6-14.5-19.1-26.7-20.6M103.4,198.11s-2.3,6.4-2.9,7.8c-.6,1.4-.6,1.8-4.2.5-6.7-2.4-13-12.8-13-12.8l8-1.2s2.7,7.2,8,9.6l4.6-12.6s6.8,11.3,8.8,10.3c2.9-1.4,4.6-9.2,4.4-12.2l3.3-.5c.6,3.8-1.7,12.3-6.2,16.7-1,1-2.7,1.9-4.5,1s-6.3-6.6-6.3-6.6M217.8,181.71c2.6.4,5.4,2.4,4.4,4.6-1.4,3.1-6.3,4.7-12.4,4.2-5.4-.4-6.8-4.1-6.8-4.1,0,0,3.1,1.7,5,1.9,2.9.3,6,.5,7.7-.9.8-.6.8-1.4,0-1.9l-8.1-1.4c-4-.6-6.3-3.5-4.5-5.5,1.9-2.3,5.5-3.5,9.1-3.2,6.4.5,8.1,2.7,8.1,2.7,0,0-9-1.3-10.6.8-.5.6,0,1.4,1.2,1.7l6.9,1.1h0ZM408.2,178.01c-.4-1.4-5.6-2.9-5.6-2.9h11.7s-1.2,1.4-1,2.9c.1,1.5.5,4.2.5,4.2-2.8.9-5,.9-8.2.9-6.4-.1-12.8-3.3-12.8-7.3s5.5-7.2,11.9-7.2,8.8,3.8,8.8,3.8c0,0-3.6-1.7-8.2-1.8-4.7,0-6.9,3.5-6.9,5.3,0,1.9,1.8,5.6,7.2,5.6.8,0,1.4-.3,2.2-.5-.1.1.9-1.2.4-3M506.2,186.31c-.4,2.6-3.2,4.4-6.4,4-3.1-.4-5.4-2.8-4.9-5.5.4-2.6,3.2-4.4,6.4-4,3.1.4,5.3,3,4.9,5.5M501.2,178.81c-6.8-.8-12.2,1.7-12.7,5.1-.4,3.5,4.2,7.2,11,8.1,6.8.9,12.3-1.7,12.7-5.1.4-3.5-4.2-7.3-11-8.1M155.6,191.31c.8-1.7,1.5-3.5,2.6-4.5.9-1,2.9,1.2,4.7,3.7l-7.3.8ZM165.4,196.11l9-1s-7.4-10-11.3-12.4c-3.1-1.9-4.7-2.7-6.4-.1-3.5,5.1-7.2,15.4-7.2,15.4l3.8-.4s.4-1.4,1-3.2l9.9-1c.7.9,1.1,1.9,1.2,2.7M267.4,184.11l6.9-.4s-5.9-8.5-.4-15c0,0-3.1-.8-5.3,1.4-1.3,1.3-1.8,3.5-1.9,5.8l-7.2.4c-.3-1.8-1.3-3.5-3.1-4.2-2.8-1.4-5.9.1-5.9.1,0,0,3.8,2.3,4.7,6,.9,3.6-1,6.9-1,6.9,0,0,4.5-1.7,5.3-6.2l7.2-.4c.2,3.1.7,5.6.7,5.6M314.6,167.51s-2.9-1-5.4,1.2c-3.8,3.5-2.1,12.7-2.1,12.7h6.8c.3-.2-5.2-7.7.7-13.9M463.2,174.51c-1.3-1.3-19.5-2.1-19.5-2.1l-.4,3.1s1.5-1.5,3.7-1.4c.8,0,2.6.3,4.5.4l-.1.1c-4,3.3-2.6,12.6-2.6,12.6l6.9.3s-4.5-6.7,0-12.4c1.7.3,2.9.4,3.5.5,2.1.5,3.6,2.6,3.6,2.6,0,0,1.7-2.4.4-3.7M367.4,166.61s-2.4-1-4.2,1.2c-1.2,1.3-1.7,3.6-1.9,5.9-4.1-3.7-7.7-5.3-10.5-5.9h-.1c-3.1-.6-5.1-.3-5.1-.3,0,0,3.3,3.8,4,7.4.5,3.7-1.4,6.9-1.4,6.9,0,0,5-1.7,5.3-7.3v-1.3c6.3,3.5,8.2,8.3,8.2,8.3h5.5c-.2.1-4.5-8.6.2-14.9M561.6,188.21s-2.2-1.4-4.4.4c-1.3,1.2-2.3,3.2-2.8,5.5-3.5-4.2-6.8-6.5-9.4-7.6h-.1c-2.9-1.2-5-1-5-1,0,0,2.7,4.4,2.7,8.1s-2.4,6.5-2.4,6.5c0,0,5.3-.8,6.4-6.3,0-.4.1-.8.1-1.3,5.6,4.5,6.8,9.6,6.8,9.6l5.5.9c-.3,0-3.2-9.4,2.6-14.8M339.5,140.51c4.1-8.3,4.2-20.9,3.6-28.6v-.1c4-6.8,10.6-16.5,18.6-23-5.8,16.7-4.5,42.6-22.2,51.7M315.1,143.01c6.7-11.3,4.5-24.2,2.3-31.6,3.6-6.2,9.5-17.3,10.9-26.7,0,0,9.7,8.8,10.8,26.7-11.8,25.9-24,31.6-24,31.6M293.7,133.01c9.4-24.9-4.9-44.4-11.8-51.9,12.7,4.5,26.5,16.4,31.3,29.8-7.3,15-19.5,22.1-19.5,22.1M371.9,76.01c-.9.4-1.8.9-2.7,1.5h-.4c-16,9-26.4,28.3-26.4,28.3-1-11.3-10.4-24.2-10.4-24.2l-8.3.3c-1.5,13.5-8.5,23.7-8.5,23.7-9.4-19.8-26-25.3-31-27.4-.1,0-15.9-5.5-15.9-5.5,0,0,.1.1.4.3l-1.4-.6s42.2,31.2,17.2,70.4c0,0,21-7.4,29.8-25.5,0,0,5.6,17.6-11,39,0,0,25.8-13.9,35.7-36,0,0,1.4,15.9-8.5,28.2,44.2-12.1,18.6-57.8,50.9-76.8l-9.5,4.3"/>
  <path class="st0" d="M110.7,224.41c20.6,0,21.3,19.6,21.3,19.6,5.6-20.1,18-22.2,23.1-21.3,4.4.8,21.4,3.8,26.7,33.5-2.4-40.5-23.7-44.4-28.6-45.1-5.3-.9-17.8,1.2-23.5,21.3,0,0-.6-19.6-21.7-19.6-12.7,0-19.4,15.3-20,16.8,1.5,4.7,3.1,11.9,3.1,11.9,0,0,6.5-17.1,19.6-17.1h0ZM82.2,214.71s-16.3,9.6-25,16.4c0,0,4.4,3.3,7.3,8,8.6-6.8,22.1-13.2,22.1-13.2.1.4-3-9.2-4.4-11.2h0Z"/>
  <path class="st2" d="M117.8,340.61s-1,2.6-1.3,10c0,0,9.7,7.4,20.8,6.5,0,0,1.2-3.8,1.3-10-11,.8-20.8-6.5-20.8-6.5ZM69,299.21l-.1-.1c-.8,23,4,47.7,29.8,64.9.5-2.7,1.3-9.9,1.3-9.9-22.7-15.2-29.7-35-31-54.9ZM154.4,352.71c-.6,3.5-.5,6.3-1.3,9.9,0,0,24.4-23,28.3-65.4-6.5,36-27,55.5-27,55.5Z"/>
  <path class="st1" d="M181.7,256.21c-5.3-29.8-22.3-32.8-26.7-33.5-5.1-.9-17.4,1.2-23.1,21.3,0,0-.6-19.6-21.3-19.6-13.2,0-19.6,17.1-19.6,17.1,0,0-1.5-7.1-3.1-11.9-.5-1.7-1.2-3.2-1.5-3.8,0,0-13.5,6.4-22.1,13.2,0,0,8.8,9,6.5,26.8-1.4,10.5-2.7,21.9-1.9,33.3,1.3,19.9,8.5,39.8,31,54.8-22.4-43-3.6-108.6,5.1-109.9,7.3-1.2,16.2,6.4,12.8,96.6,0,0,9.7,7.4,20.8,6.5,0,0,1.8-50.4.8-71.3-.6-12.7-3.1-33.1,10.8-33.6,11.7-.5,18.1,46,4.2,110.6,0,0,20.6-19.4,27.1-55.4,1.2-6.3,1.8-13,1.9-20.3,0-8.3-.7-15.1-1.7-20.9Z"/>
  <path class="st2" d="M584.2,305.01h-.2c1.2,21.3-13.3,43.1-33.2,44.8-17.7,1.4-23.5-8.8-24.2-15.3-.9,9.7,5.5,27.1,25.7,25.3,20.7-2.1,35.1-28.7,31.9-54.8Z"/>
  <path class="st0" d="M554.7,220.01c10.8-1.3,17.3,5.8,16.8,12.1-.1,1-.3,1.9-.5,2.7,2.7-3.7,6.5-23.5-12.3-25.4-9.6-.9-21.8,8-24.6,26.3,3.9-10.6,13.1-14.8,20.6-15.7Z"/>
  <path class="st1" d="M584,305.01c-1.3-25-17.2-41.7-28.2-56.4-8-10.6-3.7-17.4-1-19,3.2-1.9,8.6-1.3,9.5,2.7.6,2.4.1,7.4-3.8,8.1,0,0,8.2,1.3,10.4-5.4.3-.8.5-1.7.5-2.7.5-6.2-6-13.3-16.8-12.1-7.4.9-16.7,4.9-20.6,15.8-1.4,3.8-2.2,8.6-1.9,14.4.6,15.6,15.4,29.9,22.1,38.3,6.3,8,13.2,25,7.1,38.6-5,11-11.5,11.9-15.5,12.2-4,.3-10.5-3.8-9.1-8.8s8-6.3,9-5.1c0,0-4.2-4-8.2-3.8-6,.1-10.3,4.7-10.8,10.5v2.4c.8,6.4,6.5,16.7,24.2,15.3,19.8-1.8,34.3-23.8,33.1-45Z"/>
  <path class="st0" d="M377.9,183.61s-14.5,11.3-28.3,14.9c0,0-.4,4.1-.5,10,13.6-3.5,26.9-13.1,26.9-13.1.5-5,1.9-11.8,1.9-11.8h0ZM349,218.51c.1-6.2.1-10,.1-10-11.3-1.7-17.6-1.4-17.6-1.4-5,13.2-4,29.5-4,29.5,0,0,.6-8.1,3.7-18.2.2,0,6.6-1.4,17.8.1ZM374.2,211.51c-.3,3.3-.5,7.1-.8,11,10.3-.3,17.1-4,19.8-5.6l1.4-11.3c-2.7,1.8-10.4,5.6-20.4,5.9Z"/>
  <path class="st2" d="M368.6,329.61c-17.7.5-20.3-17.4-21.2-27.3v-.6c-.1,5.1-.1,9,0,10.6.9,9.9,3.5,28.1,21.2,27.3,17.7-.9,17.2-24,16.8-29.8.2,5.8-3.7,19.3-16.8,19.8Z"/>
  <path class="st1" d="M374.2,211.51c.5-7.2,1.2-12.8,1.9-16,0,0-13.3,9.6-26.9,13.1,0,0,0,3.8-.1,10-11.2-1.7-17.6-.1-17.6-.1-3.2,10.1-3.7,18.2-3.7,18.2,0,0,7.8-4.7,21.2-4.7-.4,26-1.9,61.8-1.4,69.6v.6c.9,9.9,3.5,27.8,21.2,27.3,13.1-.4,17.2-14,16.8-19.8,0,0-1.4,6.9-6.9,6.4s-7.6-2.3-8.5-15.1c-.5-8.2,1.3-40.4,2.9-69.5,15.5-3.7,20.3-14.6,20.3-14.6-2.7,1.7-9.5,5.4-19.8,5.6.1-3.9.4-7.6.6-11Z"/>
  <path class="st0" d="M437.3,214.51c.6-3.6,1.4-7.4,2.2-11.3,0,0-23.5,7.4-29.2,9.7,0,0-.1,4.2-.5,10.8,0,.4.1.8.1,1.2v-1c12.9-6.7,26.3-9.1,27.4-9.4Z"/>
  <path class="st2" d="M447.1,315.01c.3,5.8-3.8,19.4-16.9,19.8-17.7.5-21.2-20.1-22.1-30.1,0-.6-.1-1.4-.1-2.2,0,5.4,0,9.7.3,12.2.9,9.9,4.4,30.7,22.1,30.1,17.6-.7,16.9-24.1,16.7-29.8Z"/>
  <path class="st1" d="M447.1,315.01s-1.5,6.9-6.9,6.4c-5.5-.6-8.1-5.6-9.9-15.8-2.2-12.7-3.5-38.5,7.2-90.9h-.1c-1.2.3-14.5,2.6-27.3,9.2v1c-.4,8.1-2.7,61.6-2.1,77.6,0,.9.1,1.5.1,2.2.9,9.9,4.4,30.7,22.1,30.1,13-.5,17.1-14.1,16.9-19.8h0Z"/>
  <path class="st0" d="M423.5,193.61c4.2,0,7.6,3.3,7.7,7.4,2.2-2.7,2.4-6.2,2.4-8.8,0-4.2-3.7-7.6-8.1-7.7-10-.1-11,13.2-10,14.5.1.1.3.3.3.4,1-3.3,4-5.9,7.7-5.8h0Z"/>
  <path class="st1" d="M431.2,200.91c-.1-4.1-3.6-7.4-7.7-7.4-3.6,0-6.7,2.4-7.6,5.8-.1.6-.3,1.3-.3,1.9,0,4.4,3.5,7.8,7.7,7.8s7.8-3.5,7.8-7.8v-.3h.1Z"/>
  <path class="st2" d="M508.6,327.51c-6.3,10.6-17.1,11.5-25.8,8.2-7.1-2.7-12.4-8.1-15.3-12.3-3.2-4.6-7.3-15.3-8.6-30.8-.1,21.2,5.1,35.3,9,40.8,2.9,4.2,8.3,9.6,15.3,12.3,8.7,3.2,19.6,2.6,25.8-8.2,3.5-6.2,3.5-16.3,2.1-20.5.5,3.1-.2,6.5-2.5,10.5h0Z"/>
  <path class="st0" d="M498.6,211.21c9.6-1.2,21.2,6.5,19,21.2l-.4,2.3c2.8-5.6,9.2-28.7-12.8-33.6-10.9-2.4-33.6,7.2-40.7,44.1l-.8,4.2v-.1c8-29.8,26.5-37.1,35.7-38.1h0Z"/>
  <path class="st1" d="M498.6,211.21c-9.1,1-27.7,8.3-35.7,38-.6,2.3-1.2,4.6-1.7,7.2-2.7,14-3.1,26.2-2.3,36.2,1.3,15.6,5.4,26.2,8.6,30.8,2.9,4.2,8.3,9.6,15.3,12.3,8.7,3.3,19.5,2.4,25.8-8.2,2.3-4,2.8-7.4,2.4-10.5-1.2-7.8-8.8-12.3-8.8-12.3,5.8,8.6,2.2,17.2-8.1,18.2-12.1,1.3-16.2-27.6-15-58.6s12.2-40.4,16.7-41.4,10.1,1.5,10.3,6.4c.1,4.1-.8,6.9-3.3,8.5-2.6,1.7-7.4,0-7.4,0,.1,4.9,3.8,8.2,7.1,9.2,3.1.9,12.1,0,14.9-12.4l.4-2.3c2-14.6-9.5-22.1-19.2-21.1h0Z"/>
  <path class="st0" d="M301,204.31c8.5-.8,13.9,4.5,14.7,9.9,1.2-9-4.1-20.3-15-19.9-9.4.4-22.1,5.9-21.9,27.2,0,2.4.4,4.9.9,7.3,1.4-18.2,12.7-23.9,21.3-24.5Z"/>
  <path class="st2" d="M293.4,330.31c-16.7.8-21.3-10.4-21.4-16.5-1.2,10.8,3.6,27.3,21.4,26.5,18.1-.8,31.8-23.7,31.3-46.7-1.9,18.8-14.7,36-31.3,36.7Z"/>
  <path class="st1" d="M301.1,232.01c-6.8-10.6-2.8-17.1-.3-18.5,2.9-1.7,7.8-.9,8.5,2.9.5,2.3-.1,7.2-3.7,7.7,0,0,9.2,2.1,10.1-7.6.1-.8,0-1.7-.1-2.6-.9-5.4-6.3-10.5-14.7-9.9-8.6.8-19.9,6.3-21.3,24.4-.1,1.3-.1,2.6-.1,4,.1,15.3,13,29.6,18.7,38.2,5.4,8,11.3,24.9,5.3,38-4.9,10.5-10.9,11.2-14.5,11.3-3.6.1-9.4-4.1-8-9s7.4-5.9,8.2-4.6c0,0-3.7-4-7.3-4.1-5.4-.1-9.5,4.2-10.1,9.9,0,.5-.1,1,0,1.5.1,6.2,4.7,17.3,21.4,16.5,16.5-.8,29.4-18,31.3-36.7.1-1.8.3-3.7.3-5.6-.3-24.1-14.2-41.1-23.7-55.8h0Z"/>
  <path class="st2" d="M234.2,335.61c-11.8,8.5-32.6,8.6-36.8-2.9-1.3-3.5-1.7-6.4-1.3-8.8-6.4,30.4,25.8,30,37.8,21.8,14.1-9.5,28.1-36.9,28.5-83.4-2.3,40.3-15.4,64.1-28.2,73.3Z"/>
  <path class="st0" d="M257.8,194.71c-10.5,3-21.8,13.2-21.8,13.2,0,0,.8,4.4,1.7,11,0,0,11-9.7,21.4-13-.2.2-.4-3.2-1.3-11.2ZM199.9,221.31c9.7-7.2,19.9-9.2,19.9-9.2v.5-.5c.1-3.7.4-7.7.8-11.9,0,0-12.8,2.7-22.8,9.9,0,0-2.4,23.5,1.9,46l.1-.3c-1.4-18.2.1-34.5.1-34.5Z"/>
  <path class="st1" d="M258.9,206.11c-10.3,3.2-21.4,13-21.4,13,0,0,7.1,37.8-.3,66.3,0,0-24.1,17.6-17.4-72.5v-.5s-10.1,2.1-19.9,9.2c0,0-1.5,16.3-.1,34.5,1.9,24.5,9.1,52.5,32.2,49.8,0,0-5.1,25.3-18.5,25.9-6.5.3-8-6.9-7.3-10.3.6-3.2,3.3-5.8,4.9-6.2,0,0-2.7-1.5-5.8-1-4.5.8-8.7,3.8-9.4,9.6-.3,2.4.1,5.4,1.3,8.8,4.2,11.5,25,11.4,36.8,2.9,12.8-9.2,25.9-33,28.1-73.4,1.1-16.1.2-34.7-3.2-56.1h0Z"/>
</svg>