<?xml version="1.0" encoding="UTF-8"?>
<svg id="Ebene_1" xmlns="http://www.w3.org/2000/svg" xmlns:xlink="http://www.w3.org/1999/xlink" version="1.1" viewBox="0 0 384.16 383.3">
  <!-- Generator: Adobe Illustrator 29.7.1, SVG Export Plug-In . SVG Version: 2.1.1 Build 8)  -->
  <defs>
    <style>
      .st0 {
        fill: none;
      }

      .st1 {
        mask: url(#mask);
      }

      .st2 {
        fill: #e0393d;
      }

      .st3 {
        fill: #fff;
        fill-rule: evenodd;
      }

      .st4 {
        fill: #fefefe;
      }
    </style>
    <mask id="mask" x="0" y="0" width="384.16" height="383.3" maskUnits="userSpaceOnUse">
      <g id="b">
        <path id="a" class="st3" d="M0,383.3h384.16V0H0v383.29Z"/>
      </g>
    </mask>
  </defs>
  <g class="st1">
    <path class="st4" d="M333.17,60.34C297.2,21.99,244.83,0,189.47,0c-4.73,0-9.49.15-14.19.48C85.96,6.53,42.77,69.84,38.29,76.81c-6.58,8.35-63.27,84.72-25.3,190.25l.71,2.28c.37,1.14,37.34,113.97,169.52,113.97h.03c7.08,0,14.45-.33,21.87-.99,98.71-8.64,172.14-81.42,178.58-176.91,3.67-54.87-14.28-106.39-50.53-145.07"/>
  </g>
  <path class="st2" d="M294.28,234.94c13.41-29.4,6.66-61.37-15.93-86.6-6.28-7-14.1-11.77-21.67-16.38-4.92-3-10.02-6.1-14.58-9.78-2.14-1.73-3.91-4.06-5.77-6.54-2.32-3.07-4.95-6.57-8.71-9.29-20.94-15.11-45.57-20.64-69.89-27.81-11.49-3.38-22.68-5.88-33.2-9.62,12.99-9.01,29.7-14.83,47.93-16.6,5.73-.56,11.45-.85,17.03-.85,53.74,0,100.66,27,125.55,72.22,24.91,45.31,23.27,100.28-4.31,143.49-28.33,44.38-78.59,67.99-135.48,63.31-34.03-2.78-70.29-20.8-81.45-39.87,6.91-4.24,69.04-37.1,111.56-23.86,12.19.04-7.31,29.48-7.31,29.48,0,0,70.95-5.85,96.25-61.3M323.72,68.84C286.69,29.36,231.85,9.1,175.88,12.88,87.04,18.91,47.64,84.82,47.64,84.82c0,0,70.39,21.28,80.09,24.28,6.58,2.05,50.53,12.88,70.34,23.76,4.13,2.26,8.19,6.81,12.19,11.05,2.97,3.14,5.76,6.11,8.66,8.49,5.2,4.25,10.3,7.93,15.22,11.49,12.21,8.81,22.75,16.4,27.65,27.96,4.25,10.05,4.41,20.46.47,30.14-3.42,8.43-9.87,15.93-17.87,21.07.81-4.26,1.9-10.36-3.87-14.16-2.46-1.61-15.75-4.73-24.64-5.62-4.25-.44-51.81-2.66-117.85,32.91,19.81-26.34,33.99-30.73,33.99-30.73-.53-3.18-106.83,39.78-106.83,39.78,0,0,36.67,117.17,178.58,104.72,92.33-8.11,161.12-75.47,167.16-165.39,3.45-51.37-13.32-99.57-47.2-135.72"/>
  <path class="st2" d="M189.11,145.83c-22.82.9-43.79-26.46-61.4-8.54,3.41.86,10.35-1.78,11.43,1.42-9.04,35.36,49.58,44.47,49.97,7.12"/>
  <path class="st0" d="M-57.69-58.15h500v500H-57.69V-58.15Z"/>
</svg>