<?xml version="1.0" encoding="UTF-8"?>
<svg id="Ebene_1" xmlns="http://www.w3.org/2000/svg" version="1.1" viewBox="0 0 373.91 381.42">
  <!-- Generator: Adobe Illustrator 29.7.1, SVG Export Plug-In . SVG Version: 2.1.1 Build 8)  -->
  <defs>
    <style>
      .st0 {
        fill: none;
      }

      .st1 {
        fill: #2d2925;
      }

      .st2 {
        fill: #fefefe;
      }
    </style>
  </defs>
  <path class="st2" d="M373.84,59.3l.03-16.9-9.98-5.04c-3.03-1.52-75.1-37.35-174.69-37.35h-4.5C84.74,0,13.02,35.85,10.05,37.34L.04,42.38l.03,16.56c-.81,42.46,4.48,150.3,70.73,234.42,54.07,68.71,105.9,85.01,111.62,86.63l4.98,1.42,4.96-1.39c2.23-.63,55.18-16.09,110.73-86.67,66.31-84.14,71.58-191.62,70.75-234.07"/>
  <path class="st1" d="M363.23,59.38c.03-3.75.03-5.86.03-5.86v-4.59l-4.16-2.1c-2.92-1.47-72.82-36.21-169.89-36.21h-4.5C87.7,10.62,17.72,45.35,14.82,46.82l-4.17,2.1v4.6s0,2.11.04,5.63c-.79,41.3,4.28,146.17,68.45,227.65,52.05,66.13,100.81,81.47,106.2,82.99l2.09.6,2.07-.59c2.11-.58,51.79-15.09,105.26-83,64.23-81.51,69.29-186.24,68.47-227.43"/>
  <path class="st2" d="M187.42,359.18c-3.95-1.14-50.38-15.41-100.26-78.81C21.4,196.91,21.12,87.62,21.62,61.88c-.03-3.62-.03-5.66-.03-5.66,0,0,.06-.03.2-.11v-.21l1.46-.69c3.49-1.59,11.27-5,22.55-9.04,28.01-10.25,78.19-24.64,138.92-24.64h4.43c60.62,0,110.67,14.32,138.72,24.56,11.4,4.09,19.28,7.52,22.79,9.13l1.46.67v.23c.12.07.2.11.2.11,0,0,0,2.04-.04,5.66.51,25.74.24,135.03-65.53,218.49-50.01,63.53-95.54,77.76-99.34,78.81M290.16,283.18c62.84-79.78,67.79-182.53,66.96-222.99.03-3.77.03-5.85.03-5.86v-1.53l-1.37-.69c-2.86-1.45-71.3-35.45-166.59-35.45h-4.49C89.49,16.66,21,50.66,18.11,52.11l-1.39.69v1.53s0,2.09.05,5.62c-.77,40.61,4.19,143.48,66.98,223.23,50.75,64.49,97.79,79.3,102.98,80.77l.7.19.68-.19c2.02-.55,49.86-14.54,102.04-80.77"/>
  <path class="st2" d="M308.49,107.8c-23.35-24.15-26.05-28.07-26.05-38s4.3-11.15,8.52-11.15c2.19,0,4.89.45,8,1.34,16.9,4.86,16.9,14.08,16.9,20.92v9.8c0,.77.51,1.48,1.24,1.73,4.08,1.39,6.12,2.11,10.4,3.69.55.2,1.19.13,1.68-.2.5-.36.79-.91.79-1.52v-8.19c0-10.35,0-27.68-30.22-36.34-21.14-6.06-31.92.42-31.92,18.76,0,15.23,9.33,24.34,24.81,39.44l3.12,3.06c18.35,17.99,22.07,23.92,22.07,35.33,0,4.09-.62,6.95-1.88,8.74-1.31,1.83-3.38,2.66-6.53,2.66-2.45,0-5.55-.54-9.21-1.59-8.05-2.31-13.89-5.46-17.35-9.38-4.22-4.75-4.22-8.79-4.22-16.83v-8.7c0-.85-.58-1.59-1.41-1.78-4.52-1.02-6.69-1.46-11.02-2.32-.53-.1-1.09.04-1.52.38-.42.35-.66.87-.66,1.41v15.41c0,14.49,11.84,25.52,34.28,31.92,6.33,1.81,11.79,2.72,16.26,2.72,17.57,0,17.57-14.15,17.57-20.18,0-15.93-8.11-25.05-23.65-41.11M261.45,42.3c-22.31-4.09-45.12-6.29-67.77-6.55-.5-.02-.97.18-1.31.52-.35.36-.54.82-.54,1.31v7c0,1,.8,1.81,1.8,1.84,10.62.12,16.08.35,26.14,1.15v101.31c0,.96.71,1.75,1.67,1.84,4.44.35,6.59.56,11.06,1.04.05.02.14.03.19.03.46,0,.88-.17,1.22-.48.38-.35.62-.84.62-1.37V48.98c10.08,1.14,15.62,1.96,26.25,3.92.54.11,1.1-.05,1.51-.4.4-.34.65-.86.65-1.4v-6.99c0-.89-.62-1.64-1.49-1.8M182.5,35.93c-18.98.31-38.13,2-56.91,5.01-.89.14-1.54.91-1.54,1.8v109.84c0,.54.24,1.05.65,1.4.34.28.76.42,1.19.42.08,0,.19,0,.28-.01,18.52-2.97,37.42-4.65,56.18-4.97.99-.01,1.79-.83,1.79-1.83v-6.84c0-.49-.19-.98-.55-1.31-.34-.34-.86-.53-1.32-.52-17.56.3-26.94.96-43.72,3.14v-43.47c13.93-1.8,21.29-2.41,35.87-2.94.98-.04,1.77-.86,1.77-1.84v-6.7c0-.5-.2-.98-.57-1.32-.35-.34-.83-.54-1.34-.51-14.26.53-21.94,1.15-35.5,2.9v-38.63c17.08-2.24,26.01-2.87,43.79-3.15,1-.01,1.79-.83,1.79-1.83v-6.84c0-.5-.2-.98-.54-1.31-.35-.35-.84-.54-1.32-.53M109.76,43.81c-4.38.88-6.5,1.34-10.79,2.32-.84.19-1.42.94-1.41,1.81l.88,79.89c0,5.31.14,10.18.35,14.54-10.8-27.6-22.07-56.18-33.51-85.11-.37-.9-1.37-1.38-2.3-1.06-6.37,2.11-9.46,3.2-15.73,5.57-.7.25-1.18.96-1.18,1.7v109.85c0,.6.29,1.17.79,1.51.3.21.67.33,1.05.33.2,0,.44-.04.64-.13,3.87-1.46,5.83-2.16,9.96-3.61.73-.25,1.23-.94,1.22-1.72-.15-26-.3-51.99-.42-77.95,0-6.84-.08-10.66-.31-15.5,11.27,28.67,22.25,56.74,32.66,83.6.35.86,1.25,1.35,2.15,1.1,6.69-1.64,9.97-2.38,16.68-3.72.84-.18,1.46-.92,1.46-1.79V45.6c0-.55-.25-1.07-.67-1.42-.44-.34-1-.48-1.52-.37M248.54,292.44c-1.06.73-2.11,1.51-3.29,2.31-3.08,2.14-6.07,3.96-9.28,5.87-1.48.91-3.01,1.81-4.6,2.8-10.93,6.77-24.03,14.26-38.08,18.56-4.07,1.26-7.81,2.18-11.45,2.76-3.39.49-6.55.74-9.7.74h-.61c-4.15-.03-8.17-.42-12.04-1.14,14.69,5.21,31.01,6.34,47.26,2.3,9.3-2.3,17.84-6.12,25.39-11.12,7.25-5.67,13.11-13.72,16.87-23.44-.16.12-.31.23-.48.35h0ZM174.16,321.38c9.33-1.1,17.06-3.46,25.86-7.87,1.28-.63,2.55-1.28,3.8-1.94,1.07-.55,2.13-1.11,3.21-1.66,7.47-3.9,15.49-8.15,25.18-13.35,3.41-1.83,6.82-3.78,10.12-5.66l3.87-2.15c1.5-.81,2.9-1.56,4.32-2.42.13-.08.3-.19.47-.3,1.24-4.53,2.05-9.45,2.42-14.65-9.52,4.76-23.83,8.95-44.82,13.16-26.88,5.34-53.17,2.95-76.65-6.95-15.77-6.64-23.23-15.84-26.36-20.92.4,3.61,1.03,7.22,1.94,10.83,5.18,20.46,17.74,37.17,34.19,48l-.07-.14,2.31,1.36c1.87,1.11,4.19,2.08,6.92,2.87,5.13,1.53,10.17,2.28,15.46,2.28,2.48,0,5.07-.17,7.83-.49h0ZM257.92,286.95c-.06-.33-.14-.34-.31-.34-.25,0-.82.12-1.96.85-.2.16-.42.3-.66.46-.19.13-.39.25-.56.38-2.04,5.4-4.75,10.51-7.84,15.06,4.5-4.78,8.39-10.08,11.58-15.76h-.11l-.14-.65h0ZM261.06,266.67c-.29.2-.55.4-.84.62-.45.33-.9.67-1.39,1-.38,5.19-1.35,10.33-2.81,15.29,2.57-.9,3.45.14,3.72.73.02.08.04.18.06.27,4.24-8.31,7.03-17.34,8.18-26.74-1.31,3.14-3.43,6.41-6.92,8.84h0ZM259.08,262.22c.2-.15.4-.3.58-.42,6.88-4.78,8.65-12.53,8.9-13.81,0-6.51-.8-13.11-2.48-19.7-.06-.27-.13-.52-.21-.79-.63,6.05-3.61,11.65-8.87,16.66,1.4,6.04,2.09,12.1,2.09,18.05h0ZM136.59,272.11c19.38,6.39,30.15,8.44,44.3,8.44,5.15,0,11.01-.31,18.47-.92,20.67-1.78,42.46-8.61,54.17-14.28-.02-5.69-.54-11.45-1.55-17.18-3.47,2.1-7.4,3.09-12.24,3.09s-10.74-.92-20.29-3.22c-11.27-2.67-27.41-12.28-41.63-20.74-7.8-4.66-15.17-9.05-21.27-12.05-23.23-11.48-36.41-9.87-39.92-9.12-8.29,13.78-12.46,30-11.39,46.7,1.56,2.23,9.51,12.09,31.36,19.28h0ZM148.44,205.67c7.9,3.3,18.26,8.85,29.2,14.74,17.27,9.27,35.14,18.88,47.23,21.88,10.77,2.66,19.62,2.43,25.83-.69-.02-.12-.04-.24-.07-.35-.07-.46-.16-.88-.3-1.33-5.24-22.01-32.8-70.2-80.53-70.2-2.01,0-4.07.11-6.1.29-18.45,5.35-33.64,16.67-43.93,31.33,1.74-.55,4.02-1.05,7.12-1.05,5.83,0,13.08,1.8,21.55,5.38h0ZM255.41,238.14c1.25-1.29,2.23-2.72,2.98-4.2,5.76-11.08.59-23.49-1.57-27.81-16.05-26.47-46.35-42.05-77.94-39.02,32.71,1.76,64.39,31.02,76.53,71.03Z"/>
  <path class="st2" d="M219.17,264.5c0-5.95,0-14.8-7.05-21.67.79-1.38,1.43-2.83,1.91-4.34,1.18-3.54,1.27-7.43,1.21-9.95l-.03-16.38v-.25c-.19-6.09-1.11-12.53-6.09-18.12-4.47-5.03-11.19-7.67-19.45-7.67l-22.25.05c-2.42,0-4.83.94-6.6,2.72-1.71,1.73-2.73,4.09-2.73,6.58l.21,107.6c0,3.19,1.63,6.17,4.37,7.81,1.51.91,3.23,1.42,5.04,1.42l22.62-.04c8.17-.02,15.01-2.35,20.35-6.94l.07-.04c7.46-6.7,8.26-14.58,8.45-22.13v-.08l-.04-18.55h0Z"/>
  <path class="st1" d="M189.2,237.92c-1.91.54-2.83.7-6.99.85h-4.13c-.71.03-.9-.31-.9-.85,0-.33-.04-34.58-.04-34.58,0-.55.19-.88.77-.94h6.91c3.06.1,6.45.19,8.64,1.54,1.02.62,1.62,1.36,2,2.35.3,1.03.59,2.81.76,5.86l.04,13.39c-.04.22-.04.57-.04,1.02-.11,3.46-.17,9.33-7.03,11.38h0ZM197.01,293.79c-1.67,1.18-3.68,1.87-8.86,2.06,0,0-8.88.02-9.57.02-.8,0-1.11-.49-1.11-1.25,0-6.55-.09-42.63-.09-42.93,0-.34.09-.8.77-.8s4.47-.04,4.47-.04c4.71.23,9.64.59,12.84,2.62,1.85,1.12,3.1,2.7,3.9,4.81.71,2.16.85,4.55.85,6.78l.03,15.92c0,7.26-.46,10.68-3.23,12.82h0ZM213.4,265.24c0-6.03,0-13.38-6.26-18.57-1.31-1.09-2.88-2.04-4.73-2.79,2.9-1.95,4.88-4.64,5.98-8.01,1.01-3.02.96-6.76.92-8.22l-.04-17.08c-.17-4.73-.68-10.12-4.51-14.5-3.39-3.76-8.52-5.69-15.04-5.67l-23.19.06c-.69,0-1.34.27-1.87.79-.52.49-.75,1.15-.75,1.83l.2,112.28c0,.89.46,1.78,1.24,2.24.44.27.96.41,1.48.41l23.61-.06c2.49,0,10.19-.02,16.6-5.49,5.68-5.14,6.25-11.2,6.42-18.01l-.04-19.21h0Z"/>
  <path class="st0" d="M-61.97-58.7h500v500H-61.97V-58.7Z"/>
</svg>