<?xml version="1.0" encoding="UTF-8"?>
<svg id="Ebene_1" xmlns="http://www.w3.org/2000/svg" xmlns:xlink="http://www.w3.org/1999/xlink" version="1.1" viewBox="0 0 384.12 424.45">
  <!-- Generator: Adobe Illustrator 29.7.1, SVG Export Plug-In . SVG Version: 2.1.1 Build 8)  -->
  <defs>
    <style>
      .st0 {
        fill: none;
      }

      .st1 {
        mask: url(#mask);
      }

      .st2 {
        fill-rule: evenodd;
      }

      .st2, .st3 {
        fill: #fff;
      }

      .st4 {
        mask: url(#mask-1);
      }

      .st5 {
        fill: #bb9753;
      }

      .st6 {
        fill: #008348;
      }

      .st7 {
        fill: #fab383;
      }

      .st8 {
        fill: #061922;
      }

      .st9 {
        fill: #fefefe;
      }

      .st10 {
        fill: #a73832;
      }
    </style>
    <mask id="mask" x="11.54" y="11.54" width="359.82" height="400" maskUnits="userSpaceOnUse">
      <g id="b">
        <path id="a" class="st2" d="M11.54,11.54h359.82v400H11.54V11.54Z"/>
      </g>
    </mask>
    <mask id="mask-1" x="11.54" y="11.54" width="359.82" height="400" maskUnits="userSpaceOnUse">
      <g id="d">
        <path id="c" class="st2" d="M11.54,11.54h359.82v400H11.54V11.54Z"/>
      </g>
    </mask>
  </defs>
  <path class="st0" d="M-57.69-38.46h500v500H-57.69V-38.46Z"/>
  <path class="st9" d="M384.12,200.21c0-51.27-19.98-99.47-56.26-135.74-30.59-30.57-69.15-49.45-111.72-54.73-.62-.47-1.26-.92-1.92-1.34-18.79-12.09-35.26-3.98-44.09.39l-1.93.94c-13.16,1.64-26.13,4.65-38.68,8.98-.62-.67-1.26-1.34-1.9-1.99C116.85,5.92,102.54,0,87.29,0,55.83,0,30.24,25.59,30.24,57.03c0,10.28,2.65,20.07,7.73,28.72C13.44,118.72,0,159.05,0,200.21c0,51.28,19.98,99.49,56.26,135.75,15.8,15.79,33.87,28.53,53.79,37.93.01,3.51.35,6.76,1.01,9.68-.8,1.27-1.49,2.71-1.99,4.38-4.72,8.66-.3,18.22,13.7,28.86,8.52,6.52,15.15,7.64,20.63,7.64,1.48,0,2.88-.08,4.21-.16l1.99-.11c9.62-.39,17.47-6.94,23.4-13.86l9.28-1.39c3.79-.56,8.48-1.49,14.61-4.07,9.32-3.92,13.12-9.24,14.56-13.64,22.36-2.2,43.77-8.21,63.87-17.91.56,3.09,1.15,7.41,1.63,12.98.65,7.6,1.97,12.81,5.35,23.69,2.87,9.25,7.69,13.51,14.43,12.69,3.09-.38,10.33-2.65,11.02-16.04.18-3.63.66-13.27.24-20.61-.59-9.99-.14-16.82.36-18.48,1-3.18,1.88-8.76-1.28-13.57,7.35-5.51,14.31-11.55,20.78-18.01,36.28-36.27,56.26-84.48,56.26-135.75"/>
  <g class="st1">
    <path class="st3" d="M371.36,199.62c0-48.05-18.72-93.23-52.7-127.21-29.35-29.35-67.05-47.3-107.74-51.65-.94-.94-2-1.8-3.2-2.57-14.4-9.27-26.43-2.38-34.76,1.67-.6.29-1.3.64-2.09,1.04-15.69,1.79-30.77,5.62-44.97,11.2-1.7-2.54-3.64-4.91-5.8-7.07-8.69-8.69-20.25-13.48-32.55-13.48-25.38,0-46.03,20.65-46.03,46.03,0,10.63,3.59,20.72,10.18,28.87-25.1,30.93-40.17,70.32-40.17,113.18,0,48.06,18.72,93.24,52.69,127.22,16.6,16.59,35.88,29.54,56.84,38.45-1.17,9.51.37,15.96,2.11,18.6-2.65,2.23-3.76,3.62-4.18,6.12-4.17,5.7,5.98,12.93,10.15,16.13,8.57,6.57,13.07,5.43,19.75,5.15,8.24-.35,15.99-10.02,20.45-16.27,8.9-1.25,10.57.14,10.84,1.25,2.78-.42,6.67-1.11,11.96-3.34,12.02-5.06,8.62-11.26,7.37-12.37-.33-.28-.59-.69-.84-1.17,28.52-1.12,55.86-8.86,80.26-22.47.86.96,1.75,2.06,2.62,3.35,2.64,3.9,4.03,16.55,4.59,23.08.56,6.53,1.67,10.99,4.87,21.27,3.2,10.29,4.45,2.78,4.59,0,.14-2.78.69-12.79.28-20.02-.42-7.23-.56-17.66.83-22.11,1.39-4.45-1.11-5.56-1.81-6.39-.7-.84,0-1.12-1.81-6.82-.1-.32-.18-.65-.25-.99,9.15-6.28,17.8-13.43,25.81-21.44,33.98-33.98,52.7-79.16,52.7-127.22"/>
  </g>
  <g class="st4">
    <path class="st8" d="M371.36,199.62c0-48.05-18.72-93.23-52.7-127.21-29.35-29.35-67.05-47.3-107.74-51.65-.94-.94-2-1.8-3.2-2.57-14.4-9.27-26.43-2.38-34.76,1.67-.6.29-1.3.64-2.09,1.04-15.69,1.79-30.77,5.62-44.97,11.2-1.7-2.54-3.64-4.91-5.8-7.07-8.69-8.69-20.25-13.48-32.55-13.48-25.38,0-46.03,20.65-46.03,46.03,0,10.63,3.59,20.72,10.18,28.87-25.1,30.93-40.17,70.32-40.17,113.18,0,48.06,18.72,93.24,52.69,127.22,16.6,16.59,35.88,29.54,56.84,38.45-1.17,9.51.37,15.96,2.11,18.6-2.65,2.23-3.76,3.62-4.18,6.12-4.17,5.7,5.98,12.93,10.15,16.13,8.57,6.57,13.07,5.43,19.75,5.15,8.24-.35,15.99-10.02,20.45-16.27,8.9-1.25,10.57.14,10.84,1.25,2.78-.42,6.67-1.11,11.96-3.34,12.02-5.06,8.62-11.26,7.37-12.37-.33-.28-.59-.69-.84-1.17,28.52-1.12,55.86-8.86,80.26-22.47.86.96,1.75,2.06,2.62,3.35,2.64,3.9,4.03,16.55,4.59,23.08.56,6.53,1.67,10.99,4.87,21.27,3.2,10.29,4.45,2.78,4.59,0,.14-2.78.69-12.79.28-20.02-.42-7.23-.56-17.66.83-22.11,1.39-4.45-1.11-5.56-1.81-6.39-.7-.84,0-1.12-1.81-6.82-.1-.32-.18-.65-.25-.99,9.15-6.28,17.8-13.43,25.81-21.44,33.98-33.98,52.7-79.16,52.7-127.22"/>
  </g>
  <path class="st6" d="M148.9,367.48c6.68-.28,15.99-2.36,20.23-4.17.56.14,1.46.7,2.85,1.25.55-4.45-2.3-13.69-3.9-17.94-1.06-2.81-2.09-4.72-3.34-7.64-3.75-.7-8.41-2.71-11.75-4.1,0,2.64.49,9.53,1.05,14.11-1.39.14-3.34.28-5.71.28.28,5,.84,14.04.56,18.22M274.75,352.75c-1.25-1.25,1.53-5.15,2.78-12.38,1.25-7.23,1.38-19.33-3.9-26.15-2.57-3.32-3.82-5.4-4.25-6.9-16.47,11.98-35.34,19.93-55.4,23.35-.24.42-.48.79-.69,1.07-2.92,3.76-8.62,9.18-12.8,11.4-4.17,2.22-9.03,3.9-11.68,4.73-.55,4.45-1.28,14.38-.13,17.79.42,1.25,5.56,4.32,7.37,7.65.19.34.36.68.52,1.02,28.37-.82,55.08-8.43,78.53-21.27-.12-.11-.25-.23-.35-.33M315.06,76.01c-27.41-27.41-62.33-44.59-100.12-49.63,3.03,5.99,3.5,12.87,3.77,17.25,5.42-2.37,9.59-3.62,11.82-7.23,2.23-3.62,5.28-2.92,7.23-.28,1.95,2.64,1.95,5.98-3.2,9.18-5.15,3.2-8.9,4.73-10.01,5.29-1.12.55-.14,1.53,1.12,3.61,1.25,2.08,4.43,7.24,5,18.08,0,.1.01.21.01.32,20.44,6.29,39.18,17.52,54.73,33.07,25.11,25.1,38.93,58.49,38.93,93.99,0,20.39-4.57,40.08-13.21,57.9,1.15.59,2.71,4.63,3.24,9.95.28,2.78.13,5.84-.69,7.78-.83,1.95-7.4,11.8-10.71,14.74-1.25,1.12-4.18.98-5.42-.83-1.25-1.81-1.39-.84-2.37.13-.97.98-4.31,5.84-5.14,7.1-.84,1.25-3.62,2.5-1.82,7.51,1.82,5.01,3.89,8.76,3.2,11.54-.7,2.78-.98,3.62,2.78,6.82,3.76,3.19,3.62,7.08,1.95,9.59-1.05,1.57-2.69,5.75-3.33,10.06,44.41-31.73,73.42-83.71,73.42-142.33,0-46.69-18.19-90.59-51.2-123.61M114.28,328.69c-.49-4.71-1.2-13.22,2.09-19.3-6.71-4.62-13.05-9.87-18.94-15.75-25.1-25.11-38.93-58.48-38.93-93.99,0-38.02,16.05-72.36,41.72-96.6.24-.52.55-1.01.93-1.48-4.35,1.34-8.91,2.03-13.59,2.03-12.25,0-23.76-4.76-32.44-13.38-24.92,30.93-38.47,69.13-38.47,109.41,0,46.69,18.18,90.59,51.2,123.61,15.83,15.83,34.16,28.24,54.1,36.88.77-3.72,1.92-7.8,3.6-12.22,1.53-4.04-.83-13.35-4.73-18.22-2.08-.56-4.72-.83-6.53-.98M160.63,27.51c-10.98,1.94-21.75,4.94-32.16,8.95,3.33,6.45,5.11,13.64,5.11,21.11,0,9.9-3.11,19.32-8.86,27.15,9.62-5.6,20-10.04,30.95-13.1.71-.7,1.42-1.37,2.14-1.98-4.03-6.68-9.46-17.38-4.73-31.85,1.33-4.07,4.26-7.5,7.55-10.28"/>
  <path class="st3" d="M230.53,80.2c3.89,1.95,8.25,6.18,6.53,14.04-.69,3.2-3.37,6.28-3.61,7.52-.42,2.08-4.8,5.63-6.19,8.41-1.38,2.76-1.6,5.11-1.19,6.3,0,.02.01.02.02.03,2.22,2.09,7.23,4.87,10,5.84,2.18.76,2.02,1.35,1.11,2.78,1.53.14,2.32,1.08,3.76,2.78,1.52,1.81,5.56.7,8.06-.56,2.5-1.25,5.7-1.67,8.21,1.39,2.5,3.06,6.26,8.76,8.06,14.05,1.81,5.28,3.76,9.59,4.32,10.42.55.84-1.95,16.13-2.65,22.25-.69,6.12-1.25,8.76-1.39,9.73-.14.97,3.9-3.47,4.04,1.81.1,4.22,2.07,17.73,4.35,27.74.58,2.55,1.17,4.86,1.77,6.74,1.67.28,3.05,3.62,4.03,8.76.97,5.15,3.06,8.35,3.2,10.85.14,2.5.83,2.92,1.67,3.33.83.42.56,1.67-1.94,4.59.55.42,1.39,1.26,1.94,1.8.7-.69,2.64-2.91,2.64-2.91,0,0,7.65,3.05,9.32,3.61,1.67.56,3.65-3.56,8.62-1.39,1.36.6,2.87,2.48,3.93,4.33,7.78-16.66,12.15-35.23,12.15-54.81,0-34.68-13.51-67.3-38.04-91.82-14.97-14.97-32.94-25.82-52.56-32.02-.06,1.91-.15,3.72-.15,4.4M270.71,298.93c-1.94-.97-3.21.44-4.17-7.23-.28-2.22-2.08-5.15-3.47-6.53-1.39-1.39-1.56-4-.84-6.26,1.11-3.48,1.4-6.67,1.26-9.45-.15-2.78.41-6.26,4.3-7.93-1.39-1.52-2.08-3.47-2.5-5-5.7-1.88-6.84-2.04-8-4.8-1.94-4.63-3.14-11.39-3.72-15.08-.28-1.82-.48-3.5-.52-5.02-1.83-3.45-5.88-11.13-9.02-16.89-.96-1.8-1.94-3.58-2.94-5.36-2.78-4.87,0-11.26,1.38-15.02,1.39-3.75,2.51-7.09,1.25-10.85-1.25-3.75-1.25-4.59-1.53-6.12-.28-1.53-1.53-3.48-3.2,1.81-1.67,5.28-4.87,13.07-6.68,21.13-1.02,4.58-1.74,9.57-1.5,14.39.18,3.68.92,7.25,2.47,10.5,3.62,7.51,7.93,14.46,7.37,18.63-.55,4.17-1.47,4.32-1.53,5-.7,8.07-4.17,23.5-5.98,27.95-1.81,4.45-8.9,20.58-10.43,27.39-1.17,5.22-4.38,16.4-7.13,23.02,20.81-3.93,39.88-12.84,55.93-25.45.47-1.17.38-2.25-.82-2.86M116.18,116.46c1.53,2,3.55,3.83,6.17,5.18,6.82,3.47,8.21,5.98,8.21,11.95s1.11,18.22,3.06,20.3c1.25-1.25,2.64-3.06,2.92-3.62,1.95,3.62,5.87,10.31,12.1,14.46.42.28.23,1.81,1.25,2.08,2.08.56,15.57,2.64,15.99,5.43,2.78-2.78,7.23-9.73,8.07-12.1.83-2.36,5.7-9.87,9.32-14.04,0-1.67,0-2.65.14-3.06-.98.83-2.5,2.92-4.73,3.89-2.23.97-10.01,4.31-15.57,7.09-1.95.97-5.42,2.09-6.82-8.07-1.39-10.15,0-15.43.97-17.8.97-2.37,2.78-4.45,6.26-3.48,3.47.97,9.03,3.06,10.57,3.06.28-1.11,1.25-3.2-2.5-3.62-2.67-.3-9.64-2.28-13.59-7.68-1.6-2.16-2.7-4.9-2.82-8.31-7.92,1.25-26.14,3.62-30.17,4.59-4.03.98-7.45,1.8-8.76-7.37-.56-3.89-1.53-9.32,1.25-7.37,2.22-1.67,5.3-3.63,10.7-2.78.99.15,2.22.98,2.61,1.75.3,1.35-.28,3.55-.94,5.61-1.2,3.73-3.54,6.4,4.03,4.66,7.93-1.82,18-3.33,20.65-3.89.35-2.71,2.57-6.88,5.22-9.94,2.65-3.07,3.06-5.56,3.2-6.53.14-.97-.78-1.19-2.08,0-1.53,1.39-6.12,4.17-10.43,3.06-1.67-.43-3.75-3.62-4.86-5.42.91-1.91,3.22-5.21,6.05-8.54-14.81,4.75-28.67,12.16-40.98,21.98-.08,1.54.12,5.13,1.14,9.08.68,2.65,1.95,6.24,4.4,9.42M125.83,306.44c5.7-2.22,10.19-2.12,14.6,3.76,1.25,1.67,2.22,6.54,12.93,2.22-5.7-6.81-9.12-14.88-12.23-25.73-4.93-17.11-16.06-36.57-11.96-45.47-2.36-2.23-5.14-10.85-8.07-9.87-1.96.65-4.72.69-2.5-5.84,1-2.94,2.65-6.5,5.77-10.77,3.81-5.21,9.82-11.48,19.53-18.98.84-.7.98-1.25.42-1.81-.97-.97-1.95-2.08-2.92-2.64-.97-.56-1.95-.28-2.78.56-.83.83-2.22,1.81-3.06,2.36-.83.55-7.51-5.98-10.98-10.71-3.48-4.73-7.09-6.25-8.2-6.81,1.39-1.53,4.53-4.85,3.33-4.45-2.08.69-5.74,1.16-9.46-2.78-4.59-4.86-2.78-7.37-3.75-8.06-.97-.7-5.98.42-9.73-5.42-3.76-5.84-5.26-8.38-2.23-12.52,1.53-2.08,2.09-3.06,1.67-5.7-.42-2.64,0-4.31,3.48-7.65,3.48-3.33,5.56-6.4,7.09-6.12,1.22.22-2.3-4.2-4.43-7.54-.56-.89-1.02-1.7-1.28-2.33-.55-1.35-1.42-3.66-1.62-6.15-24.43,24.51-37.89,57.06-37.89,91.67s13.51,67.29,38.03,91.82c5.69,5.69,11.89,10.85,18.52,15.4,2.85-3.09,6.24-1.9,7.71-.43"/>
  <path class="st10" d="M51.93,32.2c11.4,2.92,19.95,12.13,23.69,17.28.96,1.31,1.95,1.12,2.37.14.88-2.07,2.5-8.76,2.5-13.91,0-11.68,1.6-16.3,4.52-21.72-13.64.75-25.61,7.76-33.08,18.21M45.05,67.97c21.41,1.95,28.07-10.02,29.47-11.83,1.38-1.8-.28-2.92-.98-3.89-3.7-5.18-11.99-14.35-23.39-17.27-4,6.59-6.34,14.3-6.34,22.58,0,3.59.42,7.08,1.24,10.42"/>
  <path class="st10" d="M130.01,67.14c-9.04-3.76-19.76-.28-27.41,6.39-7.65,6.67-11.54,11.8-14.18,27.65-.33,0-.65,0-.98,0-11.33,0-21.62-4.31-29.38-11.4,13.08-3.34,24.1-9.31,36.47-20.99,12.38-11.68,18.5-25.31,20.17-31.7,1.67-6.4-.7-2.64-1.95.27-1.94,4.52-8.35,16.69-21,28.51-12.66,11.82-22.38,17.65-35.59,22.1-4.41-4.53-7.81-10.02-9.92-16.12,4.45.28,18.47-1.34,25.48-7.1,9.23-7.57,10.29-16.55,11.54-29.34,1.25-12.79,3.13-16.6,6.19-21.46,23.16,1.05,41.62,20.17,41.62,43.59,0,3.29-.38,6.5-1.07,9.58"/>
  <path class="st10" d="M128.81,71.51c-2.09-2.92-9.52-4.32-21.33,3.06-1.11.7-1.88,1.18-.55,2.5,2.5,2.51,6.26,7.24,8.9,13.64,5.9-5.06,10.44-11.67,12.98-19.2M112.33,93.41c-2.5-6.12-4.58-10.57-6.95-13.62-1.28-1.65-1.53-2.36-3.9-.28-6.57,5.8-9.11,14.59-10.5,21.54,7.89-.63,15.2-3.37,21.34-7.64"/>
  <path class="st7" d="M100.38,142.22c-1.81-.56-3.2,1.52-4.03,3.2-.83,1.67-1.81,3.48.83,7.23,2.64,3.76,4.28,5.99,8.9,5.7,2.23-.14,4.17-1.81,4.87-2.78.7-.98.83.69-.28,2.36-1.11,1.67-1.95,5.56.14,8.2,2.09,2.64,6.4,4.87,12.1,1.53,5.7-3.33,8.07-7.37,9.04-9.18.97-1.8.97-2.64,0-3.75-.97-1.12-4.17-6.41-4.87-16.83-.42-6.26.7-10.29-3.2-12.52-3.89-2.23-12.8-7.49-13.9-17.8-.42-3.89-.14-9.87-4.03-6.67-3.9,3.2-3.9,5.42-4.31,7.78-.42,2.37,1.53,5.56,3.2,7.79,1.67,2.23,3.61,7.09,5.14,8.34,1.53,1.25,2.5,2.23,3.76,2.37,1.25.14,6.25.14,7.5.56,1.25.42,1.95,1.95-1.11,1.95s-7.78.83-9.87,1.11c-2.08.28-4.03.42-5,4.59-.97,4.17-2.37,9.04-2.5,10.57-.14,1.53-.97,2.36-.97,3.2s1.67,4.87,5.42.83c3.75-4.03,5.28-8.06,5.98-10.01.69-1.95,1.53-1.67.83,1.39-.69,3.06-.9,10.71.56,13.35,1.57,2.84,4.74,5.76,8.76,3.75.83-.42,2.22-1.11,3.34-.97,1.11.14-.21,2.08-1.18,2.92-.97.83-4.17,4.37-9.8-.7-1.4-1.25-3.32-4.03-3.76-7.51-.14-1.12-1.67-1.53-2.36-.56-.7.97-4.45,4.45-7.09,1.95-2.64-2.5-3.74-3.89-2.22-9.18.27-.97.82-2.02.14-2.22"/>
  <path class="st7" d="M103.16,134.43c-.6,1.8-1.12,4.17-1.39,5.01-.28.83-1.53,2.64-2.64.28-1.11-2.37-1.05-4.23.7-5.98.56-.56,1.39-1.67,1.95-1.12.56.56,1.53,1.39,1.39,1.81M109.42,128.04c-1.15.57-3.59.57-4.45,2.5-.56,1.25-2.78-.13-1.67-1.67,1.11-1.53,1.95-1.39,2.64-1.81.7-.42.98-1.67,2.37-.97,1.39.7,1.67,1.67,1.11,1.95M201.05,59.21c-3.89.42-7.51,2.78-11.12,5.28-3.62,2.5-16.68,13.49-19.75,15.71,3.2,1.67,4.03,5.01,2.92,10.57-.25,1.23,0,1.67.84.83.83-.83,4.72-5,4.59-8.34-.14-3.34-1.67-5.28-1.95-5.7-.28-.42,1.12-2.08,2.65,1.39,1.53,3.48,1.11,8.34-3.48,13.77-4.59,5.42-8.21,5.28-10.15,6.26-1.95.97-3.89,2.5-2.08,5.42,1.8,2.92,5.28,1.81,6.67.83,1.39-.98,3.34-2.09,7.79-1.67,4.45.42,5.93-2.41,2.92-5.42-.97-.97-3.48-3.2-.42-3.2,1.81,0,4.03,4.03,5.28,5.15,1.25,1.11,4.03,1.53,7.79,1.81,3.75.28,9.6,1.67,9.6,5.28,0,2.22-1.2,2.87-2.78,1.12-.62-.7-1.52.4-2.22,1.11-2.37,2.37-8.42,8.76-12.72,9.87-4.31,1.11-5.91-.14-11.61-3.2-5.7-3.06-10.98-6.12-12.51-7.09-1.53-.97-4.73-3.2-3.2,1.25,1.53,4.45,5.28,9.03,12.79,11.54,7.51,2.5,8.62,3.33,10.29,4.17,1.67.83.7,1.67-1.53,1.39-1.93-.24-4.03-1.95-2.36,1.81,1.66,3.75,4.17,7.78,11.82,6.81,7.64-.97,7.87-2.59,12.65-10.57.83-1.39,1.67-.42,1.12,3.2,3.75-1.81,5.83-2.37,8.06-2.92,2.23-.55,8.01-2.52,11.83-9.59,1.94-3.62,2.99-4.86,2.64-8.62-.13-1.4,1.95-4.17,4.03-6.12,2.08-1.94,7.78-9.32,4.87-14.6-2.93-5.28-7.79-2.64-10.15,1.25-2.37,3.9-5.01,8.2-5.15,14.88-1.67-.55-3.37.06-4.17,1.39-.42.7-6.54-.13-8.63.42-2.08.56-2.77-.7-.55-3.62,2.23-2.92,10.06-13.5,9.6-21.42-.14-2.36.18-2.8.55-4.58.49-2.3.7-2.33-2.15-3.9-1.86-1.02-1.97-3.91-2.29-6.12-.35-2.36-.8-2.37-3.48-1.81-1.98.42-5.29-1.53-6.82-4.03"/>
  <path class="st7" d="M184.78,102.73c-.76,1.74-2.87,3.4-7.72,2.85-2.43-.28-4.81-.31-5.21,1.6-.28,1.32-1.38,1.25-2.92,1.18-1.6-.07-3.34-.49-3.41.07-.07.55,6.82,4.65,9.11,5.7,2.3,1.05,5.64,3.53,8.34,3.27,3.62-.35,6.77-2.13,12.1-7.79,2.2-2.33,3.96-3.54,1.88-4.52-1.42-.66-2.85-.83-4.73-.83s-5.92-.28-7.44-1.53M158.85,102.8c-1.88-.07-2.08-1.46-.83-3.55,1.25-2.09,2.44-4.03,4.1-5.28.28.9.83,2.02,1.67,2.5-1.11,1.18-2.58,2.67-2.3,5.59l-2.63.74h0Z"/>
  <path class="st8" d="M201.18,94.16c-2.39,0-5.93-.78-8.47-2.51-2.57-1.75-3.43-2.6-2.97-5.2.28-1.6.42-2.47.52-3.06.07-.43.12-.72.18-1.04.22-1.22.15-2.03-.22-2.46-.19-.23-.47-.35-.79-.35-.53,0-1.23.34-2.14,1.03-1.47-1.1-2.86-2.33-3.89-3.25-.8-.71-1.38-1.22-1.74-1.46-.29-.19-.64-.5-.68-.88-.03-.29.12-.6.45-.93.2-.2.46-.24.82-.24h.16s.17,0,.17,0c.25,0,.72,0,1.02-.35.3-.34.37-.92.24-1.87,0-.05.11-.16.73-.16.17,0,.35,0,.52.01.18,0,.36.02.51.02.36,0,.58-.04.75-.12.31-.15.39-.46.45-.68.08-.31.12-.43.59-.43.27,0,.63.06,1.07.17.08.02.15.03.23.03.45,0,.67-.36.83-.62l.08-.13c.18-.27.35-.42.73-.42.09,0,.19,0,.3.03.38.06.71.15,1.01.22.4.1.75.18,1.06.18.82,0,1.08-.62,1.2-1.08.25-.94.44-1.22.82-1.22.33,0,.83.2,1.48.61.57.35,1.05.52,1.47.52.64,0,1.09-.4,1.23-1.11,0-.02.02-.06.19-.06.41,0,1.15.28,1.9.72l.38.21c1.3.74,4.02,2.28,7.11,5.9.71.82.91,1.45.86,1.6-.01,0-.03,0-.05,0-.05,0-.12.01-.19.02-.47.07-1.18.18-1.33,1.37-.08.65-.29,1.04-.39,1.1,0-.02-.1-.1-.25-.38-.19-.37-.44-.75-.86-.75-.07,0-.15.01-.22.03-.03-.05-.08-.15-.16-.35-.07-.18-.27-.74-.79-.74-.25,0-.45.14-.6.24-.03.02-.06.04-.08.06-.08-.21-.3-.72-.8-.72-.13,0-.24.03-.32.06-.03.01-.07.02-.1.03,0-.01-.04-.06-.1-.19-.1-.22-.3-.35-.57-.35-.19,0-.4.07-.63.13-.24.07-.44.13-.58.13-.12,0-.15-.03-.18-.08-.19-.35-.48-.41-.63-.41-.25,0-.47.12-.69.24-.17.09-.37.2-.5.2-.03,0-.11,0-.22-.15-.08-.1-.3-.39-.64-.39s-.53.27-.69.48l-.07.09c-.16.21-.27.29-.4.29-.05,0-.11-.02-.18-.04-.18-.07-.34-.1-.49-.1-.48,0-.7.35-.82.54-.12.18-.13.19-.18.19-.03,0-.11,0-.25-.07-.17-.08-.33-.12-.48-.12-.56,0-.79.48-.95.8-.16.33-.23.42-.33.42-.03,0-.07,0-.1-.02-.23-.06-.41-.09-.57-.09-.79,0-.89.67-1.01,1.37-.02.12-.04.25-.07.39-.2,1.13-.7,5.78-.62,6.98.07,1.12,1.52,1.12,2.07,1.12,1.03,0,2.44-.19,4.18-.43,3.42-.48,9.72-2.38,12.97-5.09.83-.69,1.48-.77,1.72-.77.2,0,.3.05.32.07.03.17-.37,1.05-1.18,1.74-.08.07-.17.15-.27.24-1.02.89-3.39,2.99-8.18,3.92-4.58.89-8.82,1.7-10.24,1.7-.18,0-.28-.02-.32-.02-.08-.02-.16-.03-.23-.03-.23,0-.42.12-.49.32-.09.26.05.56.4.85.46.38,1.1.61,1.72.61.19,0,.37-.02.55-.06.16,0,.67.47,1.03.82.99.93,2.48,2.32,4.46,2.32,2.48,0,6.07-2.67,7.1-3.48.48-.37,1.57-.93,2.19-1.11-.1.13-.26.31-.51.56l-.18.18c-2.28,2.29-4.65,4.65-6.94,4.72-.09,0-.18,0-.28,0M230.53,91.05c-1.61,1.14-2.5,1.53-2.64,3.47-.14,1.95-.52,5.27-1.25,5.57-.95.38-.82-1.8-1.11-1.11-.42.97-1.6.55-1.95-.35-.16-.39-3.62-.35-.83-4.38,2.52-3.65,4.45-5.56,6.25-6.4,1.81-.83,4.87.83,1.53,3.2"/>
  <path class="st7" d="M298.59,256.31c-.64-1.63.49-4.38,3.97-2.44,3.48,1.95,6.12,3.62,3.62,11.27-2.51,7.65-4.31,12.1-5.29,15.3-.97,3.2-4.73,7.23-3.48,1.81,1.26-5.42,1.92-11.98,1.39-15.3-.97-6.12,1-5.75.35-8.55-.2-.86-.32-1.5-.56-2.08M311.74,262.92c1,3,2.08,9.87.42,12.65-1.67,2.78-6.82,10.43-8.76,12.38-1.95,1.95-3.48,1.11-2.23-.98,1.25-2.08,2.92-4.87,2.92-5.84s-.13-2.08,1.53-5.28c1.67-3.2,4.59-13.91,4.87-14.74.28-.83.97.97,1.25,1.81M275.86,288.64c-.83-2.5-1.25-6.12-2.64-8.2,1.11-3.06,4.78-11.28,10.98-13.77.69-.28,1.12-.98.83-1.53-.28-.56.83-.97,1.39.98.56,1.94,1.53,7.5,1.53,7.5.28,1.25-.28,2.23-.55,3.9-.28,1.67-.98,5.42-.56,7.37.42,1.95,1.11,3.34,5,2.51,1.95-.42,1.82-.97,2.37-2.65.56-1.67,2.09-6.4,2.65-9.04.55-2.64.07-9.1-.48-10.77-.56-1.67.21-7.3-.21-8.42-.42-1.11-.7-2.77-4.17-3.89-3.48-1.12-4.45-1.4-6.82.97-2.37,2.37-3.19,3.34-4.31,4.45-1.12,1.11-3.9.13-1.53-2.08,2.37-2.22,4.6-4.45,5.28-5.15l-.68-1.81h-1.26c-3.76,3.76-8.76,5.98-12.1,6.68-1.25.26-3.62.42-1.95,2.64.42.56.56,2.09,1.53,1.53.97-.56,2.5-3.06,3.89-1.95,1.4,1.11-.27,3.76-1.95,5.01-1.66,1.25-3.48,2.5-4.72,3.2-1.25.69-1.95,1.38-1.81,3.61.14,2.22.28,6.26-.98,9.32-1.25,3.06-.55,3.89.56,5.98,1.12,2.09,2.92,3.89,3.48,7.23.56,3.33.84,4.17,3.06,3.89,2.22-.28,3.06-1.25,3.9-2.64l.27-4.87h0Z"/>
  <path class="st10" d="M276.69,295.04c-.97,1.67-2.64,4.31-2.64,6.68s-2.36,4.87-2.08,5.98c.28,1.11,3.34,4.03,5.15,7.09,1.8,3.06,4.17,7.64,4.17,15.29s-2.5,18.08-2.77,19.47c-.28,1.39-.97,2.5,1.11,4.45,2.09,1.95,5.42,5.56,6.68,13.76,1.25,8.21,2.08,12.52,2.64,12.93.56.42.42,1.11.42,2.64s1.38,10.29,2.37,11.96c.97,1.67.83-9.45.69-12.65-.14-3.2.14-18.49.7-20.71.56-2.23,1.11-4.73-.84-7.52-1.94-2.78-5.28-7.65-2.77-15.71,2.5-8.07,6.53-7.93,5.28-11.13-1.25-3.2-3.47-5.42-5.14-7.23-1.67-1.81-.35-6.12-.42-7.93-.14-3.34-2.78-3.89-3.06-7.65-.28-3.75-.56-6.81,2.23-10.57,2.78-3.75-.97-3.62-2.23-5.98-1.25-2.36-1.92-5.52-.83-10.43.55-2.51.27-3.2-.42-3.48-.69-.28-3.62-.83-3.62-.83l-4.3,8.62c.7,1.67.97,4.17.97,5.84l-1.25,7.09h0Z"/>
  <path class="st3" d="M236.51,125.81c-3.43,4.57-8.76,16.13-11.27,23.36-2.5,7.23-8.2,24.48-4.17,35.88,4.03,11.4,11.96,4.17,13.76-.14,1.81-4.31,4.6-11.68,5.43-13.63.83-1.95,1.25-3.06,2.78,1.53,1.53,4.59,3.75,15.58,3.75,16.55s-1.53,3.76-3.2,8.07c-1.67,4.31-2.64,7.37-.98,10.02,1.67,2.64,8.21,13.9,10.29,18.77,1.25,2.92,2.36,3.47,5.7,2.64,3.34-.83,11.4-3.62,13.77-4.73,2.37-1.11,1.25-3.06.55-5.42-1.05-3.6-5.28-23.65-5.28-26.28s.7-6.1-2.79-2.22c-1.24,1.39-2.92,0-2.5-1.95.42-1.95,4.58-29.06,4.87-32.4-2.37-5.15-9.32-21.42-11.26-24.33-1.95-2.92-2.64-3.06-5.57-1.53-2.92,1.53-9.44,3.87-11.82-1.67-.42-.98-1.11-3.2.56-3.48l-1.25-.42s-.98.83-1.39,1.39M272.94,225.79c-2.58,1.48-11.4,5.28-15.01,5.84-3.71.57-2.78,1.53-2.08,4.32.69,2.77,2.78,11.12,3.89,14.04,1.12,2.92,2.64,2.87,5.57,2.78,4.45-.14,11.96-2.09,17.38-7.1-1.53-1.81-4.21-10.47-5-14.18-.84-3.89-.84-7.92-4.73-5.7M193.26,145.56c-.28.56-1.25,2.23-3.47,2.23s-4.03-.7-5.43,1.25c-1.39,1.95-9.03,11.27-10.71,16.96,1.67,3.48,3.9,9.73,5.57,14.18,5.42-4.58,22.73-21.48,26-24.75,1.26-1.25,1.39-2.36-.42-3.61-1.81-1.26-8.48-5.43-9.6-6.12-1.11-.7-1.67-.7-1.95-.14M149.46,170.03c-1.07,4.28-3.2,11.82-6.67,17.66,1.39,2.22,2.5,4.17,4.17,4.87,3.89-2.78,11.26-9.6,13.35-12.1,2.09-2.5,4.73-6.26,4.73-7.09s-.97-1.11-2.22-.84c-1.25.28-6.4-1.78-11.4-2.78-1.39-.28-1.81-.28-1.95.28M146.41,165.86c-1.53-.3-6.82-5.98-8.63-9.04-1.8-3.06-2.09-2.78-2.78-.56-.7,2.22-3.34,7.09-5.15,9.46-1.81,2.36-6.53,8.48-7.79,9.87-1.25,1.39,0,1.95,1.12,3.06,1.11,1.11,6.81,8.06,8.06,9.59,1.25,1.53,2.65,4.32,5.98,1.25,3.34-3.06,7.37-8.62,9.18-14.32,1.8-5.7,1.94-8.69,3.47-8.35l.07-1.18-.42-.69-.83-.7c.21.48.21.9-.13,1.46-.35.55-1.46.27-2.15.14M231.5,37.93c-3.75,4.42-11.27,8.34-23.92,11.54-12.65,3.2-24.75,12.1-29.9,16.41-5.15,4.31-18.12,14.93-24.33,17.52-1.67.7-5.22,3.05-.7,3.62,3.34.42,5.7-1.53,12.93-6.81,7.23-5.28,12.85-9.1,18.36-14.46,5.15-5.01,14.46-9.73,24.47-12.52,10.02-2.78,23.17-7.15,26.98-11.27,1.8-1.94,1.95-2.92.28-4.59-1.67-1.67-2.64-1.25-4.17.56M167.68,81.66c-1.09.6-1.53,1.25-2.78,5.28-1.25,4.03-1.11,6.39-.07,7.37.76.7,1.87.77,2.43.77.42,0,.83.14.77-1.04-.08-1.18-.15-6.22,3.61-8.48.7-.42-.09-3.33-2.57-2.92-.83.14,0-1.74-1.39-.97M124.71,97.59c1.95,0,3.2,0,3.06,2.22-.14,2.23-1.11,5.28-1.25,7.37-.14,2.08-.14,2.92,1.11,2.92s-1.81,1.25-3.48,1.53c-1.67.28-4.23,1.23-5.56-5.84-.42-2.23-.28-5.7-.55-6.53,1.81-.83,4.29-1.67,6.67-1.67M161.67,103.52c.52,2.8,1.28,2.75.72,3.17-.56.42-1.14-1.06-3.41-.69-2.15.35-19.67,3.06-20.92,3.2-3.89.41-4.1-.22-.49-.98,3.62-.77,16.84-3.18,20.79-3.97l3.31-.73h0ZM140.57,316.17c1.81,1.11,6.12,2.37,13.49-.7,7.37-3.06,15.57-.98,16.82,4.31,1.25,5.29,1.3,12.1-.97,15.02-1.95,2.5-3.75,2.22-5.98,1.53-4.03-1.27-13.35-5.56-15.99-6.82-2.64-1.25-7.09-2.64-10.29-2.64-1.25-2.64-1.11-7.23-.28-8.9.83-1.67.83-3.34,1.53-2.92.7.42,1.67,1.11,1.67,1.11M169.77,340.78c1.81,0,5.08.76,6.12,4.04.83,2.64,6.26,3.33,8.62,3.19,2.36-.13,1.95,1.12,1.8,2.51-.13,1.39-.55,5.57-.55,7.23s.42,7.5.7,8.62c.28,1.11-.7,1.67-1.95,2.22-1.25.56-5.84,1.95-8.76-.14-1.54-1.1-3.34-2.64-1.53-2.78,1.81-.13-2.22-15.85-3.33-18.63-1.11-2.78-4.32-6.26-1.11-6.26M121.93,307.97c.75.25,1.12.98,1.67,1.95.56.97.75,1.82-.14,2.78-1.53,1.67-3.34,9.32-3.06,14.74-.97-.28-3.06-.7-4.17-.42-.42-3.06-.14-12.65,1.25-15.72,1.39-3.05,2.78-3.89,4.45-3.33M122.21,392.79c3.47,3.9,10.01,9.88,14.88,11.96,4.87,2.08,8.07,2.78,12.38,2.37,3.49-.34,2.78,1.11,0,1.53-2.78.42-9.18.42-13.34-1.81-4.18-2.23-10.79-6.34-15.02-12.37-.97-1.4,0-2.92,1.11-1.67M194.65,383.06c-2.82,1.28-8.06,3.9-13.07,5.15.55,2.5.7,3.62.7,4.31,3.05,0,8.95-2.13,13.76-5.14,1.12-.7,1.53-1.53,1.12-2.5-.42-.97-.98-2.5-2.51-1.81M161.7,371.65c-.7-.69,3.26-1.52,4.1-1.52.98.62,2.75,2.19,3.41,2.85.42.41.21.69-.21.97-.41.27-2.85.9-3.96.97-1.25-1.11-2.99-2.92-3.33-3.27M169.07,313.81c-1.12-.84-.97-1.25-.42-2.09.55-.83,1.11-1.39,1.67-1.67.55-.28,1.39-.42,2.36.97.97,1.39,6.26,10.16,7.37,12.52,1.12,2.37,2.51.83,1.95-.55-.55-1.39-1.67-3.75-2.09-4.45,1.53-4.73,3.06-11.96,3.06-16.68s-1.11-9.45-1.95-11.13c3.76.14,11.96,0,15.16-.97,3.2-.98.55-1.25-.7-1.11-1.25.13-10.24.1-16.82-.7-11.4-1.39-22.6-7.8-26.14-12.24-.56-.69-3.9-.42-1.12,1.81,2.78,2.22,9.88,8.87,20.3,10.71,2.36.42,6.11,1.11,6.67,9.73.55,8.62-.28,14.18-.28,15.02s-.55,1.12-1.25.14c-.7-.97-3.06-4.17-4.32-4.86-1.25-.7-2.08-.56-3.19.27-1.11.83-2.78,2.5-3.48,3.33l3.2,1.95h0ZM146.68,340.99c-1.04,0-7.3.49-8.62,0-1.32-.48-2.18-2-1.25-2.64,1.11-.77,3.27.21,5.42.21s4.45-.55,5.01-.21c.55.35,1.32.21,1.32,2.85l-1.88-.21h0ZM131.52,379.16c-1.81-1.11-3.9-6.26-4.31-16.55-.13-3.48,1.26-9.32,2.37-12.09,1.11-2.78-.7-1.67-1.11-.7-.42.97-1.81,4.87-2.23,7.78-.41,2.92-1.11,7.23,0,13.49,1.12,6.26,1.67,8.2,1.95,9.32l3.34-1.25h0Z"/>
  <path class="st6" d="M195.14,47.11c1.88.21,3.97.07,4.45-1.25.48-1.32.07-2.16-.56-2.43-.63-.28-.9-.21-.63-1.46.28-1.25,1.18-1.11,1.12-3.06-.07-1.95-1.53-2.02-2.85-1.59-1.32.41-1.81,1.03-3.06,2.7-1.25,1.67-.69-1.11-.48-1.6.2-.45.7-3.65-1.02-4.23-.97.48-1.92.97-2.83,1.44-.3.61-.53,1.33-.8,2.03-.7,1.81-1.54.45-2.16-.42,0,0,0,0-.01-.01-1.85,1.03-3.48,1.99-4.71,2.79-.13.09-.28.19-.42.28.17,1.1,1.48,2.48,2.22,2.99.9.63.34,1.81-.77,1.81s-2.5-.76-3.9.9c-1.39,1.67-.49,3.27.84,3.27s2.43.48,2.92,2.01c.48,1.53.9,2.16,2.71,2.37,1.8.21,2.85-1.18,3.33-2.02.49-.83,1.12-2.02,1.88-1.73,1.13.41.99,1.6.65,2.87,1.31-.77,2.64-1.49,4.07-2.18-.23-1.18-.93-2.26-1.44-2.78-.63-.63-.42-.9,1.46-.7M210.65,26.95c-.64.15-1.33.33-2.01.53.33,1.59.97,3.63.62,3.92-.42.35-2.02.63-3.27.97-1.25.35-4.24,3.13-2.71,5.15,1.53,2.02,2.02,3.2,2.3,4.25.27,1.04,2.78,2.29,4.51.2,1.74-2.08,3.06-4.38,3.48-2.92.35,1.23.25,4.19.01,5.78.36-.07.73-.15,1.1-.22.7-7.78-1.24-13.35-4.03-17.66M172.47,64.28c-.97-.76-1.25-1.95-.07-2.29,1.19-.35,2.79-.63,5.71-1.88,2.92-1.25,1.39-3.41.07-3.97-1.32-.56-1.47-1.8-1.32-3.13.14-1.32-.21-3.26-2.78-2.29-2.57.97-1.67,3.47-2.43,4.31-.77.83-1.18.55-1.05-.69.14-1.25-.97-2.09-1.6-2.37-.49-.21-1.56-.47-2.47-.54-2.66,2.4-5.1,4.91-6.94,7.4.42.86,1.39,1.81,1.9,1.97.7.21,1.74.7,1.67,2.09-.06,1.17-2.7,1.25-4.44,1.3,1.23,3.32,2.48,5.68,4.22,7.57.39-.11.91-.29,1.62-.59,2.15-.9,2.85-4.17,3.2-5.15.35-.97,1.25-.77,1.88.49.44.88.6,1.68.66,2.47,1.23-1.23,2.42-2.37,3.58-3.45-.35-.35-.79-.77-1.4-1.25M209.39,147.36c.42-.07-.7-5,.22-5.21.9-.21,1.31,2.71,3.26,2.36,1.95-.35,2.43-2.29,2.16-4.45-.28-2.16.97-.97,1.95-2.5.97-1.53-1.12-3.61-3.48-2.15-2.36,1.46-1.94-.49-.69-1.25,1.25-.77.35-3.55-2.3-2.65-1.91.66-2.88-.58-3.79-1.1-.71.27-1.4.57-2.1.88-.15.54-.03,1.19.13,1.89.2.89.62,3.2-.83,2.23-1.27-.85-2.99-1.32-3.48.28-.49,1.6.48,1.74.35,2.71-.14.97-2.64,1.18-1.46,3.2,1.18,2.02,2.92.91,4.11.14,1.18-.77,2.29.14,1.88,1.18-.33.81-.98,3.55-1.03,5.35.55.37,1.13.76,1.74,1.19.7-.7,2.01-1.86,3.38-2.1M171.51,142.57c1.04-.28,3.06,1.87,4.87.62,1.81-1.25-.77-2.5-.42-3.55.35-1.04,1.18-3.06-.07-4.03-1.25-.97-2.57-.07-3.89,1.39-1.33,1.46-.84-1.33-.14-2.5.9-1.53,0-2.58-1.53-2.85-1.53-.28-2.02,1.88-3.06.9-1.66-1.54-4.24-.9-3.62,1.25.63,2.16,1.32,2.85,0,3.13-1.32.28-2.57-3.2-4.1-.41-1.53,2.77.9,3.61.69,5.7-.21,2.08.63,4.31,1.88,4.52,1.25.21,2.57-1.18,3.27-2.01.7-.83,2.37-1.46,2.16.13-.15,1.1-.22,3.4-.26,4.72,2.56-1.25,5.3-2.55,6.8-3.05.06-.02.12-.04.18-.07-.7-.28-1.68-.74-2.62-1.39-1.39-.97-1.18-2.22-.14-2.5M140.7,205.91c3.2-.97,3.34,1.53,2.92,3.62-.42,2.08-.42,6.53-.28,8.76l5.28.28c-.28-1.4,0-5.43.14-7.79.13-2.37,2.5-5.98,3.34-2.37.83,3.62,4.45,3.76,6.95,2.23,2.5-1.53,4.32-4.87,6.95-9.6,2.65-4.73-.83-5.98-2.92-5.7-2.08.28-4.17.55.56-3.33,4.4-3.62-3-5.44-6.4-6.12-5.6,5.88-12.49,12.55-18.63,17.8-.78.67-1.52,1.31-2.22,1.93.73.42,2.18.93,4.3.29M135.14,240.95c2.64-.84,4.31,4.87,8.2,1.53,3.9-3.33,1.11-6.12.98-8.9-.14-2.79,3.06-3.9,2.09-7.37-1.49-5.3-6.4-.28-9.46,2.64-3.06,2.92-3.2.55-.13-4.17,3.06-4.73-1.95-6.26-5.01-5.01-2.72,1.11-5.22.02-6.81-1.4-1.18,1.88-2.04,3.62-2.92,5.43-2.64,5.42-.83,5.56,1.12,5.56s6.12,8.21,6.67,9.73c.2.55,1.62,2.63,3.52,5.3-.11-1.32.14-2.83,1.77-3.34M211.2,186.16c-2.5-.55-5.75-.97-6.12,4.17-.14,1.95,1.8,3.48,3.62,4.17,1.81.69,1.53,1.94-.42,1.25-1.94-.7-3.47-1.11-4.86,2.92-1.4,4.03,1.11,4.59,2.36,4.87,1.25.28,2.22.55,1.94,2.23-.28,1.67-1.11,6.53,2.08,6.95,3.2.42,5.98-3.48,6.95-5.42.98-1.95,2.08-3.9,2.37-1.67.28,2.23-.14,3.33-1.25,5.84-1.12,2.5-1.12,3.62.55,3.48,1.67-.15,4.45,0,5.28-1.95.83-1.94,2.09-5.7,2.23-8.34.08-1.65,1.53-1.84,2.6-1.74.31-2.67.7-5.34,1.15-7.99-5.46.82-10.1-5.85-11.72-11.62-1.86,2.02-4.59,3.35-6.78,2.86M185.2,185.19c-.98,1.67-3.75,6.4-2.51,7.93,1.25,1.53,2.64-1.53,3.76-.42,1.12,1.11,3.62,2.36,3.62,1.53s.28-2.5.7-4.73c.42-2.23,1.39-3.48,2.36-1.67.97,1.8,2.36,3.33,5.84,2.5,3.48-.83,3.06-4.45,2.37-7.09-.7-2.64,1.81-3.9,3.06-4.59,1.25-.7,4.45-3.2,2.09-5.42-2.37-2.23-4.45.97-6.54,1.38-2.09.42-1.25-1.38,3.06-4.72,3.72-2.88.61-5.76-1.66-6.76-5.99,6.02-16.59,15.8-18.92,18.02-.83.8-1.55,1.73-2.23,2.86,5.6-2.6,5.93-.41,5.01,1.17M219.68,241.09c1.81,1.67,6.12,4.03,9.18,1.25,3.07-2.78-.7-5.84-1.11-8.06-.42-2.23,2.22-3.62.83-7.23-2.42-6.3-5.98,1.25-8.07,3.33-2.08,2.08-1.73-1.46.14-3.33.98-.98,5.29-3.62,2.78-6.54-2.5-2.92-6.12-1.25-7.92,0-1.81,1.25-3.2,2.78-5.98,1.95s-5.15-1.11-6.81,2.92c-1.67,4.03,1.53,2.92,4.17,5.83,2.65,2.92.98,3.07-1.1,2.37-2.09-.7-3.06-3.34-6.12-2.93-3.06.42-3.06,5.29-2.08,6.54.98,1.25,2.92,1.95,1.53,4.31-1.38,2.37.7,5.15,3.2,6.26,2.51,1.11,6.25-3.34,7.65-5.15,1.39-1.81,2.77-1.39,2.5,0-.23,1.2-.88,4.34-.98,6.97,2.12-.68,4.22-1.3,6.23-1.85,0-1.46-.32-3.81-.93-6.08-.83-3.06,1.12-2.23,2.92-.56M183.53,255.97c-3.34.97-3.9-.56-6.12-1.39-2.22-.83-2.37,1.11-.84,3.47,1.53,2.37,3.2,4.59,1.39,4.59s-3.2.28-3.48,1.67c-.28,1.38-3.2-.28-3.89-3.2-.69-2.93-1.39-8.48-2.92-5.7-1.53,2.78-2.92,7.37-6.81,5.29-3.9-2.08-1.25-4.87-3.2-6.82-1.95-1.95-3.75-4.45-1.81-7.92,1.95-3.48,3.62-.56,5.42-.56s2.09-1.67.42-2.92c-1.67-1.25-3.76-7.23,3.89-6.81,2.95.16,6.12-.83,8.62-2.64,2.5-1.81,9.04-.84,6.4,3.76-2.65,4.58-1.81,5.56-.28,3.89,1.53-1.67,3.48-4.72,6.4-3.89,2.92.83,1.67,3.05-.14,5.56-1.81,2.5-.7,4.17.69,5.14,1.39.98,3.95,6.23-3.75,8.49M197.72,223.15c-2.51.14-5.57-.56-5.57-.56-.28,2.64-2.84,6.43-5.42,10.29-.28.42-1.81.42-2.51-.14-.69-.55-2.63-1.53-1.11-3.2,1.53-1.66,4.03-5.14,3.62-6.67-.42-1.53-1.53-2.92-3.2-.83-1.67,2.08-4.31,6.4-7.23,6.54-2.93.13-5.84-2.51-4.45-5.15,1.39-2.64,1.81-4.03-.14-6.4-1.95-2.36-1.22-5.38,2.92-7.23,1.25-.55,3.47,0,5,1.25,1.53,1.25,2.37,0,.28-1.25-2.09-1.25-3.75-2.78-4.03-5.56-.27-2.64,1.39-5.42,5.01-3.89,3.61,1.53,5.84.28,7.37-.97,1.53-1.25,8.05-2.82,7.09,2.92-.7,4.17-2.64,4.31-3.2,6.53-.55,2.22,1.11.83,2.09-.83.97-1.67,3.2-8.5,7.78-3.34,1.12,1.25.7,3.34-.7,5.7-1.39,2.37-.28,3.75.56,5,.84,1.25,2.77,7.4-4.17,7.79"/>
  <path class="st3" d="M312.42,112.56l4.25-3.01,9.2,13.67,5.42-3.84-9.48-13.39,4.12-2.91,10.08,14.14,5.43-3.85-14.98-20.99-24.64,17.46,13.59,19.32,5.42-3.84-8.42-12.75ZM330.23,160.03l8.06-3.73-5.55-12.06,18.87-7.86-3.43-7.55-26.66,11.6,8.7,19.6ZM335.03,172.78l.84,7.43,17.89-2.1.7,7.75,8.01-.59-2.23-26-8.02.59.69,10.82-17.89,2.1ZM335.93,198.14l.11,8.86,26.3-.08-.11-8.86-26.3.08ZM348.28,219.53c-4.41-.85-9.63-.12-13.28,2.65-3.28,2.49-4.81,4.99-5.68,9.53-.55,2.88-.1,6.65.85,9.96l6.95-2.33c-.67-1.6-.95-4.03-.23-6.49,1.41-4.75,5.27-6.9,9.98-6.2,5,.73,7.85,5.32,6.95,10.78-.35,2.18-1.43,4.06-3.91,5.54l4.3,5.18c3.5-2.15,6.16-6.37,6.73-9.34.97-5-.23-8.46-2.55-12.52-2.26-3.96-6.08-6-10.12-6.77M343.46,256.27c-3.67-.94-8.68,3.09-11.09,5.41-1.39,1.34-6.25,6.23-8.49,5.48-2.01-.67-1.4-3.74-.72-5.74.98-2.92,2.5-5.38,4.85-6.96l-4.35-1.93c-2.12,1.77-4.47,4.62-5.44,7.5-1.12,3.32-1.58,7.2-1.11,9.67.61,3.18,1.72,5.21,5.32,4.88,2.77-.26,9.72-4.77,13.73-8.56,2.03-1.92,3.77-2.12,4.67-1.62,1.47.81,1.38,3.32.85,4.88-.71,2.1-1.72,5.3-3.38,6.48l5.94,3.99c2.43-2.44,3.68-6.1,4.4-9.53,1.73-8.28-2.76-13.32-5.17-13.94M310.43,81.7c-.52-4.07-2.77-8.76-5.05-10.74-3.54-3.07-7.73-3.9-12.18-3.32-4.52.59-8.72,3.49-11.1,6.87-2.58,3.67-4.07,8.72-3.04,13.2.92,4.01,2.57,6.43,6.35,9.09,2.4,1.69,6.02,2.83,9.43,3.32l.73-7.29c-1.73-.05-4.07-.79-6.01-2.47-3.76-3.24-3.93-8.37-1.55-11.65,2.97-4.1,8.15-4.97,12.76-1.9,1.84,1.22,2.57,3.18,2.89,6.06l6.77-1.17h0ZM41.44,233.22c.19-1.99.08-5.62,2.23-6.08,2.08-.44,3.45,1.58,3.88,3.65.64,3.02,1.49,5.37.27,7.93l5.6-.59c.92-2.6.63-6.07,0-9.03-.73-3.43-1.82-5.84-4.34-8.08-2.43-2.15-4.25-2.72-7.79-1.97-2.16.46-6.01,4.32-6.14,12.07-.02,1.47-.37,4.28-1.7,4.35-1.68.09-2.93-1.92-3.27-3.53-.46-2.17.16-6.91.99-8.78l-5.86-.03c-.85,3.33-1.18,8-.45,11.43,1.6,7.55,6.17,10.02,9.89,9.61,3.97-.44,6.06-4.58,6.68-10.96M29.71,201.37l20.77-.26-.1-6.52-20.77.26-.08-8.85-6.65.07.27,24.78,6.65-.07-.08-9.41ZM67.21,136.19l-16.03-9.25.04-.08,21.23-.35,5.07-7.82-26.16-15.08-3.95,6.15,17.85,11.21-24.34.69-3.4,6.57,25.74,14.94,3.95-6.98ZM41.25,151.36c4.62,0,8.37,3.75,8.37,8.37s-3.75,8.37-8.37,8.37-8.37-3.75-8.37-8.37,3.75-8.37,8.37-8.37M41.25,175.8c8.88,0,16.07-7.2,16.07-16.07s-7.2-16.07-16.07-16.07-16.07,7.2-16.07,16.07,7.19,16.07,16.07,16.07M51.6,273.85c-4.62,0-8.37-3.75-8.37-8.38s3.75-8.37,8.37-8.37,8.37,3.75,8.37,8.37-3.75,8.38-8.37,8.38M67.68,265.48c0-8.88-7.2-16.07-16.07-16.07s-16.07,7.19-16.07,16.07,7.19,16.08,16.07,16.08,16.07-7.2,16.07-16.08M81.79,302.96l-.55-.67c-1.77-2.13-7.76-8.47-5.29-10.79,2.26-2.12,7.95,5.1,9.56,7.03l.69.84-4.41,3.59h0ZM71.92,311.87c-2.12-2.54-8.45-7.52-5.75-10.07,2.58-2.42,8.93,5.32,9.72,6.27l-3.97,3.8ZM70.94,283.84c-2.47,2.19-3.66,7.38-1.33,10.9-2.53-1.23-7.65-1.66-9.99.38-5.78,5.02,1.23,12.28,6.99,18.03l8.03,7.93,21.34-17.65-8.64-10.05c-3.03-3.81-11.41-13.96-16.4-9.55h0Z"/>
  <path class="st5" d="M165.94,366.93c.9-.42,2.16-.97,2.72-.55.55.42,3.88,2.78,5.98,4.59,2.08,1.8,2.78,2.36,1.11,3.33-1.67.97-3.2,1.95-2.92,1.11.28-.83.69-2.08-.42-3.19-1.11-1.12-3.84-3.22-5-4.17-.76-.63-1.46-1.12-1.46-1.12M158.08,369.22c-.7.63-.83,1.67,0,2.5.83.83,5.49,4.73,6.26,5.5.77.76,1.88,1.05,3.13.76,1.25-.28-1.46,1.53-2.5,1.74-1.03.2-2.22.2-3.33-.83-1.12-1.04-7.37-6.95-8.62-8.13-1.25-1.18.35-1.18,1.46-1.32,1.12-.14,2.08-.07,3.62-.21M188.47,37.65c.26-.68.48-1.42.77-2.02-.98.51-1.95,1.03-2.92,1.57.62.87,1.45,2.25,2.14.45M213.57,39.04c-.42-1.46-1.74.84-3.48,2.92-1.73,2.09-4.24.84-4.52-.2-.28-1.05-.77-2.23-2.3-4.25-1.53-2.01,1.46-4.8,2.71-5.15,1.25-.34,2.85-.62,3.27-.97.35-.29-.28-2.34-.62-3.93-5,1.43-11.1,4.04-16.48,6.69,1.64.63,1.15,3.81.96,4.25-.21.49-.77,3.27.48,1.6,1.25-1.67,1.74-2.29,3.06-2.7,1.32-.42,2.78-.35,2.86,1.59.07,1.95-.84,1.81-1.12,3.06-.28,1.25,0,1.18.63,1.46.62.28,1.04,1.12.55,2.43-.49,1.32-2.57,1.46-4.45,1.25-1.88-.21-2.08.07-1.45.7.5.51,1.19,1.62,1.43,2.78,4.52-2.19,10-4.02,18.47-5.76.23-1.6.32-4.57-.02-5.78M169.63,66.51c-.63-1.25-1.53-1.46-1.88-.49-.35.97-1.05,4.24-3.2,5.14-.53.23-1.08.42-1.63.58.75.81,1.58,1.53,2.53,2.2,1.7-1.8,3.29-3.43,4.82-4.96-.06-.77-.22-1.62-.65-2.48M190.41,49.89c-.76-.28-1.39.9-1.88,1.73-.48.83-1.53,2.23-3.33,2.02-1.81-.21-2.23-.83-2.72-2.37-.49-1.53-1.6-2.02-2.92-2.02s-2.23-1.6-.83-3.27c1.39-1.67,2.78-.9,3.89-.9s1.67-1.18.77-1.81c-.72-.5-1.98-1.92-2.2-3.01-3.97,2.61-9.65,6.64-14.61,11.11.9.08,1.94.38,2.42.59.63.28,1.74,1.11,1.6,2.37-.14,1.25.28,1.53,1.04.69.76-.83-.14-3.34,2.43-4.31,2.58-.97,2.93.97,2.78,2.29-.15,1.33,0,2.57,1.32,3.13,1.32.56,2.85,2.71-.07,3.97-2.92,1.25-4.52,1.53-5.7,1.88-1.18.34-.9,1.53.07,2.29.6.47,1.02.92,1.37,1.27,3.68-3.42,7.15-6.21,11.08-8.85,2.15-1.44,4.11-2.75,6.15-3.95.33-1.25.45-2.46-.67-2.87M163.16,62.89c.08-1.39-.97-1.88-1.67-2.08-.51-.16-1.46-1.14-1.88-1.99-.69.93-1.3,1.85-1.8,2.75.3.93.61,1.8.9,2.62,1.74-.04,4.39-.13,4.45-1.3M221.91,127.76c-4.55-.29-9.97.63-15.15,2.63.9.54,1.87,1.77,3.75,1.12,2.64-.9,3.55,1.88,2.3,2.65-1.25.76-1.67,2.7.69,1.25,2.36-1.46,4.45.63,3.48,2.16-.98,1.53-2.23.35-1.95,2.5.28,2.16-.21,4.1-2.16,4.45-1.95.35-2.36-2.57-3.26-2.36-.91.21.2,5.14-.22,5.21-1.36.23-2.65,1.41-3.35,2.12.06.04.1.07.15.11,7.66,5.5,9.6,2.5,10.71-.14,1.11-2.64,3.58-10.47,4.31-14.6.42-2.37.98-4.87.7-7.09M205.29,142.92c.42-1.04-.7-1.95-1.87-1.18-1.19.77-2.93,1.88-4.11-.14-1.18-2.02,1.32-2.22,1.46-3.2.14-.97-.83-1.11-.35-2.71.48-1.6,2.21-1.12,3.48-.28,1.46.98,1.03-1.33.83-2.22-.15-.68-.26-1.36-.14-1.89-1.5.68-2.98,1.45-4.38,2.3-7.15,4.37-7.37,8.07-5.7,9.46,1.5,1.24,4.55,1.83,9.75,5.22.05-1.8.71-4.55,1.03-5.36M182.56,138.74c-2.96-1.47-5.85-4.73-7.79-8.48,0,0,.14-.55-.7-.55s-3.9-.28-9.04-2.09c-5.15-1.8-5.84-.69-6.53,1.53-.7,2.22-1.26,6.26-1.4,12.93-.14,6.67,2.78,10.84,4.59,10.15.88-.34,3.15-1.47,5.58-2.65.03-1.33.11-3.62.25-4.72.21-1.6-1.46-.97-2.16-.13-.7.83-2.01,2.22-3.27,2.01-1.25-.21-2.08-2.43-1.88-4.52.21-2.09-2.23-2.92-.69-5.7,1.53-2.78,2.78.69,4.1.41,1.32-.28.63-.97,0-3.13-.63-2.16,1.96-2.8,3.62-1.25,1.04.98,1.53-1.18,3.06-.9,1.53.28,2.43,1.32,1.53,2.85-.7,1.18-1.18,3.96.14,2.5,1.32-1.46,2.64-2.37,3.89-1.39,1.25.97.42,2.98.07,4.03-.35,1.05,2.23,2.3.42,3.55-1.81,1.25-3.83-.9-4.87-.62-1.04.28-1.25,1.53.14,2.5.91.63,1.86,1.13,2.56,1.41,2.9-.98,6.28-2.88,7.38-3.57l1.81.14c.14-2.37,0-3.9-.83-4.32M172.27,169.34c-1.11-2.5-1.5-.58-4.59,4.31-1.56,2.47-5.51,7.06-10.45,12.24,3.42.69,10.8,2.5,6.42,6.12-4.73,3.89-2.64,3.61-.56,3.33,2.09-.28,5.57.97,2.92,5.7-2.64,4.73-4.45,8.06-6.95,9.6-2.5,1.53-6.12,1.39-6.95-2.23-.83-3.62-3.2,0-3.34,2.37-.14,2.36-.42,6.4-.14,7.79l-5.28-.28c-.14-2.23-.14-6.68.28-8.76.42-2.08.28-4.59-2.92-3.62-2.09.64-3.52.1-4.26-.33-6.22,5.53-9.36,9.35-11.47,12.72,1.6,1.42,4.13,2.48,6.83,1.38,3.06-1.25,8.07.28,5.01,5.01-3.06,4.72-2.92,7.08.13,4.17,3.06-2.92,7.98-7.94,9.46-2.64.97,3.47-2.23,4.58-2.09,7.37.14,2.78,2.92,5.56-.97,8.9-3.89,3.33-5.56-2.37-8.2-1.53-1.59.51-1.92,1.97-1.83,3.27,3.46,4.9,8.5,11.82,10.31,14.8,2.78,4.6,2.78,10.16,3.89,9.32,1.11-.84,3.76-3.34,4.59-4.03.83-.7,1.67-1.53,1.25-3.06-.42-1.53-2.02-9.73-1.53-15.43.55-6.53,3.61-13.7,5.84-17.8,2.14-3.95,8.62-16.55,10.15-19.89,1.53-3.33,4.31-7.23,5.01-10.29.69-3.06,3.33-10.15,4.45-13.49-.28-2.78-2.07-8.41-5.01-15.02M193.13,138.32c-.83,2.23-1.94,5.01-2.5,6.4-.56,1.39-3.12.85-2.92-.14.42-2.08-2.55-.7-2.22-2.36.28-1.39-.28-3.62,1.25-3.62s4.45-.28,6.4-.28"/>
  <path class="st5" d="M188.47,37.65c.26-.68.48-1.42.77-2.02-.98.51-1.95,1.03-2.92,1.57.62.87,1.45,2.25,2.14.45M197.72,223.15c-2.51.14-5.57-.56-5.57-.56-.28,2.64-2.84,6.43-5.42,10.29-.28.42-1.81.42-2.51-.14-.69-.55-2.63-1.53-1.11-3.2,1.53-1.66,4.03-5.14,3.62-6.67-.42-1.53-1.53-2.92-3.2-.83-1.67,2.08-4.31,6.4-7.23,6.54-2.93.13-5.84-2.51-4.45-5.15,1.39-2.64,1.81-4.03-.14-6.4-1.95-2.36-1.22-5.38,2.92-7.23,1.25-.55,3.47,0,5,1.25,1.53,1.25,2.37,0,.28-1.25-2.09-1.25-3.75-2.78-4.03-5.56-.27-2.64,1.39-5.42,5.01-3.89,3.61,1.53,5.84.28,7.37-.97,1.53-1.25,8.05-2.82,7.09,2.92-.7,4.17-2.64,4.31-3.2,6.53-.55,2.22,1.11.83,2.09-.83.97-1.67,3.2-8.5,7.78-3.34,1.12,1.25.7,3.34-.7,5.7-1.39,2.37-.28,3.75.56,5,.84,1.25,2.77,7.4-4.17,7.79M183.53,255.97c-3.34.97-3.9-.56-6.12-1.39-2.22-.83-2.37,1.11-.83,3.47,1.53,2.37,3.2,4.59,1.39,4.59s-3.2.28-3.48,1.67c-.28,1.39-3.2-.28-3.89-3.2-.7-2.93-1.39-8.48-2.92-5.7-1.53,2.77-2.92,7.37-6.81,5.28-3.89-2.08-1.25-4.87-3.2-6.82-1.94-1.95-3.75-4.45-1.8-7.92,1.95-3.48,3.62-.56,5.42-.56s2.08-1.67.42-2.92c-1.67-1.25-3.76-7.23,3.89-6.81,2.95.16,6.12-.83,8.62-2.64,2.5-1.81,9.04-.83,6.4,3.76-2.64,4.58-1.81,5.56-.28,3.89,1.53-1.68,3.48-4.73,6.4-3.89,2.92.83,1.67,3.05-.14,5.56-1.81,2.51-.7,4.17.69,5.14,1.39.98,3.95,6.23-3.75,8.49M232.9,231.07c-3.62-5.97-4.31-8.34-4.87-14.46-.35-3.86-.03-8.88.52-13.7-1.07-.08-2.52.12-2.6,1.74-.14,2.65-1.39,6.4-2.23,8.34-.83,1.95-3.62,1.81-5.28,1.95-1.67.14-1.67-.98-.55-3.48,1.11-2.5,1.53-3.62,1.25-5.84-.28-2.23-1.38-.28-2.36,1.67-.98,1.95-3.75,5.83-6.95,5.42-3.2-.42-2.37-5.28-2.08-6.95.28-1.67-.69-1.95-1.94-2.23-1.25-.27-3.76-.83-2.37-4.87,1.39-4.03,2.92-3.62,4.86-2.92,1.95.7,2.23-.55.42-1.25-1.81-.69-3.75-2.23-3.61-4.17.37-5.15,3.61-4.73,6.12-4.17,2.18.48,4.92-.83,6.79-2.82-.04-.13-.08-.25-.11-.38-3.71-14.15,3.33-31.56,5.28-36.43,1.95-4.87,9.46-18.56,12.03-22.67-1.39-.7-5.07-2.57-7.09-3.62-2.01-1.04-3.13-1.53-3.68-.76-.56.76-1.25,1.18-2.22,2.57-1.95,2.79-.28,2.37.28,2.37s2.92,3.06,3.34,3.76c.42.69,0,1.25-.98,3.47-1.28,2.91-2.08,9.6-3.2,13.63-3.37,12.21-8.62,10.98-10.99,9.46-2.37-1.53-3.06.83-5.42,4.17-.57.79-1.98,2.31-3.85,4.19,2.27,1.01,5.33,3.93,1.63,6.79-4.31,3.34-5.15,5.15-3.06,4.73,2.08-.42,4.17-3.62,6.54-1.39,2.37,2.23-.83,4.73-2.09,5.42-1.25.7-3.76,1.95-3.06,4.59.7,2.64,1.12,6.26-2.37,7.09-3.47.83-4.86-.7-5.83-2.5-.98-1.81-1.95-.56-2.37,1.67-.42,2.22-.69,3.89-.69,4.73s-2.5-.41-3.62-1.53c-1.11-1.12-2.5,1.94-3.76.42-1.24-1.53,1.53-6.26,2.51-7.93.92-1.57.53-3.75-5-1.2-1.79,3-3.21,7.34-5.44,14.13-3.06,9.32-9.98,22.01-12.86,26.63-7.49,12.04-8.83,23.43-7.71,30.52,1.1,7.05,2.08,6.53,3.61,6.53s5.28,4.73,7.78,7.65c2.5,2.92,3.48,1.67,4.73.69,4.02-3.12,12.09-8.34,23.5-13.76,4.87-2.31,11.34-4.78,17.66-6.8.1-2.62.74-5.78.97-6.97.28-1.39-1.11-1.81-2.5,0-1.4,1.8-5.15,6.25-7.65,5.14-2.5-1.11-4.58-3.89-3.2-6.26,1.39-2.36-.55-3.06-1.53-4.31-.98-1.25-.98-6.12,2.08-6.54,3.06-.41,4.03,2.23,6.12,2.93,2.08.7,3.75.55,1.1-2.37-2.64-2.92-5.84-1.81-4.17-5.83,1.67-4.03,4.03-3.75,6.81-2.92,2.78.83,4.17-.69,5.98-1.95,1.81-1.25,5.42-2.92,7.92,0,2.51,2.92-1.8,5.56-2.78,6.54-1.88,1.88-2.22,5.42-.14,3.33,2.09-2.08,5.65-9.63,8.07-3.33,1.39,3.61-1.25,5-.83,7.23.41,2.22,4.17,5.28,1.11,8.06-3.05,2.78-7.37.42-9.18-1.25-1.8-1.67-3.75-2.5-2.92.56.61,2.25.92,4.62.93,6.08,6.08-1.68,11.38-2.71,14.08-2.47,3.97.35,6.96,1.53,6.82-2.09-.14-3.62-2.08-6.12-5.7-12.1M150.49,342.03c-.61,0-1.94-.22-1.94-.78l-1.6-.18c.97.2,1.85,1.31.83,2-1.11.78-4.66,1.2-8.4.98-3.75-.2-4.67-2.24-4.73-3.72-.05-.98.07-1.83.07-3.24s-.33-2.67.5-3.23c.83-.56.62.84,1.17.84,2.37,0,10.57.78,12.52,1.06,1.96.27,1.82-.89,1.38-2.19-.13-.42-.68-.27-.89.29-.22.56-2.02.35-2.02.35,0,0-3.62-.35-5.97-.5-2.37-.15-4.2-.41-5.64-.7-1.47-.29-3.28-.21-3.13.49.12.7.55,9.48.63,10.75.06,1.26.13,1.76.76,1.76,1.6,0,12.39.14,14.88.14s2.38-.28,2.43-1.68c.07-1.41-.2-2.46-.84-2.46"/>
</svg>