<?xml version="1.0" encoding="UTF-8"?>
<svg id="Ebene_1" xmlns="http://www.w3.org/2000/svg" xmlns:xlink="http://www.w3.org/1999/xlink" version="1.1" viewBox="0 0 430.43 437.61">
  <!-- Generator: Adobe Illustrator 29.7.1, SVG Export Plug-In . SVG Version: 2.1.1 Build 8)  -->
  <defs>
    <style>
      .st0 {
        fill: none;
      }

      .st1 {
        mask: url(#mask);
      }

      .st2 {
        fill: #fff;
        fill-rule: evenodd;
      }

      .st3 {
        mask: url(#mask-2);
      }

      .st4 {
        mask: url(#mask-3);
      }

      .st5 {
        mask: url(#mask-4);
      }

      .st6 {
        mask: url(#mask-5);
      }

      .st7 {
        mask: url(#mask-7);
      }

      .st8 {
        mask: url(#mask-6);
      }

      .st9 {
        mask: url(#mask-1);
      }

      .st10 {
        mask: url(#mask-9);
      }

      .st11 {
        mask: url(#mask-8);
      }

      .st12 {
        fill: #a0a0a4;
      }

      .st13 {
        fill: #fefefe;
      }

      .st14 {
        fill: #008ca8;
      }

      .st15 {
        mask: url(#mask-10);
      }

      .st16 {
        mask: url(#mask-14);
      }

      .st17 {
        mask: url(#mask-18);
      }

      .st18 {
        mask: url(#mask-11);
      }

      .st19 {
        mask: url(#mask-16);
      }

      .st20 {
        mask: url(#mask-13);
      }

      .st21 {
        mask: url(#mask-12);
      }

      .st22 {
        mask: url(#mask-17);
      }

      .st23 {
        mask: url(#mask-15);
      }

      .st24 {
        fill: #1c1060;
      }
    </style>
    <mask id="mask" x="0" y="0" width="430.43" height="437.61" maskUnits="userSpaceOnUse">
      <g id="b">
        <path id="a" class="st2" d="M0,437.6h430.43V0H0v437.6Z"/>
      </g>
    </mask>
    <mask id="mask-1" x="0" y="0" width="430.43" height="437.61" maskUnits="userSpaceOnUse">
      <g id="d">
        <path id="c" class="st2" d="M0,437.6h430.43V0H0v437.61Z"/>
      </g>
    </mask>
    <mask id="mask-2" x="0" y="0" width="430.43" height="437.61" maskUnits="userSpaceOnUse">
      <g id="f">
        <path id="e" class="st2" d="M0,437.6h430.43V0H0v437.61Z"/>
      </g>
    </mask>
    <mask id="mask-3" x="0" y="0" width="430.43" height="437.61" maskUnits="userSpaceOnUse">
      <g id="h">
        <path id="g" class="st2" d="M0,437.6h430.43V0H0v437.61Z"/>
      </g>
    </mask>
    <mask id="mask-4" x="0" y="0" width="430.43" height="437.61" maskUnits="userSpaceOnUse">
      <g id="j">
        <path id="i" class="st2" d="M0,437.6h430.43V0H0v437.61Z"/>
      </g>
    </mask>
    <mask id="mask-5" x="0" y="0" width="430.43" height="437.61" maskUnits="userSpaceOnUse">
      <g id="l">
        <path id="k" class="st2" d="M0,437.6h430.43V0H0v437.61Z"/>
      </g>
    </mask>
    <mask id="mask-6" x="0" y="0" width="430.43" height="437.61" maskUnits="userSpaceOnUse">
      <g id="n">
        <path id="m" class="st2" d="M0,437.6h430.43V0H0v437.61Z"/>
      </g>
    </mask>
    <mask id="mask-7" x="0" y="0" width="430.43" height="437.61" maskUnits="userSpaceOnUse">
      <g id="p">
        <path id="o" class="st2" d="M0,437.6h430.43V0H0v437.61Z"/>
      </g>
    </mask>
    <mask id="mask-8" x="0" y="0" width="430.43" height="437.61" maskUnits="userSpaceOnUse">
      <g id="r">
        <path id="q" class="st2" d="M0,437.6h430.43V0H0v437.61Z"/>
      </g>
    </mask>
    <mask id="mask-9" x="0" y="0" width="430.43" height="437.61" maskUnits="userSpaceOnUse">
      <g id="t">
        <path id="s" class="st2" d="M0,437.6h430.43V0H0v437.61Z"/>
      </g>
    </mask>
    <mask id="mask-10" x="0" y="0" width="430.43" height="437.61" maskUnits="userSpaceOnUse">
      <g id="v">
        <path id="u" class="st2" d="M0,437.6h430.43V0H0v437.61Z"/>
      </g>
    </mask>
    <mask id="mask-11" x="0" y="0" width="430.43" height="437.61" maskUnits="userSpaceOnUse">
      <g id="x">
        <path id="w" class="st2" d="M0,437.6h430.43V0H0v437.61Z"/>
      </g>
    </mask>
    <mask id="mask-12" x="0" y="0" width="430.43" height="437.61" maskUnits="userSpaceOnUse">
      <g id="z">
        <path id="y" class="st2" d="M0,437.6h430.43V0H0v437.61Z"/>
      </g>
    </mask>
    <mask id="mask-13" x="0" y="0" width="430.43" height="437.61" maskUnits="userSpaceOnUse">
      <g id="B">
        <path id="A" class="st2" d="M0,437.6h430.43V0H0v437.61Z"/>
      </g>
    </mask>
    <mask id="mask-14" x="0" y="0" width="430.43" height="437.61" maskUnits="userSpaceOnUse">
      <g id="D">
        <path id="C" class="st2" d="M0,437.6h430.43V0H0v437.61Z"/>
      </g>
    </mask>
    <mask id="mask-15" x="0" y="0" width="430.43" height="437.61" maskUnits="userSpaceOnUse">
      <g id="F">
        <path id="E" class="st2" d="M0,437.6h430.43V0H0v437.61Z"/>
      </g>
    </mask>
    <mask id="mask-16" x="0" y="0" width="430.43" height="437.61" maskUnits="userSpaceOnUse">
      <g id="H">
        <path id="G" class="st2" d="M0,437.6h430.43V0H0v437.61Z"/>
      </g>
    </mask>
    <mask id="mask-17" x="0" y="0" width="430.43" height="437.61" maskUnits="userSpaceOnUse">
      <g id="J">
        <path id="I" class="st2" d="M0,437.6h430.43V0H0v437.61Z"/>
      </g>
    </mask>
    <mask id="mask-18" x="-73.08" y="-69.28" width="576.92" height="576.92" maskUnits="userSpaceOnUse">
      <g id="L">
        <path id="K" class="st2" d="M0,437.6h430.43V0H0v437.61Z"/>
      </g>
    </mask>
  </defs>
  <path class="st0" d="M-34.62-30.82h500v500H-34.62V-30.82Z"/>
  <g class="st1">
    <path class="st13" d="M420.11,42.79s-3.47,1.67-7.39,3.55c5.43-19.02,8.71-34.27,8.75-34.46L424.01.01l-10.16,6.66c-.88.57-86.04,56.52-151.09,107.86l-.05-.11c-.51-1.46-1.38-3.25-2.88-5.1.47-.33.94-.66,1.4-1,6.47-4.61,7.64-5.49,7.95-5.86,7.46-6.49,9.24-14.35,8.5-19.11l-2.33-15.08-39.82,29.66c-10.49-2.68-23.38-4.43-40.48-.01l-39.81-29.65-2.34,15.07c-.75,4.77,1.04,12.64,8.08,18.71.72.79,1.92,1.68,8.54,6.4.4.29.81.59,1.22.87-1.27,1.57-2.24,3.28-2.89,5.12l-.03.08C104.05,64.2,17.61,7.26,16.71,6.67L6.57,0l2.51,11.87c.19.87,3.78,17.73,8.6,34.39-3.88-1.87-7.23-3.47-7.23-3.47L0,37.78l3.55,11.04c.21.67,5.28,16.4,9.41,26.87,6.1,16.74,17.67,43.21,28.06,61.53,5.39,9.12,13.81,17.5,24.36,24.23,6.03,3.83,12.49,7,19.25,9.4,1.23,2.79,3.59,7.97,6.41,12.96h-20.44v35.38l-29.75,14.25,29.77,15,.04,27.86,26.61,16.27,1.73-.21s16.03-1.99,25.24-2.98l68.77,39.71c13.89,63.7,17.35,81.82,17.38,81.99l5.02,26.53,4.79-26.57c.04-.19,3.51-19.3,17.37-81.94l68.77-39.72c9.21,1,25.23,2.98,25.24,2.98l1.73.21,26.61-16.27.03-27.85,29.78-15.01-29.75-14.25v-35.38h-20.48c2.85-5.04,5.22-10.18,6.44-12.96,8.35-3.01,31.53-12.92,43.64-33.65,5.83-9.99,18.38-35.65,28.02-61.44.34-.88,5.52-14.31,9.46-26.98l3.39-10.93-10.32,4.94h0Z"/>
  </g>
  <path class="st24" d="M109.15,193.08h-29.34v31.86l-17.64,8.64,17.64,9.21v28.31l19.48,11.93c7.18-.94,16.34-2.05,26.95-3.12l75.31,43.42,13.73,63.18c.09-.15,13.87-63.18,13.87-63.18l75.18-43.42c10.61,1.08,19.77,2.19,26.95,3.12l19.46-11.93v-28.31l17.68-9.01-17.68-8.84v-31.86h-29.32s4.54-4.39,10.3-14.29c2.4-4.14,4.67-9.3,7.45-15.42,21.38-6.51,37.15-20.16,43.91-33.47,18.31-33.53,32.08-74.53,32.08-74.53,0,0-7.9,3.79-17.44,8.5,7.74-23.62,12.39-43.67,12.39-43.67,0,0-84.45,55.89-150.23,108.4l-5.7-3.42c.02-.54.18-5.34.18-5.74,0,0,.64-5.58-9.18-8.91-.61-.21-1.18-.4-1.75-.59,4.76-3.57,12.16-9.04,17.56-12.74,8.61-5.91,7.59-12.41,7.59-12.41l-31.21,23.23c-24.11-7.82-44.2,0-44.2,0l-31.2-23.23s-1.03,6.5,7.58,12.41c5.41,3.7,12.8,9.17,17.57,12.74-.57.19-1.15.38-1.75.59-9.83,3.33-9.17,8.91-9.17,8.91,0,.4.14,5.2.17,5.74l-5.71,3.42C104.91,76.08,20.47,20.19,20.47,20.19c0,0,4.63,20.05,12.37,43.67-10.21-5.05-17.44-8.5-17.44-8.5,0,0,13.78,41,32.09,74.53,6.75,13.31,22.53,26.97,43.9,33.47,0,0,3.61,8.28,6.73,14.23,3.85,7.36,11.01,15.48,11.01,15.48"/>
  <path class="st14" d="M250.7,145.34c-.28.93-.61,1.82-.92,2.7,29.57-19.32,81.23-53.04,139.11-90.65,0,0,.07,1.26,5.2-13.62-61.15,36.95-115.31,78.82-143.39,101.57M179.87,145.34c-28.07-22.74-82.22-64.62-143.38-101.58,5.12,14.89,5.19,13.62,5.19,13.62,57.88,37.62,109.54,71.33,139.11,90.65-.32-.88-.63-1.78-.92-2.69M126.18,194.73s-14.53-10.38-22.72-29.36l5.8,1.73c18.92,5.01,55.11,10,55.11,10-17.43.39-32.16,1.76-40.57,2.69-1.75-2.17-3.75-4.93-4.52-6.99,0,0,.65,6.64,2.13,10.79,1.89,6.07,4.75,11.12,4.77,11.14M215.26,175.21c-5.06-1.94-17.8-8.29-25.44-24.92,6.26,5.4,14.29,7.13,20.7.92-7.83-3.37-8.8-17.35-10.32-21.01-3.06-7.43-7.91-11.18-11.74-12.75,1.76-.6,3.54-1.17,5.32-1.72,3.66,1.99,9.78,6.56,11.69,15.67,0,0,.8-10.4-4.35-17.7,9.99-2.41,20.06-2.08,28.28,0-5.16,7.3-4.37,17.71-4.37,17.71,1.93-9.12,8.06-13.7,11.73-15.68,1.65.51,3.42,1.09,5.34,1.73-3.84,1.58-8.69,5.33-11.74,12.75-1.51,3.66-2.48,17.64-10.3,21.01,1.8,10.64-.42,20.56-4.81,24M309.11,183.59c1.49-4.15,2.13-10.79,2.13-10.79-.77,2.06-2.77,4.82-4.53,6.99-8.4-.93-23.14-2.3-40.56-2.68,0,0,36.17-5,55.1-10.01l5.8-1.72c-8.18,18.98-22.69,29.35-22.71,29.35.02,0,2.87-5.06,4.77-11.14M170.23,284.57l-36.85-21.28c-2.65.25-5.26.5-7.76.76l51.17,29.55c-2.49-2.75-4.69-5.79-6.55-9.03M260.33,284.57l36.85-21.28c2.64.25,5.25.5,7.75.76l-51.16,29.55c2.49-2.75,4.69-5.79,6.55-9.03M198.89,289.54c-16.27-3.53-23-11.56-23-11.56,3.33,6.79,8.37,12.6,14.55,16.86,0,0,6.85-1.99,8.46-5.3M188.93,272.15c-1.17-1.14-2.33-2.3-3.47-3.48-5.19,1.81-8.14,3.82-9.7,5.19,3.6,3.43,10.46,7.99,22.79,10.56-1.5-4.23-5.33-8.02-9.62-12.27"/>
  <path class="st14" d="M214.96,310.56c-5.4.09-9.25,2.18-10.53,2.65-1.35-2.55-2.92-5.13-4.41-7.42,4.64.57,8.72-.3,8.72-.3-1.95-.64-6.95-2.34-13.54-6.68,0,0-.02-.01-.02-.01.57-.24,1.15-.5,1.74-.79,0,0,0-.01,0-.02,1.74-.87,3.48-2,4.86-3.41,1.65-1.7,2.77-3.8,2.77-6.42,0-8.08-5.44-10.81-11.55-16.85-1.23-1.21-2.54-2.46-3.88-3.77,5.61-1.51,13.23-2.68,23.48-2.86l2.45,34.3h.36l2.53-34.3c10.26.18,17.87,1.36,23.48,2.86-1.34,1.32-2.65,2.57-3.88,3.77-6.12,6.04-11.55,8.76-11.55,16.85,0,2.61,1.13,4.72,2.77,6.42,1.38,1.42,3.11,2.55,4.85,3.41l.02.02c.59.29,1.17.55,1.73.79,0,0,0,.01-.01.01-6.58,4.34-11.59,6.04-13.54,6.68,0,0,4.07.87,8.72.3-1.49,2.29-3.06,4.87-4.42,7.42-1.28-.48-5.13-2.57-10.52-2.65h-.64,0Z"/>
  <path class="st14" d="M240.13,294.84c6.18-4.26,11.2-10.07,14.55-16.85,0,0-6.73,8.01-23.01,11.55,1.6,3.31,8.46,5.3,8.46,5.3M232.01,284.42c12.32-2.57,19.18-7.13,22.79-10.56-1.56-1.38-4.51-3.39-9.7-5.19-1.16,1.2-2.33,2.37-3.47,3.48-4.3,4.24-8.12,8.03-9.62,12.27"/>
  <path class="st13" d="M204.25,152.14s-5.97-3.94-6.92-12.33c0,0-7.73,12.95,6.92,12.33M226.74,152.14s5.97-3.94,6.92-12.33c0,0,7.74,12.95-6.92,12.33M222.35,323.1c-1.07-1.11-2.62-2.4-7.38-2.41-4.49-.01-6.06,1.14-7.36,2.21l7.67,30.34,7.07-30.14h0ZM273.07,189.82v11.11h-3.73v-11.11h-3.09v-3.17h9.91v3.17h-3.08ZM255.7,189.82v11.11h-3.74v-11.11h-3.09v-3.17h9.93v3.17h-3.09Z"/>
  <g class="st9">
    <path class="st13" d="M197.08,192.66h3.98v-2.82h-3.98v2.82ZM203.23,195.87h1.34v-7.68l-1.56-1.54h-9.45v14.28h3.52v-5.06h2.64l2.04,5.06h3.49l-2.03-5.06Z"/>
  </g>
  <g class="st3">
    <path class="st13" d="M294.56,189.83v-3.17h-10.47v14.28h10.47v-3.21h-6.82v-2.35h6.82v-3.2h-6.82v-2.35h6.82Z"/>
  </g>
  <g class="st4">
    <path class="st13" d="M217.2,197.72v-11.08h-3.66v14.28h8.93v-3.2h-5.27Z"/>
  </g>
  <g class="st5">
    <path class="st13" d="M232.92,197.73h4.05v-7.89h-4.05v7.89ZM238.89,186.65h-9.48v12.68l1.6,1.61h9.46v-12.69l-1.58-1.59h0Z"/>
  </g>
  <g class="st6">
    <path class="st13" d="M177.47,193.06h4.06v-3.24h-4.06v3.24h0ZM185.14,200.93l-.02-12.68-1.58-1.6h-9.67v14.28h3.59v-4.64h4.05v4.64h3.62Z"/>
  </g>
  <g class="st8">
    <path class="st13" d="M162.48,186.65v6.42h-4.03v-6.42h-3.59v14.28h3.59v-4.64h4.03v4.64h3.58v-14.28h-3.58Z"/>
  </g>
  <g class="st7">
    <path class="st13" d="M376.72,85.27c6.94-16.33,12.17-27.89,12.17-27.89-57.88,37.62-109.55,71.34-139.11,90.66-1.13,3.14-2.41,6.01-3.82,8.63l116.59-63.54-91.01,65.76,4.2-.76,48.09-4.65s32.5-3.14,50.59-27.47c8.51-13.06,23.01-51.24,23.01-51.24l-20.71,10.49h0Z"/>
  </g>
  <g class="st11">
    <path class="st13" d="M98.14,237.44l11.21-4.83v25.46c3.2-.44,6.51-.85,9.87-1.25v-55.89h-9.86c-.02-.07-.02,20.03-.01,20.13l-11.21,4.73v-24.86s-9.91,0-9.91,0v28.93s-8.16,3.91-8.12,3.99l8.12,4.06v23.46c3.18-.58,6.54-1.13,9.91-1.67v-22.28h0Z"/>
  </g>
  <g class="st10">
    <path class="st13" d="M175.03,218.71h11.17c0,2.74-.02,6.28-.02,8.76-3.73.05-7.42.12-11.14.18v-8.94s0,0,0,0ZM175.04,237.27c2.46-.07,4.87-.14,7.34-.2,1.82,4.73,3.69,10.1,5.51,14.84,3.26-.09,6.55-.17,9.87-.23-1.82-4.76-3.66-10.1-5.47-14.81,1.25-.02,2.5-.05,3.77-.06v-22.85s-4.38-4.31-4.38-4.31h-30.27l3.74,4.46v38.78c3.26-.18,6.54-.35,9.89-.5v-15.12Z"/>
  </g>
  <g class="st15">
    <path class="st13" d="M213.58,218.71h11.32v32.85c3.4.03,6.93.08,10.3.15v-37.58l-4.51-4.48h-30.94l3.72,4.46v37.49c3.35-.04,6.7-.07,10.11-.08v-32.81h0Z"/>
  </g>
  <g class="st18">
    <path class="st13" d="M272.14,243.69c-6.39-.34-12.69-.63-19.08-.85-.03-2.35-.03-4.68-.03-7.02,6.37.18,12.74.4,19.11.67v-9.86c-6.4-.17-12.75-.32-19.13-.43,0-1.9,0-5.11,0-7.5h19.14v-9.05h-33.21l3.68,4.43v37.82c10.11.29,19.99.74,29.53,1.34v-9.55h0Z"/>
  </g>
  <g class="st21">
    <path class="st13" d="M297.02,218.71h8.51v-9.06h-27.9v9.06h8.68v35.56c3.56.29,7.27.59,10.71.92v-36.48h0Z"/>
  </g>
  <g class="st20">
    <path class="st13" d="M147.91,244.17c-3.8.24-7.52.48-11.32.76v-26.22h11.33v25.46ZM157.84,214.11l-4.47-4.46h-30.37l3.59,4.32v36.91s3.93,4.67,3.93,4.67c8.71-.88,17.91-1.63,27.3-2.24v-39.2h.01Z"/>
  </g>
  <g class="st16">
    <path class="st13" d="M341.28,237.72c3.05-1.37,6.13-2.76,9.19-4.2-9.85-4.56-19.7-8.71-29.56-12.55l-.02-11.21h10.45v4.07h9.94v-12.9h-34.02l3.78,4.38v23.1l20.3,8.82v12.91s-4.71-.6-10.45-1.34v-4.14l-9.86-1.18v13.18c10.78,1.26,20.91,2.73,30.24,4.38-.01-7.03,0-18.11,0-23.34"/>
  </g>
  <g class="st23">
    <path class="st13" d="M143.25,196.49v1.23h-3.19v-7.89h3.19v1.18h3.58v-4.35h-10.3v12.68l1.61,1.6h8.69v-4.43h-3.58Z"/>
  </g>
  <g class="st19">
    <path class="st13" d="M53.85,85.27c-6.94-16.33-12.17-27.89-12.17-27.89,57.88,37.62,109.55,71.34,139.11,90.66,1.13,3.14,2.41,6.01,3.82,8.63l-116.59-63.54,91.01,65.76-4.2-.76-48.09-4.65s-32.5-3.14-50.59-27.47c-8.51-13.06-23-51.24-23-51.24l20.71,10.49Z"/>
  </g>
  <g class="st22">
    <path class="st12" d="M109.15,193.08h-29.34v31.86l-17.64,8.64,17.64,9.21v28.31l19.48,11.93c7.18-.94,16.34-2.05,26.95-3.12l75.31,43.42,13.73,63.18c.09-.15,13.87-63.18,13.87-63.18l75.18-43.42c10.61,1.08,19.77,2.19,26.95,3.12l19.46-11.93v-28.31l17.68-9.01-17.68-8.84v-31.86h-29.32s4.54-4.39,10.3-14.29c2.4-4.14,4.67-9.3,7.45-15.42,21.38-6.51,37.15-20.16,43.91-33.47,18.31-33.53,32.08-74.53,32.08-74.53,0,0-7.9,3.79-17.44,8.5,7.74-23.62,12.39-43.67,12.39-43.67,0,0-84.45,55.89-150.23,108.4l-5.7-3.42c.02-.54.18-5.34.18-5.74,0,0,.64-5.58-9.18-8.91-.61-.21-1.18-.4-1.75-.59,4.76-3.57,12.16-9.04,17.56-12.74,8.61-5.91,7.59-12.41,7.59-12.41l-31.21,23.23c-24.11-7.82-44.2,0-44.2,0l-31.2-23.23s-1.03,6.5,7.58,12.41c5.41,3.7,12.8,9.17,17.57,12.74-.57.19-1.15.38-1.75.59-9.83,3.33-9.17,8.91-9.17,8.91,0,.4.14,5.2.17,5.74l-5.71,3.42C104.91,76.08,20.48,20.19,20.48,20.19c0,0,4.63,20.05,12.37,43.67-10.21-5.05-17.44-8.5-17.44-8.5,0,0,13.78,41,32.09,74.53,6.75,13.31,22.53,26.97,43.9,33.47,0,0,3.61,8.28,6.73,14.23,3.85,7.36,11.01,15.48,11.01,15.48M412.91,73.98c-9.25,24.74-21.53,50.18-27.66,60.7-10.35,17.71-30.95,28.26-43.03,32.16,0,0-5.87,14.16-11.91,21.96h24.66v33.54l23.42,11.22-23.45,11.83-.03,28.13-22.74,13.89s-18.12-2.25-26.94-3.16l-72.08,41.64c-14.46,65.27-17.88,84.27-17.88,84.27,0,0-3.39-17.92-17.88-84.27l-72.09-41.64c-8.82.92-26.94,3.16-26.94,3.16l-22.74-13.89-.04-28.13-23.43-11.83,23.41-11.22v-33.54h24.66c-5.94-7.43-11.91-21.96-11.91-21.96-7.25-2.38-14.11-5.67-20.27-9.61-9.74-6.2-17.72-14.02-22.76-22.55-9.82-17.32-21.36-43.38-27.66-60.7-4.17-10.56-9.36-26.69-9.36-26.69,0,0,13.42,6.42,17.54,8.43C19.41,36.47,13.97,10.84,13.97,10.84h0s92.31,60.7,157.05,112.63l1.03-.63c-.03-1.08-.06-2.17-.06-3.29-.02-.65.02-1.93.56-3.5.75-2.14,2.42-4.81,6.19-7.11-4.76-3.49-13.33-9.41-14.08-10.24-6.26-5.44-7.32-11.57-6.84-14.58l1.07-6.91,35.13,26.17c19.1-5.47,32.6-2.76,42.55,0l35.13-26.17,1.07,6.91c.48,3.01-.58,9.14-6.83,14.58-.73.78-9.34,6.75-14.08,10.24,3.74,2.3,5.43,4.97,6.18,7.11.54,1.58.59,2.85.55,3.5,0,1.13-.01,2.22-.05,3.29l1.03.63C325.83,70.35,416.6,10.83,416.6,10.83h0s-4.52,21.11-11.86,44.89c3.49-1.7,17.54-8.43,17.54-8.43-3.98,12.81-9.36,26.69-9.36,26.69"/>
  </g>
  <g class="st17">
    <path class="st0" d="M-73.08-69.28H503.84V507.64H-73.08V-69.28Z"/>
  </g>
</svg>