<?xml version="1.0" encoding="UTF-8"?>
<svg id="Ebene_1" xmlns="http://www.w3.org/2000/svg" xmlns:xlink="http://www.w3.org/1999/xlink" version="1.1" viewBox="0 0 422.97 425.62">
  <!-- Generator: Adobe Illustrator 29.7.1, SVG Export Plug-In . SVG Version: 2.1.1 Build 8)  -->
  <defs>
    <style>
      .st0 {
        fill: none;
      }

      .st1 {
        mask: url(#mask);
      }

      .st2 {
        fill: #fff;
        fill-rule: evenodd;
      }

      .st3 {
        fill: #2d2925;
      }

      .st4 {
        fill: #c21f32;
      }

      .st5 {
        fill: #fefefe;
      }
    </style>
    <mask id="mask" x="0" y="0" width="422.97" height="425.62" maskUnits="userSpaceOnUse">
      <g id="b">
        <path id="a" class="st2" d="M422.97,0H0v425.61h422.97V0Z"/>
      </g>
    </mask>
  </defs>
  <g class="st1">
    <path class="st5" d="M389.5,209.7l-16.86-5.65c25.76-10.43,52.65-31.25,50.17-74.78-1.71-30.12-14.84-56.44-22.7-72.2L371.57,0l5.68,61.5c1.76,19.28,1.13,44.68-6.13,58.46-9.68,20.13-41.79,17.91-53.28,17.15-20.3-1.35-86.43-3.61-106.49-3.61-26.8.11-56.2,2.27-80.12,4.04-11.38.84-21.21,1.57-27.81,1.81-.69.02-1.68.11-3.01.24-41.93,3.87-49.06-15.77-51.41-22.24-4.34-11.91-4.23-38.61-4.18-50.11l.18-50.11-22,40.68C16.46,69.9,4.3,92.39.16,130.38c-2.8,53.49,30.89,69.07,41.95,74.18,1.5.7,2.99,1.34,4.49,1.95-.91.29-1.77.56-2.59.85-7.21,2.46-14.7,5.88-16.96,6.93l-12.57,5.98,8.21,11.41c1.03,1.4,3.77,5.01,6.78,7.97,7.6,7.48,26.78,19.35,50.23,16.44,8.21-1.01,14.69-2.49,19.7-3.99.87,2.54,1.83,5.2,2.82,7.64,7.19,17.86,23.53,51.87,29.68,63.68,4.05,7.78,8.08,14.88,11.21,20.28l-.28.24c-.69.61-1.28,1.15-2.11,1.99l-2.79,3.32-.17,3.92c-.17,3.7-1.01,36.79,21.88,61.43l1.91,1.84,2.2.84c10.76,4.12,24.77,8.34,47.2,8.34s42.49-5.55,49.93-9.31l2.16-1.16,1.41-1.67c15.54-18.38,22.37-45.32,22.68-56.57l.25-.32-.24-.18-.31-4.52-4.3-4.36c-.94-.9-1.66-1.59-2.24-2.53,1.61-3.17,3.58-7.26,5.72-11.74l.44-.92c1.26-2.62,2.33-4.85,2.95-6.07,5.94-11.56,23.27-48.74,30.15-66.31,1.45-3.7,2.67-6.75,3.71-9.25,4.95,1.5,11.46,2.93,19.8,3.79,23.43,2.44,45.62-12.04,53.29-22.59.41-.55.98-1.25,1.38-1.73l10.56-12.39-14.38-6.49c-.19-.08-1.09-.46-4.39-1.59"/>
  </g>
  <path class="st3" d="M412.59,129.85c-1.6-28.04-14.16-53.2-21.66-68.23l-.89-1.79-3.27-6.52.67,7.27c.92,10.05,3.14,44.38-7.09,63.83-12.68,26.38-49.99,23.83-62.25,22.98l-.93-.06c-20.15-1.34-85.69-3.67-105.77-3.58-26.55.11-55.85,2.27-79.4,4-11.52.85-21.49,1.59-28.2,1.84-.54.02-1.34.09-2.43.19-33.02,3.07-53.87-6.66-62-28.92-4.98-13.66-4.85-40.67-4.79-53.65v-3.88s.03-5.45.03-5.45l-2.59,4.79c-6.21,11.47-17.74,32.83-21.63,68.24-2.17,41.75,19.51,56.72,36.03,64.35,17.24,7.98,34.86,9.13,40.65,9.5l.42.03-.16-.02c1.19.22,2.55.28,3.98.34,1.78.08,3.71.18,5.69.55-3.12.6-7.23,1.31-10.84,1.93-3.84.66-7.47,1.28-9.35,1.68-3.91.83-20.53,4.71-29.48,7.76-7.6,2.6-15.79,6.46-15.87,6.49l-1.5.71.97,1.34c.11.15,2.86,3.96,5.72,6.77,5.85,5.76,22.13,16.02,41.79,13.57,15.71-1.95,24.13-5.59,27.38-7.31,1.01,3.38,3.45,11.2,5.9,17.3,7.08,17.6,23.19,51.12,29.26,62.77,4.91,9.43,9.77,17.81,13,23.35l1.16,2c-1.06,3.62-3.58,5.87-5.46,7.52-.5.44-.93.82-1.3,1.2l-.37.37-.02.52c-.15,3.25-.91,32.39,18.91,53.73l.22.24.3.11c9.88,3.78,22.77,7.66,43.54,7.66s39-5.03,45.25-8.18l.26-.12.18-.21c13.83-16.36,20.12-40.96,20.27-49.9v-.57l-.4-.41c-.34-.35-.7-.7-1.08-1.05-2.15-2.07-4.81-4.63-6.34-10.68,1.69-2.89,4.99-9.78,7.67-15.39,1.51-3.14,2.8-5.86,3.51-7.25,5.86-11.4,22.95-48.04,29.73-65.36,4.29-10.95,6.7-16.43,7.74-18.69,3,1.62,11.08,5.2,26.36,6.78,19.81,2.05,38.7-11.21,43.96-18.44.88-1.22,2.39-2.97,2.4-2.98l1.19-1.39-1.66-.75c-.11-.05-.79-.34-3.74-1.35l-10.96-3.67-10.93-3.67c-2.98-1.01-16.36-3.91-26.11-6.03l-7.4-1.61,2.42-.44c22.62-4,82.71-14.65,79.33-74.14"/>
  <path class="st4" d="M15.51,117.8c3.3-17.05,8.75-33,16.19-48.31l.08-.18h.36v.33-.33h.33v.34c-.22,4.58-.35,9.29-.35,14.04,0,11.3.78,22.79,3.3,33.11l.25,1-.77-.69c-3.29-2.94-6.56-6.31-9.96-9.23-2.99,3.35-5.86,6.99-8.88,10.19l-.76.81.22-1.09h0ZM406.77,110.81l-.31.07.3-.09c-4.36-14.4-8.27-28.98-15.41-42.2l-.6.16c.29,4.58.43,9.13.43,13.64,0,11.05-.86,21.89-2.65,32.41l-.1.61.56-.28c3.5-1.69,6.82-3.96,10.41-5.49l8.63,6.24-1.25-5.08h0ZM265.75,264.83l-.67.3c-4.91,2.16-9.94,4.31-15.25,5.37-3.44.88-6.94,1.34-10.39,1.34-10.79-.01-21.09-4.47-27.46-14.23l-.21-.32-.28.26c-1.28,1.13-2.06,2.53-3.39,3.73-6.79,7.81-16.65,10.82-26.72,10.82-7.82,0-15.76-1.81-22.39-4.58l-.69-.28.26.7c5.1,13.49,8.23,28.46,8.23,43.51,0,6.75-.62,13.5-1.99,20.15-.93,4.66-2.49,9.49-3.73,14.04l-.21.71.66-.34c14.37-7.61,31.92-11.47,49.42-11.47,16.56,0,33.09,3.45,46.84,10.43,2.26.93,4.38,2.51,6.45,3.17l.61.19-.2-.6c-4.01-11.87-6.37-24.48-6.37-37.68v-.56c-.02-.84-.03-1.67-.03-2.51,0-14.43,3.02-28.64,7.27-41.45l.24-.69ZM125.22,278.78c-1.54-1.9-2.79-3.98-3.25-6.41l-.14-.74.64.4c2.58,1.67,5.42,2.36,8.33,2.36,6,0,12.31-2.95,17.04-6.27l.22-.15.18.19.16.15-.24.23.24-.23.1.1v.15c-.67,6.14-2.85,13.15-9.35,15.56-.97.25-1.92.36-2.84.36-4.36,0-8.15-2.54-11.08-5.7M277.9,276.45c-1.39-2.08-2.16-4.32-2.61-6.85l-.15-.84.67.52c3.23,2.55,7.29,3.66,11.45,3.66,4.89,0,9.89-1.53,13.73-4l.77-.49-.29.87c-1.91,5.55-6.72,11.23-12.57,12.5-.5.07-1.01.11-1.52.11-3.83,0-7.28-2.07-9.48-5.47"/>
  <path class="st4" d="M285.38,284.59c.76.16,1.53.23,2.29.23,2.2,0,4.42-.58,6.58-1.26l.65-.2-.26.62c-8.06,20.16-17.79,39.65-27.84,58.99l-.34.65-.25-.69c-2.03-5.56-2.6-11.47-2.6-17.51,0-4.43.31-8.94.59-13.45,1.44-13,4.58-25.51,8.46-37.55l.24-.74.36.69c2.39,4.65,6.91,9.44,12.1,10.22M158.07,343.05c-12.16-18.55-21.4-38.16-30.32-58.06l-.39-.86.83.44c2.42,1.3,5.66,2.33,8.75,2.33,2.09,0,4.09-.46,5.76-1.6,3.9-2.73,6.2-7.04,7.74-11.38l.25-.72.34.69c6.71,13.56,9.93,29.99,9.93,46.23,0,7.69-.73,15.35-2.14,22.66l-.02.09-.06.07-.44.44-.22-.33h0ZM168.75,405.15l-.06-.03-.05-.05c-12.38-13.59-17.06-31.06-17.73-49.55v-.17l.14-.1c16.29-11.86,38.07-18.13,59.54-18.13,14.1,0,28.07,2.7,40.27,8.31,7.8,3.48,15.3,7.29,22.19,12.82l-.19.26.19-.26.14.11-.02.17c-2.09,17.4-8.31,32.91-19.29,46.36l-.05.07-.07.03c-13.07,5.09-28.48,7.85-43.81,7.85-14.45,0-28.85-2.44-41.19-7.68M386.64,222.38s-7.66-2.94-9.63-3.68c-21-7.91-48-12.73-70.95-13.28-2.19-25.55-5.13-41.53-10.11-55.97l-.07-.19-.2-.02c-11.83-.69-64.3-2.8-84.58-2.8s-71.82,3.2-83.64,3.88h-.2s-.07.22-.07.22c-4.76,13.77-10.18,30.92-12.7,56.19-23.19,1.42-54.41,8.06-75.42,15.97-1.53.57-2.63,1.12-3.39,1.52-.37.2-.66.37-.86.48-.05.02-.09.05-.13.07l-.64-.73.23,1.16c0,.06.04.12.08.16,3.22,3.65,15.05,17.83,37.02,18.32.36.01.73.01,1.12.01,7.18,0,19.34-1.39,27.47-4.95,1.98-.88,5.82-2.46,6.86-2.88.39.74,1.55,2.98,2.12,4.59,2.36,6.54,5.16,15.95,7.23,20.05,3.05,6.09,8.03,10.99,16.1,11.17h.32c7.29-.02,12.32-5.84,13.2-7.08l.34-.47-.58-.03c-20.31-1.02-28.62-11.81-30-28.1l-.02-.25-.24-.04c-2.4-.43-3.92-.77-4.87-1.28-.94-.51-1.36-1.15-1.68-2.4-.13-.55-.19-1.11-.19-1.67,0-2,.81-4.17,2.32-6.68,1.57-2.1,3.88-4.17,8.49-4.18,1.91,0,4.2.36,7,1.25,6.32,2,11.39,6.07,14.92,9.17,4.22,3.69,16.47,16.46,23.9,20.92,4.36,2.61,10.99,5.05,17.74,5.05,5.4,0,10.88-1.57,15.27-5.88,9.44-9.26,10.59-17.23,11.83-22.15l.09-.39h-.4c-16.3-.47-31.74-2.07-45.95-4.04-1.65-.24-2.14-.93-2.14-1.52.01-.72.8-1.57,2.11-1.57.25,0,.51.03.8.1.04.01,26.88,3.56,45.68,3.68h.3l.02-.3c.15-2.19.18-6.03.32-10.35v-.33s-.32-.01-.32-.01c-11.14-.25-29.85-1.42-47.58-5-1.54-.32-2.14-1.24-2.14-2.01.02-.75.52-1.4,1.63-1.41.25,0,.52.03.83.11,2.64.7,31.52,4.78,47.25,4.78h.45s0-.31,0-.31c.07-3.36.1-8.09.12-12.64v-.32h-1.31c-10.16,0-24.87-1.02-45.79-4.21-1.71-.27-2.32-1.1-2.32-1.73s.61-1.36,1.93-1.37c.11,0,.23.01.36.02-.01,0,25.53,3.8,45.44,3.8.46,0,.91,0,1.37-.01h.32v-.32c0-3.08-.02-6.68-.05-10.3v-.06c.01-1.96.88-2.74,1.52-2.74.59,0,1.36.69,1.37,2.49,0,1.37.08,5.27.08,10.15v.6h.33c19.25-.59,36.18-2.85,44.13-4.27.46-.08.86-.12,1.21-.12,1.58.03,1.99.67,2.01,1.28,0,.62-.53,1.35-1.33,1.5-2.6.47-24.91,4.78-46.14,5.24h-.32v.32c.01,3.75.15,8.61.22,12.58v.33s.33-.01.33-.01c14.27-.51,30.79-1.04,44.98-4.18.67-.14,1.24-.21,1.74-.21,1.65.02,2.26.68,2.26,1.23.03.65-.83,1.63-2.86,1.97-13.91,2.31-33.97,4.7-46.03,4.79h-.33v.33c.09,3.47.12,7.68.3,10.44l.02.31h.31c22.76-.54,44.32-3.78,47.98-4.41.27-.04.51-.06.75-.06,1.42.01,2.08.78,2.08,1.5s-.62,1.57-2.35,1.81c-4.01.55-30.71,3.99-47.81,4.42h-.42s.11.41.11.41c1.69,5.79,2.02,14.22,10.42,21.44,4.11,3.53,9.63,5.12,15.33,5.12s11.4-1.55,16.2-4.31c7.51-4.34,19.37-17.34,23.58-21.03,3.5-3.07,11.49-10.46,22.17-10.46.15,0,.3,0,.45.01,5.48.11,8.15,1.56,9.56,3.12,1.41,1.58,1.57,3.32,1.91,4.26.25.67.45,1.57.45,2.48-.01,1.33-.42,2.64-1.75,3.46-1.86,1.16-3.63.85-5.6,1.75l-.15.07-.03.16c-1.39,8.91-4.19,19.04-11.18,24.33-3.77,2.87-8.64,4.48-12.56,5.37-3.91.89-6.87,1.04-6.87,1.04l-.68.04.45.5s1.66,1.81,2.21,2.35c1.24,1.17,4.75,2.87,9.35,2.88.49,0,.99-.02,1.51-.05,5.03-.43,10.83-4.25,13.3-6.79,3.74-4.85,7.17-14.93,9.71-21.42.89-2.31,2.93-6.32,3.76-8.38,2.07.97,3.28,1.62,7.23,3.22,8.22,3.29,18.63,4.73,25.63,4.73.4,0,.79,0,1.17-.01,11.43-.3,24.36-7.21,32.16-14.43,1.36-1.27,3.89-4.41,3.9-4.42l.28-.35-.41-.15h0Z"/>
  <path class="st3" d="M223.23,362.77c-1.21,2.03-1.74,4.35-1.74,6.72,0,3.83,1.41,7.75,3.63,10.61.13.18.32.27.53.28.25,0,.52-.13.73-.36v-.2c.02-2.26-1.44-4.23-1.46-6.72,0-.57.08-1.19.3-1.81l.22-.67.36.59c2.23,3.69,5.82,6.01,9.57,7.26,1.46.38,2.93.57,4.35.57,5-.01,9.64-2.26,12.92-6.3,1.56-2.18,2.75-4.95,2.75-7.65,0-1.27-.26-2.53-.87-3.73-2.36-4.59-7.14-7.24-11.94-8.03-.82-.09-1.64-.13-2.46-.13-6.96,0-13.46,3.11-16.86,9.57M195.99,381.91c.4.02.88-.44,1.21-1,1.82-2.87,3.06-6.6,3.06-10.23,0-2.39-.53-4.73-1.76-6.78l.28-.16-.29.14c-1.92-3.67-5.83-6.63-9.56-7.88-2.13-.69-4.38-1.04-6.62-1.04-5.35,0-10.57,2.05-13.87,6.45-1.27,1.67-1.91,3.82-1.91,5.96,0,1.12.17,2.23.53,3.28,1.75,4.9,6.4,8.77,11.33,9.7,1.11.19,2.19.3,3.25.3,5.74,0,10.79-2.81,14.37-7.73l.36-.49.2.57c.15.43.22.89.22,1.34-.01,1.01-.27,2.04-.37,2.86-.17,1.44-1.31,2.56-1.27,3.55,0,.33.09.65.38,1.02.17.1.32.14.45.14M170.05,400.82c12.52-5.25,27.48-8.3,42.35-8.3,11.22,0,22.36,1.73,32.37,5.56,2.51,1.07,5.16,1.94,7.69,2.72.64-.83.94-1.01,1.37-1.74-12.21-5.99-26.55-8.78-40.97-8.78-15.38,0-30.83,3.17-43.86,8.97.26.66.58,1.08,1.04,1.56M180.97,308.27c7.49,9.33,18.67,13.46,30.11,13.47,4.2,0,8.43-.56,12.52-1.63,19.06-5.28,30.57-26.06,34.5-44.22-.55-.51-1.04-.62-1.76-.84-2.39,10.69-6.95,21.19-13.7,30.03-8.07,9.83-19.99,14.8-31.72,14.8-4.17,0-8.32-.62-12.27-1.88-17.45-5.44-26.51-24.57-28.2-41.89-.72.01-1.2.05-1.76.44,1.19,11.93,4.76,22.56,12.28,31.73"/>
  <path class="st5" d="M39.18,128.77c10,19.29,30.16,25.5,50.67,24.52,11.47-.1,22.5-1.29,33.83-2.02v.79c-5.78,16.24-9.51,32.78-11.89,49.82-29.69,1.09-60.12-1.26-82.05-21.08-14.85-15.11-18.64-35.83-15.42-56.29,3.54-4.2,7.18-7.72,10.88-11.92,4.87,5.03,12.65,9.14,13.99,16.18M408.37,120.12c.75,2.98.89,5.8,1.18,8.92,1.41,22.84-8.45,43.9-27.95,55.52-21.34,12.86-46,17.27-72.16,17.91-.44-2.35-.73-5.33-1.02-7.98-2.07-15.02-4.9-30.21-9.11-44.62,28.01-.32,62.08,7.07,80.57-18.64,2.47-3.58,4.94-6.86,7.1-10.75,4.14-1.85,8.12-4.5,12.12-6.67,3.36,1.74,5.91,4.41,9.27,6.31M301.93,235.74c.11,8.76-2.68,17.81-10.52,21.99-3.68,2.02-7.96,2.78-12.1,2.59-.14-.77-.45-1.72-.13-2.65,6.42.19,12.56-2.12,15.95-7.42,2.32-3.9,3.25-8.28,3.28-13.12,1.08-.62,2.29-1.09,3.52-1.39M143.87,259.52c-1.16.19-1.71.49-3.88.01-10.31,0-21.08-8.26-20.46-22.25,1.22-.47,2.59-.29,3.85.12,0,7.94,3.21,18.78,20.07,18.78,1.15,1.84.04,2.03.42,3.33"/>
  <path class="st0" d="M-38.46-20.1h500v500H-38.46V-20.1Z"/>
</svg>