<?xml version="1.0" encoding="UTF-8"?>
<svg id="Ebene_1" xmlns="http://www.w3.org/2000/svg" version="1.1" viewBox="0 0 382.65 329.8">
  <!-- Generator: Adobe Illustrator 29.7.1, SVG Export Plug-In . SVG Version: 2.1.1 Build 8)  -->
  <defs>
    <style>
      .st0 {
        fill: none;
      }

      .st1 {
        fill: #000840;
      }

      .st2 {
        fill: #fcb61a;
        stroke: #fff;
        stroke-linecap: round;
        stroke-width: 3.85px;
      }

      .st3 {
        fill: #690031;
      }
    </style>
  </defs>
  <path class="st0" d="M-55.77-83.35h500v500H-55.77V-83.35Z"/>
  <g>
    <path class="st2" d="M280.07,69.52c-5.49-.57-17.23,2.5-35.41,10.14-27.14,11.4-59.21,35.49-79.63,57.41-21.89,23.51-65.36,77.84-64.77,103.1,0,.89.66,4.19,4.3,5.61l1.6.5c13.23,3.05,31.78,1.01,72.2-11.57,0,0,61.71-18.7,138.44-52.35l22.1-12.29-11.32,57.08-1.32,1.14c-56.88,49.4-144.9,95.85-219.42,99.34-17.23.8-37.35-.08-55.07-7.16-23.35-9.31-37.75-23.51-44.06-41.24-2.52-5.12-23.94-54.38,36-129.62l-39.03,9.65,31.38-48.58C99.57,58.13,286.59-50.95,373.93,32.12l6.8,6.91v27.81s-139.28,81.24-138.55,79.94c1.26-2.3,30.35-59.69,30.35-59.69,3.6-7.07,6.06-12.87,7.54-17.57"/>
    <path class="st1" d="M284.82,60.15c-8.96-2.88-25.15,2.16-44.08,10.15-28.71,12.06-61.96,37.06-83.16,59.82-20.61,22.16-68.24,79.94-67.5,110.29.05,1.28.13,2.54.32,3.76-4.59-3.8-7.39-9.34-7.61-17.31-.72-30.34,46.89-88.11,67.47-110.24,21.22-22.77,54.49-47.76,83.18-59.85,29.7-12.53,52.67-17.86,51.37,3.37M371.42,43.55l.22,17.93-105.29,63.7c1.12-1.15,13-24.1,13.72-25.74l91.35-55.89ZM60.97,134.95c-11.14,2.68-22.41,5.47-32.44,7.94,1.39-1.86,11.72-16.06,14.08-19.14,12.3-2.88,24.93-5.72,36.36-8.37-5.54,5.51-11.69,12.12-18,19.57M319.6,220.62c-55.91,48.55-141.82,93.51-213.25,96.89-16.74.76-35.12-.21-50.81-6.51-21.44-8.54-33.32-20.94-38.38-35.47,6.6,8.73,16.67,16.19,31.07,21.98,15.73,6.23,34.12,7.24,50.85,6.43,77.08-3.58,170.97-55.64,225.87-108.4l-5.35,25.08h0Z"/>
    <path class="st3" d="M366.83,39.43l-85.25,52.27c36.6-71.71-29.31-54.88-73.35-28.96-25.04,13.16-53.75,39.8-62.75,49.39-73.25,78-124.56,182.24,35.84,132.31,0,0,62.35-18.88,139.74-52.9C101.97,376.63-104.82,299.23,98.66,104.66c-18.52,4.23-37.22,8.26-55.51,13.37C108.3,64.11,287.04-36.47,366.83,39.43"/>
  </g>
</svg>