<?xml version="1.0" encoding="UTF-8"?>
<svg id="Ebene_1" xmlns="http://www.w3.org/2000/svg" version="1.1" viewBox="0 0 403.75 402.85">
  <!-- Generator: Adobe Illustrator 29.7.1, SVG Export Plug-In . SVG Version: 2.1.1 Build 8)  -->
  <defs>
    <style>
      .st0 {
        fill: none;
      }

      .st1 {
        fill: #051821;
      }

      .st2 {
        fill: #007dc5;
      }

      .st3 {
        fill: #fefefe;
      }

      .st4 {
        fill: #c4cdd3;
      }
    </style>
  </defs>
  <path class="st3" d="M14,270.23c-3.23-4.8-14-23.07-14-52.51,0-11.05,1.53-23.66,5.5-37.7.04-.09.05-.17.06-.27l1.74-6.8.43.43.83-2.49c1.39-4.19,2.85-8.6,3.19-9.63.23-.9,1.5-5.95,2.5-9.46.3-1.05.56-1.91.83-2.66l.06-.5c.32-2.61.74-5.13,1.23-7.56.18-1.3.39-2.55.57-3.62l.08-.47.19-.43c.11-.29.22-.51.3-.7,5.02-20.52,14.43-32.66,19.72-38.19l.07-.06.06-.06c1.03-.96,3.94-3.68,7.29-5.76,1.54-2.02,6.54-8.49,11.12-13.64,1.56-1.73,3.06-3.3,4.46-4.57.76-1.74,2.58-5.45,6.01-9.73,4.53-5.67,11.94-12.36,23.25-16.51,8.68-5.88,17.88-11.11,27.43-15.62,1.82-1.88,8.75-8.73,19.51-15.63C148.93,8.11,166.71.01,187.74,0c.8,0,1.61.01,2.41.03l7.66.22-9.48,12.76c5.04-.37,10.14-.58,15.3-.58,27.19,0,53.14,5.32,76.76,14.92l.11.04.1.04c.92.45,2.56,1.27,4.24,2.3,1.43.93,2.89,1.85,4.17,3.26,1.62.18,5.08.75,8.96,2.48l.11.05.1.05c25.58,13.41,47.85,32.07,65.24,54.54l.16.19.12.23c.27.46.96,1.84,1.54,4.75.29.18.71.45,1.17.74.94.64,1.98,1.35,3.01,2.39l.23.24.2.26c21.39,31.07,33.89,68.49,33.89,108.73,0,38.13-11.23,73.76-30.65,103.83l-.07.1-.07.09c-.31.41-.45.54-.74.8-.25.26-.56.52-.97.83-.58.45-1.35.97-2.33,1.56-.08.37-.19.87-.33,1.42-.32,1.22-.69,2.63-1.65,4.2l-.05.08-.07.1c-36.26,49.77-95.87,82.18-163.19,82.18-88.05,0-162.86-55.45-189.63-132.62"/>
  <path class="st1" d="M366.57,101.19c-1.15-1.19-3.86-2.79-3.86-2.79-1-.37-1.2-1.28-1.2-1.28-.54-3.37-1.25-4.56-1.25-4.56-17.04-22.01-38.87-40.3-63.94-53.46-4.48-2.01-8.51-2.22-8.51-2.22-.9.02-1.33-.69-1.33-.69-1.48-2.09-5.93-4.36-7.61-5.15-23.17-9.41-48.6-14.62-75.26-14.62-8.1,0-16.05.49-23.87,1.41l10.28-13.83c-41.13-1.23-70.66,30.93-70.66,30.93l.02.04c-9.86,4.58-19.31,9.95-28.21,16.04l.02-.05c-21.44,7.69-27.63,24.99-27.63,24.99-5.44,4.55-16.2,18.85-16.2,18.85-3.09,1.78-6.29,4.72-7.25,5.65-4.94,5.14-13.99,16.73-18.81,36.69-.12.32-.28.64-.43.99-.19,1.1-.41,2.36-.57,3.6-.47,2.38-.88,4.83-1.21,7.39l.2-.27c-.07.54-.14.86-.14.86-.5.33-3.59,12.64-3.59,12.64-.5,1.55-6.1,18.4-6.1,18.4l-.04-.03s-.01.07-.01.1c-14.75,51.53,4.84,82.78,8.18,87.59,26.04,75.81,99.49,130.44,186.02,130.44,66.03,0,124.43-31.8,159.97-80.54,1.01-1.6,1.52-4.82,1.52-4.82.03-1.07.83-1.55.83-1.55,2.74-1.48,3.69-2.49,3.8-2.64,19.03-29.45,30.01-64.3,30.01-101.67,0-39.41-12.23-76.02-33.18-106.45"/>
  <path class="st3" d="M121.31,64.15c.51-.54.98-1.03,1.38-1.48.67-.68.91-.85,1-.8.05-.04.1-.08.15-.12.17-9.81,2.39-17.69,2.39-17.69,17.82-24.91,47.25-31.52,47.25-31.52,3.66-1.04,1.3.57,1.3.57-18.53,20.76-16.6,37.9-16.6,37.9l17.68,64.53s-14.33-5.03-25.37-27.72c-5.1,45.24,37.54,81.91,37.54,81.91,1.86,1.6-1.06-.12-1.06-.12-10.68-5.33-22.98-16.58-26.34-19.74.89,3.49,21.66,107.88,21.71,108.17.1.49.38,1.51.6,2.16l7.19-17.86,5.94,52.71c-27.03,25.17-55.83,15.2-57.61,14.53.7,1.14,1.24,1.96,1.24,1.96,0,0,23.39,45.94,118.63,41.07,0,0,2.28-.02,1.93.27.03.08-.09.2-.52.35-1.8.64-4.59,1.1-4.59,1.1-114.99,30.71-174.57-67.3-177.15-71.67-.73-1-6.31-8.87-9.43-16.8-.09-.22-.23-1,.31-.41,0,0,12.21,12.74,46.73,15.89.26-.02.41-.06.41-.06-26.7-29.76-38.04-51.34-39.71-54.63,0-.01-.01-.01-.04-.01,0,0-3.2-4.82-7-18.49,0,0,.1-.7.43,0,1.3,2.7,10.13,15.74,20.88,18.66h.02c-9.11-14.72-14.78-38.03-15.51-41.43,12.43,17.41,34.44,18.67,34.44,18.67-.03-.07-.06-.11-.11-.19.05.08.07.12.07.12-36.22-36.13-28.41-75.48-13.72-103.88,8.66-16.77,19.72-29.73,25.54-35.96"/>
  <path class="st4" d="M229.67,303.37l-23.76,25.01.05-.05,29.33-22.52-15.18-52.37,6.63-62.98-11.59,60.15,14.52,52.75h0ZM234.95,149.26c-2.07,10.76-5.46,21.78-11.32,26.69.43-.22.96-.49,1.56-.85,1.77-1.04,4.11-2.7,6.46-5.15,4.69-4.88,9.41-12.85,9.41-25.39,0-5.59-.95-12.12-3.25-19.68-.23,4.32-.94,14.24-2.86,24.38M234.7,68.9c8.28-12.52,21.89-13.61,27.66-13.65-4.99-1.47-9.61-2-13.75-2-8.74,0-15.25,2.4-17.93,3.6-.39.17-.71.32-.94.44,2.13,2.97,4.23,9.3,4.96,11.61h0ZM234.56,69.87l.41-.11-.41.11ZM213.9,101.97l.36-.21-.36.21h0ZM224.23,95.18c.21.02.36.19.37.4.02,1.16.03,2.31.03,3.49-.01,26.93-7.16,56.43-9.88,66.69,10.32-23.61,13.1-45.65,13.1-62.57,0-9.92-.96-18.07-1.91-23.75-.5-2.95-1-5.22-1.35-6.73-2.62,20.27-10.33,29.46-10.37,29.51-.08.11-.23.17-.35.16-.15-.02-.26-.1-.33-.23-12.68-23.41-31.39-37.7-39.94-43.36-1.12-.75-2.27-1.48-3.43-2.17,24.13,52.45,31.19,92.92,33.01,106.25.05-1.53.08-3.09.08-4.67,0-23.96-6.12-52.85-9.2-65.79-1.02-4.31-1.69-6.84-1.69-6.84h0c-.04-.19.02-.36.18-.46.14-.1.33-.09.49.02,10.84,8.42,18.46,32.36,19.8,36.8,2.03-2.51,4.69-8.78,6.84-14.55,2.34-6.23,4.13-11.91,4.13-11.92.06-.19.22-.29.39-.29.02,0,.04.01.05.01h0Z"/>
  <path class="st4" d="M21.21,203.95c.01,24.94,4.3,51.05,25.75,84.35l.03.04c20.27,42.72,57.63,65.7,75.05,74.51,5.8,2.94,9.36,4.3,9.4,4.31,27.68,13.05,53.71,17.85,77.03,17.85,48.86,0,85.89-21.05,101.33-31.59,5.17-3.5,7.91-5.83,7.91-5.83l.27.31-.27-.32c1.03-.84,1.8-1.52,2.36-2.02-.3.17-.61.35-.91.54-1.11.65-2.13,1.32-2.13,1.32-37.96,22.29-72.96,29.1-101.51,29.1-44.74,0-73.7-16.69-73.72-16.7-94.86-49.77-96.25-136.01-96.25-136.08,0-.19.12-.35.32-.41.19-.04.37.04.47.22,12.23,23.71,27.07,31.8,33.68,34.37.76.3,1.53.56,2.31.8-27.58-34.78-35.48-64.03-35.48-86.1,0-29.21,13.83-45.75,13.86-45.8.11-.15.32-.2.49-.11.19.08.27.28.24.46-1.97,10.29-2.73,19.39-2.74,27.26.01,19.24,4.52,31.23,6.77,35.99.06.15.12.28.2.41-.81-6.73-1.22-13.51-1.22-20.29,0-65.04,38.1-105.12,46.14-112.84-6.03,2.52-13.33,8.98-19.29,15.08-6.6,6.75-11.58,13.02-11.59,13.03-.1.14-.29.19-.46.14-.16-.05-.28-.22-.27-.4.06-5.17,3-11.66,4.6-14.8-4.91,4.46-8.97,11.45-11.87,17.55-3.21,6.77-4.98,12.42-4.98,12.44l-.08.15c-15.09,17.08-22.4,35.33-25.1,43.36-.9,2.69-1.29,4.21-1.29,4.21-.34,1.38-.54,2.07-.73,2.41-.08.1-.08.29-.48.34-.31-.01-.39-.24-.44-.31-.04-.09-.05-.17-.06-.25-.02-.17-.03-.36-.03-.58,0-.8.09-1.89.09-1.89.29-12.28,5.39-26.08,7.45-31.19-14.47,15.56-18.01,36.66-18.01,53.52,0,7.97.8,15,1.59,20,.79,5.02,1.57,8.03,1.57,8.04v.1c.05,9.92,2.01,22.16,3.94,31.94,1.94,9.77,3.86,17.03,3.86,17.02.64,1.89.88,2.77.9,3.23-.01.09-.01.17-.05.29-.04.11-.24.29-.44.28-.32-.04-.36-.17-.47-.25-.1-.11-.19-.23-.27-.36-.19-.27-.39-.62-.59-.98-.25-.45-.49-.9-.73-1.35-10.1-15.48-15.03-41.01-16.15-47.45-.01.98-.02,1.94-.02,2.92"/>
  <path class="st2" d="M243.72,82.13l-.21-.19.1-.27c4.64-12.39,26.43-23.41,30.66-25.48-10.14-5.7-19.86-7.4-27.94-7.4-6.11,0-11.26.99-14.87,1.96-3.62.99-5.68,1.96-5.68,1.96l-.29.15-.2-.26c-3.75-4.69-8.64-9.36-12.59-12.84-3.78-3.34-6.68-5.59-6.93-5.78-.55-.35-.9-.57-.95-1.09,0-.3.22-.51.38-.59.18-.09.35-.15.56-.19.41-.07.88-.09,1.31-.09.52,0,.97.04,1.07.05,86.9.01,133.1,62.12,133.11,62.14.6.7.9,1.37.9,2.02-.07,1.87-2.19,2.77-4.12,3.37-1.94.59-3.88.81-3.88.81-8.4,1.16-16.18,1.67-23.37,1.67-45.18,0-67.03-19.91-67.09-19.95M214.1,333.24c-.15-.05-.25-.17-.28-.32-.03-.15.03-.3.15-.41l29.15-23.46-14.79-54.8v-.16l4.08-36.74c.01-.14.07-.25.18-.31.1-.07.23-.09.34-.05,6.64,2.04,9.75,11.06,11.35,19.48,1.13,6.04,1.45,11.82,1.55,14.65,7.74-16.77,10.27-30.23,10.27-40.67,0-14.77-5.06-23.51-7.57-26.94-.83-1.13-1.37-1.67-1.37-1.67-.16-.16-.16-.42,0-.58.16-.17.42-.17.58-.01,34.72,32.9,41.7,78.97,41.7,110.72,0,21.45-3.18,36.4-3.18,36.41v.05c-1.15,3.39-4.66,4.24-4.72,4.26-14.13,3.13-26.6,4.16-36.83,4.16-19.21,0-30.58-3.6-30.61-3.61"/>
  <path class="st2" d="M295.74,329.27c-.54-.43-.88-1.15-.87-2.17,0-.46.06-1,.21-1.61,0-.01,1.13-4.36,2.27-11.85,1.11-7.51,2.24-18.11,2.24-30.59,0-33.08-7.93-79.23-44.77-115.12-.15-.08-.67-.45-1-.82-.12-.15-.26-.28-.28-.58-.01-.2.15-.44.31-.5.17-.08.31-.09.49-.09.36,0,.86.08,1.66.28.03.02,9.82,2.99,16.7,10.72-.06-.48-.15-1.08-.24-1.8-.31-1.98-.83-4.73-1.76-7.94-1.83-6.44-5.25-14.67-11.48-21.85-.01-.01-.87-.91-1.34-1.54-.15-.25-.28-.33-.32-.69,0-.07.02-.23.14-.34.11-.1.26-.12.33-.12.3.02.43.12.73.3.28.18.65.44,1.16.81,2.2,1.07,94.75,45.86,97.99,136.31,0,.02.04.53.04,1.34-.01,2.2-.35,6.62-3.27,9.13-.89,1.12-22.82,28.41-55.09,38.89-.02,0-.98.37-2.05.37-.6,0-1.27-.11-1.8-.54"/>
  <path class="st2" d="M365.36,265.59c-.25-.64-.38-1.55-.42-2.77-2.11-87.04-97.5-141.81-121.35-154.13-3.4-1.76-5.32-2.65-5.32-2.65l-1.67-.77,1.84-.02h.23c12.5.01,20.16,7.57,22.44,10.18h0c0-2.3-.46-4.7-.9-6.53-.47-1.84-.92-3.08-.92-3.08l-.3-.85.84.31c9.99,3.8,22.85,5.06,35.47,5.06s24.16-1.17,33.07-2.35c8.92-1.19,14.76-2.36,14.77-2.36h.02s.02-.01.02-.01c.47-.04.91-.06,1.33-.06,5.07-.01,6.69,2.86,6.91,3.35,11.92,13.31,26.69,44.14,29.16,81.16.3,4.66.45,9.16.45,13.51-.03,32.49-7.79,56.17-12.37,61.78-.67.81-1.27,1.3-1.98,1.32-.61,0-1.07-.47-1.31-1.1"/>
  <path class="st1" d="M162.3,21.63c.05-.07.13-.15.17-.23h-.03c-1.06.31-20.06,5.92-25.69,34.91,0,0-.04.53.27.04,1.7-2.82,7.64-11.81,13.11-9.15,0,0,.03-.23.07-.59.3-2.45,2.08-12.53,12.11-24.98M147.72,283.67c-4.11-8.25-30.48-65.9-30.48-65.9-8.21,2.62-18.4-4.07-18.4-4.07v.03c12.99,34.47,43.54,64.62,48.41,70.1.04.04.05.04.07.07.83.9.83.58.83.58-.12-.18-.24-.47-.44-.82M121.57,95.95c-23.82,54.44,29.78,76.89,30.48,77.17h.02s-2.84-12.53-2.84-12.53l-1.62-7.18c-1.36-.44-2.59-.93-3.81-1.48-.42-.18-.81-.37-1.22-.56-.5-.23-1-.48-1.47-.72-23.41-12.45-21.15-42.28-19.7-51.96,0-.08,0-.14.01-.21.06-.28.1-.55.15-.81.15-.9.26-1.53.33-1.85.03-.15.05-.25.05-.25v-.03c.06-.72-.28.09-.38.41"/>
  <path class="st4" d="M156.82,249.21l-3.86-68.42,23,76.29s-7.55-18.03-19.14-7.87M158.22,52.51l5.09,40.91s2.49,11.18-12.82-5.58c11.04,22.67,25.37,27.72,25.37,27.72l-17.54-64.03c-.03.1-.16.22-.09.99M133.78,127.13c-1.43-3.37-2.01-6.45-2.01-9.2,0-9.94,7.32-15.53,7.35-15.56l.22-.17c0,.09-.37-6.31.23-16.56-5.88,8.66-18.34,29.17-3.43,45.21-.24-.32-.45-.62-.65-.91-.77-1.11-1.3-2.02-1.7-2.81"/>
  <path class="st1" d="M149.36,135.45c-2.54-4.44-9-18.61-10.01-32.96-.01-.09-.02-.21-.02-.29l-.22.16s-7.35,5.61-7.35,15.56c0,2.76.58,5.84,2.01,9.2.41.79.95,1.69,1.7,2.81.21.29.43.59.67.94.27.35.59.68.95,1.05,2.5,2.74,6.74,5.57,13.71,5.87,0,0-.57-.83-1.43-2.34"/>
  <path class="st4" d="M170.17,265.38c2.38.03,4.19,2.19,5.67,5.22,1.49,3.04,2.68,7.06,3.61,11.06,1.15,4.97,1.89,9.96,2.29,13-.01,1.37-.02,2.38-.05,2.97v.05c.5-3.31,5.34-35.28-10.9-39.79,0,0-11.31-2.89-10.58,20.68.07-.55.14-1.02.18-1.46,3.71-8.34,6.82-11.67,9.79-11.74"/>
  <path class="st1" d="M181.68,297.68h0s0,0,0,0ZM181.74,294.66c-.06-1-1.14-8.03-2.3-13.01-.93-4-2.11-8.02-3.61-11.05-1.48-3.03-3.29-5.19-5.66-5.22-2.98.05-6.08,3.4-9.79,11.74-.23.6-.18.69-.18,1.45l5.59,12.33s3.22-33.02,15.86,6.67c.01.08.01.15.02.17v-.07.02-.06c.04-.58.18-1.31.06-2.96"/>
  <path class="st0" d="M-50-46.86h500v500H-50V-46.86Z"/>
</svg>