<?xml version="1.0" encoding="UTF-8"?>
<svg id="Ebene_1" xmlns="http://www.w3.org/2000/svg" version="1.1" viewBox="0 0 376.92 376.92">
  <!-- Generator: Adobe Illustrator 29.7.1, SVG Export Plug-In . SVG Version: 2.1.1 Build 8)  -->
  <defs>
    <style>
      .st0 {
        fill: none;
      }

      .st1 {
        fill: #0d2240;
      }

      .st2 {
        fill: #fff;
      }

      .st3 {
        stroke: #fff;
        stroke-width: 3.85px;
      }

      .st3, .st4 {
        fill: #ffc627;
      }

      .st5 {
        fill: #8b2332;
      }
    </style>
  </defs>
  <path class="st0" d="M-63.46-63.46h500v500H-63.46V-63.46Z"/>
  <g>
    <path class="st3" d="M188.51,1.92c49.7,0,96.5,19.42,131.8,54.73,35.24,35.23,54.68,82.11,54.68,131.77,0,102.91-83.62,186.58-186.49,186.58-49.82,0-96.68-19.38-131.96-54.7C21.39,285.05,1.92,238.21,1.92,188.42S21.39,91.88,56.55,56.65C91.83,21.34,138.69,1.92,188.51,1.92"/>
    <path class="st5" d="M188.54,360.08c94.6,0,171.54-76.95,171.54-171.67S283.13,16.85,188.54,16.85,16.85,93.87,16.85,188.41s76.98,171.67,171.69,171.67"/>
    <path class="st1" d="M29.9,188.42C29.9,101.03,101.06,29.91,188.52,29.91s158.5,71.13,158.5,158.51-71.06,158.6-158.5,158.6S29.9,275.87,29.9,188.42"/>
    <path class="st4" d="M313.58,121.92l3.54-1.98-11.42-17.71-3.2,2.31c-19.42-24.5-53.89-51.81-86.7-55.95,24.7,11.28,52.49,40.08,69.46,62.28l-17.83,12.96,2.14,3.29-80.53,52.32-80.53-52.32,2.16-3.29-17.93-12.96c17.08-22.2,44.8-51.01,69.53-62.28-32.77,4.13-67.27,31.38-86.53,55.86l-3.34-2.41-11.42,17.67,3.56,2.06-.09.15c-14.18,27.85-24.6,70.91-14.45,102.41-.27-27.22,14.36-64.65,27.49-89.57l19.23,10.84,1.99-3.04,74.78,47.01-98.64,64.1-.15-.2-13.22,3.57.14.33c-.65,2.46.57,7.01,3.38,11.36,2.8,4.47,6.35,7.41,9,7.9l.23.37,8.78-10.61-.08-.2,196.48-123.62,1.92,3.04,19.29-10.84c13.12,24.92,27.76,62.35,27.59,89.57,10.14-31.5-.4-74.56-14.64-102.41"/>
    <path class="st4" d="M303.44,253.47l-.15.2-90.77-58.96-15.9,9.41,98.57,62.06-.11.19,8.76,10.62.27-.37c2.65-.49,6.2-3.43,9-7.9,2.73-4.35,4.02-8.9,3.37-11.36l.16-.33-13.2-3.57h0ZM204.63,64.47l-6.82,8.92-9.45-22.55v104.13l31.72-40.6,31.92,8.23-47.37-58.12Z"/>
    <path class="st2" d="M204.63,88.88v-24.41l-6.82,8.92,6.82,15.49ZM188.36,50.84l-57.57,70.18,25.41-6.46,32.16,40.42V50.84Z"/>
    <path class="st4" d="M154.57,313.45c8.15-7.83,18.52-12.61,29.72-13.67v-15.61h-43c1.02,11.37,5.8,21.55,13.29,29.27M184.29,327.92v-18.46c-8.35,1.02-16.08,4.53-22.43,10.29,6.61,4.41,14.23,7.29,22.43,8.17"/>
    <path class="st2" d="M193.83,232.29v18.41c8.33-1.01,16.12-4.47,22.34-10.22-6.52-4.44-14.09-7.35-22.34-8.19M223.51,246.77c-8.16,7.73-18.51,12.61-29.68,13.6v14.2h42.93c-1.3-10.76-6.13-20.47-13.25-27.8M184.29,250.69v-18.4c-8.2.84-15.82,3.74-22.32,8.19,6.25,5.75,13.97,9.2,22.32,10.21"/>
    <path class="st4" d="M193.83,284.18v15.61c11.17,1.05,21.59,5.83,29.68,13.67,7.51-7.72,12.46-17.91,13.35-29.27h-43.03Z"/>
    <path class="st2" d="M141.38,274.57h42.91v-14.2c-11.2-.99-21.5-5.87-29.72-13.6-7.1,7.33-11.93,17.04-13.19,27.8"/>
    <path class="st4" d="M193.83,327.92c8.25-.88,15.82-3.77,22.34-8.17-6.22-5.76-14.01-9.27-22.34-10.29v18.46Z"/>
  </g>
</svg>