<?xml version="1.0" encoding="UTF-8"?>
<svg id="Ebene_1" xmlns="http://www.w3.org/2000/svg" xmlns:xlink="http://www.w3.org/1999/xlink" version="1.1" viewBox="0 0 373.08 373.08">
  <!-- Generator: Adobe Illustrator 29.7.1, SVG Export Plug-In . SVG Version: 2.1.1 Build 8)  -->
  <defs>
    <style>
      .st0 {
        fill: none;
      }

      .st1 {
        mask: url(#mask);
      }

      .st2 {
        fill: #fff;
        fill-rule: evenodd;
      }

      .st3 {
        fill: #b4b2b2;
        stroke: #fff;
        stroke-width: 3.85px;
      }

      .st4 {
        fill: #c8102e;
      }

      .st5 {
        fill: #fefefe;
      }

      .st6 {
        fill: #1d428a;
      }
    </style>
    <mask id="mask" x="-5.77" y="-5.77" width="384.62" height="384.62" maskUnits="userSpaceOnUse">
      <g id="b">
        <path id="a" class="st2" d="M378.85-5.77v384.62H-5.77V-5.77h384.62Z"/>
      </g>
    </mask>
  </defs>
  <path class="st0" d="M-63.46-63.46h500v500H-63.46V-63.46Z"/>
  <g class="st1">
    <path class="st3" d="M371.15,186.54c0,101.96-82.66,184.62-184.62,184.62S1.92,288.5,1.92,186.54,84.57,1.92,186.54,1.92s184.62,82.65,184.62,184.62"/>
  </g>
  <path class="st6" d="M365.85,186.54c0,99.03-80.28,179.32-179.32,179.32S7.22,285.57,7.22,186.54,87.5,7.22,186.54,7.22s179.32,80.28,179.32,179.32"/>
  <path class="st4" d="M186.54,339.44c-84.45,0-152.91-68.46-152.91-152.9S102.08,33.63,186.54,33.63s152.91,68.45,152.91,152.91-68.46,152.9-152.91,152.9Z"/>
  <path class="st5" d="M186.54,330.67c-61.07,0-113.36-38.2-134.32-91.93,25.63,35.07,76.22,59,134.32,59s108.69-23.93,134.32-59c-20.96,53.74-73.25,91.93-134.32,91.93M186.54,42.4c61.07,0,113.37,38.2,134.32,91.95-25.63-35.07-76.21-59-134.32-59s-108.69,23.93-134.32,59c20.95-53.75,73.24-91.95,134.32-91.95M42.51,191.04h28.14v-9h-28.14c.11-3.4.29-6.79.63-10.13,9.97-50.21,70.46-88.95,143.4-88.95s133.43,38.75,143.4,88.96c.34,3.34.52,6.72.63,10.13h-28.15v9h28.15c-.1,3.41-.29,6.79-.63,10.13-9.98,50.21-70.47,88.95-143.4,88.95S53.11,251.38,43.14,201.17c-.34-3.34-.52-6.73-.63-10.13M186.54,33.63c-84.31,0-152.91,68.6-152.91,152.91s68.6,152.9,152.91,152.9,152.91-68.59,152.91-152.9S270.85,33.63,186.54,33.63"/>
  <path class="st5" d="M121.92,239.11h10.82v-48.58h-10.82v48.58ZM163.37,190.56h-.33c-3.04-.02-14.08-.07-16.2-.02l-.55.03c-3.27,0-5.34,1.55-5.85,4.36-.09.46-.09.81-.09.81-.01.1-.75,9.2.15,11.77,1.45,4.18,4.82,5.73,7.93,6.69.1.03.21.06.32.09.2.05.4.1.6.19.34.14.58.32.72.55l.05,17.49-8.93.03.03,6.47h11.74s0,.01,0,.01c4.08-.18,6.88-1.96,7.93-5.04.3-2.37.33-18.66.1-22.06-.07-1.28-.66-2.32-1.85-3.25-.46-.36-1.03-.73-1.76-1.13-.64-.33-1.33-.68-2-.98-2.53-1.24-5.41-2.65-5.41-5.88v-2.77h8.5c1.74,0,3.13-.85,4.03-2.46.68-1.23.87-2.46.87-2.53.07-.8.03-1.55,0-2.04l-.02-.33h0ZM209.23,201.47c.05-1.28.16-2.24.33-3l.19-.19c.48-.08.95-.11,1.53-.11h.22c3.67.05,3.77,1.15,3.77,7.78v20.28c0,.61,0,1.18-.04,1.78-.03.58-.09,1.13-.2,1.64l-.2.19c-.64.09-1.26.14-1.93.14-1.35,0-2.28-.29-2.86-.89-.86-.89-.89-2.37-.83-4.08v-20.48s-.02-2.28.02-3.07M212.8,190.51c-2.43,0-4.97.08-7.02.66-5.3,1.28-7.87,4.82-7.87,10.82v28.9c0,7.4,5.3,8.92,13.25,8.92,9.63,0,15.16-3.4,15.16-9.33l.02-30.12c0-9.85-6.27-9.85-13.53-9.85M251.39,211.18c-5.17-18.7-13.45-20.79-16.89-20.79-.89,0-1.43.14-1.45.15l-.26.07v48.54s10.95.02,10.95.02v-19.53l7.63,19.53h11.13v-48.58h-11.11v20.6h0ZM104.39,212.09h-6.08s0-14.1,0-14.1c0,0,3.31-.07,3.8,0,1.2.15,2.31.62,2.31,2.06,0,.47-.03,12.04-.03,12.04M108.76,190.52l-27.29.03h-.33s-.02.33-.02.33c0,.06-.23,5.78,6.15,7.11v41.13h11.19v-20.67h9.42c4.97,0,7.82-3.27,7.82-8.97l.03-1.74c0-13.76-.56-16.52-6.96-17.23M194.55,190.59h-25.32v7.64h7.22v40.97h11.13s0-41.01,0-41.01c.14,0,.27.01.4.01,1.99,0,3.57-.61,4.71-1.81,2.02-2.12,1.88-5.33,1.87-5.47l-.02-.33h0ZM291.98,190.56h-.33c-3.04-.02-14.08-.07-16.2-.02l-.55.03c-3.27,0-5.34,1.55-5.85,4.36-.09.46-.09.81-.09.81-.01.1-.75,9.2.15,11.77,1.45,4.18,4.82,5.73,7.92,6.69.11.03.21.06.32.09.2.05.4.1.6.19.34.14.58.32.73.55l.05,17.49-8.93.03.03,6.47h11.74s.01.01.01.01c4.07-.18,6.88-1.96,7.92-5.04.3-2.37.33-18.66.1-22.06-.08-1.28-.67-2.32-1.85-3.25-.46-.36-1.03-.73-1.75-1.13-.65-.33-1.33-.68-2-.98-2.54-1.24-5.41-2.65-5.41-5.88v-2.77h8.49c1.75,0,3.13-.85,4.03-2.46.68-1.23.87-2.46.87-2.53.07-.8.04-1.55,0-2.04l-.02-.33h0ZM192.68,140.73h1.84s.29,0,.29,0c2.83.05,3.88.06,3.81,5.05,0,3.98,0,4.23-.08,6.19v.37c0,.57-.24,1.2-.61,1.58-.26.26-.56.39-.9.39h-4.35v-13.58h0ZM192.65,160.56h1.88c1.81.04,4.84.59,4.84,3.84,0,1.55.14,6.41.19,8.23l.02.73c.01.27.13,2.65.25,3.1.78,2.83,2.98,4.53,6.41,4.9h3.17v-17.29c0-1.48-.81-3.56-1.97-5.05l-.23-.32c1.74-1.95,2.41-3.92,2.41-6.92v-1.69c.01-13.43-.52-16.12-6.76-16.81h-21.02v47.41h10.81v-20.14h0ZM259.76,133.28h-10.54l-.03,47.38h10.58s0-47.38,0-47.38ZM158.53,180.74l10.85-.02.02-40.05c.13,0,.27,0,.4,0,1.95,0,3.5-.59,4.6-1.77,1.97-2.07,1.82-5.19,1.82-5.32l-.02-.32h-24.7v7.44h7.04v40.02h0ZM272.35,180.74l10.86-.02v-40.05c.13,0,.27,0,.4,0,1.95,0,3.5-.6,4.62-1.77,1.97-2.07,1.83-5.19,1.82-5.32l-.02-.32h-24.71v7.44h7.03v40.02h0ZM145.81,173.07h-11.36v-11.52h7.79v-10.32h-7.79v-10.67h11.36v-7.28h-21.9l-.04,47.38h21.94v-7.6ZM106.37,173.07h-6v-32.36c3.72-.15,4.51.17,4.57.2,1.4.55,1.37,3.15,1.37,3.22.39,3.75.1,25.96.06,28.94M110.12,133.28h-27.02l-.04.29c-.02.12-.34,2.84,1.41,4.91,1.11,1.32,2.81,2.06,5.06,2.21v39.92h20.12c4.59,0,7.67-3.9,7.67-9.7v-21.99c.02-12.13.02-15.4-7.2-15.63M226.45,144.01c.05-1.25.16-2.19.33-2.94l.2-.18c.47-.07.94-.1,1.51-.1h.22c3.64.05,3.75,1.13,3.75,7.62v19.85c0,.6,0,1.15-.04,1.74-.03.57-.1,1.1-.2,1.6l-.2.19c-.63.1-1.25.14-1.92.14-1.33,0-2.26-.29-2.83-.87-.86-.87-.88-2.32-.83-4v-20.05s-.02-2.23.02-3M229.99,133.29c-2.42,0-4.93.07-6.97.64-5.26,1.25-7.81,4.71-7.81,10.58v28.28c0,7.25,5.26,8.73,13.15,8.73,9.56,0,15.04-3.33,15.04-9.13l.02-29.48c0-9.63-6.22-9.63-13.43-9.63"/>
</svg>