<?xml version="1.0" encoding="UTF-8"?>
<svg id="Ebene_1" xmlns="http://www.w3.org/2000/svg" xmlns:xlink="http://www.w3.org/1999/xlink" version="1.1" viewBox="0 0 383.88 384.69">
  <!-- Generator: Adobe Illustrator 29.7.1, SVG Export Plug-In . SVG Version: 2.1.1 Build 8)  -->
  <defs>
    <style>
      .st0 {
        fill: none;
      }

      .st1 {
        mask: url(#mask);
      }

      .st2 {
        fill: #fff;
        fill-rule: evenodd;
      }

      .st3 {
        fill: #fec42f;
      }

      .st4 {
        fill: #0f4b90;
      }

      .st5 {
        fill: #fefefe;
      }
    </style>
    <mask id="mask" x="0" y="0" width="383.88" height="384.69" maskUnits="userSpaceOnUse">
      <g id="b">
        <path id="a" class="st2" d="M383.88,0H0v384.69h383.87V0Z"/>
      </g>
    </mask>
  </defs>
  <g class="st1">
    <path class="st5" d="M191.94,0C86.11,0,0,86.29,0,192.35s86.11,192.33,191.94,192.33,191.93-86.28,191.93-192.33S297.78,0,191.94,0"/>
  </g>
  <path class="st4" d="M191.94,5.27C88.82,5.27,5.26,89.05,5.26,192.35s83.55,187.06,186.68,187.06,186.67-83.76,186.67-187.06S295.04,5.27,191.94,5.27"/>
  <path class="st3" d="M335.02,259.99c-28.4-6.37-54.7-16.12-78.7-27.68-3.69-1.79-7.34-3.63-10.93-5.5-17.57-9.12-33.77-19.15-48.5-29.41-2.97-2.08-5.89-4.16-8.73-6.23-.19-.13-.36-.26-.53-.38-3.79-2.77-7.44-5.55-11.01-8.32-5.81-4.52-11.34-9.02-16.56-13.45-5.75-4.88-11.39-9.89-16.9-15.03-4.59-4.26-8.86-8.39-12.79-12.31-.84-.82-1.63-1.63-2.43-2.45-6.19-6.28-11.54-12.02-15.89-16.9-.13-3.71-.22-6.96-.31-9.8-.22-7.1-.33-11.24-.33-11.24l-5-2.27-3.47,3.04-1.18,1.02s.05,2.74.16,7.47c-1.07-1.32-1.89-2.35-2.6-3.23-.04-3.99-.06-7.06-.08-9.09-.02-1.81-.02-2.82-.02-2.82h-6.93l-.13,4.12-4.17,1.03s-.17,8.75-.42,22.71c-9.94,22.75-20.34,40.8-29.72,54.75-4.76,7.07-9.26,13.07-13.3,18.09-4.68,5.79-8.78,10.29-11.95,13.53-.59-4.08-1-8.22-1.27-12.38-.25-3.61-.41-7.24-.41-10.91s.16-7.33.41-10.97c2.5-37.32,17.63-71.16,41.21-97.25,5.12-5.66,10.65-10.97,16.51-15.85,25.38-21.15,57.35-34.6,92.37-36.83,3.45-.22,6.9-.38,10.41-.38,4.07,0,8.09.21,12.09.51,35.23,2.62,67.26,16.59,92.53,38.29,5.62,4.82,10.89,10.01,15.8,15.55,22.62,25.57,37.24,58.38,39.99,94.52.32,4.11.52,8.25.52,12.42,0,3.03-.11,6.02-.26,9-1.28,23.18-7.45,45.06-17.48,64.61h0ZM36.36,228c-.64-2.42-1.22-4.85-1.75-7.3,1.68-2.36,3.57-5.05,5.69-8.13l-3.95,15.43h0ZM53.19,195.48l-9.49,53.97c-1.83-4.33-3.47-8.79-4.93-13.31l7.13-31.9c1.79-2.7,3.69-5.62,5.61-8.64.77-1.19,1.52-2.35,2.29-3.6l-.61,3.47h0ZM83.53,151.88l-4.9,27.68-2.55,14.46-15.21,86c-2.32-3.24-4.54-6.53-6.6-9.94l13.38-75.57,2.76-15.5,2.32-13.15,1.63-9.19c4.55-8.54,8.96-17.49,13.04-26.63l-3.86,21.84h0ZM158.53,182.4l2.74,8.66,25.29,79.96c-3.47.23-6.87.45-10.25.7l-25.26-80.49-2.81-8.97-1.26-4.03-8.66-27.58c1.76,1.73,3.51,3.41,5.24,5.08,3.15,3.02,6.26,5.98,9.33,8.84l5.65,17.83h0ZM171.95,182.48l2.66,8.41,13.16,41.54,11.97,37.74v.06s0,0,0,0c-3.26.18-6.49.37-9.68.57l-2.96-9.4-22.19-70.4-2.71-8.56-4.14-13.12c4.57,4.16,9.07,8.15,13.49,11.98l.39,1.19h0ZM227.69,268.9c-3.37.13-6.7.27-10.02.42l-20.63-65.55-.64-2.03c.2.17.4.3.6.45,4.11,3.21,8.26,6.36,12.45,9.45l18.24,57.25ZM255.95,268.09c-3.63.07-7.25.15-10.84.24l-12.91-40.74c4.84,3.2,9.49,6.17,14.01,8.93l9.75,31.57ZM283.94,257.05c12.36,5.81,21.69,9.26,27.4,11.12-8.04-.19-16.03-.3-23.98-.34l-3.42-10.78ZM267.23,248.62c4.12,2.22,8.28,4.35,12.48,6.4l4.05,12.8c-1.22,0-2.43.01-3.65.01-2.29,0-4.59,0-6.87.01l-4.21-13.46-1.8-5.77h0ZM250.63,239.19c4.05,2.43,8.14,4.79,12.27,7.08l6.77,21.62c-1.85.02-3.68.05-5.55.07-1.53.02-3.06.03-4.59.05l-6.18-19.98-2.73-8.85h0ZM227.76,224.62c.2.12.37.25.57.38l-.49-.15,13.75,43.58c-3.48.11-6.94.22-10.37.34l-16.78-53.45c4.56,3.29,8.98,6.36,13.3,9.28l.07.24h.02s-.07-.22-.07-.22h0ZM176.3,185.36c2.21,1.88,4.38,3.68,6.54,5.46,1.79,1.48,3.56,2.91,5.33,4.34,1.07.86,2.16,1.77,3.23,2.62l5.96,18.79,16.8,52.91c-3.67.17-7.3.37-10.89.56l-4.27-13.45-11.05-34.66-9.88-31.06-1.75-5.5h0ZM285.9,296.77c-18.89-.93-46.46-1.72-84.52-1.69-4.99.01-10.16.03-15.51.06-12.05.08-24.92.23-38.9.5,13.1-.6,26.17-1.04,38.93-1.36,5.2-.14,10.33-.24,15.39-.34,31.29-.59,60.06-.5,81.95-.23,11.53.14,21.16.34,28.28.5-1.2,1.33-2.44,2.63-3.68,3.91-5.38-.41-12.63-.9-21.93-1.35h0ZM120.89,301.35c18.71-.42,41.18-.73,64.72-.69,5.37.01,10.77.04,16.19.1,31.58.31,63.96,1.34,91.22,3.75,2.56.23,5.15.45,7.61.71-1.2,1.12-2.45,2.17-3.69,3.25-28.2,24.41-64.91,39.2-105.1,39.2-24.22,0-47.18-5.4-67.78-15.01-1.13-8.64-2.19-19.29-3.17-31.32ZM109.27,324.82c-1.25-.74-2.47-1.53-3.69-2.31-.44-6.38-.85-13.35-1.24-20.75,1.18-.04,2.41-.06,3.62-.11.44,9.08.87,16.94,1.32,23.16ZM117.75,254.98c-.6-10.24-1.15-20.7-1.66-31.17l7.16,22.6,4.37,13.74,4.83,15.22c-4.63.45-9.06.91-13.36,1.36-.06-.83-.11-1.69-.17-2.52-.4-6.28-.79-12.7-1.17-19.24h0ZM114.19,181.35c-.08-2.18-.18-4.45-.27-6.59l2.09,6.67,3.33,10.64,12.17,38.83,4.09,13.1,9.46,30.22c-3.09.27-6.15.56-9.13.84l-6-19.11-4.29-13.65-10.23-32.62c-.26-5.89-.53-11.71-.77-17.43-.15-3.63-.3-7.26-.45-10.88h0ZM76.6,281.78l9.43-53.38c-.2,18.75-.32,36.85-.31,52.2-3.28.41-6.29.8-9.13,1.18ZM85.95,307.77c-1.95-1.71-3.85-3.45-5.7-5.26,1.68-.05,3.53-.12,5.62-.19.02,1.93.05,3.74.08,5.45h0ZM82.07,179.78l5.03-28.5c-.15,8.97-.31,18.67-.45,28.76-.06,4.41-.13,8.89-.18,13.42-.08,5.64-.16,11.34-.23,17.06l-.47-.08-12.73,71.84c-3.56.49-6.66.93-9.36,1.31l15.89-89.76,2.49-14.04h0ZM118.5,130.62c2.11,2.21,4.23,4.4,6.33,6.56,2.24,2.3,4.45,4.56,6.66,6.76.27.28.58.59.85.86l1.11,3.49,6.5,20.43,4.28,13.47,2.89,9.11.12.37,25.55,80.29c-3.35.24-6.64.5-9.89.74l-18.18-58.18-4.08-13.04-3.1-9.96-2.97-9.55-14.34-45.86-1.73-5.51h0ZM112.09,123.86c.28.3.55.57.82.85l3.29,10.49,14.64,46.69,3.06,9.72,5.33,17.01,3.99,12.7,16.21,51.65c-3.71.3-7.33.6-10.89.91l-10.85-35.01-4.03-12.96-10.55-33.98-3.23-10.38-6.5-21c-.36-9.62-.67-18.41-.93-26.21-.13-3.73-.25-7.3-.36-10.49h0ZM99.38,109.98c.87.98,1.75,1.91,2.61,2.88.15,5.75.35,13.83.58,23.5.33,12.63.73,27.98,1.19,44.56.11,3.85.21,7.76.33,11.73.73,25.01,1.58,51.85,2.47,75.71.12,3.29.24,6.54.37,9.7-1.25.15-2.44.28-3.66.42-.08-2.15-.16-4.38-.25-6.56-.98-25.47-1.73-53.25-2.29-79.14-.08-4.06-.16-8.07-.24-12.01-.32-15.64-.55-30.22-.74-42.79-.17-11.18-.27-20.82-.36-28h0ZM62.11,178.39c2.36-3.99,4.75-8.06,7.13-12.33l-.97,5.59-1.25,7.12-2.79,15.96-12.41,71.09c-2.08-3.67-4.03-7.43-5.82-11.28l10.46-59.29,1.86-10.55c.45-.73.92-1.53,1.36-2.26.82-1.35,1.63-2.7,2.43-4.06h0ZM191.85,14.33C96.99,14.33,20.09,91.36,20.09,186.43s76.9,172.1,171.76,172.1c48.23,0,91.77-19.93,122.97-52.01,1.05-.56,2.3-2.08,3.41-3.59,28.15-30.65,45.34-71.54,45.34-116.51,0-95.06-76.87-172.09-171.72-172.09h0Z"/>
  <path class="st5" d="M30.93,186.39c0,3.67.16,7.3.41,10.9,2.29-.22,6.76-.63,13.22-1.15,4.04-5.01,8.55-11.01,13.3-18.09-14.35-1.18-23.4-2.25-26.52-2.63-.25,3.63-.41,7.28-.41,10.97M352.77,186.39c0-4.19-.2-8.32-.52-12.43-38.34,3.62-74.06,5.85-106.71,7.12,1.65-25.21,13.79-47.93,30.96-69.96,13.87-17.85,28.48-27.55,35.77-31.67-4.9-5.55-10.18-10.74-15.8-15.56-12.55,12.41-53.54,57.42-56.46,117.43-15.15.54-29.59.86-43.31,1.03-.83-93.52,6.5-151.22,7.24-156.75-4-.3-8.01-.5-12.09-.5-3.51,0-6.96.16-10.41.37.79,7.52,6.43,64.9,6.7,156.96-3.88.02-7.73.04-11.5.04,3.57,2.77,7.22,5.55,11.01,8.32h.53v.38c2.83,2.09,5.76,4.17,8.73,6.23-.03-2.24-.06-4.44-.11-6.63,13.67,0,28.04.1,43.1.35.24,11.45,1.93,23.39,5.5,35.7,3.59,1.87,7.23,3.7,10.93,5.5-6.85-14.55-10.28-28.16-10.88-41.09,32.74.61,68.59,1.9,107.07,4.15.16-2.97.26-5.96.26-8.99M89.06,62.31c-5.86,4.89-11.4,10.19-16.51,15.86,4.16,2.16,13.35,7.52,23.79,17.27h2.89s0,.99.02,2.81c1.22,1.22,2.46,2.49,3.71,3.83l3.47-3.03,5,2.26s.11,4.16.33,11.25c7.22,9.41,13.5,18.95,18.44,28.76l12.75,11.83c-12.04-48.36-45.39-82.71-53.88-90.85"/>
  <path class="st0" d="M-57.69-58.58h500v500H-57.69V-58.58Z"/>
</svg>