<?xml version="1.0" encoding="UTF-8"?>
<svg id="Ebene_1" xmlns="http://www.w3.org/2000/svg" version="1.1" viewBox="0 0 369.83 495.31">
  <!-- Generator: Adobe Illustrator 29.7.1, SVG Export Plug-In . SVG Version: 2.1.1 Build 8)  -->
  <defs>
    <style>
      .st0 {
        fill: none;
      }

      .st1 {
        fill: #2d2925;
      }

      .st2 {
        fill: #c21f32;
      }

      .st3 {
        fill: #fefefe;
      }
    </style>
  </defs>
  <g>
    <path class="st3" d="M49.76,263.95c10.88-5.91,40.04-10.49,66.95-14.54-.07,10.21-.23,21.14-.52,33.07-47.53-5.22-64.77-14.44-66.42-18.53h0ZM165.14,107.42c28.29,3.83,44.48,11.34,45.82,21.39,1.39,10.37-1.04,18.88-7.04,25.6-9.71,8.87-24.49,13.52-37.02,15.94.14-24.11-.43-44.42-1.76-62.93h0ZM165.95,219.73c.25-9.57.51-19.44.69-29.52,23.13,3.42,36.57,9.82,36.35,17.59l-.73,77.97c-12.17.31-25,.25-37.07-.08l.17-5.26c-.52-17.64.02-38.56.59-60.71h0ZM251.61,282.85l.39-33.09c52.66,7.19,65.95,12.86,67.6,16.03,0,0-.05.24-.38.77-9.5,6.92-34.4,12.9-67.61,16.29h0ZM369.83,268.02c-.22-4.58-2.47-8.87-6.7-12.75-15.87-14.52-60.98-23.12-110.94-21.68l.43-36.81c-.01-7.64-2.51-13.96-7.42-18.78-3.45-3.38-7.96-5.92-13.51-7.6,5.2-3.12,10.3-6.97,14.62-11.69,12.23-11.38,17.85-25.72,16.72-42.6-.73-10.7-5.37-19.78-13.81-26.95-16.7-14.24-47.03-19.8-87.8-16.15-3.09-21.54-7.44-40.2-13.25-56.95l-5.57-16.05-1.92,5.96-1.05-3.03-5.21,16.2c-7.24,22.56-12.05,41.64-15,59.66-33.5,6.06-56.48,13.55-57.48,13.87l-47.78,15.69,8.35-.77-11.21,3.68,49.96-4.54c.27-.03,25.6-2.06,55.05-2.18-1.65,21.47-1.13,43.09-.47,69.87.41,17.06.88,36.22.91,59.26-45.13-.59-94.82,6.21-109.38,23.32C1.07,262.36-.12,267.79,0,271.43c.99,28.37,84.03,38.97,116.93,42.05l2.73,87.59,11.35.25.23-3.03.77.02.56,22.24,11.36.29.23-3.03,1.29.03.57,21.1,11.38.03.1-2.96h2.83l3.87-119.83c12.56.34,25.63.33,38.18-.05l3.94,125.17,11.36.11.15-2.98,1.41,29.91,11.36.03.14-2.97h1.13s.8,29.88.8,29.88l11.38-.02.07-2.96h2.89l4.16-179.08c58.46-5.58,100.02-17.43,110.93-31.21,5.13-4.34,7.74-8.97,7.74-13.76v-.26h0Z"/>
    <path class="st1" d="M361.2,271.24c0,20.85-80.94,39.52-178.62,39.52S6.42,292.08,5.69,271.24c-.66-18.79,54.66-31.11,118.07-28.68-41.19,6.21-82.78,12.09-82.78,23.27,0,16.89,62.45,28.8,141.6,28.8s142.7-11.92,142.7-28.8c0-10.9-38.15-17.39-84.02-23.26,64.19-3.43,119.13,10.53,119.95,28.66"/>
    <path class="st1" d="M149.38,352.59l2.34,86.22,5.01-155.25c-2.01-68.22,11.79-180.18-16.89-262.67-30.44,94.83-14.06,116.18-18.07,265.2l3.58,114.82,4.77-62.8c.16-7.79,6.06-7.07,6.06-.39l2.09,82.7,5.07-67.3c-.08-9.07,6.27-8.66,6.03-.53"/>
    <path class="st1" d="M242.71,308.44l-4.36,186.71-2.93-109.95c-.16-7.8-6.65-8.16-6.92,0l-3.57,82.95-3.52-96.03c.01-7.72-5.87-8.17-5.93.55l-3.49,68.48-4.24-135.23.92-98.07c.77-26.22-76-25.89-76-25.89,0,0,91.42,1.91,83.93-53.91-5.45-40.69-155.86-27.01-155.86-27.01,0,0,42.52-13.97,95.85-19.17,59.78-5.82,95.84,8.61,97.8,37.56,3.45,51.23-62.61,58.69-62.61,58.69,0,0,52.12-10.16,52.22,21.62l-1.29,108.7h0Z"/>
    <path class="st2" d="M364.14,268.28c0,20.85-80.93,39.53-178.61,39.53S9.36,289.12,8.65,268.28c-.67-18.78,54.66-31.12,118.06-28.68-41.19,6.23-82.78,12.1-82.78,23.27,0,16.9,62.47,28.82,141.61,28.82s142.69-11.93,142.69-28.82c0-10.89-38.14-17.38-84.02-23.27,64.18-3.43,119.12,10.53,119.95,28.68"/>
    <path class="st2" d="M152.33,349.64l2.33,86.22,5.01-155.25c-2.01-68.23,11.79-180.18-16.87-262.67-30.46,94.83-14.08,116.18-18.08,265.19l3.58,114.82,4.77-62.8c.15-7.78,6.05-7.07,6.05-.37l2.12,82.69,5.06-67.3c-.08-9.08,6.25-8.66,6.03-.53"/>
    <path class="st2" d="M245.66,305.49l-4.35,186.71-2.95-109.95c-.15-7.8-6.64-8.17-6.92,0l-3.57,82.94-3.52-96.02c.01-7.72-5.87-8.18-5.92.55l-3.5,68.48-4.24-135.23.92-98.07c.77-26.23-75.99-25.87-75.99-25.87,0,0,91.41,1.9,83.92-53.94-5.46-40.69-155.85-27-155.85-27,0,0,42.52-14,95.84-19.18,59.79-5.83,95.85,8.6,97.81,37.58,3.44,51.22-62.61,58.69-62.61,58.69,0,0,52.11-10.18,52.2,21.6l-1.29,108.7h0Z"/>
  </g>
  <path class="st0" d="M-65.39-.82h500v500H-65.39V-.82Z"/>
</svg>