<?xml version="1.0" encoding="UTF-8"?>
<svg id="Ebene_1" xmlns="http://www.w3.org/2000/svg" xmlns:xlink="http://www.w3.org/1999/xlink" version="1.1" viewBox="0 0 384.6 357.28">
  <!-- Generator: Adobe Illustrator 29.7.1, SVG Export Plug-In . SVG Version: 2.1.1 Build 8)  -->
  <defs>
    <style>
      .st0 {
        fill: none;
      }

      .st1 {
        mask: url(#mask);
      }

      .st2 {
        fill: #081e3f;
      }

      .st3 {
        fill: #fff;
        fill-rule: evenodd;
      }

      .st4 {
        fill: #b3b1b1;
      }

      .st5 {
        fill: #fefefe;
      }

      .st6 {
        fill: #fcb424;
      }
    </style>
    <mask id="mask" x="0" y="0" width="384.6" height="357.28" maskUnits="userSpaceOnUse">
      <g id="b">
        <path id="a" class="st3" d="M384.6,0H0v357.28h384.6V0Z"/>
      </g>
    </mask>
  </defs>
  <g class="st1">
    <path class="st5" d="M354.14,49.84C327.58,17.77,289.48.07,246.84,0H78.52S0,357.19,0,357.19l151.98.09,20.01-83.44h63.04s1.45.01,1.45.01c47.93,0,87.38-16.57,113.98-47.8,49.22-53.65,40.53-131.72,3.68-176.21"/>
  </g>
  <path class="st4" d="M349.41,53.78c-25.31-30.55-61.74-47.55-102.58-47.61H83.46S7.66,351.02,7.66,351.02l139.46.1,20.01-83.45c18.73,0,67.99.01,67.92.01,46.73.33,85.05-15.49,110.86-45.8,46.87-51.08,38.63-125.65,3.48-168.1"/>
  <path class="st2" d="M160,258.58l-20.01,83.44-121.05.05L90.77,15.26l156.03.11c38.85.06,72.14,15.84,95.62,44.21,34.62,41.79,37.99,111.27-3.41,156.42-25.39,29.8-62.62,42.89-103.87,42.6h-75.14s0-.01,0-.01Z"/>
  <path class="st6" d="M74.68,87.86l68.39.06c7.86,0,16.22,6.59,12.59,16.59-2.23,6.17-3.95,13.34-4.74,20.05-.63,5.25,5.23,8.57,8.58,8.57l139.4.1c2.62,0,4-.74,4-2s-.12-5.87-.62-9.11c-.49-3.09-1-3.62-3.5-3.62-17.38-.02-24.46-7.76-42.67-19.52s-44.92-18.51-67.88-18.54l-111.9-.06-1.66,7.48h0ZM159.12,178.21c-2.41-5.16-4.64-11.31-6.01-16.97-1.72-7.25-7.84-13.14-18.31-13.14l-73.37-.05,1.82-8.23,237.75.16c2.38,0,1.87,1,1.75,3.62-.14,2.63-.74,7.49-1.12,10.37-.38,2.86-2.75,2.18-5.01,2.23-5.34.12-15.29,1.39-21.09,5.74-9.85,7.41-30.86,20.42-42.67,24.21-12.67,4.04-60.02,18.54-73.89-8.17"/>
  <path class="st6" d="M48.29,207.99l124.15.09c5.48,0,10.2,1.31,13.85,4.35,10.49,8.66,24.1,14.95,38.53,19.13,6.48,1.87,17.62-.54,27.58-6.19,24.85-14.06,40.83-40.82,46.09-58.05,1.37-4.5-1.26-4.13-4.73-3.88-10.48.75-21.49,10.23-35.96,19.47-14.49,9.22-43.95,17.96-71.9,17.92l-136.03-.09s-1.59,7.25-1.59,7.25ZM230.41,41.58c1.75-.31,8.03-.69,11.53.68,23.58,9.29,45.89,33.88,55.23,60,1.8,5.02,2.24,8.23,0,8.49-10.81,1.2-15.86-4.14-28.57-12.77-12.72-8.62-24.44-14.51-40.55-19.63-15.87-5.05-44.79-5.78-48.53-5.9-3.73-.12-3.26-1.69-1.63-3.32,13.85-13.84,32.47-23.89,52.52-27.55M343.57,131.13c.07,1-1,2.13-2.25,2.13-.11,0-27.19-.02-27.19-.02-3.48,0-3.55-1.63-3.67-3.62-.14-2-.69-5.99-.81-8.37-.12-2.3-.96-4.94,2.12-6.24,7.57-3.2,14.73-10.61,17.99-16.97,1.1-2.14,2.73-5.69,4.59-2.69,6.44,10.3,8.46,23.01,9.22,35.78M333.83,180.03c-.47.92-2.2,1.6-2.77.11-3.97-10.62-13.4-17.93-19.89-21.56-1.96-1.1-2.13-2.38-1.88-4.31.27-1.93,1.08-8.12,1.21-10.74.1-2.07.94-3.56,2.49-3.56h28.33c1.01.02,2.27.92,2.27,1.68,0,13.52-4.11,26.88-9.75,38.38"/>
  <path class="st6" d="M260.14,233.26c-1.99.28-6.35-.41.52-4.39,20.59-11.98,38.94-40.09,43.84-56.24,1.86-6.16,2.06-6.48,4.42-5.81,3.15.9,8.11,5.19,11.91,10.44,3.82,5.24,5.46,15.46,3.26,18.39-14.8,19.88-38.32,33.84-63.95,37.6M312.52,106.01c-4.79,2.58-5.73,2.1-6.75-1.5-8.94-31.42-35.33-54.67-46.12-61.55-2.06-1.29-1.53-2.17-.04-1.97,25.82,3.44,51.13,17.54,63.87,36.84,7.27,11.07-6.35,25.69-10.97,28.19"/>
  <path class="st0" d="M-57.7-69.6h500v500H-57.7V-69.6Z"/>
</svg>