<?xml version="1.0" encoding="UTF-8"?>
<svg id="Ebene_1" xmlns="http://www.w3.org/2000/svg" xmlns:xlink="http://www.w3.org/1999/xlink" version="1.1" viewBox="0 0 499.86 308.79">
  <!-- Generator: Adobe Illustrator 29.7.1, SVG Export Plug-In . SVG Version: 2.1.1 Build 8)  -->
  <defs>
    <style>
      .st0 {
        fill: none;
      }

      .st1 {
        mask: url(#mask);
      }

      .st2 {
        fill: #fff;
        fill-rule: evenodd;
      }

      .st3 {
        fill: #fec42f;
      }

      .st4 {
        mask: url(#mask-2);
      }

      .st5 {
        mask: url(#mask-3);
      }

      .st6 {
        mask: url(#mask-4);
      }

      .st7 {
        mask: url(#mask-1);
      }

      .st8 {
        fill: #2d2925;
      }

      .st9 {
        fill: #fefefe;
      }

      .st10 {
        fill: #542582;
      }
    </style>
    <mask id="mask" x="27.31" y="83.02" width="205.5" height="134.44" maskUnits="userSpaceOnUse">
      <g id="b">
        <path id="a" class="st2" d="M119.21,217.46c-9.25-18.53-14.47-39.48-14.47-61.67,0-26.74,7.58-51.69,20.67-72.77h107.41v134.44h-113.61Z"/>
      </g>
    </mask>
    <mask id="mask-1" x="300.75" y="117.54" width="176.56" height="112.53" maskUnits="userSpaceOnUse">
      <g id="d">
        <path id="c" class="st2" d="M353.09,230.06c13.68-21.39,21.62-46.89,21.62-74.28,0-13.28-1.87-26.11-5.35-38.25h-68.61v112.53h52.33Z"/>
      </g>
    </mask>
    <mask id="mask-2" x="347.97" y="83.11" width="34.34" height="20.07" maskUnits="userSpaceOnUse">
      <g id="f">
        <path id="e" class="st2" d="M364.36,103.18c-2.86-6.96-6.3-13.67-10.27-20.07h-6.13v20.07h16.4Z"/>
      </g>
    </mask>
    <mask id="mask-3" x="130.5" y="15.8" width="217.1" height="60.93" maskUnits="userSpaceOnUse">
      <g id="h">
        <path id="g" class="st2" d="M347.59,73.55c-24.63-33.12-63.79-54.54-107.88-54.54s-84.68,22.22-109.22,56.39v1.33h217.1v-3.18h0Z"/>
      </g>
    </mask>
    <mask id="mask-4" x="122.77" y="199.93" width="235.61" height="95.92" maskUnits="userSpaceOnUse">
      <g id="j">
        <path id="i" class="st2" d="M122.77,224.13c23.33,40.9,66.97,68.43,116.94,68.43s95.81-28.92,118.67-71.52v-21.11H122.77v24.2Z"/>
      </g>
    </mask>
  </defs>
  <g>
    <path class="st9" d="M108.76,69.45S151.31,0,238.45,0s127.67,67.43,127.67,67.43h118.21l-4.74,28.98s-3.38,11.47-8.78,12.82h8.11s2.7,10.12-13.51,45.17h34.45s1.35,61.34-72.95,90.33c0,0-38.5,12.14-58.1-8.76,0,0-39.18,72.81-130.36,72.81s-132.4-74.83-132.4-74.83H0l16.9-30.34H5.41l13.51-24.95h22.96l4.05-9.45h-10.8l26.34-48.54h14.86l6.08-14.83h-12.83l19.58-36.4h19.59Z"/>
    <path class="st3" d="M239.72,292.54c74.56,0,134.99-61.23,134.99-136.77S314.28,19.01,239.72,19.01,104.73,80.24,104.73,155.77s60.44,136.77,134.99,136.77"/>
    <path class="st10" d="M254.61,155.1l-5.89-.05c-.42,0-.76.34-.76.75s.34.75.76.75l5.97-.06c2.01,0,3.87.25,3.36,1.15l-15.47,29.49c-1.92,3.52-5.99,2.63-6.64-.18l-7.66-39.53,26.95-20.88c2.68-2.3,7.83-6.04,10.47-5.99l5.88-.03c3.58-.02,4.84,1.65,4,3.8l-1.04,2c-.67,1.12-2.8,1.26-4.59,1.26h-3.4c-.41,0-.75.34-.75.76s.34.75.75.75h3.35c1.45,0,3.26.03,2.6,1.12l-12.51,23.8c-.58.93-3.17,1.1-5.39,1.1M301.25,169.78c-12.61,15.26-19.76,20.49-32.57,20.49-4.36,0-6.63-.98-5.41-3.09l15.19-30.49h5.8c6.47,0,5.57,5.43,3.81,12.79-.32,1.03.47,1.1,1.24.2l14.45-25.33c.7-1.59-1.12-1.91-2.01-.69-7.24,9.79-14.85,9.07-18.05,9.07h-2.61l16.21-30.91h6.54c8.24.52,12.08,7.5,9.69,24.32h3.43l11.92-23.47c.96-1.98-1.08-3.79-3.32-3.79l-80.95.03c-4.68,0-4.88,3.58-.4,3.58,3.64,0,3.45,5.22.18,7.74l-34.36,27.23,6.93,32.16c.52,2.43,2.07,3.59,4.77,3.59h66.93c2.76,0,3.9-1.12,4.79-2.27l12.13-20.9c1.67-3-2.21-2.81-4.33-.25"/>
    <path class="st10" d="M153.15,161.01h-21.3l26.94-35.46-5.64,35.46ZM148.22,183.03c-.64,3.64-4.31,6.06-8.92,7.27l-4.76,1.19,3.91-7.02c1.03-1.92-1.23-3.05-3.68-.19-16.56,19.23-21.83,28.44-47.36,28.5l-6.86.02c-2.07,0-4.35-.8-2.94-2.79l9.04-16.78h34.29c4.68,0,3.48-3.51.72-3.61-1.81-.06-3.8-1.1-5.2-3.32-.39-.62-1.24-3.05.1-4.93l13.13-17.41h21.84l-3.3,19.08h0ZM199.04,189.61c-1.81-.06-2.98-1.3-3.38-2.49-.58-1.73-.53-4.78.17-6.12l31.23-55.28c.51-1.02,1.78-3.17,3.33-3.15,2.75,0,3.95-3.61-.72-3.61h-25.01c-4.68,0-4.73,3.54-.25,3.54,1.83,0,2.55,1.79,2.04,2.88l-6.91,12.5c-.86,1.38-2.78,1.48-4.79,1.48l-5.96-.02c-.41,0-.75.34-.75.76s.34.75.75.75h5.91c1.6,0,2.88.48,1.95,2.34l-23.05,41.91c-1.66,2.31-4.97,2.81-4.78-1.59l8.2-61.39c.32-1.92-.19-3.22-2.24-3.22l-12.37.02c-1.47,0-2.38.72-3.09,1.67l-4.42,5.55c-.58.57-1.83.57-3.2.57l-10.38-.02c-.41,0-.75.34-.75.75s.34.75.75.75h8.47c1.5,0,3.26.35,2.63,1.06l-11.89,14.93c-.36.42-1.52.53-2.23.53l-3.35-.02c-.41,0-.76.34-.76.74,0,.43.35.76.76.76h2.8c.86,0,.87.43.52.81l-11.17,14.02c-.58.54-1.69.66-2.79.66h-9.86c-.42,0-.75.32-.75.74,0,.41.33.75.74.75h8.47c1.28,0,2.28.24,1.6,1.1l-15.89,19.89c-2.98,3.79-17.37,5.72-20.17,5.72l53.73-100.35c.52-1.16,2.51-2.91,4.58-2.91h11.4c5.39,0,5.23-3.58.55-3.58h-57.36c-4.68,0-4.87,3.58.52,3.58h10.61c3.01,0,3.99,1.82,3.21,3.3l-1.51,2.77c-.52.9-1.22,1.26-4.14,1.26l-18.77-.02c-.41,0-.75.34-.75.75s.34.75.75.75h18.72c1.02,0,2.54.27,1.58,2.09l-2.62,4.87c-.45.73-1.6,1.08-2.91,1.08l-8.52-.02c-.42,0-.76.33-.76.75s.34.75.76.75h8.47c1.22,0,1.24.8.54,1.92l-6.04,11.21c-.52.96-1.5,1.07-3.42,1.07l-3.4-.02c-.41,0-.75.34-.75.76s.34.76.75.76h3.35c1.28,0,1.62.71,1.04,1.92l-4.97,9.2c-.74,1.32-1.79,1.85-5.1,1.85l-18.76-.02c-.41,0-.75.33-.75.74,0,0,0,0,0,0,0,.42.33.76.75.76h18.71c2.12.03,2.9.97,2.06,2.47l-9.69,18.18c-.58.8-2.16.92-4.85.92l-18.76-.02c-.42,0-.76.34-.76.75s.34.74.76.74l18.71.02c2.24,0,3.61.09,2.94,1.27l-5.58,10.48c-1.03,1.6-3.91,1.6-5.03,1.6l-5.95-.02c-.41,0-.75.32-.75.74s.34.76.75.76h5.9c2.08,0,3.19.36,2.64,1.49l-7.45,13.98c-.67,1.25-3.59,1.3-5.84,1.3l-29.01-.02c-.41,0-.75.34-.75.75s.34.75.75.75h28.97c1.92,0,4.35.25,3.46,1.77l-4.76,8.94c-.45.74-2.08.8-4.42.8h-5.95c-.42,0-.76.33-.76.74s.34.75.76.75h5.9c1.45,0,3.2.16,2.58,1.26l-2.97,5.7c-.96,1.41-1.92,2.67-4.23,2.67h-14.56c-5.38,0-5.2,3.59-.52,3.59l85.5.04c2.5,0,2.58-.34,3.76-2.17l12.68-22.07h64.81c4.68,0,3.48-3.51.72-3.61h0ZM364.54,149.15c-2.35,1.93-6.05,4.14-6.77,3.44-1-.99-4.11-3.13-5.78-3.9l13.95-25.47c.58-.9,1.24-1.39,2.78-1.39,5.43,0,7.22,5.88,4.66,13.21-1.78,5.14-4.69,10.69-8.85,14.11M477.26,171.98c-.35-1.75-.99-.69-2.15,1.52-.35.66-1.48.68-2.6.68l-3.43.02c-.41,0-.75.34-.75.75s.34.75.75.75h3.37c1.28,0,1.3.85.7,2.13-2.35,5.02-4.79,8.39-8.01,12.4-.51.65-1.81,1.18-2.84,1.18l-3.44.02c-.42,0-.76.32-.76.75s.34.75.76.75h3.36c1.7,0-.02,1.04-.3,1.43-5.98,7.96-10.1,11.51-14.49,15.07-.51.41-2.99.27-4.73.26l-3.39.02c-.42,0-.76.33-.76.75s.34.75.76.75h3.35c2.56,0,.64,1.47.26,1.79-9.32,7.75-23.2,10.25-29.54,9.45-20.63-2.58-24.87-18.19-26.39-24.44-.32-1.3-1.31-3.97-1.64-5.63-.63-3.27,8.67-4.19,11.23-2.48,3.91,2.6,12.98,5.26,20.13,5.29,6.61.02,20.14-4.77,24.05-16.11,4-11.58-6.06-24.45-10.52-28.89-5.67-5.67-11.03-14.69-8.77-21.31,1.7-4.98,4.55-7.25,10.66-7.25,7.88,0,13.62,5.05,13.62,12.24,0,.64-.39,1.4-.91,1.4l-2.79.02c-.41,0-.75.34-.75.75s.34.75.75.75h2.62c.73,0,1.19.56,1,1.45-.52,2.4-.68,4.09-1.21,6.51-.3,1.4,1.75,2.36,2.46,1.34l12.39-22.08c.9-1.67-1.09-2.11-2.57-1.6-3.39,1.18-8.91,1.99-10.86.58-4.64-3.31-8.85-5.45-15.33-5.45-11.01,0-18.73,2.71-23.68,11.76-.38.71-1.46.7-2.39.7h-2.11c-.42,0-.75.33-.76.74h0c0,.41.34.75.76.75l1.8-.02c.76,0,1.28.21.9,1.1-.35.82-.64,1.68-.93,2.57-1.26,3.91-.85,9.4,1.11,14.31.13.32-.28.48-1.04.47l-3.38.02c-.41,0-.75.34-.75.75s.34.76.75.76h3.36c1.54,0,1.89.16,2.53,1.05,1.73,2.44,3.52,4.25,5.76,7.09.7.9-2.31,1.15-3.91,1.13h-13.35c-.41,0-.75.33-.75.74h0c0,.42.33.75.75.75l13.52-.02c2.18,0,5.9-.03,6.32.44,3.27,3.77,7.23,9.58,7.89,14.46.2,1.41-.34,1.99-2.07,1.99h-1.81c-.41,0-.75.34-.75.76s.34.75.75.75h1.6c1.37,0,2.13.21,1.81,1.24-1.75,5.6-4.38,9.65-15.09,9.58-11.22-.05-13.51-11.03-10.22-22.48.65-2.28-.03-3.26-1.05-1.48l-7.81,12.26c-.2.29-.95.98-2.14.98h-1.11c-.41,0-.75.33-.75.75s.35.74.76.74c.99,0,1.38.53,1,1.08l-2.88,4.46c-4.71-10.77-12.62-24.04-16.84-28.88l.07-.23c10.4-.63,25.76-10.36,28.27-19.05,4.37-15.09-10.32-20.67-18.32-20.67l-35.18.02c-4.67,0-5.02,3.53-.53,3.53,2.42,0,4.54,2.12,3.46,4.26l-7.79,14.02c-.64,1.16-3.05,1.08-6.19,1.08h-3.41c-.41,0-.75.34-.75.75s.34.75.75.75h3.35c2.24,0,4.71.14,3.88,1.74l-9.21,16.59c-.45.77-1.64.85-4.79.85h-3.4c-.41,0-.75.34-.75.75s.34.76.75.76h3.32c2.47,0,3.4.32,2.69,1.6l-12.31,22.21c-1.47,1.6-3.22,1.9-6.23,1.9-4.48,0-4.43,3.55.25,3.55h30.12c4.68,0,3.49-3.61.73-3.61-1.62,0-3.34-2.97-2.26-4.75l15.38-29.08h1.56c6.84,0,8.49,11.2,9.78,23.44.09.87-1.59.91-4.99.91h-8.55c-.41,0-.75.34-.75.77s.34.74.75.74h8.46c2.24,0,5.39.02,5.46.75.59,5.37,1.04,10.09,2.06,14.39.33,1.35-2.07,1.13-4.64,1.13l-10.89.02c-.42,0-.75.34-.75.74s.33.76.75.76l10.88.02c3.42,0,5.18,0,5.38.7,4.69,17.15,24.78,30.65,44.32,29.9,16.76-.64,30.92-9.74,38.17-15.54,9.65-7.73,23.82-23.9,29.58-35.66,1.06-2.16,2.76-4.92,2.38-6.84"/>
    <path class="st10" d="M194.89,96.25c-2.82,3.65-6.57,4.58-10.77,4.58h-1.19l7.42-14.65c.35-.67,1.13-1.19,2.1-1.19s.82-1.85-.39-1.85h-11.68c-.99,0-1.35,1.85-.42,1.85.99,0,1.18,1.1.7,2.02l-6.63,13.07c-.44.71-1.18.89-2,1.09-.98.25-1.66,2.02-.54,2.02h18.66c1.44,0,1.78-.53,2.15-1.04l3.75-5.79c.54-.71-.59-.81-1.13-.11M251.07,83.65c-.57.3-1.9.48-2.47,0-1.49-1.24-4.42-2.19-5.94-2.19-4.4,0-7.59.87-9.5,5.01-1.64,3.52.04,6.48,3.92,8.27,1.68.77,3.91,1.79,3.05,3.81-.62,1.48-2.34,1.63-3.9,1.62-2.08-.02-5.21-1.58-5.7-4.51-.16-.96-1.28-.75-1.6-.22l-2.65,5.27c-.42.71.67,1.49,1.11,1.03.9-.95,2.84-1.18,3.81-.54,1.32.87,4.72,2.42,6.75,2.4,4.46-.03,7.39-1.18,9.83-5,2.24-3.47.86-6.93-3.2-8.85-2.15-1.01-3.99-2.8-3.03-4.76.62-1.28,2.53-1.01,3.49-.84,1.82.3,4.14,2.01,4.42,3.5.12.64.93.76,1.28.2l1.4-3.27c.32-.63-.71-1.12-1.06-.94M380.48,88.9l1.62-2.99c.71-1.31-.45-2.8-2.31-2.8h-21.78c-1.57,0-1.11,1.63-.47,1.63,1.4,0,1.82,1.7.97,3.13l-6.55,12.03c-.98,1.14-1.6,1.64-3,1.64-1.12,0-1.52,1.63.05,1.63h22.08c.89,0,1.28-.32,1.6-.76l3-3.98c.73-.96-.85-.96-1.33-.48-3.81,3.81-7.88,3.69-10.84,3.69h-2.57l3.03-6.73h.64c1.94,0,4.18-.02,4.77,1.45.16.34,1.12.63,1.5,0l2.57-5.15c.42-.76-.74-.9-1.05-.35-1.02,1.81-5.49,1.33-6.67,1.33h-.64l3.77-7.41h4.19c2.61,0,4.85,1.84,5.58,3.85.18.48,1.57.86,1.86.25M272.81,92.71l7.26-5.92.03,5.92h-7.29ZM324.76,83.11h-7.75c-1.57,0-1.1,1.63-.46,1.63,1.65,0,3.16,1.94,2.25,3.73l-3.21,5.86-7.08-10.33c-.48-.64-1.6-.95-2.55-.95h-7.63c-1.57,0-1.2,1.62-.56,1.62,1.61,0,1.2,1.21.8,2.07l-6.08,11.68c-.39.94-2.04,1.07-2.56-.11l-4.7-15.3c-.2-.61-2.94-.57-3.64,0l-11.79,9.7h-6.1c-1.22,0-1.69.51-1.69,1.15s.46,1.22,1.74,1.22h3.19s-3.19,2.62-3.19,2.62c-1.78,1.32-3.59,3.13-4.8,3.13h-.74c-1.16,0-1.8.18-1.8,1.11s.49,1.25,1.57,1.25h9.51c1.78,0,1.44-2.33.54-2.33-.98,0-2.61-1.25-1.1-3.01l2.9-2.77h5.72c3.39,0,5.76,3.93,3.74,5.14l-1.57.87c-.73.38-1.06,2.1,0,2.1h18.58c1.37,0,1.09-1.81.45-1.81-1.9,0-1-2.73-.64-3.46l4.88-9.22,6.86,13.25c.44.85.85,1.25,1.65,1.25h2.62c.84,0,1.11-.48,1.5-1.12l7.8-14.07c1.26-2.51,2.22-3.24,3.8-3.24.64,0,1.09-1.64-.48-1.64h0ZM216.59,94.77c-2.07,4.13-5.54,6.57-7.74,5.47-2.21-1.11-2.32-5.35-.25-9.47,2.07-4.13,5.54-6.57,7.75-5.47,2.2,1.1,2.32,5.34.25,9.47M214.74,82.23c-6.53,0-13.26,3.22-14.6,10.06-1.17,5.95,2.95,12.13,10.25,12.13s13.35-4.54,14.64-11.11c1.29-6.6-3.63-11.08-10.29-11.08M346.85,92.21h-8.39c-1.57,0-1.11,1.63-.47,1.63s1.28.35,1.28,1.4c0,3.39-1.45,4.69-4.36,4.69-3.2,0-4.35-3.87-2.2-8.61,1.37-3.04,5.01-5.87,9.32-5.87,2.64,0,4.86.57,5.2,3.04.08.6.99.6,1.32.03l1.99-3.57c.22-.38-.12-.83-.73-.86-.51-.03-1.66.62-2.42.07-1.68-1.26-5.34-2.45-8.09-2.45-4.51,0-10.8,1.02-15.05,8.37-3.84,6.66,1.75,13.7,6.94,13.71,2.89,0,6.23-2.13,8.15-2.92l2.14,1.44c.32.39.99.86,1.64.86h.8c.74,0,1.03-.99,1.32-1.63l3.29-7.96c.42-.8.19-1.38-1.67-1.38M461.82,83.65c-.57.3-1.9.48-2.47,0-1.49-1.24-4.42-2.19-5.94-2.19-4.39,0-7.59.87-9.5,5.01-1.64,3.52.04,6.48,3.92,8.27,1.68.77,3.91,1.79,3.05,3.81-.62,1.48-2.34,1.63-3.9,1.62-2.08-.02-5.2-1.58-5.7-4.51-.16-.96-1.27-.75-1.6-.22l-2.66,5.27c-.41.71.68,1.49,1.12,1.03.9-.95,2.85-1.18,3.81-.54,1.32.87,4.72,2.42,6.75,2.4,4.46-.03,7.39-1.18,9.83-5,2.23-3.47.86-6.93-3.21-8.85-2.15-1.01-3.99-2.8-3.03-4.76.62-1.28,2.54-1.01,3.49-.84,1.81.3,4.14,2.01,4.41,3.5.12.64.93.76,1.28.2l1.41-3.27c.31-.63-.72-1.12-1.07-.94M403.46,96.25c-2.82,3.65-6.57,4.58-10.77,4.58h-1.19l7.42-14.65c.35-.67,1.13-1.19,2.1-1.19s.81-1.85-.4-1.85h-11.67c-.99,0-1.35,1.85-.42,1.85.99,0,1.18,1.1.7,2.02l-6.64,13.07c-.45.71-1.18.89-2,1.09-.99.25-1.66,2.02-.54,2.02h18.65c1.45,0,1.78-.53,2.16-1.04l3.75-5.79c.54-.71-.59-.81-1.13-.11M431.59,84.79c2.61,0,4.85,1.84,5.58,3.85.18.48,1.57.85,1.86.25l1.63-2.99c.7-1.3-.46-2.8-2.32-2.8h-21.78c-1.57,0-1.1,1.62-.47,1.62,1.4,0,1.82,1.71.97,3.14l-6.54,12.03c-.98,1.14-1.61,1.64-3.01,1.64-1.12,0-1.52,1.63.06,1.63h22.06c.9,0,1.29-.32,1.62-.77l2.99-3.98c.74-.94-.85-.94-1.32-.48-3.82,3.81-7.89,3.7-10.85,3.7h-2.57l3.03-6.75h.64c1.94,0,4.18-.02,4.76,1.45.16.35,1.12.64,1.5,0l2.58-5.15c.41-.76-.76-.89-1.06-.34-1.02,1.82-5.49,1.33-6.67,1.33h-.64l3.76-7.41h4.2Z"/>
  </g>
  <path class="st10" d="M254.61,155.1l-5.89-.05c-.42,0-.76.34-.76.75s.34.75.76.75l5.97-.06c2.01,0,3.87.25,3.36,1.15l-15.47,29.49c-1.92,3.52-5.99,2.63-6.64-.18l-7.66-39.53,26.95-20.88c2.68-2.3,7.83-6.04,10.47-5.99l5.88-.03c3.58-.02,4.84,1.65,4,3.8l-1.04,2c-.67,1.12-2.8,1.26-4.59,1.26h-3.4c-.41,0-.75.34-.75.76s.34.75.75.75h3.35c1.45,0,3.26.03,2.6,1.12l-12.51,23.8c-.58.93-3.17,1.1-5.39,1.1M301.25,169.78c-12.61,15.26-19.76,20.49-32.57,20.49-4.36,0-6.63-.98-5.41-3.09l15.19-30.49h5.8c6.47,0,5.57,5.43,3.81,12.79-.32,1.03.47,1.1,1.24.2l14.45-25.33c.7-1.59-1.12-1.91-2.01-.69-7.24,9.79-14.85,9.07-18.05,9.07h-2.61l16.21-30.91h6.54c8.24.52,12.08,7.5,9.69,24.32h3.43l11.92-23.47c.96-1.98-1.08-3.79-3.32-3.79l-80.95.03c-4.68,0-4.88,3.58-.4,3.58,3.64,0,3.45,5.22.18,7.74l-34.36,27.23,6.93,32.16c.52,2.43,2.07,3.59,4.77,3.59h66.93c2.76,0,3.9-1.12,4.79-2.27l12.13-20.9c1.67-3-2.21-2.81-4.33-.25"/>
  <g class="st1">
    <path class="st10" d="M153.15,161.01h-21.3l26.94-35.46-5.64,35.46ZM148.22,183.03c-.64,3.64-4.31,6.06-8.92,7.27l-4.76,1.19,3.91-7.02c1.03-1.92-1.22-3.05-3.68-.19-16.56,19.23-21.83,28.44-47.36,28.5l-6.86.02c-2.07,0-4.35-.8-2.94-2.79l9.04-16.78h34.29c4.68,0,3.48-3.51.72-3.61-1.81-.06-3.8-1.1-5.2-3.32-.39-.62-1.24-3.05.1-4.93l13.13-17.41h21.84l-3.3,19.08h0ZM199.04,189.61c-1.81-.06-2.98-1.3-3.38-2.49-.58-1.73-.53-4.78.17-6.12l31.23-55.28c.51-1.02,1.78-3.17,3.33-3.15,2.75,0,3.95-3.61-.72-3.61h-25.01c-4.68,0-4.73,3.55-.25,3.55,1.83,0,2.55,1.79,2.04,2.88l-6.91,12.5c-.86,1.38-2.78,1.48-4.79,1.48l-5.96-.02c-.41,0-.75.34-.75.76s.34.75.75.75h5.91c1.6,0,2.88.48,1.95,2.34l-23.05,41.91c-1.66,2.31-4.97,2.81-4.78-1.59l8.2-61.39c.32-1.92-.19-3.22-2.24-3.22l-12.37.02c-1.47,0-2.38.72-3.09,1.67l-4.42,5.55c-.58.57-1.83.57-3.2.57l-10.38-.02c-.41,0-.75.34-.75.75s.34.75.75.75h8.47c1.5,0,3.26.35,2.63,1.06l-11.89,14.93c-.36.42-1.52.53-2.23.53l-3.35-.02c-.41,0-.76.34-.76.74,0,.43.35.76.76.76h2.8c.86,0,.87.43.52.81l-11.17,14.02c-.58.54-1.69.66-2.79.66h-9.86c-.42,0-.75.32-.75.74,0,.41.33.75.74.75,0,0,0,0,0,0h8.47c1.28,0,2.28.24,1.6,1.1l-15.89,19.89c-2.98,3.79-17.37,5.72-20.17,5.72l53.73-100.35c.52-1.16,2.51-2.91,4.58-2.91h11.4c5.39,0,5.23-3.58.55-3.58h-57.36c-4.68,0-4.87,3.58.52,3.58h10.61c3.01,0,3.99,1.82,3.21,3.3l-1.51,2.77c-.52.9-1.23,1.26-4.14,1.26l-18.77-.02c-.41,0-.75.34-.75.75s.34.75.75.75h18.72c1.02,0,2.54.27,1.58,2.09l-2.62,4.87c-.45.73-1.6,1.08-2.91,1.08l-8.52-.02c-.42,0-.76.33-.76.75s.34.75.76.75h8.47c1.22,0,1.24.8.54,1.92l-6.04,11.21c-.52.96-1.5,1.08-3.42,1.08l-3.4-.02c-.41,0-.75.34-.75.76s.34.76.75.76h3.35c1.28,0,1.62.71,1.04,1.92l-4.97,9.2c-.74,1.32-1.79,1.85-5.1,1.85l-18.76-.02c-.41,0-.75.33-.75.74,0,0,0,0,0,0,0,.42.33.76.75.76h18.71c2.12.03,2.9.97,2.06,2.47l-9.69,18.18c-.58.8-2.16.92-4.85.92l-18.76-.02c-.42,0-.76.34-.76.75s.34.74.76.74l18.71.02c2.24,0,3.61.09,2.94,1.27l-5.58,10.48c-1.03,1.6-3.91,1.6-5.03,1.6l-5.95-.02c-.41,0-.75.32-.75.74s.34.75.75.75h5.9c2.08,0,3.19.36,2.64,1.49l-7.45,13.98c-.67,1.25-3.59,1.3-5.84,1.3l-29.01-.02c-.41,0-.75.34-.75.75s.34.75.75.75h28.97c1.92,0,4.35.25,3.46,1.77l-4.76,8.94c-.45.74-2.08.8-4.42.8h-5.95c-.42,0-.76.33-.76.74s.34.75.76.75h5.9c1.45,0,3.2.16,2.58,1.26l-2.97,5.7c-.96,1.41-1.92,2.67-4.23,2.67h-14.56c-5.38,0-5.2,3.59-.52,3.59l85.5.04c2.5,0,2.58-.34,3.76-2.17l12.68-22.07h64.81c4.68,0,3.48-3.51.72-3.61h0Z"/>
  </g>
  <g class="st7">
    <path class="st10" d="M364.54,149.15c-2.35,1.93-6.05,4.14-6.77,3.44-1-.99-4.11-3.13-5.78-3.9l13.95-25.47c.58-.9,1.24-1.39,2.78-1.39,5.43,0,7.22,5.88,4.66,13.21-1.78,5.14-4.69,10.69-8.85,14.11M477.26,171.98c-.35-1.75-.99-.69-2.15,1.52-.35.66-1.48.68-2.6.68l-3.43.02c-.41,0-.75.34-.75.75s.34.75.75.75h3.37c1.28,0,1.3.85.7,2.13-2.35,5.02-4.79,8.39-8.01,12.4-.51.65-1.81,1.18-2.84,1.18l-3.44.02c-.42,0-.76.32-.76.75s.34.75.76.75h3.36c1.7,0-.02,1.04-.3,1.43-5.98,7.96-10.1,11.51-14.49,15.07-.51.41-2.99.27-4.73.26l-3.39.02c-.42,0-.76.33-.76.75s.34.75.76.75h3.35c2.56,0,.64,1.47.26,1.79-9.32,7.75-23.2,10.25-29.54,9.45-20.63-2.58-24.87-18.19-26.39-24.44-.32-1.3-1.31-3.97-1.64-5.63-.63-3.27,8.67-4.19,11.23-2.48,3.91,2.6,12.98,5.26,20.13,5.29,6.61.02,20.14-4.77,24.05-16.11,4-11.58-6.06-24.45-10.52-28.89-5.67-5.67-11.03-14.69-8.77-21.31,1.7-4.98,4.55-7.25,10.66-7.25,7.88,0,13.62,5.05,13.62,12.24,0,.64-.39,1.4-.91,1.4l-2.79.02c-.41,0-.75.34-.75.75s.34.75.75.75h2.62c.73,0,1.19.56,1,1.45-.52,2.4-.68,4.09-1.21,6.51-.3,1.4,1.75,2.36,2.46,1.34l12.39-22.08c.9-1.67-1.09-2.11-2.57-1.6-3.39,1.18-8.91,1.99-10.86.58-4.64-3.31-8.85-5.45-15.33-5.45-11.01,0-18.73,2.71-23.68,11.76-.38.71-1.46.7-2.39.7h-2.11c-.42,0-.75.33-.76.74h0c0,.41.34.75.76.75l1.8-.02c.76,0,1.28.21.9,1.1-.35.82-.64,1.68-.93,2.57-1.26,3.91-.85,9.4,1.11,14.31.13.32-.28.48-1.04.47l-3.38.02c-.41,0-.75.34-.75.75s.34.76.75.76h3.36c1.54,0,1.89.16,2.53,1.05,1.73,2.44,3.52,4.25,5.76,7.09.7.9-2.31,1.15-3.91,1.13h-13.35c-.41,0-.75.33-.75.74,0,0,0,0,0,0,0,.42.33.75.75.75l13.52-.02c2.18,0,5.9-.03,6.32.44,3.27,3.77,7.23,9.58,7.89,14.46.2,1.41-.34,1.99-2.07,1.99h-1.81c-.41,0-.75.34-.75.76s.34.75.75.75h1.6c1.37,0,2.13.21,1.81,1.24-1.75,5.6-4.38,9.65-15.09,9.58-11.22-.05-13.51-11.03-10.22-22.48.65-2.28-.03-3.26-1.05-1.48l-7.81,12.26c-.2.29-.95.98-2.14.98h-1.11c-.41,0-.75.33-.75.75s.35.74.76.74c.99,0,1.38.53,1,1.07l-2.88,4.46c-4.71-10.77-12.62-24.04-16.84-28.88l.07-.23c10.4-.63,25.76-10.36,28.27-19.05,4.37-15.09-10.32-20.67-18.32-20.67l-35.18.02c-4.67,0-5.02,3.53-.53,3.53,2.42,0,4.54,2.12,3.46,4.26l-7.79,14.02c-.64,1.16-3.05,1.08-6.19,1.08h-3.41c-.41,0-.75.34-.75.75s.34.75.75.75h3.35c2.24,0,4.71.14,3.88,1.74l-9.21,16.59c-.45.77-1.64.85-4.78.85h-3.4c-.41,0-.75.34-.75.75s.34.76.75.76h3.32c2.47,0,3.4.32,2.69,1.6l-12.31,22.21c-1.47,1.6-3.22,1.9-6.23,1.9-4.48,0-4.43,3.54.25,3.54h30.12c4.68,0,3.49-3.61.73-3.61-1.62,0-3.34-2.97-2.26-4.75l15.38-29.08h1.56c6.84,0,8.49,11.2,9.78,23.44.09.87-1.59.91-4.99.91h-8.55c-.41,0-.75.34-.75.77s.34.74.75.74h8.46c2.24,0,5.39.02,5.46.75.59,5.37,1.04,10.09,2.06,14.39.33,1.35-2.07,1.13-4.64,1.13l-10.89.02c-.42,0-.75.34-.75.74s.33.75.75.75l10.88.02c3.42,0,5.18,0,5.38.7,4.69,17.15,24.78,30.65,44.32,29.9,16.76-.64,30.92-9.74,38.17-15.54,9.65-7.73,23.82-23.9,29.58-35.66,1.06-2.16,2.76-4.92,2.38-6.84"/>
  </g>
  <path class="st10" d="M194.89,96.25c-2.82,3.65-6.57,4.58-10.77,4.58h-1.19l7.42-14.65c.35-.67,1.13-1.19,2.1-1.19s.82-1.85-.39-1.85h-11.68c-.99,0-1.35,1.85-.42,1.85.99,0,1.18,1.1.7,2.02l-6.63,13.07c-.44.71-1.18.89-2,1.09-.98.25-1.66,2.02-.54,2.02h18.66c1.44,0,1.78-.53,2.15-1.04l3.75-5.79c.54-.71-.59-.81-1.13-.11M251.07,83.65c-.57.3-1.9.48-2.47,0-1.49-1.24-4.42-2.19-5.94-2.19-4.4,0-7.59.87-9.5,5.01-1.64,3.52.04,6.48,3.92,8.27,1.68.77,3.91,1.79,3.05,3.81-.62,1.48-2.34,1.63-3.9,1.62-2.08-.02-5.21-1.58-5.7-4.51-.16-.96-1.28-.75-1.6-.22l-2.65,5.27c-.42.71.67,1.49,1.11,1.03.9-.95,2.84-1.18,3.81-.54,1.32.87,4.72,2.42,6.75,2.4,4.46-.03,7.39-1.18,9.83-5,2.24-3.47.86-6.93-3.2-8.85-2.15-1.01-3.99-2.8-3.03-4.76.62-1.28,2.53-1.01,3.49-.84,1.82.3,4.14,2.01,4.42,3.5.12.64.93.76,1.28.2l1.4-3.27c.32-.63-.71-1.12-1.06-.94"/>
  <g class="st4">
    <path class="st10" d="M380.48,88.9l1.62-2.99c.71-1.31-.45-2.8-2.31-2.8h-21.78c-1.57,0-1.11,1.63-.47,1.63,1.4,0,1.82,1.7.97,3.13l-6.55,12.03c-.98,1.14-1.6,1.64-3,1.64-1.12,0-1.52,1.63.05,1.63h22.08c.89,0,1.28-.32,1.6-.76l3-3.98c.73-.96-.85-.96-1.33-.48-3.81,3.81-7.88,3.69-10.84,3.69h-2.57l3.03-6.73h.64c1.94,0,4.18-.02,4.77,1.45.16.34,1.12.63,1.5,0l2.57-5.15c.42-.76-.74-.9-1.05-.35-1.02,1.81-5.49,1.33-6.67,1.33h-.64l3.77-7.41h4.19c2.61,0,4.85,1.84,5.58,3.85.18.48,1.57.86,1.86.25"/>
  </g>
  <path class="st10" d="M272.81,92.71l7.26-5.92.03,5.92h-7.29ZM324.76,83.11h-7.75c-1.57,0-1.1,1.63-.46,1.63,1.65,0,3.16,1.94,2.25,3.73l-3.21,5.86-7.08-10.33c-.48-.64-1.6-.95-2.55-.95h-7.63c-1.57,0-1.2,1.62-.56,1.62,1.61,0,1.2,1.21.8,2.07l-6.08,11.68c-.39.94-2.04,1.07-2.56-.11l-4.7-15.3c-.2-.61-2.94-.57-3.64,0l-11.79,9.7h-6.1c-1.22,0-1.69.51-1.69,1.15s.46,1.22,1.74,1.22h3.19s-3.19,2.62-3.19,2.62c-1.78,1.32-3.59,3.13-4.8,3.13h-.74c-1.16,0-1.8.18-1.8,1.11s.49,1.25,1.57,1.25h9.51c1.78,0,1.44-2.33.54-2.33-.98,0-2.61-1.25-1.1-3.01l2.9-2.77h5.72c3.39,0,5.76,3.93,3.74,5.14l-1.57.87c-.73.38-1.06,2.1,0,2.1h18.58c1.37,0,1.09-1.81.45-1.81-1.9,0-1-2.73-.64-3.46l4.88-9.22,6.86,13.25c.44.85.85,1.25,1.65,1.25h2.62c.84,0,1.11-.48,1.5-1.12l7.8-14.07c1.26-2.51,2.22-3.24,3.8-3.24.64,0,1.09-1.64-.48-1.64h0ZM216.59,94.77c-2.07,4.13-5.54,6.57-7.74,5.47-2.21-1.11-2.32-5.35-.25-9.47,2.07-4.13,5.54-6.57,7.75-5.47,2.2,1.1,2.32,5.34.25,9.47M214.74,82.23c-6.53,0-13.26,3.22-14.6,10.06-1.17,5.95,2.95,12.13,10.25,12.13s13.35-4.54,14.64-11.11c1.29-6.6-3.63-11.08-10.29-11.08M346.85,92.21h-8.39c-1.57,0-1.11,1.63-.47,1.63s1.28.35,1.28,1.4c0,3.39-1.45,4.69-4.36,4.69-3.2,0-4.35-3.87-2.2-8.61,1.37-3.04,5.01-5.87,9.32-5.87,2.64,0,4.86.57,5.2,3.04.08.6.99.6,1.32.03l1.99-3.57c.22-.38-.12-.83-.73-.86-.51-.03-1.66.62-2.42.07-1.68-1.26-5.34-2.45-8.09-2.45-4.51,0-10.8,1.02-15.05,8.37-3.84,6.66,1.75,13.7,6.94,13.71,2.89,0,6.23-2.13,8.15-2.92l2.14,1.44c.32.39.99.86,1.64.86h.8c.74,0,1.03-.99,1.32-1.63l3.29-7.96c.42-.8.19-1.38-1.67-1.38M461.82,83.65c-.57.3-1.9.48-2.47,0-1.49-1.24-4.42-2.19-5.94-2.19-4.39,0-7.59.87-9.5,5.01-1.64,3.52.04,6.48,3.92,8.27,1.68.77,3.91,1.79,3.05,3.81-.62,1.48-2.34,1.63-3.9,1.62-2.08-.02-5.2-1.58-5.7-4.51-.16-.96-1.27-.75-1.6-.22l-2.66,5.27c-.41.71.68,1.49,1.12,1.03.9-.95,2.85-1.18,3.81-.54,1.32.87,4.72,2.42,6.75,2.4,4.46-.03,7.39-1.18,9.83-5,2.23-3.47.86-6.93-3.21-8.85-2.15-1.01-3.99-2.8-3.03-4.76.62-1.28,2.54-1.01,3.49-.84,1.81.3,4.14,2.01,4.41,3.5.12.64.93.76,1.28.2l1.41-3.27c.31-.63-.72-1.12-1.07-.94M403.46,96.25c-2.82,3.65-6.57,4.58-10.77,4.58h-1.19l7.42-14.65c.35-.67,1.13-1.19,2.1-1.19s.81-1.85-.4-1.85h-11.67c-.99,0-1.35,1.85-.42,1.85.99,0,1.18,1.1.7,2.02l-6.64,13.07c-.45.71-1.18.89-2,1.09-.99.25-1.66,2.02-.54,2.02h18.65c1.45,0,1.78-.53,2.16-1.04l3.75-5.79c.54-.71-.59-.81-1.13-.11M431.59,84.79c2.61,0,4.85,1.84,5.58,3.85.18.48,1.57.85,1.86.25l1.63-2.99c.7-1.3-.46-2.8-2.32-2.8h-21.78c-1.57,0-1.1,1.62-.47,1.62,1.4,0,1.82,1.71.97,3.14l-6.54,12.03c-.98,1.14-1.61,1.64-3.01,1.64-1.12,0-1.52,1.63.06,1.63h22.06c.9,0,1.29-.32,1.62-.77l2.99-3.98c.74-.94-.85-.94-1.32-.48-3.82,3.81-7.89,3.7-10.85,3.7h-2.57l3.03-6.75h.64c1.94,0,4.18-.02,4.76,1.45.16.35,1.12.64,1.5,0l2.58-5.15c.41-.76-.76-.89-1.06-.34-1.02,1.82-5.49,1.33-6.67,1.33h-.64l3.76-7.41h4.2Z"/>
  <path class="st8" d="M263.17,32.94c-10.28-.73-18.67-1.03-26.01-.25,2.13-5.35,6.38-10.35,9.66-12.54,7,.29,14.23,1.3,19.95,2.44,18.33,3.61,46.82,14.75,59.1,31.2-16.36-10.91-43.55-19.48-62.7-20.84M232.4,33.32c-6.18.38-17.38,2.81-21.38,3.96-1.03-2.69-3.86-11-4.76-13.69,11.37-3.22,24.59-4.34,34.76-3.45-2.83,2.17-7.6,10.74-8.62,13.18M180.63,48.54c-1.27-2.13-7.29-7.62-10.56-8.7,7.6-5.62,25.24-13.68,31.93-15.08,1.16,1.91,4.25,10.1,5.28,13.55-5.92,1.28-21.63,6.91-26.65,10.23M345.83,67.21c-1.68-1.92-4-6.01-20.6-20.46-24.42-21.25-56.78-30.95-87.17-30.95-22.4,0-42.01,5.01-63.74,16.96-27.68,15.2-39.14,32.68-41.97,36.23-2.09,2.62-2.38,4.14-1.04,4.92.97.56,2.83-1.48,4.57-3.77,8.23-10.85,19.06-21.61,30.45-27.93,3.54.51,8.5,5.43,10.43,8.05-7.29,3.97-19.37,13.15-23.94,16.69-3.95,3.05-5.32,4.77-4.25,6.01.88,1.03,3.91-1,6.44-3.07,4.37-3.58,17.38-12.79,23.82-16.24,4.38,5.12,2.96,14.57,1.41,16.63-.83,1.1-.95,2.27,0,2.81.9.51,1.88-.79,3.16-2.63,2.98-4.3,1.79-14.72-.77-18.47,7.85-4.87,19.12-8.12,25.95-9.66.58,1.09,8.85,25.22,10.43,29.6.86,2.4,1.72,5.28,3.48,4.74,1.17-.36.39-2.99-.58-5.63-1.2-3.27-7.47-23.53-9.4-29.53,2.26-1.21,15.85-3.97,19.26-3.84-1.68,8.83,4.58,12.45,11.65,17.08,3.76,2.46,27.65,16.16,32.64,19.24,2.84,1.76,5.06,2.89,5.66,2.04.7-.94-1.24-2.94-3.86-4.47-2.1-1.22-24.32-14.1-33.61-19.95-6.64-4.19-10.22-8.68-8.62-14.58,2.2-.63,8.89-.69,15.84-.63,47.38.38,85.37,27.49,89.62,31.83,2.15,2.21,5.15,4.09,6.31,3.2.73-.57-.53-3.06-1.55-4.22M356.08,229.11c1.75-3.22,3.17-5.05,1.68-5.88-1.37-.76-2.71,2.22-4.38,5.11-5.53,9.58-11.58,17.5-25.23,29.93-15.13,13.75-32.52,21.73-38.56,23.78-5.15-14.45-24.79-76-25.31-77.75-.77-2.62-1.43-3.38-2.32-3.06-.99.35-.39,1.78.13,4.09.51,2.3,23.88,75.13,24.66,77.68-4.64,2.31-23.47,7.56-36.64,7.99-11.71.39-25.49,0-32.44-1.59-8.15-6.57-26.69-32.7-33.73-46.61-8.3-16.4-13.79-31.48-15.2-37.86-.68-3.06-1.55-5.27-3.09-4.98-1.66.32-.71,2.74.26,6.02,2.49,8.42,6.56,20.36,15.19,37.4,9.15,18.04,25.49,39.19,30.25,44.94-14.92-3.13-33.07-10.1-50.31-22.93-14.85-11.05-27.61-25.13-34.02-35.38-1.1-1.76-2.39-4.26-3.99-3.2-.72.48.16,2.47,1.28,4.48,9.32,16.7,32.04,40.35,61.16,53.32,33.94,15.12,70.95,14.31,104.04,1.53,28.94-11.18,54.12-34.19,66.56-57.03"/>
  <g>
    <g class="st5">
      <path class="st8" d="M263.17,32.94c-10.28-.73-18.67-1.03-26.01-.25,2.13-5.35,6.38-10.35,9.66-12.54,7,.29,14.23,1.3,19.95,2.44,18.33,3.61,46.82,14.75,59.1,31.2-16.36-10.91-43.55-19.48-62.7-20.84M232.4,33.32c-6.18.38-17.38,2.81-21.38,3.96-1.03-2.69-3.86-11-4.76-13.69,11.37-3.22,24.59-4.34,34.76-3.45-2.83,2.17-7.6,10.74-8.62,13.18M180.63,48.54c-1.27-2.13-7.29-7.62-10.56-8.7,7.6-5.62,25.24-13.68,31.93-15.08,1.16,1.91,4.25,10.1,5.28,13.55-5.92,1.28-21.63,6.91-26.65,10.23M345.83,67.21c-1.68-1.92-4-6.01-20.6-20.46-24.42-21.25-56.78-30.95-87.17-30.95-22.4,0-42.01,5.01-63.74,16.96-27.68,15.2-39.14,32.68-41.97,36.23-2.09,2.62-2.38,4.14-1.04,4.92.97.56,2.83-1.48,4.57-3.77,8.23-10.85,19.06-21.61,30.45-27.93,3.54.51,8.5,5.43,10.43,8.05-7.29,3.97-19.37,13.15-23.94,16.69-3.95,3.05-5.32,4.77-4.25,6.01.88,1.03,3.91-1,6.44-3.07,4.37-3.58,17.38-12.78,23.82-16.24,4.38,5.12,2.96,14.57,1.41,16.63-.83,1.1-.95,2.27,0,2.81.9.51,1.88-.79,3.16-2.63,2.98-4.3,1.79-14.72-.77-18.47,7.85-4.87,19.12-8.12,25.95-9.66.58,1.09,8.85,25.22,10.43,29.6.86,2.4,1.72,5.28,3.48,4.74,1.17-.36.39-2.99-.58-5.63-1.2-3.27-7.47-23.53-9.4-29.53,2.26-1.21,15.85-3.97,19.26-3.84-1.68,8.83,4.58,12.45,11.65,17.08,3.76,2.46,27.65,16.16,32.64,19.24,2.84,1.76,5.06,2.89,5.66,2.04.7-.94-1.24-2.94-3.86-4.47-2.1-1.22-24.32-14.1-33.61-19.95-6.64-4.19-10.22-8.68-8.62-14.58,2.2-.63,8.89-.69,15.84-.63,47.38.38,85.37,27.49,89.62,31.83,2.15,2.21,5.15,4.09,6.31,3.2.73-.57-.53-3.06-1.55-4.22"/>
    </g>
    <g class="st6">
      <path class="st8" d="M356.08,229.11c1.75-3.22,3.17-5.05,1.68-5.88-1.37-.76-2.71,2.22-4.38,5.11-5.53,9.58-11.58,17.5-25.23,29.93-15.13,13.75-32.52,21.73-38.56,23.78-5.15-14.45-24.79-76-25.31-77.75-.77-2.62-1.43-3.38-2.32-3.06-.99.35-.39,1.78.13,4.09.51,2.3,23.88,75.13,24.66,77.68-4.64,2.31-23.47,7.56-36.64,7.99-11.71.39-25.49,0-32.44-1.59-8.15-6.57-26.69-32.7-33.73-46.61-8.3-16.4-13.79-31.48-15.2-37.86-.68-3.06-1.55-5.27-3.09-4.98-1.66.32-.71,2.74.26,6.02,2.49,8.42,6.56,20.36,15.19,37.4,9.15,18.04,25.49,39.19,30.25,44.94-14.92-3.13-33.07-10.1-50.31-22.93-14.85-11.05-27.61-25.13-34.02-35.38-1.1-1.76-2.39-4.26-3.99-3.2-.72.48.16,2.47,1.28,4.48,9.32,16.7,32.04,40.35,61.16,53.32,33.94,15.12,70.95,14.31,104.04,1.53,28.94-11.18,54.12-34.19,66.56-57.03"/>
    </g>
  </g>
  <path class="st0" d="M0-93.47h500v500H0V-93.47Z"/>
</svg>