<?xml version="1.0" encoding="UTF-8"?>
<svg id="Ebene_1" xmlns="http://www.w3.org/2000/svg" version="1.1" viewBox="0 0 407.69 383.65">
  <!-- Generator: Adobe Illustrator 29.7.1, SVG Export Plug-In . SVG Version: 2.1.1 Build 8)  -->
  <defs>
    <style>
      .st0 {
        fill: none;
      }

      .st1 {
        fill: #12173f;
      }

      .st2 {
        fill: #5d76a9;
      }

      .st3 {
        fill: #fb2;
      }

      .st4 {
        fill: #707271;
      }
    </style>
  </defs>
  <path class="st0" d="M-46.15-57.69h500v500H-46.15V-57.69Z"/>
  <g>
    <path class="st4" d="M377.54,88.1c4.95-9.33,7.3-18.69,7.3-27.64,0-20.4-11.38-38.65-27.37-49.53-22.23-15.13-55.65-17.22-79.26,11.02-34.48-4.71-63.38,4.77-74.37,9.29-10.99-4.52-39.9-14-74.37-9.29C105.86-6.29,72.45-4.2,50.21,10.93c-15.99,10.88-27.37,29.13-27.37,49.53,0,8.95,2.36,18.31,7.3,27.64C12.33,113.82,0,144.32,0,175.38c0,37.41,15.97,56.67,22,64.95,0,0,2.59-2.59,4.82-4.82,16.92,43.06,45.88,66.23,80.85,87.35,0,0,.77-4.26,1.47-8.07,37.65,32.63,55.58,24.6,94.71,68.86,38.98-44.09,57.4-36.52,94.71-68.86.49,2.69.98,5.38,1.47,8.07,15.57-9.4,59.48-32.95,80.85-87.35,2.23,2.23,4.82,4.82,4.82,4.82,3.69-5.07,22-25.5,22-64.95,0-31.05-12.33-61.56-30.15-87.28"/>
    <path class="st1" d="M366.77,88.63c35.91-55.12-45.53-112.51-84.98-56.99-39.86-7.06-73.43,7.47-77.94,9.56-4.5-2.1-38.08-16.62-77.94-9.56-39.46-55.52-120.89,1.87-84.98,56.99C0,144.82,4.13,200.22,23.1,226.28l7.85-7.85s11.15,54.15,70.08,89.72l2.12-11.68c36.28,38.75,69.42,37.88,100.7,73.27,31.27-35.39,64.42-34.52,100.69-73.27l2.12,11.68c58.93-35.57,70.08-89.72,70.08-89.72l7.85,7.85c19.03-26.14,23.13-81.42-17.82-137.65"/>
    <path class="st2" d="M204.21,294.73s-28.3.43-32.48,3.04c0,0-4.86,8.42,32.48,8.26,35.52-.16,30.28-6.63,30.53-7.59,0,0-12.02-3.71-30.53-3.71M179.68,261.85s4.41-12.78,9.12-8.74c6.54,5.6,15.05,16.99,15.05,18.21v15.22l-10.32.54c-5.92.17-25.03,4.73-25.03,4.73-26.31-65.15-11.72-114.46-4.7-132.05-26.08,5.65-30.29-25.65-30.29-25.65,2.71-.55,6.7.63,11.2,2.78,6.97,3.33,15.17,9,21.71,14.07h0c1.79,1.39,3.56,2.82,5.3,4.28,17.73,14.92,32.12,11.9,32.12,11.9v63.77s-51.75-4.01-24.17,30.93M228.17,261.86c32.93-33.41-20.8-31.46-24.2-30.94,5.52.31,47.17.54,24.2,30.94"/>
    <path class="st2" d="M250.06,160.78c29.64,79.81-7.93,131.17-8.15,131.45,23.33-61.08,8.33-111.87-1.87-130.74-5.24.52-11.53.22-11.53.22,0,0,7.88-4.87,12.98-9.5.35-.32.75-.68,1.2-1.08,4.24-3.76,12.33-10.38,22.15-14.21,3.59-1.4,7.42-2.43,11.37-2.81,0,0-2.83,26.3-26.14,26.67"/>
    <path class="st2" d="M66.65,83.03c-1.07-10.09,11.68-20.09,11.68-20.09-5.26-5.43-14.43-.72-14.43-.72,8.33-16.28,26.98-8.32,26.98-8.32-7.07-8.66-22.04-8.12-22.04-8.12,18.53-18.36,40.89,9.7,40.89,9.7-19.92,4.51-43.07,27.55-43.07,27.55M296.98,57.5s12.09-30.23,49.14-22.93c0,0-34.02-22.38-57.68,18.08,0,0-33.96-15.93-84.59,5.96,0,0-47.58-16.72-83.75-7.25,0,0-21.09-36.6-50.8-21.52-29.7,15.07-14.2,49.93-9.03,58.97,0,0-49.22,50.14-30.72,112.15l9.9-12.35s14.14,67.52,50.62,88.8l2.19-16.6s38.08,45.95,82.87,65.47c4.26,2,27.98,13.79,28.72,19.61v-32.15s-31.07,2.58-39.26-11.75c-5.57-9.75-41.29-73.47-23.64-140.21,0,0-17.18-2.57-20.42-31.56,0,0-12.81-6.24-28.74-4.95,0,0,28.48-8.94,55.18,1.4,26.69,10.33,33.84,36.64,51.92,25.01l4.96-74.11,5.46,74.11c18.08,11.63,25.24-14.68,51.93-25.01,26.7-10.34,55.19-1.4,55.19-1.4,0,0-11.4-8.03-29.71-11.7-15.28-3.06-37.75,6.77-37.75,6.77,0,0,3.11-21.03,13.3-32.23,8.76-9.64,28.59-11.77,34.72-30.59"/>
    <path class="st3" d="M166.42,150.97c-2.86-.89-7.58,2.06-10.22,7.19-8.84-2.55-11.87-12.1-11.5-21.26h0c6.97,3.33,15.17,8.99,21.71,14.07M253.33,158.16c-2.77-5.4-7.87-8.4-10.66-7.03,4.24-3.76,12.33-10.38,22.15-14.21.4,9.15-2.7,18.7-11.5,21.24"/>
  </g>
</svg>