<?xml version="1.0" encoding="UTF-8"?>
<svg id="Ebene_1" xmlns="http://www.w3.org/2000/svg" version="1.1" viewBox="0 0 384.05 403.14">
  <!-- Generator: Adobe Illustrator 29.7.1, SVG Export Plug-In . SVG Version: 2.1.1 Build 8)  -->
  <defs>
    <style>
      .st0 {
        fill: none;
      }

      .st1 {
        fill: #f9a11a;
      }

      .st2 {
        fill: #8b2231;
      }

      .st3 {
        fill: #2d2925;
      }

      .st4 {
        fill: #fefefe;
      }
    </style>
  </defs>
  <path class="st4" d="M60.06,163.91c-.1-.06-.21-.11-.33-.17-6.92-3.81-8.9-6.77-9.05-7.33.53-6.12,33.42-22.72,104.08-27.1-4.13,5.67-7.58,12.98-8.86,22.24l-.77,5.58c-.42,2.88-.96,6.21-2.14,9.31-1.89,4.94-7.34,10.11-15.81,15-29.63-3.87-53.42-10.08-67.13-17.51M289.1,143.63c2.06-.75,3.47-2.61,3.69-4.73,19.63,4.85,34.04,10.97,39.39,16.88.93,1.03,1.17,1.63,1.21,1.64-.24.83-2.43,3.89-9.67,7.69-10.98,5.79-27.86,10.68-48.81,14.24,3.38-4.22,5.74-9.92,6-17.94.21-7.24.71-9.45.97-10.07,1.52-3.02,5.23-6.98,7.23-7.71M373.67,128.33c-13.83-15.29-42.52-28.11-81.24-36.39.61-.44,1.33-.95,2.18-1.54,2.66-1.84,5.96-4.14,9.26-7.28,13.5-12.84,4.81-31.18-2.45-39.98l-8.44-10.32c-1.62-1.97-4.36-2.63-6.67-1.59-2.33,1.04-3.68,3.51-3.29,6.04l2.02,13.19c.62,4.06.48,5.86-3.57,9.27-.23-3.3-.71-6.84-1.65-10.71-2.41-10-7.5-14.41-8.07-14.88-1.64-1.32-3.85-1.67-5.78-.84-.67.27-1.27.68-1.78,1.17l-.2-1.17c-1.69-9.82.62-15.26.63-15.57.57-.34,1.07-.77,1.48-1.28,1.95-2.38,5.81-6.3,5.84-6.34,1.3-1.34,1.88-3.22,1.53-5.03-.35-1.83-1.56-3.37-3.26-4.13-1.1-.48-4.39-1.51-11.33-.62-13.09,1.81-26.11,9.46-25.69,22.47.17,5.59,1.92,10.75,3.35,14.93.58,1.72,1.39,4.13,1.66,5.59-.72.32-2.02.76-4.22,1.16-20.25,3.68-35.87,13.38-44,27.26-1.92,3.29-3.4,6.77-4.43,10.39-45.02.49-87.79,6.36-120.9,16.63C24.28,111.27,1.98,129.01.13,150.03c-.98,10.98,3.36,27.08,29.3,41.99.46.49,1.01.9,1.64,1.19l10.59,5.07c.28.15.59.26.89.34,8.09,3.57,17.15,6.81,27.07,9.7-1.52,1.18-2.96,2.37-4.34,3.59-24.97,20.55-39.29,50.92-39.29,83.31,0,28.84,11.2,55.95,31.54,76.32,20.34,20.38,47.39,31.6,76.15,31.6,50.88,0,95.25-36.18,105.32-85.4,8.57-25.69,7.58-52.93,7.21-63.17-.68-19.11,8.04-30.05,14.08-35.31,32.17-4.21,60.2-11.3,81.23-20.57.31-.08.61-.19.89-.34l3.33-1.59s.09-.03.14-.06l7.35-3.51c.6-.28,1.13-.7,1.57-1.18,17.87-10.37,27.93-22.94,29.13-36.42.85-9.61-2.6-18.78-10.26-27.26"/>
  <path class="st3" d="M45.04,155.91c1.14-13.05,48.07-30.28,123.9-32.96-7.04,5.28-15.38,14.52-17.44,29.38l-.77,5.62c-.51,3.47-1.12,7.01-2.45,10.51-2.92,7.67-11.15,14-19.97,18.83-30.53-3.85-56.05-10.29-70.95-18.39h-.02c-8.16-4.43-12.64-9.16-12.3-12.99M336.37,151.99c2.9,3.2,2.7,5.26,2.65,5.95-.32,3.68-4.93,8.13-12.65,12.2h-.02c-16.22,8.55-44.1,15.01-77.29,18.41,1.45-.94,3.04-1.77,4.76-2.47l.54-.22c9.54-3.89,20.35-8.29,20.86-24.09.08-2.51.21-10.22,1.6-12.98,1.78-3.54,6.33-9.02,10.35-10.47.06-.03-6.71-1.35-6.71-1.35-.36-.03-.7-.06-1.05-.06,2.27-1.65,3.89-3.63,5.08-5.7,26.96,5.62,45.09,13.28,51.88,20.78M369.48,132.14c-14.25-15.74-45.68-28.52-86.17-36.25.18-4.66,3.01-6.63,8.05-10.12,2.64-1.82,5.61-3.9,8.61-6.74,13.07-12.43-2.27-31.48-2.93-32.28l-8.44-10.32,2.02,13.19c1.38,9.03-1.92,12.23-11.72,19.09-1.26.86-2.32,1.82-3.26,2.85.41-6.03.69-12.75-1.33-21.17-2.04-8.43-6.17-11.85-6.17-11.85l-1.07,12.23c-.01.07-.95,9.54-13.57,21,1.09-1.22,2.1-2.49,3.01-3.82,6.19-9.02,4.4-19.29,2.33-31.17l-.43-2.51c-2.13-12.39,1.18-20.12,3.3-21.39,2.07-2.53,6.19-6.73,6.19-6.73,0,0-2.18-.97-8.26-.18-7.9,1.09-21.17,5.83-20.81,16.65.15,4.76,1.69,9.28,3.03,13.27,1.45,4.26,2.82,8.31,1.61,10.38-.97,1.64-3.9,2.95-8.48,3.79-18.61,3.39-32.86,12.12-40.14,24.56-2.41,4.11-4.02,8.52-4.82,13.15-46.15.14-89.85,5.91-123.73,16.41-37.98,11.78-58.9,27.81-60.54,46.35-.87,9.76,3.53,23.84,27.91,37.37l-.17.18,6.92,3.31s.01.01.02.01l3.64,1.76.06-.06c11.23,5.03,24.41,9.39,39.1,12.97-5.23,2.96-10.05,6.36-14.37,10.21-23.62,19.43-37.23,48.23-37.23,78.93,0,27.32,10.61,53,29.89,72.32,19.28,19.32,44.9,29.95,72.16,29.95,48.25,0,90.24-34.27,99.94-81.53,8.24-24.7,7.29-51.19,6.92-61.18-.81-22.7,10.31-35.26,17.38-40.92,32.24-4.09,60.77-11.16,82.01-20.65l.03.03,3.44-1.63.02-.02,7.35-3.5-.2-.19c17.09-9.57,26.64-20.81,27.7-32.79.7-7.98-2.26-15.7-8.81-22.95"/>
  <path class="st2" d="M35.57,302.45c2.67,13.45,10.35,29.57,25.61,40.33,4.62,3.24,9.64,5.87,14.97,7.9-3.3-5.63-7.14-11.31-11.04-17.09-7.31-10.78-14.85-21.94-19.64-33.94-4.95-12.41-6.31-25.39-4.15-38.44-3.89,10.6-6.04,22.05-6.04,34.01,0,2.44.11,4.85.29,7.23"/>
  <path class="st2" d="M52.01,297.02c4.51,11.3,11.84,22.13,18.93,32.61,5.49,8.09,10.84,16.02,14.91,24.02,4.48,1.05,9.13,1.72,13.87,2.01-4.9-6.99-9.15-14.95-12.79-24.05-14.16-35.27-12.12-78.88,5.44-104.11,9.08-13.01,19.93-21.87,33.9-29.49,12.01-6.59,19.54-8.55,27.18-13.11,8.31-4.96,12.76-13.27,7.3-31.91-1.61-5.44-1.89-9.74-1.56-13.08-1.9,3.68-3.38,7.96-4.07,12.93l.05-.05c-.86,5.27-1.22,11.06-3.46,16.97-7.35,19.29-42.95,30-47.65,31.43-13.51,4.08-24.33,10.32-32.76,17.84-24.38,21.73-28.73,54.33-19.28,78"/>
  <path class="st2" d="M200.5,122.68c.36,1.19.66,2.37.8,3.53.93,6.74-1.11,12.19-9.36,13.51-8.5,1.37-11.39-6.03-12.05-12.07-.07-2.1.09-3.77.26-4.99-1.43.02-2.84.05-4.25.09-2.73,1.55-6.27,3.98-9.67,7.46-1.7,3.65-3.74,8.69-.6,20.53,5.54,20.87,3.19,33.46-13.53,40.67-21.32,9.19-34.94,14.59-53.22,37.62-8.7,10.96-13.45,29.12-14.23,47.4-.76,17.74,2.88,36.69,9.12,52.22,4.17,10.39,9.05,19.43,14.77,27.1,5.71-.22,11.49-.95,17.27-2.22-6.35-7.46-10-16.53-10.66-26.71-2.18-33.84,16.01-48.07,43.99-70.55l12.52-10.53c49.98-42.53,35.4-85.78,40.89-122.71-3.95-.16-7.98-.27-12.07-.35"/>
  <path class="st2" d="M220.52,123.39c-1.53,7.38-2.22,15.08-2.7,23.04-1.98,32.17-1.02,68.59-41.65,104.76l-12.3,9.96c-27.19,21.85-42.75,35.5-41.67,65.22.35,9.8,4.48,18.39,11.37,25.13,7.6-2.29,15.12-5.49,22.35-9.61,35.35-20.1,57.59-50.15,66.09-88.7,5.38-24.37,5.27-44.2,5.18-60.13-.05-8.06,1-23.86,1-23.86,1.13-9.97,2.74-23.96,14.29-42.29.37-.59.78-1.19,1.17-1.79-7.36-.73-15.07-1.3-23.11-1.73"/>
  <path class="st2" d="M232.42,226.81v-.12c0,.06-.01.12-.01.18-1.11,5.77-1.39,12.25-2.09,18.71-.34,2.47-.67,4.86-1.03,7.19-.12.66-.25,1.31-.4,1.96-8.93,40.59-32.02,72.19-69.17,93.32-6.38,3.63-12.86,6.61-19.37,8.92,10.89,7.24,23.6,9.48,32.33,8.16,33.36-5.02,49.62-26.83,57.44-50.16,8.03-23.94,7.17-49.49,6.79-60.06-1.27-35.33,26.01-48.37,26.01-48.37-21.21-1.16-28.17,8.1-30.5,20.27"/>
  <path class="st2" d="M210.14,357.13c-13.64,11.43-28.35,13.93-35.03,14.96-13.13,2.02-28.69-1.11-42.44-11.98-.23-.18-.44-.37-.66-.56-5.89,1.58-11.8,2.63-17.68,3.12,13.46,14.49,31.19,22.72,54.95,24.34.1,0,.21.01.31.01h.02c16.18-6.36,30.27-16.88,40.96-30.26-.15.14-.28.25-.43.37M86,381.46c.26-7.45-1.83-14.77-5.25-22.09-8.16-2.36-16.15-5.87-23.85-10.55-4.33-2.64-8.24-6.68-11.69-10.43-.01-.02-.03-.02-.05-.05,8.87,18.24,23.18,33.33,40.83,43.13h0s0-.01,0-.01ZM154.03,391.62c-13.3-3.08-24.68-7.81-34.67-15.39-5.1-3.89-9.75-8.26-13.98-13.23-5.38-.07-10.74-.59-16.03-1.59,2.94,7.61,4.42,15.36,3.47,23.5h0c12.45,5.71,26.28,8.92,40.87,8.92,7.02,0,13.88-.75,20.49-2.15-.06-.01-.1-.05-.15-.06M268.35,149.45c-2.3,7.69-9.84,6.78-12.02,2.63-3.47-6.55-2.16-11.62,1.46-15.08,3.61-3.46,9.52-5.3,15.26-7.9.03-.02.05-.03.08-.05-6.63-1.13-13.69-2.15-21.15-3.04-.1.12-.2.24-.31.35-.67.76-1.32,1.51-1.97,2.29-11.87,17.89-13.35,31.14-14.51,41.33l-.36,3.14c-.66,5.35-.62,12.09-.59,19.89.01,1.07.02,2.18.02,3.31-.09,2.72-.19,5.41-.32,8.03.07.02.11.03.17.05.09-1.09.14-1.51.12-.95,3.36-10.71,9.52-17.23,18.21-20.77,9.41-3.82,18.7-7.35,19.13-21.04.19-5.71.61-11.44,1.91-14.35,2.38-5.29,6.63-6.7,6.63-6.7-4.57-.44-9.56,1.47-11.76,8.85"/>
  <path class="st1" d="M279.74,95.22c.69-9.16,9.34-10.87,17.71-18.85,10.76-10.22-3.22-27.31-3.22-27.31,1.76,11.48-3.54,15.87-13.25,22.64-3.08,2.15-5.32,5.17-5.62,8.97-.34,4.26-.62,8.86-1.55,13.52,2,.33,3.97.68,5.93,1.03M250.13,79.26c-2.59,1.93-5.01,3.91-7.27,5.94-1.61,1.54-3.18,3.08-4.63,4.56,9.45.82,18.63,1.88,27.49,3.17,5.66-10.32,8.36-22.02,5-41.95,0,0-.78,13.5-20.59,28.28M197.33,87.79c10.8.1,21.4.54,31.74,1.25.35-.34.67-.69,1.03-1.03,6.95-7.46,17.67-13.76,23.42-22.13,5.74-8.38,3.43-18.6,1.3-30.99-3.65-21.36,5.33-25.31,5.33-25.31,0,0-18.01,2.48-17.67,12.92.46,14.01,14.88,27.19-6.83,31.15-23.82,4.34-38.63,17.25-41.89,34.13,1.19.01,2.38,0,3.57.01"/>
  <path class="st4" d="M197.27,93.39c-99.8-.99-183.05,24.82-185.95,57.65-1.15,13.07,10.62,25.29,31.52,35.32,12.92,6.2,29.31,11.55,48.28,15.77,3.79-1.69,7.76-3.2,11.95-4.47,3.3-1,9.4-3,16.12-5.93-27.94-4.09-50.57-10.37-64.48-17.91-10.27-5.58-15.8-11.83-15.21-18.41,1.95-22.04,71.81-39.23,156.06-38.4,84.24.84,150.97,19.37,149.03,41.42-.53,6-6.1,11.64-15.62,16.66-17.6,9.26-48.69,16.39-86.45,19.71-1.3,1.79-2.45,3.77-3.39,6.03,17.17-6.53,36.96,3.12,36.96,3.12,0,0,1.32.51,2.25,1.14,25.06-4.48,46.58-10.85,62.71-18.56,19.08-9.1,30.66-20.06,31.7-31.94,2.9-32.82-75.66-60.23-175.46-61.21"/>
  <path class="st0" d="M-57.7-47.02h500v500H-57.7V-47.02Z"/>
</svg>