<?xml version="1.0" encoding="UTF-8"?>
<svg id="Ebene_1" xmlns="http://www.w3.org/2000/svg" version="1.1" viewBox="0 0 344.84 456.23">
  <!-- Generator: Adobe Illustrator 29.7.1, SVG Export Plug-In . SVG Version: 2.1.1 Build 8)  -->
  <defs>
    <style>
      .st0 {
        fill: none;
      }

      .st1 {
        fill: #ede0c5;
      }

      .st2 {
        fill: #00471a;
      }

      .st3 {
        fill: #fefefe;
      }
    </style>
  </defs>
  <path class="st1" d="M91.95,390.98c-2.04-1.68-2.89-4.39-2.17-6.92l24.07-85.4c.13-.5.33-.98.58-1.43l-11.05-17.66c-1.01-1.61-1.27-3.57-.74-5.4l1.54-5.19-15.14-.97c-14.24-1.05-19.32-2.92-22.7-4.78-14.28-7.87-18.01-30.47-18.82-37.21l-.9-7.59c-.44-3.08.36-6.09,2.21-8.26,1.44-1.68,3.43-2.75,5.58-2.99C21.47,177.47-8.29,140.54,2.11,88.5,13.58,31.02,60.14,13.7,62.12,12.99c.74-.27,1.51-.39,2.25-.39,2.4,0,4.68,1.29,5.87,3.51.83,1.55.99,3.29.56,4.88C86.17,7.97,100.86,2.29,107.03.32c.67-.22,1.36-.32,2.03-.32,2.56,0,4.95,1.47,6.06,3.89,1.4,3.06.27,6.69-2.62,8.43-14.04,8.46-26.27,19.98-35.5,33.24,11.21-2.61,18.74-2.9,21.37-2.9.9,0,1.36.04,1.36.04,3.29.2,5.95,2.77,6.24,6.04.3,3.26-1.83,6.26-5.03,7.04-.17.05-18.48,4.67-38.68,19.13-3.82,11.61-5.74,23.73-5.74,36.04,0,23.34,7.48,47.3,20.54,65.73,3.11,4.4,6.19,8.23,9.41,11.73-1.25-23.96,5.63-61.41,49.04-78.78.82-.33,1.65-.48,2.48-.48,2.45,0,4.79,1.36,5.94,3.67,1.56,3.08.47,6.84-2.48,8.64l-.32.18c-6.69,4.35-12.33,9.97-16.62,16.47,4.72-1.45,8.78-1.93,11.52-2.25l.52-.06c.26-.04.53-.05.79-.05,2.78,0,5.31,1.74,6.26,4.41,1.05,2.92-.09,6.17-2.7,7.84l-.22.14c-.09.06-.19.12-.28.17-13.89,8-21.63,17.3-22.97,27.67-1.48,11.34,4.8,22.01,9.31,28.03,11.68-13.48,19.29-36.51,21.42-45.18.74-3.01,3.43-5.06,6.46-5.06.26,0,.52.01.78.05,3.33.38,5.87,3.19,5.88,6.54.17,28.3-7.45,47.63-15.25,59.98,11.7,5.91,23.16,6.26,25.64,6.26.28,0,.68-.01.77-.01.07,0,.49.01.79.01,2.48,0,13.94-.35,25.64-6.26-7.81-12.35-15.43-31.68-15.25-59.98.01-3.35,2.53-6.16,5.87-6.54.27-.04.53-.05.79-.05,3.03,0,5.72,2.06,6.45,5.06,2.14,8.67,9.74,31.7,21.43,45.18,4.5-6.01,10.78-16.69,9.31-28.03-1.35-10.37-9.08-19.68-22.97-27.67-.09-.05-.42-.26-.42-.26-2.63-1.66-3.79-4.94-2.75-7.86.95-2.67,3.45-4.44,6.24-4.44.26,0,.52.01.78.05l.52.06c2.73.32,6.81.8,11.52,2.25-4.3-6.51-9.93-12.12-16.62-16.46l-.31-.2c-2.96-1.8-4.05-5.56-2.51-8.64,1.16-2.32,3.51-3.67,5.95-3.67.83,0,1.67.15,2.48.48,43.41,17.37,50.29,54.82,49.03,78.78,3.24-3.5,6.31-7.33,9.42-11.73,13.05-18.43,20.54-42.4,20.54-65.73,0-12.32-1.93-24.43-5.76-36.04-20.32-14.58-38.48-19.09-38.67-19.13-3.2-.78-5.32-3.77-5.04-7.04.3-3.26,2.96-5.84,6.24-6.04,0,0,.47-.04,1.37-.04,2.62,0,10.15.28,21.35,2.9-9.21-13.26-21.44-24.78-35.48-33.24-2.89-1.74-4.01-5.36-2.62-8.43C230.81,1.52,233.17,0,235.78,0c.68,0,1.36.1,2.04.32,6.16,1.97,20.86,7.65,36.24,20.66-.43-1.59-.28-3.33.54-4.88,1.19-2.22,3.48-3.51,5.88-3.51.74,0,1.51.12,2.25.39,1.98.71,48.53,18.04,60.01,75.52,10.4,52.04-19.37,88.97-52.29,118.69,2.15.25,4.14,1.31,5.57,2.99,1.86,2.17,2.67,5.17,2.22,8.26l-.91,7.59c-.8,6.74-4.53,29.34-18.81,37.21-3.38,1.86-8.47,3.73-22.64,4.78l-15.2.97,1.54,5.19c.53,1.82.26,3.78-.74,5.4l-11.05,17.66c.25.44.44.92.58,1.43l24.07,85.4c.72,2.54-.14,5.25-2.17,6.92l-80.48,65.25-80.48-65.25h0Z"/>
  <path class="st2" d="M40.11,157.92s-9.74-44.07-2.51-70.16c-1.93,2.08-3.89,4.23-5.69,6.57-17.66,22.79,8.2,63.59,8.2,63.59M304.72,157.92s25.87-40.79,8.21-63.59c-1.82-2.34-3.78-4.48-5.71-6.57,7.25,26.08-2.51,70.16-2.51,70.16M8.63,89.8C19.51,35.34,64.37,19.23,64.37,19.23c-16.43,12.1-33.19,34.87-40.11,66.83,6.74-8.35,12.99-14.61,20.34-19.61C62.79,27.37,93.83,11.51,109.05,6.64c-19.75,11.91-36.27,29.64-46.31,50.06,22.84-8.13,36.63-7.38,36.63-7.38,0,0-20.43,4.95-42.74,21.46-4.37,12.58-6.77,26.1-6.77,40.15,0,24.75,7.99,50.12,21.76,69.58,7.74,10.94,15.24,18.51,24.55,25.39-3.09-7.74-14.81-67.46,41.81-90.12l-.4.23c-13.38,8.65-23.23,22.1-27.23,37.95,10.34-9.88,21.24-10.9,26.99-11.59-.1.06-.19.12-.27.17-52.56,30.25-10.77,71.2-10.77,71.2,16.57-13.85,26.23-44.87,28.31-53.36.21,32.79-10.72,52.41-18.16,62,16.94,11.61,35.95,10.83,35.95,10.83h.04s19.01.78,35.95-10.83c-7.43-9.59-18.35-29.21-18.16-62,2.07,8.49,11.75,39.51,28.31,53.36,0,0,41.81-40.95-10.76-71.2-.1-.05-.19-.11-.27-.17,5.73.69,16.64,1.71,26.97,11.59-4-15.84-13.86-29.3-27.23-37.95l-.4-.23c56.61,22.66,44.89,82.38,41.81,90.12,9.32-6.89,16.81-14.45,24.55-25.39,13.78-19.45,21.77-44.82,21.77-69.58,0-14.06-2.4-27.57-6.78-40.15-22.32-16.51-42.73-21.46-42.73-21.46,0,0,13.78-.75,36.62,7.38-10.04-20.42-26.55-38.15-46.31-50.06,15.23,4.87,46.26,20.72,64.46,59.81,7.35,5,13.61,11.26,20.35,19.61-6.93-31.96-23.7-54.73-40.13-66.83,0,0,44.87,16.1,55.74,70.56,12.67,63.39-38.08,102.98-79.01,136.89l31.25-12.7c2.11-.9,3.58,1.13,3.19,3.57l-.91,7.69c-.51,4.24-3.62,25.69-15.43,32.18-2.56,1.42-6.95,3.02-19.91,3.98l-23.45,1.5,3.9,13.16-23.02,36.78,11.78-12.39,24.07,85.41-66.04,54.2,20.6-93.24-30.8,37.38-30.81-37.38,20.6,93.24-66.04-54.2,24.07-85.41,11.79,12.39-23.02-36.78,3.89-13.16-23.45-1.5c-12.96-.96-17.35-2.56-19.91-3.98-11.81-6.49-14.92-27.94-15.43-32.18l-.91-7.69c-.4-2.44,1.07-4.47,3.19-3.57l31.25,12.7C46.72,192.77-4.03,153.19,8.63,89.8"/>
  <path class="st3" d="M64.37,225.1s2.27,19.12,10.32,23.56c5.42,2.98,18.69,2.7,30.27,3.59-12.83-4.97-31.73-18.51-40.6-27.14h0ZM135.43,265.52c7.01,5.4,12.96,2.39,16.14-.73,1.05-1.01.73-2.76-.59-3.36-3.35-1.53-9.67-4.42-15.96-7.31-1.26-.57-2.7.21-2.93,1.58-.44,2.71-.38,6.95,3.33,9.82ZM148.17,302.64l-3.78,16.61,9.29,12.51h9.86l-9.13-13.41,1.45-8.27c4.14,4.41,10.03,7.17,16.56,7.2,6.55-.02,12.42-2.78,16.57-7.2l1.45,8.27-9.14,13.41h9.87l9.29-12.51-3.78-16.61c-8.87-5.66-10.92-13.68-10.92-13.68l-6.19-20.21-7.15,3.46-7.15-3.46-6.18,20.21s-2.05,8.02-10.92,13.68h0ZM193.26,264.8c3.19,3.12,9.14,6.12,16.14.73,3.72-2.87,3.79-7.11,3.35-9.82-.23-1.37-1.68-2.14-2.94-1.58-6.29,2.88-12.6,5.78-15.94,7.31-1.32.6-1.64,2.35-.61,3.36h0ZM185.8,339.45h-26.78l6.43,8.71h13.92l6.42-8.71ZM239.87,252.24c11.58-.89,24.85-.6,30.27-3.59,8.04-4.44,10.33-23.56,10.33-23.56-8.88,8.64-27.78,22.18-40.6,27.14Z"/>
  <path class="st0" d="M-76.92-23.72h500v500H-76.92V-23.72Z"/>
</svg>