<?xml version="1.0" encoding="UTF-8"?>
<svg id="Ebene_1" xmlns="http://www.w3.org/2000/svg" version="1.1" viewBox="0 0 373.08 373.08">
  <!-- Generator: Adobe Illustrator 29.7.1, SVG Export Plug-In . SVG Version: 2.1.1 Build 8)  -->
  <defs>
    <style>
      .st0 {
        fill: none;
      }

      .st1 {
        stroke: #fff;
        stroke-width: 3.85px;
      }

      .st1, .st2 {
        fill: #c4cdd3;
      }

      .st3 {
        fill: #002a5b;
      }

      .st4 {
        fill: #004f83;
      }

      .st5 {
        fill: #fefefe;
      }

      .st6 {
        fill: #7ac142;
      }
    </style>
  </defs>
  <path class="st0" d="M-63.46-63.46h500v500H-63.46V-63.46Z"/>
  <g>
    <path class="st1" d="M186.54,371.15c-78.52,0-148.6-49.86-174.4-124.08C-21.23,150.93,29.84,45.55,125.99,12.18c19.61-6.81,39.98-10.26,60.55-10.26,78.53,0,148.62,49.86,174.4,124.07l.88,2.51-.02.03c31.63,95.45-19.37,199.28-114.67,232.36-19.62,6.81-40,10.26-60.57,10.26"/>
    <path class="st3" d="M339.58,231.15c-4.04,13.88-9.83,26.78-17.02,38.56-8.45-30.57-27.93-62.15-53.01-90.99,2.26-3.85,4.85-7.72,7.81-11.86,6.84-7.43,10.07-.54,10.07-.54,5.49-14.9,2-22.4-.66-25.6-1-1.47-2.2-2-2.2-2-2.3-10.48-11.8-15.98-11.8-15.98,0,0,3.27-14.72,1.69-29.96,51.35,21.45,66.52,60.24,70.93,80.6,1.58,18.93-.18,38.45-5.81,57.77M271.12,321.6c-1.15-18.59-4.24-33.61-4.24-33.61,1.67.68,5.85,3.68,5.85,3.68-.8-34.77-15.42-47.02-15.02-65.98.33-15.88,2.5-26.93,6.69-36.85,25.37,29.88,44.33,62.27,50.41,92.37-12,16.26-26.9,29.87-43.7,40.39M30.4,154.66c10.8-14.63,38.62-47.35,69.31-44.08-2.43,4.38-4.47,8.14-5.68,10.55-8.05,12.44-15.6,27.37-21.21,45.03-5.84,18.39-8.88,37.53-9.21,57.31-6.54,5.38-13.28,10.38-20.19,14.75,0,0,12.29,10.97,24.52,15.28,0,0-8.4,13.21-13.77,21.83-23.07-34.45-32.62-77.63-23.77-120.68M68.45,79.47c3.52-.24,8.53-.43,14.52-.26,14.57,1.31,19.84,5.32,28.3,10.87-2.1,3.68-4.19,7.37-6.28,11.06-27.07-5.3-51.44,12.59-67.65,29.4,7.24-19.32,17.89-36.52,31.1-51.07M140.43,34.01c-.77,4.88-.87,11.05,1.51,17.12,1.5,3.82,3.82,7.14,6.87,9.96-7,2.97-13.3,5.74-18.49,8.07-12.28-.5-33.76-1.12-48.85-.22-.82-.01-1.68-.05-2.45-.05,17.61-16.05,38.64-27.97,61.41-34.88M151.54,31.07c18.68-4.22,38.31-5.13,58.04-2.23,7.17,1.05,14.35,2.62,21.51,4.7.27.08.53.17.8.25-10.06,1.55-23.01,4.48-37.58,9.8-11.53,3.86-23.51,8.45-34.52,12.93-4.02-2.34-6.87-5.35-8.34-9.06-2.44-6.15-.98-12.92.09-16.4M191.91,109.99c-5.43-3.67-10.87-7.17-16.31-10.45-4.08-4.59-12.31-13.19-16.62-17.68,2.12-3.36,4.95-7.37,8.38-11.16,16.82,5.8,30.78,6.88,39.55,7.48,1.71.12,3.23.22,4.55.35l1.27.11c2.32.2,4.55.45,6.79.69-8.43,8.83-17.3,18.31-27.62,30.66M139.84,143.81c-14.13,14.18-37.45,44.75-65.48,70.34,2.44-37.72,15.18-69.49,32.7-94.13,1.85-1.82,4.04-3.62,6.47-5.37,10.93,5.51,19.5,16.02,26.32,29.17M147.59,136.96c-6.51-11.94-14.5-21.94-24.46-28.48,4.6-2.66,9.38-5.09,13.75-7.17,6.25.85,24.48,3.5,32.12,6.25,5.45,3.26,10.9,6.77,16.35,10.46-1.39,1.72-2.8,3.48-4.24,5.32,0,0-16.16.2-33.5,13.62M253.75,42.22v-.19c36.31,16.83,63.95,46.27,79.13,81.38-16.62-20.65-39.12-33.61-60.59-41.75-2.6-8.52-7.5-16.05-16.36-19.75-1.73-3.95-4.15-6.72-8.89-8.5-5.22,1.16-13.74,7.22-19.02,16.82-5.73-.88-10.66-1.42-14.45-1.74l-1.15-.1c-1.4-.13-3.02-.24-4.83-.37-7.7-.53-18.43-1.3-31.43-5.1.71-.48,1.42-.94,2.15-1.37,41.47-20.11,74.98-19.34,75.42-19.33M338.6,103.11c-22.3-40.62-59.08-70.12-103.57-83.07-7.67-2.23-15.53-3.95-23.38-5.1h-.02C126.48,2.38,44.08,55.33,19.99,138.09c-12.95,44.49-7.81,91.35,14.49,131.97,22.3,40.62,59.08,70.12,103.57,83.07,7.67,2.23,15.54,3.95,23.4,5.11,17.41,2.57,34.68,2.35,51.39-.25.21.1.41.22.62.32l.2-.44c64.66-10.4,120.35-57.22,139.45-122.79,12.95-44.48,7.81-91.35-14.49-131.97"/>
    <path class="st4" d="M159.79,56.52c11.02-4.49,22.98-9.07,34.52-12.93,14.57-5.32,27.52-8.25,37.58-9.8-.27-.08-.53-.18-.79-.25-7.17-2.08-14.34-3.65-21.52-4.7-19.73-2.91-39.36-2-58.04,2.23-1.08,3.47-2.54,10.24-.1,16.4,1.47,3.72,4.33,6.72,8.34,9.06M72.82,166.16c5.62-17.66,13.17-32.58,21.21-45.03,1.22-2.41,3.26-6.18,5.68-10.55-30.69-3.28-58.51,29.44-69.3,44.08-8.85,43.05.7,86.22,23.77,120.68,5.36-8.62,13.77-21.83,13.77-21.83-12.23-4.32-24.52-15.28-24.52-15.28,6.9-4.37,13.65-9.37,20.18-14.76.33-19.78,3.37-38.92,9.21-57.31M79.02,68.89c.77,0,1.63.03,2.44.05,15.1-.9,36.58-.28,48.85.22,5.19-2.33,11.49-5.1,18.49-8.07-3.05-2.83-5.37-6.14-6.87-9.97-2.38-6.07-2.28-12.23-1.51-17.12-22.78,6.91-43.8,18.82-61.41,34.88M271.12,321.6c16.8-10.51,31.7-24.13,43.7-40.39-6.08-30.11-25.03-62.49-50.4-92.37-4.2,9.93-6.37,20.97-6.7,36.85-.4,18.97,14.22,31.22,15.01,65.99,0,0-4.18-3.01-5.86-3.68,0,0,3.1,15.02,4.25,33.61M136.87,101.31c-4.36,2.08-9.14,4.51-13.75,7.18,9.96,6.53,17.95,16.54,24.46,28.48,17.35-13.43,33.51-13.62,33.51-13.62,1.45-1.84,2.85-3.6,4.24-5.33-5.43-3.68-10.9-7.19-16.34-10.45-7.64-2.74-25.87-5.4-32.12-6.25M219.53,79.34c-2.24-.25-4.47-.5-6.79-.69l-1.27-.11c-1.32-.13-2.84-.23-4.55-.35-8.78-.6-22.73-1.68-39.55-7.48-3.43,3.78-6.25,7.8-8.38,11.16,4.31,4.48,12.53,13.09,16.62,17.68,5.44,3.27,10.88,6.77,16.3,10.45,10.33-12.35,19.2-21.83,27.62-30.66"/>
    <path class="st4" d="M37.35,130.53c16.2-16.81,40.57-34.7,67.65-29.4,2.14-3.8,4.3-7.6,6.28-11.06-8.46-5.55-13.73-9.56-28.3-10.87-5.99-.17-11,.03-14.52.27-13.21,14.54-23.87,31.74-31.1,51.06M339.58,231.15c5.63-19.32,7.38-38.85,5.81-57.77-4.41-20.36-19.58-59.15-70.93-80.6,1.58,15.24-1.69,29.96-1.69,29.96,0,0,9.5,5.5,11.8,15.98,0,0,1.2.53,2.2,2,2.66,3.21,6.15,10.71.66,25.6,0,0-3.22-6.89-10.07.54-2.96,4.13-5.55,8.01-7.81,11.86,25.07,28.85,44.56,60.42,53.01,90.99,7.19-11.78,12.98-24.67,17.02-38.56"/>
    <path class="st4" d="M247.05,53.42c4.74,1.78,7.16,4.54,8.9,8.5,8.85,3.71,13.76,11.23,16.35,19.76,21.47,8.13,43.97,21.09,60.59,41.74-15.18-35.1-42.83-64.55-79.13-81.38v.19c-.45-.02-33.96-.78-75.43,19.33-.73.43-1.45.88-2.15,1.37,12.99,3.8,23.72,4.58,31.43,5.1,1.82.13,3.43.23,4.83.37l1.15.1c3.78.32,8.71.86,14.45,1.74,5.28-9.59,13.79-15.65,19.02-16.82M139.84,143.8c-6.82-13.14-15.38-23.65-26.32-29.17-2.42,1.76-4.62,3.56-6.47,5.37-17.52,24.65-30.25,56.42-32.7,94.14,28.04-25.59,51.36-56.16,65.49-70.34"/>
    <path class="st6" d="M155.48,67l-11.02,15.99s8.33,5.79,15.18,13.62c-11.99-2.45-25.15-4.67-25.15-4.67l-20.87,11.35,9.78-16.23s-6.58-5.62-14.17-10.52c8.32.24,24.14,1.55,24.14,1.55l22.1-11.1h0ZM176.09,137.72s-2.33,6.46-2.64,12.46c0,0-14.63,2.16-21.67,6.95,0,0,14.61-14.56,24.32-19.41"/>
    <path class="st5" d="M274.66,137.07c1.63-.4,2.84-.46,3.75-.4-.27-.75-.78-1.87-1.68-2.97-1.29-1.57-3.17-2.74-3.17-2.74,1.21,1.87,1.25,4.45,1.11,6.1M261.46,143.73c1.89-1.3,3.61-2.38,5.18-3.25-.28-.68-.73-1.65-1.39-2.83-1.25-2.25-4.52-4.2-4.52-4.2,1.35,4,1.06,8.05.73,10.29"/>
    <path class="st2" d="M104.52,242.49c-12.44,5.08-41.87-1.85-41.87-1.85,29.73-1.71,58.82-23.02,58.82-23.02-.02.05-.05.1-.07.15-8.72,13.37-20.73,21.11-20.73,21.11,1.32,1.69,2.66,2.82,3.85,3.6"/>
    <path class="st6" d="M252.78,65.07s-7.31-5.73-15.61,3.16c8.89-16.2,14.02-6.91,15.61-3.16"/>
    <path class="st2" d="M281.65,143.64s-.77-.52-.93-.61c-4.64-2.47-12.95,4.74-18.38,7.73-5.42,2.99-13.33,9.35-17.19.58-3.86-8.77,5.02-22.48,8.09-31.12,6.78-19.08,7.03-30.32,5.6-36.39,6.27,7.08,8.24,20.65,8.24,20.65,0,0,2.33-25.49-10.13-32.21.29.9-.04,4.08-.29,6.58,0,0-.02-.03-.04-.05-5.81,1.06-18.61-.39-22.77-2.57-15.74,16.88-32.9,40.38-45.82,61.96-5.6,11.41-11.09,24.8-12.46,35.68,0,0-1.78-4.92-2.21-11.48-7.15,2.76-31.45,14.7-36.64,51.32,0,0,15.44-15.93,32.52-22.14,0,0-10.81,28.32,9.83,78.51,0,0,8.35-30.78,25.83-38.54,10.58,52.55,41.6,53.42,50.65,89.17,0,0,9.48-18.52-1.93-50.01,0,0,3.93,1.1,7.27,5.03,0,0-.52-9.21-9.13-29.08-5.61-10.63-7.37-24.99-7.37-24.99-5.04,4.57-6.33,19.98-6.33,19.98-15.4-41.78,28.31-83.19,36.29-89.29,3.89-2.99,6.29-3.04,7.75-2.32,1.5-3.11,1.37-5.1-.44-6.4"/>
  </g>
</svg>