<?xml version="1.0" encoding="UTF-8"?>
<svg id="Ebene_1" xmlns="http://www.w3.org/2000/svg" xmlns:xlink="http://www.w3.org/1999/xlink" version="1.1" viewBox="0 0 499.24 198.11">
  <!-- Generator: Adobe Illustrator 29.7.1, SVG Export Plug-In . SVG Version: 2.1.1 Build 8)  -->
  <defs>
    <style>
      .st0 {
        fill: none;
      }

      .st1 {
        mask: url(#mask);
      }

      .st2 {
        fill: #fff;
        fill-rule: evenodd;
      }

      .st3 {
        fill: #e21836;
      }

      .st4 {
        fill: #002a5b;
      }

      .st5 {
        fill: #fefefe;
      }

      .st6 {
        fill: #b49759;
      }
    </style>
    <mask id="mask" x="0" y="0" width="499.24" height="198.11" maskUnits="userSpaceOnUse">
      <g id="b">
        <path id="a" class="st2" d="M0,198.11h499.24V0H0v198.11Z"/>
      </g>
    </mask>
  </defs>
  <g class="st1">
    <path class="st5" d="M492.24,57.86C426.76,19.65,331.59.75,287.26,0c-10.75,0-15.72,5.07-18.01,9.35-.91,1.72-1.53,3.52-1.85,5.39-2.45-1.53-4.46-2.55-4.58-2.62l-6.6-3.33.58,3.82c-2.65-1.44-5.15-2.94-5.17-2.95l-1.94-1.18-1.95,1.16s-2.58,1.53-5.27,2.98l.59-3.85-6.62,3.36c-.13.07-2.14,1.08-4.59,2.62-.32-1.86-.95-3.67-1.86-5.39-2.27-4.27-7.24-9.34-18.63-9.34C167.65.75,72.49,19.65,6.94,57.9l-6.94,4.29,1.16,2.97c.26.66,5.86,14.57,19.43,21.15l.84,1.37c.35.56,7.5,11.99,19.26,17.22l.82,1.32c.39.63,8.59,13.63,24.52,19.12l1.78,1.93c.5.54,10.88,11.59,27.54,15.69l-.15.11,4.44,2.97c.51.34,11.13,7.33,27.5,10.74l-2.02,1.8,5.99,2.19c1.46.54,34.9,12.55,65.04,3.33,9.66,20.48,30.71,34.01,53.49,34.01s43.81-13.54,53.47-34.01c30.12,9.22,63.58-2.78,65.04-3.33l5.98-2.19-2.01-1.79c16.36-3.42,26.98-10.41,27.49-10.75l4.44-2.97-.14-.11c16.65-4.1,27.03-15.15,27.54-15.69l1.77-1.92c15.94-5.49,24.14-18.5,24.53-19.13l.82-1.31c11.77-5.23,18.92-16.67,19.27-17.23l.85-1.37c13.57-6.58,19.17-20.49,19.43-21.15l1.16-2.97-7-4.33h0Z"/>
  </g>
  <path class="st6" d="M494.54,63.76l-4.22-2.62C425.38,23.26,331.11,4.55,287.83,3.82h-.57c-7.12,0-12.05,2.46-14.64,7.32-2.19,4.13-1.94,8.26-.87,11.76-.75-.85-1.83-1.76-3.01-2.63-3.51-2.66-7.64-4.75-7.64-4.75,0,0,.54,3.42-.72,3-.59-.18-1.31-.5-2.11-.86-3.51-1.69-8.6-4.74-8.6-4.74,0,0-5.17,3.05-8.67,4.74-.8.37-1.53.68-2.12.86-1.26.42-.71-3-.71-3,0,0-4.13,2.09-7.65,4.75-1.18.87-2.26,1.78-3.01,2.63,1.07-3.5,1.33-7.64-.87-11.76-2.59-4.85-7.52-7.32-14.64-7.32h-.57c-43.28.73-137.56,19.44-202.48,57.33l-4.23,2.62s6.37,16.25,22.11,20.88l-2.14,1.04s8.89,14.44,22.72,17.44l-2.64,1.1s9.75,15.77,28.64,19.1l-2.79,1.35s13.48,14.59,34.16,15.89l-3,2.3s13.7,9.14,33.91,11.44l-3.25,2.89s35.83,13.12,65.83,2.18c8.28,20.84,28.62,34.92,51.37,34.92h.02c22.75,0,43.09-14.08,51.37-34.92,30,10.93,65.83-2.18,65.83-2.18l-3.25-2.89c20.2-2.3,33.91-11.44,33.91-11.44l-3-2.3c20.68-1.3,34.15-15.89,34.15-15.89l-2.78-1.35c18.89-3.33,28.63-19.1,28.63-19.1l-2.64-1.1c13.82-3,22.72-17.44,22.72-17.44l-2.14-1.04c15.74-4.62,22.11-20.88,22.11-20.88"/>
  <path class="st4" d="M487.71,65.63c-63.52-37.04-156.83-55.89-199.95-56.62-5.2-.08-8.73,1.18-10.55,4.57-3,5.65,1.23,11.95,3.04,14.66,3.91,5.83,9.08,14.95,9.08,25.93,0,21.28-17.19,37.02-38.35,37.02-.46,0-.91,0-1.36,0s-.91,0-1.36,0c-21.16,0-38.35-15.74-38.34-37.02,0-10.97,5.17-20.1,9.08-25.93,1.81-2.72,6.05-9.02,3.04-14.66-1.81-3.39-5.34-4.65-10.55-4.57-43.12.73-136.43,19.58-199.95,56.62.05.16,10.18,17.51,30.4,16.03-3.12,1.52-6.23,3.07-9.32,4.68.05.19,9.28,15.38,31.54,13.18-3.71,1.75-7.4,3.54-11.08,5.39.05.21,10.69,15.14,34.14,14.75-5.4,2.74-8.67,4.48-8.65,4.47.02.11,15.5,15.11,40.54,10.99-2.71,1.98-5.43,4.07-8.67,6.33,0,.04,18.39,10.09,40.02,6.97-2.8,2.12-5.59,4.26-8.36,6.41-.05-.28,33.12,9.09,56.72-1.3,20.3-8.96,31.58-30.9,34.16-36.42,4.01.89,7.51,1.4,10.17,1.71,0,.29,4.3.66,6.47.57,2.16.09,6.48-.28,6.47-.57,2.66-.31,6.17-.82,10.17-1.71,2.57,5.52,13.86,27.47,34.16,36.42,23.6,10.4,56.76,1.02,56.72,1.3-2.77-2.16-5.56-4.29-8.36-6.41,21.63,3.13,40.01-6.93,40.01-6.97-3.22-2.26-5.95-4.36-8.66-6.33,25.04,4.13,40.52-10.87,40.54-10.99.02,0-3.25-1.73-8.65-4.47,23.46.39,34.1-14.54,34.14-14.75-3.67-1.85-7.37-3.64-11.07-5.39,22.26,2.2,31.48-12.99,31.53-13.18-3.09-1.6-6.19-3.16-9.31-4.68,20.22,1.48,30.35-15.87,30.4-16.03"/>
  <path class="st5" d="M231.35,105.9s-56.76-19.02-32.1-79.54c0,0-60.01,2.49-142.27,35.72,0,0-5.77,2.4-9.13,3.61-3.37,1.21-8.78,3.36-16.54-.37,0,0,75.24-39.38,171.9-48.51,12.74-1.21,14.43.72,11.06,5.54-2.76,3.94-37.28,47.91,17.08,83.55"/>
  <path class="st6" d="M180.92,43.5c-48.64,6.33-96.2,23.29-96.2,23.29,8.1,14.42,30.07,8.37,30.07,8.37,41.21-11.68,59.6-15.64,65.5-16.79-.23-4.59-.04-9.55.64-14.88M181.28,67.21c-8.12,1.57-42.18,8.57-76.52,21.45,0,0,10.83,12.35,32.31,6.24,18.07-5.13,41.24-12.53,48.15-14.75-1.73-3.9-3.08-8.21-3.94-12.95M188.83,86.98c-7.34,2.37-44.04,14.28-59.53,20.23,0,0,8.89,11.93,34.55,1.82,17.87-7.04,27.72-11.15,32.06-13.02-2.58-2.68-4.98-5.68-7.08-9.03M201.57,101.21c-6.41,2.78-30.23,13.2-44,19.84,0,0,17.33,8.53,39.13-4.96l13.56-8.9c-2.95-1.72-5.88-3.71-8.7-5.98M216.86,110.65c-4.36,2.72-22.42,14.1-31.24,20.62,0,0,14.97,6.2,30.32-8.29,5-4.71,7.73-7.38,9.23-8.9-2.64-.95-5.44-2.08-8.31-3.43"/>
  <path class="st5" d="M267.9,105.9s56.76-19.02,32.1-79.54c0,0,60.01,2.49,142.27,35.72,0,0,5.77,2.4,9.14,3.61,3.37,1.21,8.78,3.36,16.53-.37,0,0-75.24-39.38-171.9-48.51-12.75-1.21-14.43.72-11.07,5.54,2.77,3.94,37.28,47.91-17.07,83.55"/>
  <path class="st6" d="M318.33,43.5c48.64,6.33,96.2,23.29,96.2,23.29-8.09,14.42-30.07,8.37-30.07,8.37-41.21-11.68-59.59-15.64-65.49-16.79.23-4.59.03-9.55-.65-14.88M317.97,67.21c8.12,1.57,42.17,8.57,76.52,21.45,0,0-10.84,12.35-32.31,6.24-18.07-5.13-41.24-12.53-48.15-14.75,1.72-3.9,3.07-8.21,3.94-12.95M310.42,86.98c7.33,2.37,44.04,14.28,59.52,20.23,0,0-8.88,11.93-34.54,1.82-17.87-7.04-27.72-11.15-32.06-13.02,2.58-2.68,4.98-5.68,7.08-9.03M297.68,101.21c6.41,2.78,30.23,13.2,44,19.84,0,0-17.33,8.53-39.14-4.96l-13.55-8.9c2.95-1.72,5.88-3.71,8.7-5.98M282.39,110.65c4.36,2.72,22.42,14.1,31.24,20.62,0,0-14.98,6.2-30.34-8.29-4.98-4.71-7.71-7.38-9.21-8.9,2.64-.95,5.44-2.08,8.31-3.43"/>
  <path class="st5" d="M296.1,138.94c0,25.71-20.81,46.55-46.48,46.55s-46.48-20.84-46.48-46.55,20.81-46.54,46.48-46.54,46.48,20.84,46.48,46.54"/>
  <path class="st6" d="M286.49,148.56c0,20.4-16.51,36.92-36.86,36.92s-36.86-16.52-36.86-36.92,16.5-36.9,36.86-36.9,36.86,16.53,36.86,36.9"/>
  <path class="st4" d="M274.09,174.16c-1.87-1.46-4.52-4.06-4.99-7.26-.05-.28-.07-.56-.11-.85,9.45-3.97,17.43-10.8,22.83-19.56-2.03,11.42-8.58,21.29-17.73,27.68h0ZM207.43,146.44c5.4,8.78,13.38,15.63,22.84,19.6-.04.29-.06.57-.11.86-.48,3.21-3.12,5.8-4.99,7.26-9.16-6.39-15.71-16.27-17.74-27.72ZM217.3,110.79c-1.91,10.6,2.48,20.58,6.5,29.72,2.8,6.36,5.48,12.47,6.34,18.65-11.07-5.53-19.47-15.66-22.6-28.34,1.46-7.57,4.9-14.44,9.76-20.02h0ZM262.66,161.68c-3.19,1.02-6.52,1.69-9.94,1.95v-67.48c6.87.5,13.3,2.61,18.9,5.97,8.51,12.3,3.71,23.28-1.84,35.89-3.33,7.57-6.74,15.35-7.12,23.67ZM252.72,169.82c3.55-.21,7-.79,10.31-1.69.69,3.99,3.16,7.16,5.44,9.34-4.82,2.38-10.14,3.87-15.75,4.27v-11.92h0ZM236.23,168.13c3.32.91,6.76,1.48,10.3,1.69v11.92c-5.61-.4-10.93-1.89-15.75-4.27,2.29-2.17,4.76-5.35,5.45-9.34h0ZM227.64,102.12c5.59-3.36,12.03-5.48,18.89-5.97v67.48c-3.42-.24-6.74-.89-9.92-1.87-.35-8.35-3.78-16.14-7.13-23.74-5.56-12.61-10.35-23.59-1.84-35.89ZM291.72,130.85c-3.09,12.42-11.59,22.56-22.59,28.16.88-6.13,3.54-12.19,6.32-18.5,4.02-9.14,8.41-19.13,6.49-29.72,4.88,5.6,8.32,12.47,9.78,20.06h0ZM249.62,88.77c-27.62,0-50.09,22.51-50.09,50.17s22.48,50.16,50.09,50.16,50.1-22.5,50.1-50.16-22.48-50.17-50.1-50.17h0Z"/>
  <path class="st4" d="M264.51,23.66s-.37,1.58-1.33,1.58-6.97-2.89-9.86-4.46c-1.23-.66-2.96-1.67-3.57-2.02,0,0-2.58,1.36-3.81,2.02-2.89,1.57-8.89,4.46-9.86,4.46s-1.33-1.58-1.33-1.58c0,0-15.78,9.54-15.78,35.89,0,19.62,10.2,28.52,10.2,28.52l1.39,5.55h38.16l1.39-5.55s10.2-8.9,10.2-28.52c0-26.35-15.78-35.89-15.78-35.89"/>
  <path class="st5" d="M272.03,52.89c0-8.14-3.31-14.78-6.87-18.73,0,0-.12,2.33-4.01-.27-3.35-2.31-7.3-3.66-11.54-3.66s-8.22,1.36-11.58,3.68c-3.75,2.56-3.93.25-3.93.25-3.56,3.95-6.87,10.59-6.87,18.73,0,6.77,1.65,10.09,2.23,11.05,3.35,8.61,11.1,14.66,20.15,14.66s16.61-5.91,20.03-14.39c.2-.27,2.39-3.52,2.39-11.31"/>
  <path class="st4" d="M258.05,71.29s-.06-.09-.08-.14c0,0-2.22-4.17,1.43-7.05,0,0,8.26,1.72,8.46-9.24,0,0-.2-1.17.96-3.46,0,0-2.12-1.93-6.73,1.54-4.62,3.45-7.11,13.27-9.61,10.96-2.47-2.29-1.56-15.07-2.85-15.56h-.05c-1.27.5-.37,13.27-2.84,15.56-2.49,2.3-5-7.52-9.61-10.96-4.62-3.47-6.72-1.54-6.72-1.54,1.15,2.3.95,3.46.95,3.46.2,10.96,8.46,9.24,8.46,9.24,3.66,2.88,1.45,7.07,1.45,7.07-.02.05-.05.09-.08.13-9.86-10.61-15.59-9.16-12.77,2.72,2.78,11.67,13.45,61.77,15.14,73.39-.23,10.45-1.44,14.18-1.75,14.98l-1.08,2.16,1.19,2.37c1.88,2.74,3.18,5.8,3.64,6.97l4.07,10.35,4.03-10.32c.48-1.19,1.78-4.25,3.65-6.99l1.24-2.26-1.12-2.27c-.32-.79-1.49-4.38-1.76-14.46,1.4-10.41,12.31-62.05,15.14-73.92,2.82-11.88-2.9-13.32-12.77-2.72"/>
  <path class="st3" d="M242.94,123.52c-3.54-18.64-6.33-32.43-8.59-42.44-1.71-7.64,2.87-4.59,5.34.19l3.25,42.25ZM256.31,123.52c3.54-18.64,6.33-32.43,8.59-42.44,1.71-7.64-2.87-4.59-5.34.19l-3.25,42.25h0ZM237.34,60.38c-.69-.19-1.11-.92-.91-1.63.08-.27.24-.48.45-.66-.46-.52-1.01-1.05-1.66-1.51,0,0-1.15,5.39,3.66,4.81,0,0-.17-.48-.53-1.17-.3.18-.66.24-1.01.15M264.02,56.59c-.66.47-1.2.99-1.66,1.51.21.18.38.39.46.66.19.7-.23,1.43-.92,1.62-.36.09-.72.04-1.01-.14-.36.67-.53,1.16-.53,1.16,4.81.58,3.65-4.81,3.65-4.81M251.88,130.44c1.52-28.79,3.82-49.2,3.82-51.74,0-.9-.1-2.08-.48-3.36l-1.67,5.48-.52-9.68c-.84-1.08-1.98-2.17-3.43-3.2h-.09c-1.44,1.04-2.45,2.12-3.3,3.2l-.5,9.68-1.68-5.49c-.37,1.29-.48,2.46-.48,3.36,0,2.55,2.29,22.95,3.81,51.74,1.53,28.8-2.04,34.16-2.04,34.16,2.07,2.99,4.3,8.32,4.3,8.32,0,0,2.23-5.33,4.3-8.32,0,0-3.57-5.36-2.04-34.16"/>
  <path class="st4" d="M487.71,65.63c-63.52-37.04-156.83-55.89-199.95-56.62-5.2-.08-8.73,1.18-10.55,4.57-3,5.65,1.23,11.95,3.04,14.66,3.91,5.83,9.08,14.95,9.08,25.93,0,21.28-17.19,37.02-38.35,37.02-.46,0-.91,0-1.36,0s-.91,0-1.36,0c-21.16,0-38.35-15.74-38.34-37.02,0-10.97,5.17-20.1,9.08-25.93,1.81-2.72,6.05-9.02,3.04-14.66-1.81-3.39-5.34-4.65-10.55-4.57-43.12.73-136.43,19.58-199.95,56.62.05.16,10.18,17.51,30.4,16.03-3.12,1.52-6.23,3.07-9.32,4.68.05.19,9.28,15.38,31.54,13.18-3.71,1.75-7.4,3.54-11.08,5.39.05.21,10.69,15.14,34.14,14.75-5.4,2.74-8.67,4.48-8.65,4.47.02.11,15.5,15.11,40.54,10.99-2.71,1.98-5.43,4.07-8.67,6.33,0,.04,18.39,10.09,40.02,6.97-2.8,2.12-5.59,4.26-8.36,6.41-.05-.28,33.12,9.09,56.72-1.3,20.3-8.96,31.58-30.9,34.16-36.42,4.01.89,7.51,1.4,10.17,1.71,0,.29,4.3.66,6.47.57,2.16.09,6.48-.28,6.47-.57,2.66-.31,6.17-.82,10.17-1.71,2.57,5.52,13.86,27.47,34.16,36.42,23.6,10.4,56.76,1.02,56.72,1.3-2.77-2.16-5.56-4.29-8.36-6.41,21.63,3.13,40.01-6.93,40.01-6.97-3.22-2.26-5.95-4.36-8.66-6.33,25.04,4.13,40.52-10.87,40.54-10.99.02,0-3.25-1.73-8.65-4.47,23.46.39,34.1-14.54,34.14-14.75-3.67-1.85-7.37-3.64-11.07-5.39,22.26,2.2,31.48-12.99,31.53-13.18-3.09-1.6-6.19-3.16-9.31-4.68,20.22,1.48,30.35-15.87,30.4-16.03"/>
  <path class="st5" d="M231.35,105.9s-56.76-19.02-32.1-79.54c0,0-60.01,2.49-142.27,35.72,0,0-5.77,2.4-9.13,3.61-3.37,1.21-8.78,3.36-16.54-.37,0,0,75.24-39.38,171.9-48.51,12.74-1.21,14.43.72,11.06,5.54-2.76,3.94-37.28,47.91,17.08,83.55"/>
  <path class="st6" d="M180.92,43.5c-48.64,6.33-96.2,23.29-96.2,23.29,8.1,14.42,30.07,8.37,30.07,8.37,41.21-11.68,59.6-15.64,65.5-16.79-.23-4.59-.04-9.55.64-14.88M181.28,67.21c-8.12,1.57-42.18,8.57-76.52,21.45,0,0,10.83,12.35,32.31,6.24,18.07-5.13,41.24-12.53,48.15-14.75-1.73-3.9-3.08-8.21-3.94-12.95M188.83,86.98c-7.34,2.37-44.04,14.28-59.53,20.23,0,0,8.89,11.93,34.55,1.82,17.87-7.04,27.72-11.15,32.06-13.02-2.58-2.68-4.98-5.68-7.08-9.03M201.57,101.21c-6.41,2.78-30.23,13.2-44,19.84,0,0,17.33,8.53,39.13-4.96l13.56-8.9c-2.95-1.72-5.88-3.71-8.7-5.98M216.86,110.65c-4.36,2.72-22.42,14.1-31.24,20.62,0,0,14.97,6.2,30.32-8.29,5-4.71,7.73-7.38,9.23-8.9-2.64-.95-5.44-2.08-8.31-3.43"/>
  <path class="st5" d="M267.9,105.9s56.76-19.02,32.1-79.54c0,0,60.01,2.49,142.27,35.72,0,0,5.77,2.4,9.14,3.61,3.37,1.21,8.78,3.36,16.53-.37,0,0-75.24-39.38-171.9-48.51-12.75-1.21-14.43.72-11.07,5.54,2.77,3.94,37.28,47.91-17.07,83.55"/>
  <path class="st6" d="M318.33,43.5c48.64,6.33,96.2,23.29,96.2,23.29-8.09,14.42-30.07,8.37-30.07,8.37-41.21-11.68-59.59-15.64-65.49-16.79.23-4.59.03-9.55-.65-14.88M317.97,67.21c8.12,1.57,42.17,8.57,76.52,21.45,0,0-10.84,12.35-32.31,6.24-18.07-5.13-41.24-12.53-48.15-14.75,1.72-3.9,3.07-8.21,3.94-12.95M310.42,86.98c7.33,2.37,44.04,14.28,59.52,20.23,0,0-8.88,11.93-34.54,1.82-17.87-7.04-27.72-11.15-32.06-13.02,2.58-2.68,4.98-5.68,7.08-9.03M297.68,101.21c6.41,2.78,30.23,13.2,44,19.84,0,0-17.33,8.53-39.14-4.96l-13.55-8.9c2.95-1.72,5.88-3.71,8.7-5.98M282.39,110.65c4.36,2.72,22.42,14.1,31.24,20.62,0,0-14.98,6.2-30.34-8.29-4.98-4.71-7.71-7.38-9.21-8.9,2.64-.95,5.44-2.08,8.31-3.43"/>
  <path class="st5" d="M296.1,138.94c0,25.71-20.81,46.55-46.48,46.55s-46.48-20.84-46.48-46.55,20.81-46.54,46.48-46.54,46.48,20.84,46.48,46.54"/>
  <path class="st6" d="M286.49,148.56c0,20.4-16.51,36.92-36.86,36.92s-36.86-16.52-36.86-36.92,16.5-36.9,36.86-36.9,36.86,16.53,36.86,36.9"/>
  <path class="st4" d="M274.09,174.16c-1.87-1.46-4.52-4.06-4.99-7.26-.05-.28-.07-.56-.11-.85,9.45-3.97,17.43-10.8,22.83-19.56-2.03,11.42-8.58,21.29-17.73,27.68h0ZM207.43,146.44c5.4,8.78,13.38,15.63,22.84,19.6-.04.29-.06.57-.11.86-.48,3.21-3.12,5.8-4.99,7.26-9.16-6.39-15.71-16.27-17.74-27.72ZM217.3,110.79c-1.91,10.6,2.48,20.58,6.5,29.72,2.8,6.36,5.48,12.47,6.34,18.65-11.07-5.53-19.47-15.66-22.6-28.34,1.46-7.57,4.9-14.44,9.76-20.02h0ZM262.66,161.68c-3.19,1.02-6.52,1.69-9.94,1.95v-67.48c6.87.5,13.3,2.61,18.9,5.97,8.51,12.3,3.71,23.28-1.84,35.89-3.33,7.57-6.74,15.35-7.12,23.67ZM252.72,169.82c3.55-.21,7-.79,10.31-1.69.69,3.99,3.16,7.16,5.44,9.34-4.82,2.38-10.14,3.87-15.75,4.27v-11.92h0ZM236.23,168.13c3.32.91,6.76,1.48,10.3,1.69v11.92c-5.61-.4-10.93-1.89-15.75-4.27,2.29-2.17,4.76-5.35,5.45-9.34h0ZM227.64,102.12c5.59-3.36,12.03-5.48,18.89-5.97v67.48c-3.42-.24-6.74-.89-9.92-1.87-.35-8.35-3.78-16.14-7.13-23.74-5.56-12.61-10.35-23.59-1.84-35.89ZM291.72,130.85c-3.09,12.42-11.59,22.56-22.59,28.16.88-6.13,3.54-12.19,6.32-18.5,4.02-9.14,8.41-19.13,6.49-29.72,4.88,5.6,8.32,12.47,9.78,20.06h0ZM249.62,88.77c-27.62,0-50.09,22.51-50.09,50.17s22.48,50.16,50.09,50.16,50.1-22.5,50.1-50.16-22.48-50.17-50.1-50.17h0Z"/>
  <path class="st4" d="M264.51,23.66s-.37,1.58-1.33,1.58-6.97-2.89-9.86-4.46c-1.23-.66-2.96-1.67-3.57-2.02,0,0-2.58,1.36-3.81,2.02-2.89,1.57-8.89,4.46-9.86,4.46s-1.33-1.58-1.33-1.58c0,0-15.78,9.54-15.78,35.89,0,19.62,10.2,28.52,10.2,28.52l1.39,5.55h38.16l1.39-5.55s10.2-8.9,10.2-28.52c0-26.35-15.78-35.89-15.78-35.89"/>
  <path class="st5" d="M272.03,52.89c0-8.14-3.31-14.78-6.87-18.73,0,0-.12,2.33-4.01-.27-3.35-2.31-7.3-3.66-11.54-3.66s-8.22,1.36-11.58,3.68c-3.75,2.56-3.93.25-3.93.25-3.56,3.95-6.87,10.59-6.87,18.73,0,6.77,1.65,10.09,2.23,11.05,3.35,8.61,11.1,14.66,20.15,14.66s16.61-5.91,20.03-14.39c.2-.27,2.39-3.52,2.39-11.31"/>
  <path class="st4" d="M258.05,71.29s-.06-.09-.08-.14c0,0-2.22-4.17,1.43-7.05,0,0,8.26,1.72,8.46-9.24,0,0-.2-1.17.96-3.46,0,0-2.12-1.93-6.73,1.54-4.62,3.45-7.11,13.27-9.61,10.96-2.47-2.29-1.56-15.07-2.85-15.56h-.05c-1.27.5-.37,13.27-2.84,15.56-2.49,2.3-5-7.52-9.61-10.96-4.62-3.47-6.72-1.54-6.72-1.54,1.15,2.3.95,3.46.95,3.46.2,10.96,8.46,9.24,8.46,9.24,3.66,2.88,1.45,7.07,1.45,7.07-.02.05-.05.09-.08.13-9.86-10.61-15.59-9.16-12.77,2.72,2.78,11.67,13.45,61.77,15.14,73.39-.23,10.45-1.44,14.18-1.75,14.98l-1.08,2.16,1.19,2.37c1.88,2.74,3.18,5.8,3.64,6.97l4.07,10.35,4.03-10.32c.48-1.19,1.78-4.25,3.65-6.99l1.24-2.26-1.12-2.27c-.32-.79-1.49-4.38-1.76-14.46,1.4-10.41,12.31-62.05,15.14-73.92,2.82-11.88-2.9-13.32-12.77-2.72"/>
  <path class="st3" d="M242.94,123.52c-3.54-18.64-6.33-32.43-8.59-42.44-1.71-7.64,2.87-4.59,5.34.19l3.25,42.25ZM256.31,123.52c3.54-18.64,6.33-32.43,8.59-42.44,1.71-7.64-2.87-4.59-5.34.19l-3.25,42.25h0ZM237.34,60.38c-.69-.19-1.11-.92-.91-1.63.08-.27.24-.48.45-.66-.46-.52-1.01-1.05-1.66-1.51,0,0-1.15,5.39,3.66,4.81,0,0-.17-.48-.53-1.17-.3.18-.66.24-1.01.15M264.02,56.59c-.66.47-1.2.99-1.66,1.51.21.18.38.39.46.66.19.7-.23,1.43-.92,1.62-.36.09-.72.04-1.01-.14-.36.67-.53,1.16-.53,1.16,4.81.58,3.65-4.81,3.65-4.81M251.88,130.44c1.52-28.79,3.82-49.2,3.82-51.74,0-.9-.1-2.08-.48-3.36l-1.67,5.48-.52-9.68c-.84-1.08-1.98-2.17-3.43-3.2h-.09c-1.44,1.04-2.45,2.12-3.3,3.2l-.5,9.68-1.68-5.49c-.37,1.29-.48,2.46-.48,3.36,0,2.55,2.29,22.95,3.81,51.74,1.53,28.8-2.04,34.16-2.04,34.16,2.07,2.99,4.3,8.32,4.3,8.32,0,0,2.23-5.33,4.3-8.32,0,0-3.57-5.36-2.04-34.16"/>
  <path class="st0" d="M0-150.63h500v500H0V-150.63Z"/>
</svg>