<?xml version="1.0" encoding="UTF-8"?>
<svg id="Ebene_1" xmlns="http://www.w3.org/2000/svg" version="1.1" viewBox="0 0 472.96 383.31">
  <!-- Generator: Adobe Illustrator 29.7.1, SVG Export Plug-In . SVG Version: 2.1.1 Build 8)  -->
  <defs>
    <style>
      .st0 {
        fill: none;
      }

      .st1 {
        fill: #b3b1b1;
      }

      .st2 {
        fill: #f26729;
      }

      .st3 {
        fill: #0f4b90;
      }

      .st4 {
        fill: #fefefe;
      }
    </style>
  </defs>
  <path class="st4" d="M235.69,383.31l-31.34-40.7c-39.88-13.15-67.64-49.17-70.21-91.09l-19.45-25.24c-18.49,7.97-37.01,20.59-37.01,20.59l-58.32-58.51,24.58-53.87L0,77.43h69.93l13.53-29.47,34.63-13.97,3.84-10.43,28.07,12.81,6.67-23.31,4.57-1.52C183.44,4.13,209.01.16,235.2.01c.75-.05,9.07.1,9.27.1.98,0,5.06.22,5.06.22,22.14,1.07,42.96,4.75,61.86,10.96l4.64,1.53,6.13,22.23,10.11-7.63,56.71,20.16,13.69,29.86h70.28l-44.43,57.29,24.21,53.09-59.23,60.97s-21.71-15.84-36.61-21.74l-17.85,23.01c-2.04,42.91-31.24,80.56-72.3,93.19l-31.06,40.06h0Z"/>
  <path class="st1" d="M235.74,355.11L437.8,94.69H35.03s200.71,260.42,200.71,260.42Z"/>
  <path class="st3" d="M437.8,94.69l-202.05,260.42L35.03,94.68h402.76s0,.01,0,.01ZM18.43,86.51l217.29,281.95L454.47,86.52H18.43s0-.01,0-.01Z"/>
  <path class="st3" d="M408.63,112.8l-.07-.17-.16-.1-12.92-8.69,4.81-9.2.14-.28-.13-.29-17.79-38.99-.12-.24-.25-.09-47.96-17.07-.34-.12-.28.21-12.71,9.71-.14.11-.07.16-2.18,5.33s-19.89-4.99-49.09-7.91c-2.98-.3-10.93-.95-23.61-1.95l-1.23-.1-1.28-.09-.3-.03-.21.21-9.48,9.45v-9.7s-26.88,1.52-44.49,3.91c-17.61,2.39-34.92,6.75-34.92,6.75l-3.19-6.82-.1-.21-.22-.11-22.63-10.35-.64-.28-.24.65-2.63,7.17-.6-1.44-.25-.59-.59.24-32.39,12.98-.24.1-.11.24L30.27,186.43l49.05,49.11,2.29-1.31c1.48-.84,3.58-2.07,5.93-3.46,5.93-3.49,14.06-8.28,17.95-10.15l.79-.38c5.02-2.43,7.55-3.65,31.39-13.85l1.99-.75s2.69-1.04,7.59-2.67c13.09-4.34,47.11-14.47,80.09-14.47h.37c1.32,0,2.63.02,3.95.06,22.39.62,48.56,5.37,66.57,9.25,17.34,3.73,30.37,7.33,34.08,8.37l2.5.77c16.4,6.34,36.45,16.79,55.02,28.69l2.36,1.52,49.65-51.12-33.21-73.23h0Z"/>
  <path class="st2" d="M403.29,117.35l-47.72-31.84-8.3-23.29,14.78,5.25,5.97,14.56,22.46,7.2-13.1-28.96-42.4-15.06-7.78,6.02,14.09,45.79,45.38,32.06,11.64,28.98-18.87-8.51-6.48-18.03-23.15-6.82,12.38,40.76c3.82,1.41,7.61,2.86,11.37,4.37,10.3,4.17,20.4,8.79,30.25,13.84,6.83,3.48,13.55,7.2,20.16,11.1l9.87-10.12-30.53-67.3h0ZM81.44,138.94l15.9-14.2,3.8,4.42-15.7,45.14c8.6-3.79,17.34-7.26,26.2-10.38l11.38-37.22-9.82-16.22,20.34-19.32,11.89-39.59-14.6-6.56-13.12,37.32-21.04,18.1,19.18-48.38-20.62,8.22-56.8,124.57,8.89,8.91c5.27-3.07,10.62-6.02,16.03-8.84l18.11-45.98h0ZM225.38,50.11l-17.42.92-8.19,93.44c7.4-.7,14.86-1.18,22.37-1.44l3.24-92.92h0ZM277.07,125.07l-20.23-1.21-3.25-57.22,17.14.83-2.01-15.77-23.04-1.64-10.32,10.28-.02,71.57,10.82,11.07c11.17.34,22.22,1.18,33.14,2.5l-2.24-20.42h0ZM162.46,86.99l7.3,35.53-4.72,26.92c7.07-1.36,14.19-2.53,21.38-3.47h.05s11.26-93.71,11.26-93.71l-16.17,2.36-5.31,30.67-6.01-28.88-19.02,4.76-26.46,98.38c7.65-2.39,15.37-4.53,23.16-6.41l14.54-66.15h0ZM303.03,119.9l5.69-7.69,8.31,6.85,7.65,34.84c8.03,2.02,15.97,4.29,23.8,6.83l-14.27-51.1-14.72-12.03,8.38-11.17-6.96-25.94-17.77-3.95,6.99,26.12-11.07,14.79-8.17-42.95-16.45-2.09s8.25,63,12.15,94.04c7.45,1.06,14.83,2.35,22.14,3.83l-5.7-30.36h0Z"/>
  <path class="st1" d="M202.33,162.21s6.85-4.01,20.57-5.53l-.44-10.79c-7.52.25-14.99.72-22.4,1.42.65,4.22,1.62,10.51,2.28,14.91M245.9,156.03c5.57.65,11.54,2.48,16.78,3.95,4.73,1.14,9.84,3.18,14.01,5.03l2.31-16.62c-11.03-1.36-21.44-2.18-32.72-2.53-.16,3.23-.17,7.78-.38,10.16M173.76,182.37c6.38-4.74,10.22-9.63,16.94-13.72-1.28-6.03-2.98-13.85-4.21-19.82-7.31.97-14.55,2.18-21.72,3.56,2.75,8.95,6.25,20.94,9,29.97M282.26,168.36c6.22,3.6,11.08,7.68,16.64,13.08l1.1.84,8.77-29.01c-7.55-1.57-14.89-2.93-22.6-4.01l-3.91,19.1h0ZM309.94,193.56l20.91,4.92,17.59-34.77c-8.11-2.65-15.93-4.82-24.25-6.91l-14.24,36.75h0ZM141.76,198.48c5.45-2.01,13.07-4.76,20.19-6.66l-13.57-35.88c-8.2,1.99-15.35,4.07-23.34,6.6,5.05,12.02,10.72,24.4,16.73,35.94M110.23,211.39c1.21-1.04,13.07-6.16,21.19-9.6-6.17-11.16-13.59-23.48-19.79-34.85-8.85,3.16-16.91,6.43-25.47,10.23,0,0,24.06,34.21,24.06,34.21ZM80.62,227.09c3.78-2.27,7.78-4.59,12.19-7.14l-27.74-32.71c-5.27,2.74-10.48,5.6-15.61,8.58,0,0,31.16,31.27,31.16,31.27ZM341.91,202.78c16.65,6.46,39.93,19.51,49.19,25.72,4.27-4.08,27.44-28.4,30.62-31.73-19.26-11.29-39.49-20.9-60.55-28.64l-19.27,34.65ZM242.7,155.48l-7.95-.28-.14-19.31,8.27,8.58-.18,11.01Z"/>
  <path class="st3" d="M236.57,151.66c-51.68,0-93.56,41.88-93.57,93.54,0,51.65,41.89,93.53,93.57,93.53s93.57-41.88,93.57-93.53-41.9-93.54-93.57-93.54"/>
  <path class="st2" d="M242.32,158.66c-7.18,2.51-14.09,6.15-20.95,9.33-4.67-2.8-7.35-3.5-10.51-5.54,9.84-3.57,20.43-4.11,31.45-3.78M309.35,198.37c-22.04-22.21-55.11-20.6-83.17-28.46,0,0,16.51-7.86,25.03-10.03,22.92,3.9,45.12,17.62,58.14,38.49M185.42,201.71c-21.18,32.48-24.04,72.5-7.18,107.57-21.79-18.3-34.78-53.74-25-88.15,8.01-11.19,18.32-21.09,32.18-19.42"/>
  <path class="st2" d="M208.09,224.84c11.42,33.93,13.94,71.48,43.5,105.65-23.04,4.67-45.88-2.23-64.07-13.76-22.55-32.89-20.43-81.95,2.12-113.85,10.99,3.17,16.97,17.52,18.46,21.96"/>
  <path class="st2" d="M192.25,199.3c3.43-4.83,7.29-9.4,11.64-13.65,47.93,13.53,93.64,63.21,101.47,112.04-2.29,3.68-7.76,8.83-11.44,12.5-11.92,10.7-25.04,16.24-37.64,19.25-22.38-23.21-29.75-53.35-37.67-83.05-6.06-22.8-10.28-39.99-26.35-46.97l-.02-.12Z"/>
  <path class="st2" d="M304.24,199.08c-23.15-20.42-55.4-17.8-82.46-27.32-5.22,3.21-10.34,6.99-14.7,10.9,47.93,15.03,91.43,61.88,101.79,110.29,7.51-10.85,12.06-23.45,13.88-36.82,1.17-20.53.97-39.21-18.51-57.05M199.93,184.15c-4.62,4.44-8.09,8.82-11.7,13.92l-.11-.03c-12.68-2.84-22.69,3.72-30.73,11.9,3.84-9.69,11.88-21.18,20.39-28.69,7.85.34,13.56.22,22.15,2.9M203.33,181.18c4.53-4.03,8.93-7.56,14.38-10.83l-12.3-6.09c-8.18,3.34-16.94,7.7-22.95,13.2,9.3,1.09,13.27,1.66,20.87,3.72"/>
  <path class="st3" d="M223.31,37l-3.79,3.76-6.48.39-2.42-2.1-3.05,2.59-7.06.66-3.11-2.96,4.08-27.64,5.34-.73-2.89,24.4,3.84-.42,2.98-24.45,5.28-.52-2.21,24.28,3.76-.35,1.93-24.16c2.25-.24,3.41-.22,5.37-.33l-1.58,27.57h0ZM240.65,9.06l.05,17.39,3.41-.02-.21-17.29s3.59.11,5.19.25l.69,19.5-3.29,3.29-1.08.05.16,8.35-5.8-.17-.07-8.36-1.16-.09-3.52-3.58.22-19.4c1.88,0,5.4.09,5.4.09M197.6,12.28l-.91,5.71-6.46,1.22-1.17,6.68c2.37-.43,3.82-.66,6.63-1.04-.39,2.49-.51,3.34-.94,5.69l-6.49.93-1.22,6.39,6.65-.96s-.66,4.3-1,6.22c-4.65.58-9.34,1.25-13.8,2.03,0,0,5-23.18,6.24-30.33l12.47-2.54h0ZM173.24,46.17l-6.74,1.33,3.1-12.64-2.1-4.53-5.29,18.19-6.58,1.5c2.74-9.85,5.54-19.7,8.28-29.54,2.27-.76,3.96-1.28,5.95-1.87.73,1.66,2.51,5,2.51,5l1.6-6.17s4.18-1.1,6.27-1.58l-6.99,30.31ZM259.13,15.75l1.69,18.87,3.35.27-1.78-18.78-3.26-.36ZM268.01,14.41c.67,7.92,1.98,15.5,2.78,22.89l-2.95,4.49-9.53-.63-3.44-3.74c-.61-8.08-1.03-16.23-1.53-24.33.88-1.16,2.22-2.06,3.27-3.19l7.94.77,3.46,3.74ZM298.79,17.24c1.19,4.53,3.51,13.88,3.51,13.88l2.26.46,1.1-1.51-2.83-11.61s2.8.78,5.79,1.69l3,11.24-1.41,2.03,2.62,2.88,3.96,13.7-6.51-1.46-2.56-9.61-4.06-.91,2.22,9.57-6.6-1.3c-2.31-10.3-6.48-30.59-6.48-30.59,0,0,3.36.7,6,1.55M279.32,18.74l1.13,7.87,3.59.4-1.52-7.69-3.2-.58h0ZM288.48,18.34l2.18,11.3-1.26,1.74,2.22,2.65,1.92,11.22-6.34-1.11-1.73-9.35-3.82-.42,1.35,9.12-6.33-.8-4.2-31,12.11,2.14,3.92,4.51h0Z"/>
  <path class="st0" d="M-11.54-58.22h500v500H-11.54V-58.22Z"/>
</svg>