<?xml version="1.0" encoding="UTF-8"?>
<svg id="Ebene_1" xmlns="http://www.w3.org/2000/svg" xmlns:xlink="http://www.w3.org/1999/xlink" version="1.1" viewBox="0 0 499.96 293.24">
  <!-- Generator: Adobe Illustrator 29.7.1, SVG Export Plug-In . SVG Version: 2.1.1 Build 8)  -->
  <defs>
    <style>
      .st0 {
        fill: none;
      }

      .st1 {
        mask: url(#mask);
      }

      .st2 {
        fill: #081e3f;
      }

      .st3 {
        fill: #fff;
        fill-rule: evenodd;
      }

      .st4 {
        fill: #ed2a37;
      }

      .st5 {
        fill: #0070b9;
      }

      .st6 {
        fill: #fefefe;
      }

      .st7 {
        fill: #ef5133;
      }

      .st8 {
        fill: #fcb424;
      }
    </style>
    <mask id="mask" x="0" y="0" width="499.96" height="293.24" maskUnits="userSpaceOnUse">
      <g id="b">
        <path id="a" class="st3" d="M499.96,293.24H0V0h499.96v293.24Z"/>
      </g>
    </mask>
  </defs>
  <g class="st1">
    <path class="st6" d="M268.56,69.64h0s-.01.02-.01.02v-.02ZM284.12,143.82h0s.01-.01.01-.01c-.01,0-.01.01-.01.01ZM499.85,89.51c-.02-.09.01-.19-.01-.28-.06-.24-.21-.43-.29-.65-.12-.32-.23-.64-.4-.94-.17-.26-.37-.47-.58-.7-.23-.24-.42-.49-.69-.7-.28-.2-.58-.33-.89-.48-.26-.12-.51-.27-.79-.35-.35-.09-.71-.1-1.09-.12-.25-.02-.48-.11-.74-.09-30.1,2.42-61.06,7.06-92.15,13.59,1.82-4.89,3.55-9.82,5.18-14.78,29.44-5.33,59.07-10.13,88.12-14.26.23-.03.4-.16.62-.22.31-.08.61-.17.89-.3.3-.16.56-.34.83-.54.25-.19.48-.36.68-.58.23-.25.4-.52.58-.81.16-.26.32-.51.44-.8.12-.31.18-.64.24-.99.04-.23.16-.43.17-.67,0-.09-.04-.19-.04-.28s.04-.19.03-.29c-.01-.26-.13-.49-.19-.74-.06-.31-.11-.62-.23-.91-.13-.31-.33-.58-.52-.86-.17-.26-.31-.51-.53-.73-.23-.25-.52-.43-.8-.62-.25-.18-.47-.36-.75-.49-.33-.16-.68-.22-1.04-.29-.25-.06-.47-.19-.73-.21-25.82-2.02-52.71-2.5-79.98-1.6.74-2.76,1.46-5.56,2.17-8.4.58-2.34-.52-4.77-2.65-5.87C354.8,12.61,307.08,0,250.02,0s-104.79,12.61-164.74,43.56c-2.13,1.1-3.23,3.53-2.66,5.87l3.63,14.65c5.45,21.98,13.05,42.98,22.43,62.78-37.83,16.23-73.6,34.93-106.26,55.76-2.23,1.42-3.04,4.3-1.88,6.68.9,1.82,2.74,2.9,4.65,2.9.59,0,1.19-.1,1.77-.31,31.17-11.36,63.64-22.25,96.5-32.59-6.02,12.76-11.95,25.58-17.65,38.46l-.92,2.06c-3.15,6.94-7.47,16.46-4.4,24.45,1.45,3.78,4.29,6.61,9.2,8.68.6.16,1.19.29,1.79.39-22.96,16.09-44.59,33.1-64.58,50.81-1.98,1.76-2.32,4.73-.8,6.89,1.01,1.42,2.6,2.2,4.24,2.2.88,0,1.74-.22,2.51-.65,45.38-25.19,93.34-49.67,142.57-72.79,20.8,20.2,44.9,38.57,71.94,54.81,1.64.98,3.68.98,5.33,0,63.73-38.31,107-83.92,135.67-143.12,36.2-13.09,72.51-25.24,107.95-36.14.23-.07.39-.23.61-.32.28-.12.54-.25.79-.42.29-.21.53-.45.78-.7.2-.22.39-.42.56-.67.2-.29.32-.59.46-.91.11-.27.24-.54.3-.84.07-.34.07-.69.08-1.04,0-.23.08-.45.05-.68-.01-.09-.07-.18-.08-.27h0Z"/>
  </g>
  <path class="st5" d="M494.79,90.38c-36.07,11.09-72.81,23.39-110.03,36.89,3.32-6.95,6.42-14.12,9.37-21.51M394.12,105.76c34.41-7.67,68.13-12.77,100.67-15.38M30.33,288.04c28.78-25.51,61.22-49.78,96.78-72.12,6.68-3.4,13.38-6.76,20.1-10.1,2.77-1.37,8.19-4.01,15.01-7.29,4.58,5.16,9.33,10.17,14.24,15.06-51.06,23.88-99.91,48.81-146.13,74.46"/>
  <path class="st7" d="M494.79,64.61c-29.9,4.25-60.35,9.19-91.27,14.83,1.71-5.3,3.32-10.71,4.87-16.22"/>
  <path class="st4" d="M408.39,63.21c29.74-1.26,58.64-.77,86.4,1.39"/>
  <path class="st7" d="M5.18,187.01c33.4-21.29,70.4-40.68,110.35-57.52,1.33,2.68,2.7,5.35,4.09,7.98-2.13,4.41-4.28,8.8-6.39,13.23-37.14,11.49-73.19,23.62-108.04,36.32"/>
  <path class="st6" d="M250.01,15.54c56.3,0,100.46,13.21,150.31,38.12-24.38,92.17-69.02,154.08-150.29,204.38-30.54-18.94-56.5-40.06-78.19-64.12,9.65-4.59,20.53-9.77,30.08-14.3,3.87.35,7.58.54,11.03.63-.22,5.31-1.89,9.21-4.56,12,1.55,1.78,3.14,3.56,4.73,5.31,4.22-3.78,6.92-9.35,7.14-17.29,9.89-.16,19.43-1.17,28.29-3.05-.5,14.52-2.52,25.21-6.64,29.45-.15.14-.22.24-.29.38-1.03,1.08-1.95,1.99-2.75,2.69,3.99-.73,7.9-1.65,11.76-2.74,4.97-10.32,5.04-28.39,5.11-31.53,9.23-2.33,17.44-4.67,24.83-7.2.29,8.49,3.67,16.59,10.14,19.59,2.91-2.06,5.73-4.25,8.46-6.52-1.64.25-11.86.96-11.71-15.53,21.63-8.18,35.71-18.03,48.11-32.75,3.27-7.41,5.92-15.18,7.78-23.23-14.82,23.45-28.48,37.14-55.14,47.87.76-4.73,2.12-10.38,4.33-17.16,7.77-3.26,15.89-7.16,20.78-9.18l11.66-12.28c2.93-11.35,5.84-22.7,8.76-34.05l-9.12,2.85,10.72-11.29c2.26-8.88,4.47-17.79,6.67-26.67-5.37.79-10.75,1.59-16.12,2.43.9-4.45,1.54-8.84,1.89-13.24-2.59-.65-5.18-1.29-7.79-1.87-.55,4.94-1.51,10.41-2.97,16.51l-.74.11c-5.04.85-10.2,2.51-14.68,6.31l1.44-4.37c-8.64,1.57-17.25,3.16-25.87,4.83l-8.58,9.04.28-.73,2.78-7.24c-8.52,1.76-17.02,3.55-25.52,5.41-1.77-11.52-3.55-21.94-5.1-30.36-2.41.28-4.83.62-7.22.97,1.55,8.52,3.37,19.19,5.18,30.98l-6.03,1.36-7.66,8.09c-5.37-5.69-16.26-2.1-23.13-.36-7.44,1.88-14.87,3.83-22.3,5.84-2.22.61-4.43,1.29-6.59,2.04-5.57-8.04-10.8-16.34-15.12-25.28l-.78-1.65c-2.25.91-4.48,1.86-6.7,2.85l.95,1.97c4.21,8.74,9.27,16.91,14.74,24.83-8.01,3.57-15.41,8.53-21.82,15.62,0,0-10.41,10.93-11.64,12.27-2.7,3.12-5.04,6.43-7.1,9.81-10.93-22.07-19.61-46.08-26.11-72.4C149.5,28.76,193.68,15.53,250.01,15.54h0ZM255.51,155.06c5.18-2.29,10.36-4.55,15.52-6.83l2.42-2.52c1.02.17,2.19.2,3.5.07,2.02-.34,4.49-1.04,7.16-1.97-1.74,6.37-2.8,11.88-3.27,16.67-7.37,2.61-15.64,5.07-25.04,7.45-.01-4.11-.11-8.42-.3-12.86h0ZM219.66,171.26l4.86-2.27,12.48-10.06,2.78-7.69c1.8,3.66,2.78,5.09,4.57,8.78l4.1-1.81c.15,3.96.21,7.81.21,11.49-9.01,2.07-18.74,3.18-28.78,3.34l-.22-1.79h0Z"/>
  <path class="st7" d="M280.34,34.4c11.9,0,23.64.62,35.21,1.87,8.81,1.85,17.53,4.09,26.19,6.71,3.3,11.59,5.08,23.83,5.08,36.46,0,10.46-1.2,20.62-3.49,30.37-14.82,23.45-28.48,37.15-55.14,47.88.76-4.73,2.13-10.39,4.33-17.16,7.77-3.27,15.89-7.16,20.77-9.19l11.67-12.28c2.93-11.35,5.84-22.7,8.76-34.05l-9.12,2.85,10.73-11.29c2.25-8.88,4.47-17.78,6.66-26.66-5.37.78-10.75,1.58-16.12,2.42.9-4.44,1.54-8.84,1.89-13.24-2.59-.66-5.19-1.28-7.79-1.86-.54,4.93-1.51,10.41-2.97,16.51l-.74.11c-5.05.85-10.2,2.51-14.68,6.3l1.44-4.37c-8.64,1.57-17.25,3.17-25.87,4.83l-8.58,9.04.29-.73,2.77-7.23c-8.51,1.75-17.02,3.55-25.52,5.41-1.77-11.52-3.54-21.94-5.1-30.36,12.9-1.57,26.02-2.35,39.36-2.35h0ZM335.54,133.05c-8.3,18.81-20.84,35.3-36.38,48.29-1.65.25-11.88.96-11.72-15.53,21.64-8.18,35.71-18.03,48.11-32.75h0ZM290.69,187.86c-12.05,8.51-25.54,15.05-40.06,19.14,4.96-10.32,5.03-28.39,5.11-31.52,9.22-2.33,17.43-4.68,24.82-7.2.29,8.48,3.67,16.58,10.14,19.58ZM238.87,209.75c-4.07.76-8.2,1.32-12.37,1.69-4.6-4.49-9.07-9.12-13.39-13.88,4.21-3.78,6.92-9.35,7.14-17.28,9.89-.17,19.43-1.17,28.29-3.07-.5,14.52-2.52,25.21-6.63,29.45-.16.14-.23.25-.29.38-1.05,1.09-1.96,1.99-2.75,2.7ZM208.39,192.25c-3.2-3.68-6.32-7.44-9.36-11.26l2.88-1.37c3.87.36,7.58.55,11.03.63-.21,5.31-1.89,9.22-4.55,12h0ZM151.14,97.65c-4.03-10.26-7.6-20.76-10.64-31.49,3.35-1.59,6.74-3.12,10.13-4.59l.94,1.98c4.21,8.74,9.27,16.9,14.74,24.82-5.37,2.39-10.47,5.41-15.17,9.28h0ZM157.33,58.72c24.83-10.19,50.22-17.22,76.44-21,1.54,8.52,3.36,19.18,5.17,30.98l-6.03,1.35-7.66,8.1c-5.38-5.69-16.27-2.1-23.13-.37-7.44,1.9-14.88,3.83-22.3,5.84-2.22.61-4.43,1.29-6.59,2.04-5.57-8.04-10.8-16.35-15.12-25.28l-.78-1.65h0ZM255.52,155.05c5.17-2.29,10.35-4.55,15.51-6.82l2.42-2.52c1.02.16,2.19.21,3.5.06,2.01-.34,4.48-1.04,7.17-1.96-1.75,6.36-2.8,11.87-3.29,16.66-7.37,2.62-15.64,5.07-25.04,7.46-.01-4.13-.11-8.42-.29-12.87h0ZM219.65,171.25l4.86-2.25,12.48-10.07,2.78-7.69c1.8,3.67,2.79,5.09,4.57,8.79l4.1-1.82c.15,3.97.21,7.82.21,11.51-9.01,2.05-18.74,3.16-28.78,3.31l-.22-1.79h0Z"/>
  <path class="st8" d="M252.44,242.71c-23.93-16.25-45.26-35.38-63.69-56.85l10.28-4.87c3.04,3.82,6.16,7.58,9.36,11.26,1.55,1.79,3.13,3.56,4.72,5.32,13.66,15.04,28.78,28.8,45.26,41.17-1.96,1.34-3.93,2.66-5.92,3.97h0ZM139.7,109.04c-6.99-15.35-12.88-31.31-17.58-47.82,41.72-19.74,84.93-30.39,130.78-31.63,21.44.19,42.28,2.43,62.65,6.68-11.59-1.24-23.33-1.87-35.22-1.87-13.35,0-26.46.79-39.36,2.35-2.41.28-4.82.61-7.21.97-26.23,3.78-51.61,10.81-76.44,21-2.25.92-4.48,1.87-6.71,2.86-3.39,1.47-6.78,2.99-10.12,4.58,3.05,10.73,6.6,21.24,10.64,31.49-2.31,1.89-4.54,4.01-6.64,6.34l-4.8,5.05h0Z"/>
  <path class="st2" d="M87.65,48.18C141.58,20.34,188.88,5.19,250.01,5.19s108.42,15.15,162.33,42.99c-25.05,101.19-72.87,168.2-162.33,221.97-33.76-20.28-63.27-44.05-87.8-71.62-6.82,3.28-12.24,5.91-15.02,7.28-8.45,4.22-16.89,8.46-25.3,12.75-9.48,4.85-20.01,12.19-30.93,9.35-11.94-5.2-4.07-19.77-.42-28.06,9.29-20.98,18.97-41.78,29.08-62.4-12.14-22.84-21.68-47.67-28.36-74.63l-3.62-14.65h0ZM250.01,15.54c-56.34-.01-100.51,13.22-150.38,38.13,6.52,26.3,15.18,50.35,26.13,72.4,2.05-3.38,4.38-6.69,7.1-9.82,1.21-1.33,11.64-12.26,11.64-12.26,6.4-7.1,13.81-12.05,21.81-15.62-5.46-7.93-10.52-16.1-14.74-24.83l-.94-1.97c2.23-.99,4.46-1.93,6.7-2.86l.78,1.66c4.32,8.93,9.54,17.23,15.12,25.28,2.17-.75,4.36-1.42,6.59-2.04,7.42-2.02,14.85-3.96,22.3-5.85,6.86-1.73,17.75-5.32,23.12.37l7.67-8.09,6.02-1.36c-1.8-11.78-3.63-22.45-5.17-30.98,2.39-.34,4.81-.69,7.21-.97,1.55,8.43,3.33,18.84,5.1,30.36,8.51-1.86,17.02-3.66,25.53-5.41l-2.78,7.23-.29.73,8.58-9.04c8.61-1.66,17.23-3.26,25.87-4.83l-1.44,4.38c4.49-3.79,9.65-5.46,14.68-6.31l.75-.11c1.45-6.1,2.42-11.58,2.96-16.51,2.61.58,5.21,1.22,7.8,1.86-.35,4.4-.99,8.8-1.9,13.24,5.38-.83,10.77-1.63,16.12-2.42-2.2,8.88-4.41,17.78-6.66,26.67l-10.73,11.28,9.12-2.85c-2.9,11.36-5.82,22.7-8.75,34.06l-11.67,12.27c-4.88,2.03-13.01,5.92-20.78,9.19-2.2,6.76-3.58,12.43-4.33,17.16,26.66-10.73,40.32-24.43,55.14-47.88-1.87,8.06-4.51,15.84-7.78,23.24-12.39,14.72-26.47,24.57-48.09,32.75-.16,16.49,10.07,15.77,11.71,15.52-2.73,2.28-5.55,4.47-8.47,6.52-6.47-2.98-9.84-11.09-10.14-19.58-7.39,2.54-15.59,4.87-24.82,7.2-.08,3.13-.15,21.21-5.11,31.53-3.88,1.09-7.8,2.01-11.76,2.74.79-.7,1.71-1.61,2.75-2.7.06-.14.13-.24.29-.37,4.11-4.24,6.13-14.93,6.63-29.45-8.86,1.88-18.4,2.89-28.28,3.05-.22,7.93-2.93,13.51-7.14,17.28-1.6-1.72-3.17-3.52-4.73-5.31,2.67-2.78,4.34-6.68,4.55-12-3.45-.08-7.15-.27-11.03-.63-9.55,4.53-20.43,9.73-30.08,14.31,21.69,24.07,47.66,45.18,78.19,64.11,81.28-50.29,125.91-112.21,150.31-204.37-49.86-24.92-94-38.12-150.31-38.12h0ZM255.52,155.05c.19,4.46.28,8.76.29,12.87,9.41-2.39,17.67-4.84,25.04-7.46.49-4.79,1.53-10.3,3.29-16.66-2.68.95-5.15,1.63-7.16,1.96-1.32.13-2.49.09-3.51-.07l-2.41,2.54c-5.17,2.27-10.35,4.53-15.52,6.82ZM219.65,171.26l.22,1.79c10.04-.15,19.77-1.27,28.79-3.34,0-3.68-.06-7.53-.22-11.5l-4.1,1.82c-1.78-3.69-2.77-5.12-4.56-8.78l-2.79,7.69-12.48,10.07-4.86,2.25h0Z"/>
  <path class="st6" d="M180.76,87.86c-12.68,3.46-24,8.89-33.06,18.94-5.2,5.97-8.91,12.82-12.37,19.83-10.14,20.67-19.86,41.51-29.16,62.54-2.43,5.49-9.89,18.83-1.95,22.28,8.79,2.29,19.77-5.11,27.52-9.07,8.43-4.29,16.86-8.55,25.33-12.76,14.41-7.17,27.34-15.87,36.1-29.84,3.49-5.9,6.09-12.23,8.65-18.55,5.5-13.58,11.11-27.16,16.82-40.69,2.15-5.07,5.89-11.46,4.69-17-2.4-7.43-14.92-2.89-20.37-1.53-7.4,1.89-14.81,3.83-22.21,5.85M164.73,165.46c-6.7,3-13.38,6.02-20.06,9.1,9.69-22.53,19.74-44.9,30.24-67.09,5.87-1.87,11.75-3.69,17.67-5.51-9.61,21.03-18.87,42.21-27.85,63.5M279.45,64.59c-9.29,12.17-18.46,24.43-27.51,36.77,4.23-11.29,8.52-22.58,12.84-33.82-9.63,1.97-19.22,4.08-28.81,6.27-2.48,5.82-4.96,11.63-7.41,17.46,2.07-.58,4.16-1.15,6.22-1.73-7.55,18.31-14.9,36.68-22.11,55.08-2.95,7.49-5.89,14.97-8.83,22.47,9.63-4.55,19.25-9.07,28.91-13.52,4.37-12.11,8.78-24.2,13.24-36.26,4.09,8.23,8.17,16.48,12.21,24.75,6.21-2.8,12.45-5.54,18.69-8.26-3.8-8.69-7.66-17.35-11.54-26.02,6.91-10.52,13.88-20.99,20.91-31.42,1.98-.48,3.96-.95,5.94-1.4l4.45-13.59c-5.73,1.05-11.47,2.11-17.19,3.23M316.72,58.2c-5.17.86-9.84,2.52-13.7,6.41-3.16,3.43-4.84,7.49-6.25,11.84-4.11,12.97-8.26,25.95-12.39,38.92-1.62,5.13-4.26,14.47,3.94,13.78,2.8-.46,5.43-1.61,8.05-2.74,8.29-3.54,16.6-7.04,24.93-10.49,2.12-8.14,4.24-16.29,6.32-24.46-4.38,1.37-8.75,2.77-13.12,4.18-1.04,3.68-2.05,7.37-3.08,11.04-3.04,1.12-6.07,2.22-9.11,3.36,3.84-13.17,7.69-26.32,11.5-39.5,2.69-.58,5.38-1.15,8.08-1.71-.64,2.31-1.26,4.61-1.91,6.93,3.93-.95,7.87-1.88,11.79-2.77,1.49-5.94,2.98-11.87,4.47-17.81-6.51.97-13.03,1.97-19.53,3.04"/>
  <path class="st5" d="M351.71,46.16c3.95,1.3,7.64,2.62,11.33,4,9.24,3.45,17.42,6.96,24.18,10.21-20.87,71.83-63.62,132.07-123.94,174.94l-4.92,3.42c-17.66-13.26-28.08-23.67-28.08-23.67l8.31-1.37c25.22-4.22,49.54-15.68,69.64-34.48,34.26-32.06,48.17-77.81,41.11-120.92-.18-.98-.37-1.95-.53-2.93l-.08-.43-.08-.46-.1-.48-.09-.45-.08-.5-.1-.47-.11-.52-.11-.49-.1-.47-.07-.39-.14-.55-.1-.52-.1-.38-.07-.38-.09-.37c-.38-1.55-.73-2.87-1.1-4.15,1.83.59,3.66,1.19,5.48,1.8M352.37,47.01c3.69,1.27,7.49,2.61,11.12,3.97-3.69-1.41-7.4-2.72-11.12-3.97"/>
  <path class="st0" d="M0-101.04h500v500H0V-101.04Z"/>
</svg>