<?xml version="1.0" encoding="UTF-8"?>
<svg id="Ebene_1" xmlns="http://www.w3.org/2000/svg" version="1.1" viewBox="0 0 397.93 397.93">
  <!-- Generator: Adobe Illustrator 29.7.1, SVG Export Plug-In . SVG Version: 2.1.1 Build 8)  -->
  <defs>
    <style>
      .st0 {
        fill: none;
      }

      .st1 {
        fill: #ed174c;
      }

      .st2 {
        fill: #006bb6;
      }

      .st3 {
        fill: #fff;
      }
    </style>
  </defs>
  <path class="st3" d="M397.93,198.96c0,109.88-89.08,198.96-198.96,198.96S0,308.85,0,198.96,89.08,0,198.96,0c52.77,0,103.38,20.95,140.7,58.26s58.27,87.93,58.26,140.7"/>
  <path class="st2" d="M390.6,198.96c0,77.51-46.69,147.39-118.3,177.05-71.61,29.66-154.04,13.27-208.85-41.54C8.64,279.66-7.75,197.24,21.91,125.63,51.57,54.01,121.45,7.32,198.96,7.32c105.84,0,191.64,85.8,191.64,191.64"/>
  <path class="st3" d="M36.89,231.64l3.94,12.51h13.26l-10.71,7.81,3.87,12.3-10.36-7.53-10.5,7.53,3.94-12.3-10.78-7.81h13.26l4.08-12.51ZM361.1,231.64l3.94,12.51h13.33l-10.78,7.81,3.94,12.3-10.43-7.53-10.43,7.53,3.94-12.3-10.78-7.81h13.2l4.07-12.51ZM83.45,298.65l3.94,12.43h13.26l-10.78,7.88,3.94,12.3-10.36-7.53-10.5,7.53,3.94-12.3-10.78-7.88h13.26l4.07-12.43ZM318.89,298.65l3.94,12.43h13.26l-10.71,7.88,3.94,12.3-10.43-7.53-10.5,7.53,4.01-12.3-10.78-7.88h13.19l4.08-12.43ZM156.06,342.24l3.87,12.51h13.33l-10.78,7.81,3.94,12.3-10.36-7.53-10.5,7.53,3.94-12.3-10.78-7.81h13.26l4.07-12.5ZM244.28,342.24l3.94,12.51h13.27l-10.78,7.81,3.94,12.3-10.36-7.53-10.5,7.53,3.94-12.3-10.78-7.81h13.27l4.07-12.5Z"/>
  <path class="st3" d="M342.66,199.86c0,79.36-64.33,143.7-143.7,143.7S55.27,279.22,55.27,199.86,119.6,56.17,198.96,56.17c38.11,0,74.66,15.13,101.61,42.08,26.95,26.95,42.09,63.5,42.08,101.61"/>
  <path class="st2" d="M63.83,228.12c15.62,74.62,88.76,122.46,163.38,106.87,35.95-7.22,67.43-28.7,87.25-59.55,19.8-30.74,26.84-67.99,19.62-103.83-15.64-74.58-88.7-122.43-163.32-106.94-35.86,7.49-67.28,28.91-87.34,59.57-20.06,30.66-27.11,68.03-19.61,103.88"/>
  <path class="st3" d="M245.94,92.3c.48,5.39-2.07,10.64-7.46,15.61-25.91-19-50.57-28.32-74.75-28.46-5.07,0-10.12.4-15.13,1.17,7.71-3.24,15.72-5.74,23.9-7.46,21.27-4.47,43.32-3.5,64.11,2.83,4.49,4.35,8.84,10.02,9.33,16.3M218.93,315.3c27.22-25.01,39.86-78.55,47.39-110.53l1.17-4.97c3.87-16.3,10.71-28.46,18.1-35.72,27.29,42.42,23.63,86.22,16.72,113.71-24.5,32.43-62.78,51.5-103.42,51.54,7.29-3.73,14.04-8.45,20.03-14.02M268.39,133.61c11.05-9.26,19.9-16.3,26.18-20.93,13.69,14.97,23.66,32.96,29.08,52.5-5.11-6.84-11.61-13.33-18.65-14.78-6.08-1.24-12.3.48-18.17,4.63-5.57-7.62-11.74-14.78-18.45-21.42M72.05,194.06c12.57-33.71,58.65-47.53,75.99-52.71l.76-.21c7.69-2,15.48-3.57,23.35-4.7,22.31-3.8,49.88-8.5,66.53-20.93,7.25,5.54,14.19,11.47,20.79,17.75-37.65,31.99-95.89,85.73-158,151.71-14.63-16.7-24.68-36.91-29.15-58.65-1.84-8.68-2.77-17.52-2.76-26.39,1.45-3.45,2.49-5.87,2.49-5.87"/>
  <path class="st3" d="M264.04,129.39c-6.59-6.3-13.51-12.25-20.73-17.82,6.29-6.15,9.19-12.78,8.57-19.83-.43-4.21-1.9-8.25-4.28-11.74,15.97,6.56,30.5,16.18,42.76,28.32-6.49,4.84-15.41,11.95-26.32,21.07M233.64,111.78c-15.61,10.78-41.45,15.2-62.52,18.72-8.09,1.19-16.12,2.81-24.04,4.84l-.76.21c-16.65,4.97-58.51,17.48-75.79,47.67,2.52-19.36,9.4-37.9,20.1-54.23,9.2-14.14,20.96-26.44,34.68-36.27,30.67-12.92,65.08-12.02,108.32,19.07M303.76,156.27c9.05,1.87,18.72,17.06,23.35,25.77,4.03,28.25-1.49,57.04-15.68,81.8.69-4.35,1.24-8.98,1.66-13.82,2.57-31.69-5.48-63.33-22.87-89.95,4.7-3.32,9.4-4.63,13.54-3.8M263.83,137.48c6.72,6.59,12.85,13.75,18.31,21.42-8.84,8.43-16.37,22.38-20.45,39.52l-1.17,5.04c-7.39,31.36-19.76,83.8-45.6,107.5-8.63,8.18-19.07,14.22-30.47,17.62-20.13-2.28-39.44-9.26-56.37-20.38-8.2-5.38-15.78-11.66-22.59-18.72,62.73-66.74,121.17-120.41,158.34-151.99"/>
  <path class="st3" d="M234.68,238.27l3.52-.97c2.14-.55,3.52-1.24,3.52-4.35,0-2.56-.69-7.18-3.8-7.18s-3.25,5.53-3.25,8.5v4.01h0ZM192.61,236.34c0-11.05-.41-20.59-7.88-20.59-6.08,0-7.18,9.53-7.18,20.59s-.35,20.66,7.18,20.66c6.29-.07,7.88-9.6,7.88-20.66"/>
  <path class="st3" d="M234.68,238.27l3.52-.97c2.14-.55,3.52-1.24,3.52-4.35,0-2.56-.69-7.18-3.8-7.18s-3.25,5.53-3.25,8.5v4.01h0ZM176.65,210.98h.14c3.59-5.6,10.43-8.29,17.13-8.29,15.2,0,24.52,13.13,24.52,30.74,0,20.86-14.16,33.3-31.64,33.3-26.87,0-36.68-21.69-36.68-46.84,0-28.95,12.57-52.85,43.87-52.85,12.23,0,22.25,7.88,22.25,19.9.19,6.22-4.7,11.42-10.92,11.61-.3,0-.6,0-.9,0-8.43,0-11.12-7.05-12.37-13.26-.48-2.63.48-8.43-3.87-8.43-9.12,0-10.57,17.82-10.98,24.39l-.55,9.74h0Z"/>
  <path class="st3" d="M192.61,236.34c0-11.05-.41-20.59-7.88-20.59-6.08,0-7.18,9.53-7.18,20.59s-.35,20.66,7.18,20.66c6.29-.07,7.88-9.6,7.88-20.66M29.64,168.15c5.11.62,7.18,4.21,6.42,10.85l-.55,4.84,2.76.35c3.52.41,4.84.35,5.25-2.49l3.25.41-1.52,13.13-3.25-.41c.28-2.9-1.04-3.25-4.56-3.66l-10.22-1.17c-3.52-.41-4.84-.35-5.25,2.49l-3.25-.41,1.73-14.37c.83-7.05,3.94-10.16,9.19-9.53ZM32.4,182.11c.48-4.35-.76-6.7-3.87-7.05-2.69-.35-4.63,1.38-5.04,4.63-.28,2.28.55,2.76,3.04,3.04l5.67.69c.07-.41.14-.83.21-1.31h0ZM48.84,153.64c1.04-2.69-.07-3.39-3.32-4.77l-9.46-3.94c-3.25-1.38-4.56-1.66-5.73.97l-3.04-1.24,5.11-12.16,2.97,1.24c-1.04,2.69.07,3.39,3.32,4.77l2.42,1.04,3.8-9.12-2.42-1.04c-3.25-1.38-4.56-1.66-5.73.97l-2.97-1.24,5.11-12.16,3.04,1.24c-1.04,2.69.07,3.39,3.32,4.77l9.46,3.94c3.25,1.38,4.56,1.66,5.73-.97l3.04,1.24-5.11,12.16-2.97-1.24c1.04-2.69-.07-3.39-3.32-4.77l-4.15-1.73-3.8,9.12,4.14,1.73c3.25,1.38,4.56,1.66,5.73-.97l2.97,1.24-5.11,12.16-3.04-1.24h0ZM61.55,89.05c-1.66,2.35-.76,3.32,2.07,5.46l8.22,6.15c2.83,2.14,4.01,2.69,5.8.48l2.63,1.93-7.88,10.5-2.63-1.93c1.66-2.35.76-3.32-2.14-5.46l-8.22-6.15c-2.83-2.14-4.01-2.76-5.8-.48l-2.63-1.93,7.88-10.5,2.69,1.93ZM91.26,90.57l-2.07-2.49c2.14-1.93,1.45-3.04-.83-5.73l-6.63-7.88c-2.28-2.69-3.25-3.59-5.53-1.8l-2.07-2.49,10.09-8.43,2.07,2.49c-2.14,1.93-1.52,3.04.76,5.8l7.39,8.77c1.73,2,2.49,2.35,4.56.62,2.76-2.35,3.94-6.49,2.97-11.74l2.9-.62,2.97,9.67-16.58,13.82ZM122.56,66.46l-1.38-2.97c2.49-1.52,2.35-3.18,2.28-6.08l-.69-20.38,5.53-2.49,15.2,14.85c1.73,1.66,2.69,2.49,4.9,1.73l1.38,2.97-12.02,5.46-1.31-2.9c.1-.02.2-.07.28-.14,1.66-.76,2.28-1.45,1.8-2.49-.17-.36-.4-.69-.69-.97l-2.76-2.76-7.74,3.52.48,3.8c.03.29.1.56.21.83.55,1.17,1.66,1.24,3.52.41l1.31,2.9-10.29,4.7h0ZM132.37,47.88l-5.66-6.08.48,8.5,5.18-2.42ZM163.18,46.77c2.83-.48,2.9-1.8,2.42-5.32l-1.45-10.16c-.48-3.52-.9-4.77-3.8-4.42l-.48-3.25,13.26-1.87c10.22-1.45,16.3,2.56,17.55,10.98,1.17,8.5-3.52,13.96-13.75,15.47l-13.26,1.87-.48-3.32h0ZM172.71,42.07c.35,2.63.83,3.32,3.59,2.9,5.25-.76,8.15-4.9,7.18-11.26-.9-6.36-4.77-9.53-10.09-8.77-2.76.41-2.97,1.17-2.63,3.8l1.93,13.33ZM209.53,42.9c2.83.35,3.32-.9,3.8-4.42l1.45-10.16c.48-3.52.48-4.84-2.35-5.32l.48-3.25,21.9,3.18,2.42,8.5-2.63.9c-2.14-4.42-5.18-6.98-9.26-7.53-2.63-.41-3.11.35-3.45,2.9l-.55,3.8,1.24.21c2.76.41,3.59-.35,4.21-3.59l2.76.41-1.73,11.88-2.76-.41c.07-3.11-.83-4.7-2.97-4.97l-1.24-.21-.9,6.15c-.35,2.56-.14,3.39,2.56,3.73,3.87.55,8.43-1.31,12.02-5.6l2.28,1.73-5.32,8.5-22.45-3.32.48-3.11h0ZM250.85,54.58l1.31-2.97c2.69,1.11,3.39,0,4.84-3.32l4.14-9.4c1.45-3.25,1.8-4.49-.83-5.73l1.31-2.97,12.02,5.25-1.31,2.97c-2.69-1.11-3.39,0-4.84,3.25l-4.63,10.5c-1.04,2.42-.97,3.25,1.52,4.35,3.32,1.45,7.6.69,11.81-2.56l1.87,2.28-7.32,6.98-19.9-8.64h0ZM318.48,74.13c-3.25,4.01-7.39,3.87-12.64-.35l-3.8-3.04-1.73,2.14c-2.21,2.76-2.9,3.94-.69,5.8l-2.07,2.56-10.22-8.29,2.07-2.56c2.28,1.73,3.32.9,5.53-1.87l6.42-8.01c2.21-2.76,2.83-3.94.69-5.8l2.07-2.56,11.26,9.12c5.46,4.35,6.42,8.7,3.11,12.85h0ZM305.15,68.95c3.39,2.76,6.08,2.9,8.01.48,1.73-2.14,1.31-4.63-1.24-6.7-1.8-1.45-2.63-1.04-4.21.9l-3.59,4.42c.41.35.76.62,1.04.9h0ZM320.48,98.1c1.73,2.35,2.9,1.8,5.8-.28l8.43-5.87c2.9-2,3.87-2.97,2.28-5.39l2.69-1.87,7.53,10.78-2.63,1.87c-1.73-2.35-2.9-1.8-5.8.28l-2.14,1.52,5.67,8.08,2.14-1.52c2.9-2,3.87-2.97,2.28-5.39l2.63-1.87,7.53,10.78-2.69,1.87c-1.73-2.35-2.9-1.8-5.8.28l-8.43,5.87c-2.9,2-3.87,2.97-2.28,5.39l-2.69,1.87-7.53-10.78,2.63-1.87c1.73,2.35,2.9,1.8,5.8-.28l3.66-2.56-5.67-8.08-3.66,2.56c-2.9,2-3.87,2.97-2.28,5.39l-2.63,1.87-7.53-10.78,2.69-1.87h0ZM368.36,143.35c-1.11-2.69-2.42-2.42-5.73-1.17l-9.6,3.66c-3.32,1.24-4.42,1.93-3.52,4.7l-3.04,1.17-4.7-12.3,3.04-1.17c1.11,2.69,2.42,2.35,5.73,1.11l9.6-3.66c3.32-1.24,4.49-1.93,3.52-4.63l3.04-1.17,4.7,12.3-3.04,1.17ZM351.16,166.15l3.25-.41c.69,2.83,2.35,3.18,5.11,3.94l19.69,5.32.76,6.01-18.65,10.16c-2.14,1.17-3.18,1.8-3.11,4.21l-3.25.41-1.73-13.06,3.18-.41v.28c.21,1.8.76,2.63,1.87,2.49.41-.08.81-.22,1.17-.41l3.45-1.87-1.11-8.43-3.8-.69c-.3-.06-.6-.08-.9-.07-1.24.14-1.66,1.24-1.45,3.25l-3.18.41-1.31-11.12h0ZM366.08,180.93l7.46-3.66-8.22-2,.76,5.66h0ZM279.72,216.65c-2.66,0-5.18,1.16-6.91,3.18-.21-.41-.35-.83-.55-1.17l-1.45-2.83-20.66,6.08v11.33h3.8c.35,0,.55.07.62,0,.49,1.56.65,3.21.48,4.84v13.13l-3.8.55v12.44h28.6v-12.44l-3.73-.55v-3.87c.09-2.99.43-5.98,1.04-8.91,1.21.38,2.47.56,3.73.55,5.11,0,8.7-4.63,8.7-11.19.07-6.63-3.94-11.12-9.88-11.12h0Z"/>
  <path class="st3" d="M315.58,229.84c-.21-.58-.32-1.18-.35-1.8,0-3.39-1.38-11.26-13.89-11.26-6.91,0-20.52,5.32-20.52,17.69-.12,3.73,1.05,7.39,3.32,10.36-2.9,1.86-4.59,5.13-4.42,8.57,0,4.42,2.21,11.88,17.2,11.88,12.85,0,20.17-6.63,20.17-18.24.07-11.05-.9-14.71-1.52-17.2h0ZM164.42,163.38c-.78-.91-1.91-1.44-3.11-1.45-1.87,0-3.39,1.17-5.18,3.11-6.21,6.49-14.86,10.07-23.83,9.88-12.44,0-25.56-5.73-35.99-15.68-.81-.8-1.9-1.25-3.04-1.24-5.11,0-6.42,8.15-6.42,8.29v40.97l3.25.48c10.88,1.87,22.03,1.47,32.75-1.17-10.5,9.4-34.13,34.96-33.78,59.27.07,4.49,2.83,4.97,4.01,4.97,1.17-.02,2.28-.49,3.11-1.31.21-.14.41-.35.62-.48,4.48-2.8,9.71-4.17,14.99-3.94,4.78-.07,9.52.9,13.89,2.83.78.43,1.66.67,2.56.69,1.15,0,2.25-.47,3.04-1.31.99-1.24,1.37-2.87,1.04-4.42-1.73-17.69,2.14-36.96,9.67-48.08l1.11-1.66c6.42-9.46,19.76-29.22,22.25-45.53.36-1.47.03-3.02-.9-4.21h0ZM259.55,241.66l-.21-3.11c-.11-1.96-.41-3.9-.9-5.8l-.14-3.59-.69,1.04c-2.66-8.15-10.29-13.63-18.86-13.54-13.26,0-22.52,10.5-22.52,25.49,0,11.54,6.77,23.14,21.76,23.14,8.4.12,16.24-4.19,20.66-11.33l.55-.97-.41-11.12.76-.21h0ZM243.45,248.84c-1.31-.04-2.49-.81-3.04-2l7.32-2c-1.13,1.62-2.59,2.98-4.28,4.01h0Z"/>
  <path class="st3" d="M210.15,205.39c-.76-1.04-1.59-2.28-2.28-3.32,7.27-1.26,12.48-7.69,12.23-15.06,0-13.54-11.19-23.7-26.04-23.7-29.84,0-47.74,21.21-47.74,56.65,0,32.19,14.78,50.64,40.48,50.64,20.86,0,35.44-15.27,35.44-37.1.07-10.92-7.25-21.28-12.09-28.12Z"/>
  <path class="st2" d="M243.52,252.71c-4.63,0-7.39-4.21-7.81-8.5l19.9-5.39c-.55-9.74-6.22-18.31-16.79-18.31-11.26,0-18.72,8.77-18.72,21.69,0,10.09,5.8,19.27,17.96,19.27,7.05.15,13.65-3.45,17.34-9.46l-3.94-4.7c-1.87,3.04-4.15,5.39-7.94,5.39h0ZM234.75,234.33c0-2.97,0-8.5,3.25-8.5,3.04,0,3.8,4.63,3.8,7.18.27,2.12-1.22,4.06-3.34,4.33-.06,0-.12.01-.18.02l-3.52.97v-4.01h0Z"/>
  <path class="st2" d="M276.2,260.38h-21v-5.32l3.8-.55v-16.44c0-5.87-.76-8.7-4.97-8.7v-4.63l14.92-4.35c1.55,3.41,2.4,7.1,2.49,10.85h.14c1.52-4.49,3.39-10.78,8.22-10.78,4.28,0,6.15,3.32,6.15,7.32s-1.8,7.39-4.9,7.39c-1.72-.11-3.4-.53-4.97-1.24-2.69-.9-3.59,10.92-3.59,13.4v7.18l3.73.55v5.32h0,0Z"/>
  <path class="st2" d="M311.5,228.12c0,3.25-2.83,4.9-5.8,4.9-3.54-.2-6.42-2.91-6.84-6.42-1.52,0-2.63.76-2.63,3.39,0,6.08,17.2,1.73,17.2,17.13,0,11.54-8.36,14.44-16.37,14.44-4.9,0-13.4-.62-13.4-8.08,0-3.39,1.87-5.94,5.25-5.94,5.18,0,6.08,4.77,6.98,8.15.25.72.98,1.16,1.73,1.04,2.76,0,4.77-1.11,4.77-2.97,0-6.91-17.62-4.21-17.62-19.27,0-9.53,11.26-13.82,16.72-13.82,6.15,0,10.02,2.07,10.02,7.46M194.06,202.76c-6.7,0-13.54,2.69-17.13,8.29h-.14l.69-9.67c.41-6.56,1.87-24.39,10.98-24.39,4.35,0,3.39,5.8,3.87,8.43,1.17,6.15,3.87,13.26,12.37,13.26,6.24.28,11.52-4.55,11.81-10.79.01-.27.01-.55,0-.82,0-12.02-10.02-19.9-22.25-19.9-31.3,0-43.87,23.9-43.87,52.85,0,25.15,9.74,46.84,36.68,46.84,17.48,0,31.64-12.44,31.64-33.3-.14-17.69-9.46-30.81-24.66-30.81h0ZM184.73,256.99c-7.46,0-7.18-9.6-7.18-20.66s1.04-20.59,7.18-20.59c7.53,0,7.88,9.53,7.88,20.59.07,11.05-1.52,20.66-7.88,20.66Z"/>
  <path class="st1" d="M90.64,166.63v37.31c20.86,3.11,45.8,1.04,63.49-24.73.76-1.11,1.17-.35.69.62-4.9,10.02-16.58,19.27-26.67,27.22-9.67,7.6-35.65,34.82-35.3,58.79,0,1.87.07,1.31,1.73.14,7.88-5.87,23.28-6.01,32.75-1.52,1.31.62,1.45.41,1.24-1.24-1.8-18.58,2.35-38.83,10.29-50.64,5.46-8.15,20.24-29.15,22.8-45.6.28-1.73-.62-1.45-2.76.83-16.72,17.69-46.91,17.2-66.46-1.45-1.17-1.31-1.73-.76-1.8.28"/>
  <circle class="st3" cx="126.85" cy="144.27" r="35.78"/>
  <path class="st2" d="M126.84,109.78l1.17,3.8h4.08l-3.32,2.35,1.17,3.73-3.11-2.28-3.25,2.28,1.24-3.73-3.32-2.35h4.08l1.24-3.8ZM150.6,123.66l1.24,3.73h4.08l-3.32,2.42,1.17,3.73-3.18-2.28-3.18,2.28,1.24-3.73-3.31-2.42h4.07l1.17-3.73ZM140.38,112.95l1.24,3.73h4.07l-3.31,2.42,1.17,3.73-3.11-2.28-3.18,2.28,1.18-3.73-3.32-2.42h4.08l1.17-3.73ZM154.54,136.72l1.18,3.8h4.07l-3.31,2.42,1.24,3.73-3.18-2.28-3.18,2.28,1.17-3.73-3.25-2.42h4.01l1.24-3.8ZM152.81,150.6l1.24,3.8h4.01l-3.25,2.42,1.17,3.73-3.18-2.35-3.18,2.35,1.17-3.8-3.25-2.35h4.08l1.17-3.8ZM145.15,161.66l1.17,3.8h4.08l-3.25,2.42,1.17,3.73-3.11-2.28-3.25,2.28,1.24-3.73-3.32-2.42h4.08l1.17-3.8ZM133.13,167.87l1.24,3.8h4.01l-3.31,2.42,1.24,3.73-3.18-2.28-3.18,2.28,1.17-3.73-3.25-2.42h4.01l1.24-3.8ZM102.59,122.42l-1.24,3.8h-4.01l3.25,2.35-1.17,3.73,3.11-2.28,3.25,2.28-1.24-3.73,3.32-2.35h-4.08l-1.17-3.8ZM112.54,112.95l-1.24,3.73h-4.01l3.25,2.42-1.17,3.73,3.18-2.28,3.18,2.28-1.17-3.73,3.25-2.42h-4.01l-1.24-3.73ZM97.89,135.06l-1.17,3.8h-4.08l3.32,2.35-1.17,3.8,3.11-2.35,3.18,2.35-1.17-3.8,3.32-2.35h-4.01l-1.31-3.8ZM99.2,148.88l-1.24,3.8h-4.07l3.31,2.42-1.17,3.73,3.11-2.28,3.18,2.28-1.17-3.73,3.25-2.42h-4.01l-1.17-3.8ZM106.8,160.21l-1.17,3.8h-4.08l3.32,2.42-1.24,3.73,3.18-2.35,3.25,2.35-1.24-3.73,3.25-2.42h-4.01l-1.24-3.8ZM118.82,167.39l-1.17,3.8h-4.07l3.31,2.42-1.17,3.73,3.11-2.28,3.25,2.28-1.24-3.8,3.31-2.35h-4.07l-1.24-3.8Z"/>
  <path class="st0" d="M-50.96-50.96h500v500H-50.96V-50.96Z"/>
</svg>