<?xml version="1.0" encoding="UTF-8"?>
<svg id="Ebene_1" xmlns="http://www.w3.org/2000/svg" version="1.1" viewBox="0 0 499.53 403.05">
  <!-- Generator: Adobe Illustrator 29.7.1, SVG Export Plug-In . SVG Version: 2.1.1 Build 8)  -->
  <defs>
    <style>
      .st0 {
        fill: none;
      }

      .st1 {
        fill: #051821;
      }

      .st2 {
        fill: #f9a01b;
      }

      .st3 {
        fill: #fefefe;
      }

      .st4 {
        fill: #e55f1f;
      }

      .st5 {
        fill: #b85914;
      }
    </style>
  </defs>
  <g>
    <path class="st3" d="M381.44,0l-44.06,43.83L266.49,6.73l-12.81,70.39-71.92,15.57,40.23,24.22-45.13,22.62,36.72,3.17L47.23,271.96l128.39-68.13-138.97,105.69,148.4-77.3L21.66,354.96l169.52-90.25L0,403.05l226.41-123.87-145.3,117.23,215.32-123.63-2.76,19.42,33.82-18.76,66.84,63.14,35.46-106.44,45.91-6.57-19.77-61.33,43.59-37.88-56.57-23.86,15.96-67.66-53.55,24.5L381.44,0Z"/>
    <path class="st2" d="M67.14,360.63l205.87-112.64-139.6,112.64,169.39-97.26-2.78,19.61,28.25-15.68,63.8,60.28,33.96-101.93,43.1-6.18-18.96-58.84,40.04-34.78-53.08-22.39,14.58-61.83-48.98,22.39-23.04-55.25-41.39,41.18-68.1-35.65-12.19,66.97-62.89,13.61,37.21,22.41-37.45,18.77,31.82,2.75-130.86,101.68,131.63-69.86-141.19,107.39,150.29-78.28-160.55,120.6,176.93-94.2-185.81,134.46Z"/>
    <path class="st4" d="M443.87,161.54c-2.33,56.52-50.08,100.45-106.67,98.1-56.57-2.32-100.53-50.04-98.18-106.55,2.33-56.53,50.08-100.44,106.65-98.12,56.58,2.36,100.55,50.05,98.2,106.57"/>
    <path class="st5" d="M353.99,245.67c-56.56-2.34-100.53-50.06-98.2-106.57,1.08-26.17,11.89-49.58,28.79-67.01-26.31,17.55-44.18,46.96-45.57,81-2.35,56.5,41.62,104.22,98.18,106.55,30.41,1.26,58.25-10.87,77.87-31.11-17.42,11.63-38.53,18.06-61.07,17.13"/>
    <path class="st1" d="M443.92,158.51c.05-3.67-.1-7.29-.44-10.88-5.91-4.11-12.95-7.25-21.27-8.32-1.58-.19-3.1-.29-4.62-.41-.99-6.72-2.52-13.36-4.55-19.84,1.05.09,2.13.13,3.2.19,7.21.54,14.31,1.35,21.33,2.38-.97-2.61-2.08-5.16-3.25-7.66-7.87-1.21-15.88-2.14-23.99-2.74h-.08c-2.6-6.59-5.76-12.93-9.48-18.97,5.23-1.08,9.91-3.22,13.69-6.8-1.93-1.96-3.95-3.85-6.04-5.66-3.29,3.02-7.55,4.64-12.45,5.3-.76-1.07-1.5-2.11-2.29-3.13-6.96-9.04-14.99-16.78-23.83-23.05-7.72-2.24-15.79-3.59-24.18-3.93-.46-.02-.92,0-1.39-.03,15.58,6.13,29.5,16.42,40.68,30.18-10.67-1.03-22.96-4.6-35.13-8.16-3.6-1.07-7.12-2.11-10.53-3.04-20.72-5.72-36.64-6.64-48.6-5.59-8.88,5.05-16.92,11.41-23.9,18.8,12.92-5.37,38.95-14.57,70.54-5.83,3.36.93,6.84,1.95,10.39,2.98,13.96,4.11,29.62,8.68,43.17,8.82,3.74,5.56,6.96,11.43,9.63,17.54-2.65-.12-5.3-.19-7.93-.25-65.84-1.13-122.27,18.55-153.6,49.95.18,6.24.89,12.33,2.14,18.27,8.83-12.67,21.92-24.11,38.8-33.61,31.86-17.89,74.15-27.31,119.07-26.53,1.54.02,3.1.08,4.64.14,2.27,6.5,3.97,13.21,5.04,20.12-28.94,1.22-47.7,19.25-69.23,38.44-19.33,17.29-42.92,34.51-77.43,44.87,3.25,4,6.78,7.73,10.61,11.19,32.52-13.08,54.13-33.46,72.39-49.77,20.72-18.52,38.52-36.27,64.65-37.14.67,7.22.7,14.57.04,21.99-3.52,40.13-26.77,74.15-58.48,90.92,8.12-.75,15.97-2.47,23.44-5.05,2.54-2.1,5.02-4.31,7.41-6.66,20.8-20.46,33.71-48.33,36.35-78.45.66-7.54.66-15.03.05-22.4,1.3.14,2.6.26,3.94.48,8.91,1.46,15.97,5.94,21.51,11.35"/>
  </g>
  <path class="st0" d="M0-50h500v500H0V-50Z"/>
</svg>