<?xml version="1.0" encoding="UTF-8"?>
<svg id="Ebene_1" xmlns="http://www.w3.org/2000/svg" version="1.1" viewBox="0 0 370.82 404.49">
  <!-- Generator: Adobe Illustrator 29.7.1, SVG Export Plug-In . SVG Version: 2.1.1 Build 8)  -->
  <defs>
    <style>
      .st0, .st1 {
        fill: none;
      }

      .st1 {
        stroke: #fff;
        stroke-width: 3.85px;
      }

      .st2 {
        fill: #fff;
      }

      .st3 {
        fill: #061922;
      }

      .st4 {
        fill: #e03a3e;
      }
    </style>
  </defs>
  <path class="st0" d="M-65.38-50h500v500H-65.38V-50Z"/>
  <path class="st3" d="M322.83,109.57c-5.93-8.78-12.74-17.03-20.24-24.53-3.25-3.25-6.65-6.38-10.17-9.36L366.18,1.92h-214.89l-82.94,82.95h.01c-.06.06-.12.12-.18.17-7.5,7.5-14.31,15.75-20.24,24.53-5.98,8.86-11.13,18.33-15.28,28.15-8.65,20.43-13.03,42.14-13.03,64.52s4.38,44.08,13.03,64.52c4.15,9.82,9.3,19.29,15.28,28.15,5.93,8.78,12.74,17.03,20.24,24.53,3.27,3.27,6.67,6.4,10.2,9.38L4.64,402.57h214.83l83.28-83.28h0c7.44-7.46,14.2-15.65,20.08-24.37,5.98-8.86,11.13-18.33,15.28-28.15,8.64-20.43,13.02-42.14,13.02-64.52s-4.38-44.08-13.02-64.52c-4.15-9.82-9.3-19.29-15.28-28.15"/>
  <path class="st1" d="M322.83,109.57c-5.93-8.78-12.74-17.03-20.24-24.53-3.25-3.25-6.65-6.38-10.17-9.36L366.18,1.92h-214.89l-82.94,82.95h.01c-.06.06-.12.12-.18.17-7.5,7.5-14.31,15.75-20.24,24.53-5.98,8.86-11.13,18.33-15.28,28.15-8.65,20.43-13.03,42.14-13.03,64.52s4.38,44.08,13.03,64.52c4.15,9.82,9.3,19.29,15.28,28.15,5.93,8.78,12.74,17.03,20.24,24.53,3.27,3.27,6.67,6.4,10.2,9.38L4.64,402.57h214.83l83.28-83.28h0c7.44-7.46,14.2-15.65,20.08-24.37,5.98-8.86,11.13-18.33,15.28-28.15,8.64-20.43,13.02-42.14,13.02-64.52s-4.38-44.08-13.02-64.52c-4.15-9.82-9.3-19.29-15.28-28.15"/>
  <path class="st2" d="M292.87,94.58c-3.25-3.25-6.61-6.32-10.07-9.22l-90.19,90.19c4.44,1.25,8.63,3.62,12.13,7.1l.02.03c10.89,10.89,10.89,28.55,0,39.44L37.71,389.18h19.57l157.27-157.27c16.25-16.25,16.3-42.56.15-58.87l9.78-9.78c21.55,21.71,21.51,56.79-.15,78.44l-147.49,147.49h19.58l137.7-137.7c27.06-27.05,27.1-70.89.15-98.01l9.79-9.79c32.37,32.52,32.31,85.12-.15,117.58l-127.92,127.92h19.58l118.12-118.13c37.87-37.87,37.92-99.23.15-137.16l9.79-9.78c43.18,43.33,43.13,113.46-.15,156.73l-108.34,108.34h19.57l98.55-98.55c48.68-48.67,48.73-127.57.15-176.31l9.85-9.85c54.02,54.18,53.97,141.89-.14,196.02l-88.71,88.7h19.58l78.92-78.91-.05-.05c59.55-59.55,59.55-156.1,0-215.65"/>
  <path class="st4" d="M77.98,310.05c3.25,3.25,6.61,6.32,10.07,9.22l90.19-90.19c-4.44-1.25-8.63-3.62-12.13-7.1l-.03-.03c-10.89-10.89-10.89-28.55,0-39.44L333.37,15.22h-19.57l-157.5,157.5c-16.25,16.25-16.3,42.56-.14,58.87l-9.78,9.78c-21.55-21.72-21.51-56.79.14-78.44L294.23,15.22h-19.58l-137.93,137.93c-27.05,27.05-27.1,70.9-.14,98.01l-9.78,9.79c-32.37-32.52-32.32-85.12.14-117.58L255.08,15.22h-19.57l-118.35,118.35c-37.87,37.87-37.92,99.23-.15,137.16l-9.79,9.79c-43.18-43.33-43.13-113.47.15-156.74L215.93,15.22h-19.57l-98.78,98.78c-48.68,48.68-48.73,127.57-.15,176.31l-9.85,9.85c-54.02-54.18-53.97-141.89.15-196.01L176.66,15.22h-19.58l-79.14,79.14.04.04c-59.55,59.55-59.55,156.1,0,215.65"/>
</svg>