<?xml version="1.0" encoding="UTF-8"?>
<svg id="Ebene_1" xmlns="http://www.w3.org/2000/svg" xmlns:xlink="http://www.w3.org/1999/xlink" version="1.1" viewBox="0 0 335.34 382.63">
  <!-- Generator: Adobe Illustrator 29.7.1, SVG Export Plug-In . SVG Version: 2.1.1 Build 8)  -->
  <defs>
    <style>
      .st0 {
        fill: none;
      }

      .st1 {
        mask: url(#mask);
      }

      .st2 {
        fill: #fff;
        fill-rule: evenodd;
      }

      .st3 {
        fill: #5c666f;
      }

      .st4 {
        mask: url(#mask-2);
      }

      .st5 {
        mask: url(#mask-3);
      }

      .st6 {
        mask: url(#mask-4);
      }

      .st7 {
        mask: url(#mask-5);
      }

      .st8 {
        mask: url(#mask-7);
      }

      .st9 {
        mask: url(#mask-6);
      }

      .st10 {
        mask: url(#mask-1);
      }

      .st11 {
        mask: url(#mask-9);
      }

      .st12 {
        mask: url(#mask-8);
      }

      .st13 {
        fill: #5a2c81;
      }

      .st14 {
        fill: #fefefe;
      }

      .st15 {
        mask: url(#mask-10);
      }

      .st16 {
        mask: url(#mask-11);
      }

      .st17 {
        mask: url(#mask-13);
      }

      .st18 {
        mask: url(#mask-12);
      }
    </style>
    <mask id="mask" x="0" y="0" width="335.34" height="382.62" maskUnits="userSpaceOnUse">
      <g id="b">
        <path id="a" class="st2" d="M0,382.63h335.34V0H0v382.62Z"/>
      </g>
    </mask>
    <mask id="mask-1" x="0" y="0" width="335.34" height="382.62" maskUnits="userSpaceOnUse">
      <g id="d">
        <path id="c" class="st2" d="M0,382.63h335.34V0H0v382.62Z"/>
      </g>
    </mask>
    <mask id="mask-2" x="0" y="0" width="335.34" height="382.62" maskUnits="userSpaceOnUse">
      <g id="f">
        <path id="e" class="st2" d="M0,382.63h335.34V0H0v382.62Z"/>
      </g>
    </mask>
    <mask id="mask-3" x="0" y="0" width="335.34" height="382.62" maskUnits="userSpaceOnUse">
      <g id="h">
        <path id="g" class="st2" d="M0,382.63h335.34V0H0v382.62Z"/>
      </g>
    </mask>
    <mask id="mask-4" x="0" y="0" width="335.34" height="382.62" maskUnits="userSpaceOnUse">
      <g id="j">
        <path id="i" class="st2" d="M0,382.63h335.34V0H0v382.62Z"/>
      </g>
    </mask>
    <mask id="mask-5" x="0" y="0" width="335.34" height="382.62" maskUnits="userSpaceOnUse">
      <g id="l">
        <path id="k" class="st2" d="M0,382.63h335.34V0H0v382.62Z"/>
      </g>
    </mask>
    <mask id="mask-6" x="0" y="0" width="335.34" height="382.62" maskUnits="userSpaceOnUse">
      <g id="n">
        <path id="m" class="st2" d="M0,382.63h335.34V0H0v382.62Z"/>
      </g>
    </mask>
    <mask id="mask-7" x="0" y="0" width="335.34" height="382.62" maskUnits="userSpaceOnUse">
      <g id="p">
        <path id="o" class="st2" d="M0,382.63h335.34V0H0v382.62Z"/>
      </g>
    </mask>
    <mask id="mask-8" x="0" y="0" width="335.34" height="382.62" maskUnits="userSpaceOnUse">
      <g id="r">
        <path id="q" class="st2" d="M0,382.63h335.34V0H0v382.62Z"/>
      </g>
    </mask>
    <mask id="mask-9" x="0" y="0" width="335.34" height="382.62" maskUnits="userSpaceOnUse">
      <g id="t">
        <path id="s" class="st2" d="M0,382.63h335.34V0H0v382.62Z"/>
      </g>
    </mask>
    <mask id="mask-10" x="0" y="0" width="335.34" height="382.62" maskUnits="userSpaceOnUse">
      <g id="v">
        <path id="u" class="st2" d="M0,382.63h335.34V0H0v382.62Z"/>
      </g>
    </mask>
    <mask id="mask-11" x="0" y="0" width="335.34" height="382.62" maskUnits="userSpaceOnUse">
      <g id="x">
        <path id="w" class="st2" d="M0,382.63h335.34V0H0v382.62Z"/>
      </g>
    </mask>
    <mask id="mask-12" x="0" y="0" width="335.34" height="382.62" maskUnits="userSpaceOnUse">
      <g id="z">
        <path id="y" class="st2" d="M0,382.63h335.34V0H0v382.62Z"/>
      </g>
    </mask>
    <mask id="mask-13" x="-119.24" y="-96.86" width="576.92" height="576.92" maskUnits="userSpaceOnUse">
      <g id="B">
        <path id="A" class="st2" d="M0,382.63h335.34V0H0v382.62Z"/>
      </g>
    </mask>
  </defs>
  <path class="st0" d="M-80.78-58.4h500v500H-80.78V-58.4Z"/>
  <path class="st14" d="M335.34,0l-48.07,48.19-39.92-40.02-.19.18-.22-.19-39.94,40.03-39.99-40.06-39.95,40.06L87.1,8.13v.03s-39.99,40.05-39.99,40.05L0,.96s.41,196.83.41,213.37c0,92.8,74.31,168.3,166.88,168.3s167.9-75.5,167.9-168.3c0-16.54.15-214.33.15-214.33"/>
  <path class="st3" d="M122.47,262.1c47.56,0,82.93,19.88,108.75,34.39,17.58,9.89,31.49,17.7,43.65,17.7,5.36,0,10.27-1.49,15.04-4.58,15.14-19.3,25.61-42.11,30.29-66.06H97.91c1.48,6.79,3.18,13.4,5.09,19.62,6.53-.71,13.07-1.07,19.47-1.07M15.35,243.55c3.96,20.1,11.78,38.99,23.31,56.17,6.96-12.22,20.89-27.4,48.24-33.88-2.1-7.04-3.97-14.52-5.56-22.29H15.35ZM49.57,314.18c29.57,34.71,72.14,54.72,117.01,55.01-4.24-2.17-8.37-4.55-12.35-7.11-19.02-12.31-45.18-36.29-62.06-80.74-26.59,5.81-37.84,20.9-42.6,32.85"/>
  <path class="st3" d="M108.53,279.01c11.98,30.18,30.1,53.38,53.87,68.95,15.71,10.32,30.78,15,40.7,17.12,24.86-5.81,48.07-17.81,67.28-34.76-15.15-1.67-30.7-10.4-47.11-19.63-25.61-14.39-57.51-32.32-100.57-32.32-4.66,0-9.4.24-14.16.64"/>
  <path class="st13" d="M173.29,165.14c-.27,0-.52.03-.79.06l-.03-.06h-54.57v65.95h23v-52.98h17.29v52.98h21.92v-56.81c0-5.03-3.07-9.14-6.83-9.14M191.2,165.14h-1.37v56.55c0,5.05,3.04,9.13,6.79,9.13.01,0,.05-.01.09-.01h0s55.24.01,55.24.01v-39.84l-22.1-.03v27.06h-17.28v-40.22h39.38v-12.64h-60.75ZM56.68,165.16l-12.52,26.56h-7.23v-26.56H14.04v65.91h22.9v-26.55h7.23l12.52,26.55h22.88l-16.13-32.95,16.13-32.96h-22.88Z"/>
  <g class="st1">
    <path class="st13" d="M85.65,231.06h23.7v-65.92h-23.7v65.92Z"/>
  </g>
  <g class="st10">
    <path class="st13" d="M321.61,182.89l.03-17.75h-.03v-.1l-60.79.1v30.08c0,5.02,3.05,9.13,6.79,9.13h30.98v14.38h-37.77v12.11h60.81v-30.07c0-4.69-2.65-8.57-6.07-9.05v-.05h-31.93v-13.82h15.98v5.05h22,0Z"/>
  </g>
  <g class="st4">
    <path class="st13" d="M256.94,98.04h-19.41l40.04-40.12-30.27-30.33-40.31,40.05-39.96-40.05-70.28,70.46h-19.41l39.96-40.19-30.2-30.27-39.96,40.05L14.04,34.75v118.16h307.57V33.22l-64.67,64.82Z"/>
  </g>
  <g class="st5">
    <path class="st14" d="M81.23,140.21c0,1.71,1.4,3.1,3.09,3.1h17.29v-4.64h-14.08v-15.09h14.08v-4.64h-20.38v21.27h0Z"/>
  </g>
  <g class="st6">
    <path class="st14" d="M59.34,132.32h7.8v-8.73h-7.8v8.73h0ZM69.98,118.97l-16.92-.04v24.4h6.28v-6.39h7.8v6.39h6.3v-21.27c0-1.82-1.6-3.34-3.46-3.08Z"/>
  </g>
  <g class="st7">
    <path class="st14" d="M296.09,138.63h7.77v-15.05h-7.77v15.05ZM307.1,118.93h-14.26c-1.69,0-3.09,1.39-3.09,3.1v18.18c0,1.71,1.4,3.1,3.09,3.1h14.26c1.69,0,3.08-1.39,3.08-3.11v-18.16c0-1.71-1.39-3.1-3.08-3.1Z"/>
  </g>
  <g class="st9">
    <path class="st14" d="M24.85,130.35c0,1.71,1.4,3.1,3.1,3.1h10.98v5.23h-14.08v4.64h20.38v-11.41c0-1.58-1.18-2.91-2.77-3.08h-.17s-11.16-.01-11.16-.01v-5.23h14.1v-4.65h-20.38v11.42h0Z"/>
  </g>
  <g class="st8">
    <path class="st14" d="M143.37,132.32h7.8v-8.73h-7.8v8.73h0ZM154.35,118.93h-17.28v24.4h6.3v-6.39h7.8v6.39h6.3v-21.27c0-1.71-1.4-3.12-3.12-3.12h0Z"/>
  </g>
  <g class="st12">
    <path class="st14" d="M262.34,123.58h7.06v19.74h6.27v-19.74h7.05v-4.64h-20.38v4.64Z"/>
  </g>
  <g class="st11">
    <path class="st14" d="M197.1,118.94h-31.28v24.37h6.29v-19.73h7.72v19.73h6.37v-19.73h7.71v19.73h6.28v-21.27c0-1.7-1.39-3.1-3.09-3.1"/>
  </g>
  <g class="st15">
    <path class="st14" d="M252.86,118.94h-17.28v24.37h6.29v-19.73h7.8v19.73h6.3v-21.27c0-1.7-1.4-3.1-3.1-3.1"/>
  </g>
  <g class="st16">
    <path class="st14" d="M208.76,140.21c0,1.71,1.39,3.1,3.09,3.1h17.28v-4.64h-14.07v-5.23h14.07v-4.63h-14.07v-5.24h14.07v-4.64h-20.37v21.27h0Z"/>
  </g>
  <g class="st18">
    <path class="st14" d="M115.14,129.82h7.8v-6.23h-7.8s0,6.23,0,6.23ZM125.87,134.46h3.36v-12.41c0-1.81-1.57-3.31-3.45-3.07l-16.92-.04v24.4h6.28v-8.87h4.55l3.77,8.85h6.13l-3.73-8.85Z"/>
  </g>
  <g class="st17">
    <path class="st0" d="M-119.24-96.86H457.68V480.07H-119.24V-96.86Z"/>
  </g>
</svg>