<?xml version="1.0" encoding="UTF-8"?>
<svg id="Ebene_1" xmlns="http://www.w3.org/2000/svg" version="1.1" viewBox="0 0 344.42 421.55">
  <!-- Generator: Adobe Illustrator 29.7.1, SVG Export Plug-In . SVG Version: 2.1.1 Build 8)  -->
  <defs>
    <style>
      .st0 {
        fill: none;
      }

      .st1 {
        fill: #2d2925;
      }

      .st2 {
        fill: #fefefe;
      }

      .st3 {
        fill: #c4cdd3;
      }
    </style>
  </defs>
  <path class="st2" d="M292.46,0l-26.39,46.8-4.87,36.08-41.9,74.67h-44.42l38.97-68.95V0h-54.03l-25.33,46.5-4.55,36.41-63.68,113.57,13.03,32.66h34.56l-11.31,28.64-38.4-41.54,4.72,63.6-68.87,2.89,55.31,38.94-38.97,58.13,63.77-20.85,26.03,62.61,19.65-67.5,71.49,18.44-46.33-53.62,56.06-46.3-52.19,3.24,41.3-46.68h69.63l77.93-138.21.74-1.33V0h-51.97Z"/>
  <path class="st2" d="M295.85,5.8l-24.75,43.87-4.3,35.06-44.11,78.63h-57.76l43.12-76.28V5.8h-44.79l-23.68,43.48-4,35.44-62.9,112.16,10.56,26.44h39.15l-17.82,45.16-33.39-36.12,3.93,53.01-57.81,2.43,45.98,32.38-32.75,48.86,52.87-17.29,21.79,52.36,16.61-57.07,58.97,15.19-38.08-44.04,46.86-38.7-48.35,2.99,52.32-59.15h68.85l76.26-135.25V5.8h-42.78ZM295.85,9.94v-4.14,4.14h0Z"/>
  <path class="st1" d="M295.85,5.8l-24.75,43.87-4.3,35.06-44.11,78.63h-57.76l43.12-76.28V5.8h-44.79l-23.68,43.48-4,35.44-62.9,112.16,10.56,26.44h39.15l-17.82,45.16-33.39-36.12,3.93,53.01-57.81,2.43,45.98,32.38-32.75,48.86,52.87-17.29,21.79,52.36,16.61-57.07,58.97,15.19-38.08-44.04,46.86-38.7-48.35,2.99,52.32-59.15h68.85l76.26-135.25V5.8h-42.78Z"/>
  <path class="st3" d="M286.59,44.92h20.89l14.54-27.32h-20.13l-15.3,27.32ZM155.24,44.97l22.5-.06,14.33-27.32h-21.69s-15.15,27.38-15.15,27.38ZM149.89,79.38l20.27.06,1.89-23.48h-19.61l-2.55,23.42ZM280.8,79.38l20.28.06,1.91-23.48h-19.66l-2.54,23.42ZM96.91,324c-5.14,0-9.3-4.15-9.3-9.28s4.16-9.3,9.3-9.3,9.29,4.15,9.29,9.3-4.15,9.28-9.29,9.28h0ZM276.45,93.42l-45.73,80.56h-109.75l45.75-80.56h-21.52l-55.18,97.51h61.21l-46.42,103.89-19.22-21.35,1.07,25.17-30.94,1.71,24.92,17.56-17.75,26.46,28.64-9.37,11.79,28.4,9.01-30.94,31.95,8.23-20.63-23.87,25.4-20.98-39.19,1.73,72.17-106.63h61.34l54.25-97.51h-21.16Z"/>
  <path class="st0" d="M-77.62-38.46h500v500H-77.62V-38.46Z"/>
</svg>