<?xml version="1.0" encoding="UTF-8"?>
<svg id="Ebene_1" xmlns="http://www.w3.org/2000/svg" version="1.1" viewBox="0 0 400 400">
  <!-- Generator: Adobe Illustrator 29.7.1, SVG Export Plug-In . SVG Version: 2.1.1 Build 8)  -->
  <defs>
    <style>
      .st0 {
        fill: none;
      }

      .st1 {
        fill: #ce1141;
      }

      .st2 {
        fill: #fff;
      }
    </style>
  </defs>
  <path class="st0" d="M-50-50h500v500H-50V-50Z"/>
  <g>
    <path class="st1" d="M262.59,382.84c-1.22,0-2.38-.58-3.12-1.59l-.74-1.02c-1.4-2.05-1.09-3.83-.78-4.72.98-2.85,3.95-3.78,6.81-4.68.98-.31,2.63-.83,3.08-1.17.98-.83,2.05-1.57,3.14-2.29,2.35-1.57,4.29-3.41,6.06-5.18.7-.71,1.5-1.37,2.3-2.02,0,0,1.05-.86,1.27-1.03l2.73-2.83,2.15-2.28,1.59-1.65c1.14-1.18,2.29-2.35,3.34-3.6,2.43-2.82,4.93-5.86,7.48-9.08.89-1.1,1.63-2.25,2.38-3.4l1.33-2c.26-.4.52-.79.82-1.19,1.5-2.08,2.66-3.94,3.62-5.78,1.41-2.61,2.99-5.02,4.52-7.35l1.34-2.05c1.07-1.67,2.18-3.46,2.96-5.29.42-1.01.96-1.99,1.51-2.97.36-.63.73-1.27,1.03-1.93.75-1.65,1.45-3.33,2.15-5l1.1-2.63c.1-.29.32-.93.8-1.58,1.8-2.9,3.1-6.47,4.47-10.26l.88-2.43c1.6-4.4,3.11-8.55,3.95-12.91.52-2.78,1.35-5.49,2.47-8.08.29-.69.48-1.65.68-2.67l.98-4.7c.91-4.33,1.82-8.66,2.65-13.02.49-2.62.91-5.4,1.31-8.74.18-1.43.28-2.86.38-4.29l.27-3.51c.17-2.18.33-4.35.53-6.53.07-.83.12-1.75.18-2.69.1-1.66.21-3.35.38-4.92.14-1.44.35-3.65,2.37-5.05,1.14-.72,2.24-1.02,3.43-1.02.49,0,1.01.05,1.57.15,1.47.25,3.87.81,5.52,1.37,2.07.73,4.1,1.45,6.03,2.28,4.65,2.02,8.98,4.6,13.23,7.89.41.32.78.63,1.22.87.13.07.26.16.39.25,1.1.8,2.11,1.78,3.19,2.81l1.27,1.22c.46.33,1.3,1.03,2.06,1.92.52.61,1.92,2.38,2.43,3.16.12.17.29.4.47.64.43.58.9,1.22,1.27,1.83.43.71.82,1.46,1.19,2.2.42.82.82,1.63,1.31,2.32,1.08,1.53,1.32,3.31.71,5.3-1.73,6.03-4.97,17.69-4.97,17.69l-2.78,8.94c-.05.14-.09.28-.15.41l-2.53,5.76-4.73,9.63-2.82,5.31-4.78,9.48-2.2,3.66-7.33,10.57-3.88,4.8-1.09,1.5-3.47,4.65-6.48,7.47-5.69,5.48-4.51,4.85-3.03,3-2.85,2.68c-.12.11-.24.21-.36.3l-6.21,4.58-4.68,3.38-3.09,2.45-6.78,4.78-3.92,2.57-3.2,1.77-2.32,1.43-1.36.93c-.2.13-.4.25-.62.34l-1.27.56s-1.78.95-2.09,1.12l-.02-.04c-1.17.64-4.33,2.15-14.29,6.9l-5.87,2.3-1.86.8c-.25.12-.53.2-.8.25l-2.95.56c-.24.05-.48.07-.72.07"/>
    <path class="st2" d="M346.42,203.85c-1.91,0-3.68.5-5.28,1.48-.11.07-.22.14-.33.22-3.51,2.42-3.87,6.2-4,7.62l-.02.23c-.17,1.59-.28,3.33-.39,5.06-.06.9-.12,1.81-.18,2.67-.2,2.09-.36,4.28-.52,6.48l-.09,1.13c-.07.82-.13,1.64-.19,2.47-.1,1.35-.2,2.7-.36,4.03-.39,3.28-.8,5.98-1.27,8.5-.82,4.31-1.74,8.72-2.64,12.97l-.74,3.54c-.08.37-.16.77-.24,1.17-.16.79-.32,1.62-.48,2.01-1.18,2.73-2.1,5.73-2.68,8.8-.78,4.03-2.24,8.05-3.79,12.31l-.63,1.74-.24.66c-1.28,3.55-2.5,6.9-4.21,9.68-.6.91-.91,1.74-1.07,2.17-.35.81-.68,1.62-1.02,2.44-.68,1.64-1.37,3.28-2.1,4.9-.27.59-.58,1.12-.88,1.65-.55.98-1.17,2.08-1.72,3.38-.65,1.53-1.67,3.17-2.65,4.7l-1.27,1.93c-1.59,2.42-3.23,4.93-4.71,7.67-.92,1.76-2,3.47-3.43,5.46-.25.34-.55.78-.85,1.22l-.31.46c-.38.57-.72,1.08-1.04,1.58-.74,1.12-1.43,2.18-2.13,3.05-2.57,3.25-5.03,6.25-7.4,9-.99,1.18-2.06,2.28-3.19,3.44-.56.58-1.12,1.15-1.67,1.73l-2.33,2.46-2.12,2.24c-.28.22-.5.39-.69.56l-.63.52c-.8.65-1.71,1.38-2.62,2.29-1.62,1.62-3.38,3.29-5.29,4.57l-.25.17c-.96.64-2.03,1.36-3.11,2.24-.47.2-1.41.5-2.06.7-3.24,1.02-7.67,2.42-9.29,7.1-.93,2.67-.49,5.62,1.18,8.07.04.06.08.11.12.17l.74,1.02c1.45,2,3.76,3.18,6.23,3.18.48,0,.97-.05,1.45-.13l2.95-.57c.55-.1,1.08-.27,1.59-.48l1.85-.8,5.48-2.14c.18-.07.35-.14.52-.22,9.14-4.36,12.8-6.11,14.48-7.02l.04.06c.3-.17,1.5-.8,2.02-1.07l1.05-.46c.43-.19.84-.42,1.23-.68l1.36-.93,2.15-1.32,2.78-1.53c.18-.1.35-.2.51-.31l3.81-2.49c.08-.05.15-.1.23-.15l6.6-4.66c.12-.08.23-.17.34-.25l3.1-2.45,4.51-3.26,4.3-3.2,1.96-1.43c.25-.18.5-.39.72-.6l2.78-2.6s.1-.1.15-.15l2.93-2.89c.07-.08.15-.15.22-.23l4.52-4.85,5.3-5.08c.16-.16.32-.33.47-.5l6.3-7.25c.12-.14.24-.29.36-.44l3.45-4.61,1.15-1.58,3.58-4.41c.12-.15.23-.3.34-.46l7.2-10.37c.09-.13.18-.27.27-.41l2.05-3.4c.1-.17.2-.34.28-.52l4.82-9.56,2.68-5.05c.04-.07.08-.15.12-.22l4.66-9.48c.05-.1.09-.19.14-.3l2.53-5.75c.12-.27.22-.53.3-.82l2.75-8.83.07-.22s3.23-11.65,4.97-17.73c1.16-3.83-.04-6.73-1.26-8.47-.31-.43-.69-1.18-1.06-1.9-.42-.81-.84-1.63-1.3-2.4-.53-.87-1.07-1.6-1.5-2.18-.15-.2-.29-.38-.4-.55-.67-1-2.13-2.83-2.68-3.47-.83-.99-1.75-1.78-2.58-2.43-.32-.31-.65-.62-.97-.93-1.13-1.09-2.29-2.21-3.62-3.17-.25-.18-.51-.35-.78-.5-.23-.14-.45-.33-.67-.51-4.56-3.53-9.15-6.27-14.09-8.4-2.2-.94-4.45-1.73-6.25-2.37-2.02-.68-4.62-1.27-6.23-1.55-.73-.13-1.47-.2-2.18-.2M346.42,211.54c.27,0,.57.03.88.09,1.43.25,3.62.77,4.97,1.23,1.95.69,3.9,1.38,5.76,2.17,4.49,1.95,8.48,4.37,12.4,7.4.54.42,1.08.85,1.7,1.19,1.27.92,2.58,2.32,4.1,3.73.62.47,1.23.98,1.74,1.58.48.56,1.71,2.11,2.16,2.8.46.67,1.16,1.51,1.65,2.32.94,1.57,1.67,3.37,2.68,4.78.43.62.37,1.24.16,1.95-1.75,6.1-4.99,17.78-4.99,17.78l-2.75,8.83-2.53,5.76-4.66,9.48-2.77,5.2-4.82,9.55-2.05,3.4-7.2,10.37-3.7,4.57-1.21,1.67-3.45,4.61-6.3,7.25-5.45,5.23-4.66,5.01-2.93,2.89-2.78,2.6-2.01,1.47-4.23,3.14-4.64,3.36-3.22,2.55-6.61,4.66-3.81,2.49-2.95,1.62-2.48,1.52-1.52,1.03-1.29.57s-2.39,1.26-2.45,1.31c-.03.03-14.03,6.71-14.03,6.71l-5.61,2.18-1.98.85-2.95.56-.74-1.02c-2.01-2.93,5.97-3.24,8.48-5.39.92-.79,1.95-1.46,2.97-2.14,2.37-1.59,4.45-3.52,6.46-5.53.85-.85,1.85-1.6,2.78-2.37.36-.32.78-.59,1.12-.95,1.55-1.63,3.08-3.27,4.64-4.91,1.7-1.8,3.49-3.53,5.09-5.43,2.58-2.99,5.12-6.08,7.55-9.18,1.3-1.6,2.36-3.37,3.52-5.08.36-.52.68-1.04,1.07-1.57,1.46-2.03,2.8-4.08,3.95-6.31,1.7-3.14,3.74-6.08,5.68-9.1,1.2-1.88,2.38-3.79,3.27-5.88.69-1.65,1.75-3.16,2.5-4.81,1.16-2.54,2.19-5.13,3.28-7.7.1-.25.18-.56.36-.8,2.31-3.7,3.76-7.85,5.24-11.92,1.79-4.98,3.72-9.96,4.74-15.24.47-2.5,1.2-4.92,2.22-7.28.6-1.44.81-3.01,1.14-4.55,1.16-5.54,2.36-11.08,3.42-16.66.56-2.99.99-5.98,1.35-9,.28-2.27.39-4.56.59-6.85.19-2.54.37-5.05.61-7.59.19-2.44.28-5.12.55-7.54.1-.93.12-1.88.74-2.31.39-.25.8-.33,1.24-.33"/>
    <path class="st1" d="M390.15,232.59c-1.28,0-2.53-.61-3.42-1.67-.58-.68-1.3-1.77-1.99-2.85-.46-.72-.89-1.44-1.24-1.82-.71-.62-1.4-1.36-1.95-2.09-1.76-2.31-4.24-4.13-6.87-6.05l-4.67-3.45-2.11-1.19c-1.53-.85-2.98-1.65-4.43-2.24-3.2-1.3-6.77-2.48-9.86-3.48-.46-.14-1.08-.28-1.63-.41-.45-.11-.85-.2-1.17-.29l-.48-.08c-.58-.1-1.16-.22-1.77-.41-1-.3-2.52-.76-3.57-2.4-.83-1.28-1.05-2.76-1.08-3.78,0,0-.02-2.01-.04-2.82l-.25-5.02c-.1-2.08-.21-4.15-.3-6.23-.27-7.64-1.52-15.01-2.85-22.82l-.26-1.54c-.2-1.23-.42-2.17-.62-3.09-.27-1.2-.52-2.37-.76-3.96l-.11-.65c-.28-1.57-.66-3.71.7-5.65,1.87-2.43,4.72-2.43,6.26-2.43,1.84,0,3.1.02,4.69.04l1.36.02c3.59.06,6.35.19,8.94.42,3.28.31,7.07.68,10.77,1.32,2.17.36,4.2.94,6.16,1.5.9.25,1.8.51,2.72.75.85.21,1.81.55,2.74.9.47.17.93.35,1.37.48.77.23,1.56.6,2.29.95,1.2.58,4.67,2.27,5.59,6.7,1.21,6.03,2.75,17.29,2.82,17.77l1.35,12.97.05,2.06-.05,11.44-.82,11.64s-1.47,13.24-1.53,13.75c-.1,2.33-2.08,3.73-3.96,3.73"/>
    <path class="st2" d="M345.32,142.94c-1.72,0-6.3,0-9.22,3.82-.06.08-.12.17-.18.25-2.29,3.25-1.68,6.68-1.35,8.53l.1.57c.27,1.74.55,3.05.81,4.21.19.87.39,1.74.58,2.89l.26,1.55c1.3,7.68,2.53,14.93,2.8,22.29.09,2.17.2,4.28.3,6.4.08,1.65.17,3.3.24,4.96.02.66.03,1.22.03,1.92v.65c.06,1.67.4,3.9,1.73,5.95,1.77,2.79,4.52,3.6,5.42,3.87.03.01.17.05.2.06.9.28,1.67.42,2.22.52.12.02.23.04.35.07.32.08.7.17,1.12.27.45.1.96.21,1.35.33,2.99.97,6.47,2.12,9.57,3.38,1.25.51,2.61,1.26,4.04,2.06.57.32,1.14.63,1.72.94l2.88,2.13.91.68.84.62c2.4,1.75,4.66,3.41,6.1,5.3.58.77,1.32,1.59,2.17,2.38.25.35.53.81.83,1.27.72,1.13,1.47,2.29,2.33,3.3,1.58,1.88,3.9,2.99,6.32,2.99,3.52,0,7.38-2.56,7.8-7.31.07-.58.15-1.37.15-1.37l1.35-12.06c.01-.1.02-.21.03-.31l.81-11.38c.01-.17.02-.34.02-.51l.05-11.35-.03-1.91c0-.22-.02-.44-.04-.66l-1.34-12.85c0-.08-.02-.16-.03-.24-.07-.48-1.62-11.85-2.85-17.97-.88-4.23-3.44-7.37-7.62-9.41-.76-.37-1.76-.85-2.95-1.21-.31-.1-.71-.25-1.12-.4-.95-.35-2.02-.75-3.2-1.04-.82-.21-1.68-.45-2.55-.7-2.07-.58-4.2-1.19-6.6-1.59-3.79-.65-7.67-1.04-11.01-1.35-2.72-.25-5.56-.38-9.23-.44l-1.5-.02c-1.55-.02-2.8-.04-4.62-.04M345.32,150.64c2.31,0,3.69.03,5.99.06,2.9.05,5.77.15,8.65.41,3.48.32,7.01.68,10.46,1.28,2.94.49,5.68,1.43,8.58,2.18,1.25.31,2.66.93,3.9,1.32.63.19,1.25.49,1.82.77,1.71.83,3.01,1.92,3.45,4.01,1.19,5.95,2.76,17.5,2.76,17.5l1.34,12.85.03,1.73-.05,11.35-.81,11.38-1.36,12.17s-.09.87-.15,1.34c-.01.23-.04.39-.15.39-.1,0-.28-.06-.47-.29-1.12-1.31-2.64-4.19-3.53-4.99-.55-.49-1.09-1.03-1.52-1.62-2.32-3.05-5.45-5.2-8.47-7.42-1.28-.95-2.57-1.92-3.86-2.87-.23-.18-.48-.36-.73-.48-2.22-1.18-4.35-2.49-6.64-3.42-3.25-1.32-6.79-2.5-10.13-3.58-.92-.29-2.26-.55-2.98-.75-.7-.17-1.38-.23-2.12-.46-.6-.2-1.13-.27-1.46-.79-.31-.47-.46-1.17-.48-1.83-.01-1.08-.01-1.77-.05-2.83-.17-3.78-.38-7.52-.54-11.28-.3-8.39-1.77-16.6-3.17-24.85-.47-2.78-.95-4.18-1.37-6.98-.22-1.39-.6-2.74-.07-3.52.58-.75,1.88-.8,3.11-.8"/>
    <path class="st1" d="M294.79,95.16c-2.46,0-4.68-.13-6.59-.38-4.9-.61-14.12-2.97-14.5-3.07l-9.03-3.25c-.79-.28-1.46-.82-1.92-1.53l-2.6-4.02-7.47-1.69c-1.45,0-2.78-.82-3.43-2.11l-2.09-2.38c-.46-.22-.88-.54-1.22-.92l-3.15-3.56-2.78-.18c-1.24-.08-2.37-.77-3.02-1.83l-1.28-2.08-9.23-3.12-6.81,2.65c-.45.18-.92.26-1.4.26-.67,0-1.35-.18-1.95-.53-.58-.33-1.04-.81-1.37-1.37l-12.08-5.88c-.47-.07-.91-.2-1.26-.41l-8.07-4.67-15.54-.91c-.38.13-.78.19-1.19.19-.04,0-6.46-.17-6.46-.17-.4.14-.82.21-1.24.21-.98,0-1.95-.37-2.68-1.09l-4.4-4.26c-.38-.15-.74-.37-1.07-.65l-4.6-3.94-12.17-.63c-.22.04-.45.07-.67.07-.08,0-10.77-.86-10.77-.86-.23-.02-.46-.06-.69-.12,0,0-4.67-.37-4.67-.37-.27,0-7.98-.19-7.98-.19-.22,0-.44-.03-.65-.07l-2.63,1.08-5.53,1.93c-.34.12-.7.19-1.06.21l-.35.02-9.85,3.78-4.39,1.57c-2.52.98-3.29,1.25-3.84,1.33-.77.23-2.34.77-2.34.77l-5.63,2.21c-.45.17-.92.27-1.4.27l-4.61,1.87c-.46.19-.96.28-1.45.28-.07,0-.25,0-.27,0-1.03.36-2.84,1.03-2.84,1.03l-2.25.68c-.36.11-.73.16-1.11.16-.97,0-1.91-.37-2.62-1.03-1-.93-1.43-2.32-1.13-3.65.28-1.27.8-1.97,4.21-4.89l1.95-1.64,5.45-4.3,5.87-3.97,5.46-4.31c.1-.08.21-.16.32-.23l.82-.52,5.26-2.8,1.53-.88,4.73-2.47,4.58-3.01,5.9-3.21,2.82-1.36,8.31-3.25,6.25-2.6,2.38-.92,1.79-1.05c.29-.17.61-.3.93-.39l3.75-1.02,1.29-.79c.31-.19.65-.33,1-.43l2.89-.79,4.58-1.67c.42-.15.86-.23,1.31-.23.04,0,.88.03.88.03l4.59-.9,3.03-.94c.13-.04.26-.07.39-.1l4.27-.85,4.47-.51,5.02-.14,5.75-.66,6.45-.19,3.86.07,2.4.25,5.7.38c.15.01.3.03.45.06l4.58.86,2.33.08c.19,0,.38.03.56.06l5.48,1,2.87.73.53.09,3.84.91c.17.04.33.09.49.15l9.21,3.47,6.17,2.24,1.66.7,7.95,4.28,11.08,6.73,3.16,1.68c.19.1.37.22.54.35l9.27,7.16,11.58,10.69,3.23,3.17,10.43,11.44c.09.1.18.2.25.31l1.74,2.36,1.72,2.02,9.25,13.3,2.22,3.46c1.41,2.48,2.26,4.03,2.61,4.75,1.03,1.79,1.2,3.47.52,5.03-1.16,2.75-3.78,2.99-4.65,3.08-.61.07-1.3.11-2.03.14l-1.22.07c-1.85.13-4.23.26-6.72.26h0,0Z"/>
    <path class="st2" d="M183.82,0h-.21l-6.12.17c-.22,0-.44.02-.65.05l-5.75.65-4.35.11c-.22,0-.44.02-.66.05l-4.14.46c-.22.02-.43.05-.65.1l-4.27.84c-.26.05-.52.12-.78.2l-2.84.88-3.97.77h-.33c-.08-.02-.16-.02-.24-.02-.89,0-1.78.16-2.62.46l-4.59,1.66-2.59.7c-.7.19-1.37.48-1.99.86l-.83.5-3.22.87c-.65.18-1.28.44-1.86.78l-1.52.88-2,.78c-.06.02-.12.05-.18.07l-6.33,2.63-7.88,3.08c-.18.07-.36.15-.53.23l-2.66,1.28c-.11.05-.22.11-.33.17l-5.63,3.04c-.19.1-.37.21-.55.33l-4.59,2.99-4.25,2.22c-.1.05-.2.1-.3.16l-1.53.88-4.88,2.58c-.18.1-.36.2-.53.31l-.82.52c-.21.14-.42.28-.62.44l-5.47,4.3-4.48,3.02-.92.62c-.16.11-.32.22-.47.34l-5.35,4.22-.18.15-1.93,1.62c-3.31,2.84-4.91,4.3-5.52,7-.6,2.67.27,5.45,2.27,7.32,1.42,1.33,3.3,2.06,5.24,2.06.75,0,1.49-.11,2.21-.32l2.02-.61c.15-.05.3-.1.45-.15.73-.27,1.45-.53,2.18-.8.86-.05,1.71-.24,2.52-.56l4-1.63c.67-.07,1.33-.23,1.96-.48l5.64-2.21c.37-.13,1.26-.43,1.85-.61,1.02-.2,2.16-.64,4.32-1.48l4.2-1.5,9.47-3.63c.63-.06,1.25-.19,1.85-.4l5.34-1.86c.13-.05.26-.1.39-.15l1.75-.72c.45,0,6.3.15,7.93.19l4.27.33c.3.07.61.12.89.14l10.51.85c.21.02.42.02.62.02.29,0,.57-.01.85-.05l10.41.54,3.6,3.09c.41.35.86.66,1.34.92l3.95,3.83c1.47,1.42,3.4,2.17,5.35,2.17.57,0,1.15-.07,1.71-.19l5.78.16c.07,0,.14,0,.21,0,.53,0,1.05-.06,1.56-.16l14.03.82,7.28,4.21c.67.38,1.39.67,2.13.84l10.61,5.17c.55.64,1.21,1.2,1.96,1.64,1.2.7,2.55,1.06,3.9,1.06.95,0,1.89-.17,2.79-.52l5.5-2.14,6.59,2.22.55.9c1.3,2.12,3.55,3.48,6.04,3.65l1.21.08,2.1,2.37c.48.54,1.03,1.02,1.64,1.4l1.39,1.58c1.28,2.14,3.57,3.57,6.14,3.72l5.53,1.26,1.75,2.7c.91,1.41,2.26,2.48,3.84,3.05l8.67,3.14c.23.08.47.15.71.22,1,.26,9.93,2.53,15,3.16,2.03.27,4.41.4,7.04.4,2.13,0,4.42-.09,6.99-.27.39-.03.77-.05,1.13-.07.83-.04,1.6-.08,2.28-.17,4.96-.47,7-3.62,7.78-5.45.78-1.79,1.31-4.76-.68-8.28-.3-.6-.96-1.83-2.55-4.65-.07-.12-.15-.25-.23-.37l-2.14-3.33c-.05-.08-.1-.16-.16-.23l-9.03-13.02c-.13-.2-.28-.39-.43-.57l-1.71-2.03-1.58-2.15c-.16-.22-.33-.42-.51-.62l-2.98-3.27-7.3-8.01c-.1-.11-.2-.21-.3-.31l-3.15-3.09c-.05-.05-.11-.11-.17-.16l-11.32-10.47c-.17-.15-.34-.3-.52-.44l-9.27-7.16c-.34-.27-.71-.5-1.09-.7l-3.16-1.68-10.73-6.53c-.11-.07-.22-.13-.33-.19l-7.62-4.12c-.22-.12-.43-.22-.66-.32l-1.47-.62c-.12-.05-.25-.1-.38-.15l-6.22-2.25-9.13-3.44c-.32-.12-.65-.22-.98-.3l-.71-.17-2.9-.7c-.13-.03-.26-.06-.38-.08l-.53-.1-2.33-.6c-.18-.05-.37-.09-.56-.12l-5.48-.99c-.37-.07-.75-.11-1.12-.12l-2.04-.07-4.29-.81c-.3-.05-.6-.09-.91-.11l-5.7-.38-1.9-.2c-.23-.03-.45-.04-.68-.05l-3.68-.07h-.15ZM183.82,7.69l3.68.07,2.05.22,5.87.39,4.87.92,2.63.08,5.48,1,2.59.67.78.15,2.98.72.71.17,9.22,3.47,6.22,2.25,1.47.62,7.62,4.12,10.92,6.64,3.35,1.78,9.27,7.16,11.32,10.47,3.15,3.09,7.3,8.01,2.98,3.27,1.73,2.36,1.87,2.22,9.03,13.02,2.14,3.34s2.19,3.89,2.43,4.46c.17.32.69,1.03.4,1.72-.29.69-.9.72-1.55.78-.88.1-1.93.12-3.08.2-1.78.12-4.06.25-6.46.25-2.03,0-4.14-.09-6.09-.34-4.73-.59-14.04-2.98-14.04-2.98l-8.67-3.14-3.45-5.33-9.37-2.13h-.47l-.05-.25-3.38-3.86-.42-.02-4.19-4.75-4.37-.29-2.01-3.27-11.87-4.01-8.11,3.15-.1-.77-14.28-6.95-.35.05-8.09-4.68-.1-.41-18.17-1.06-.36.25-7.23-.2-.48.23-5.25-5.08-.39.02-5.15-4.42-.08-.36-14.52-.75-.12.09-10.51-.85-.17-.08-5.19-.41c-.11,0-8.19-.2-8.19-.2l-.61-.44-4.23,1.73-5.34,1.86-.96.05-10.42,3.99-4.31,1.54s-2.89,1.13-3.08,1.13c0,0,0,0,0,0s0,0-.02,0c-.21,0-3.02.95-3.02.95l-5.8,2.27h-.78l-5.29,2.16s-.64-.03-.71-.06h0c-.14,0-3.73,1.33-3.73,1.33l-2.02.6c.07-.33,2.96-2.8,2.96-2.8l1.93-1.62,5.35-4.22.93-.62,4.71-3.18,5.69-4.48.82-.52,5-2.65,1.65-.95,4.59-2.39,4.9-3.2,5.63-3.04,2.66-1.28,8.04-3.14,6.33-2.63,2.57-.99,2.05-1.2,4.28-1.16,1.77-1.08,2.9-.79,4.88-1.77,1.19.04,5.23-1.02,3.23-1,4.27-.84,4.14-.46,4.69-.12,6.08-.68,6.12-.17h0Z"/>
    <path class="st1" d="M384.66,153.02c-.68,0-1.44-.16-1.94-.3l-.62-.18c-1.07-.31-2.12-.63-3.1-1.07-1.82-.85-3.79-1.5-5.72-1.89l-2-.43c-1.93-.42-3.88-.83-5.82-1.19-1.05-.17-3.38-.41-3.4-.42-3.07-.28-6.84-.6-7.48-.6-3.45.06-6.9.16-10.35.28-.98.05-2.02.08-3.06.08-2.85,0-4.99-1.68-5.65-4.38l-.49-1.87c-.22-.84-.43-1.67-.66-2.49l-1.37-4.43-1.31-4.13c-.62-1.95-1.24-3.9-1.87-5.85-.38-1.14-.87-2.3-1.38-3.43-.6-1.38-1.13-2.73-1.65-4.08-.97-2.47-1.87-4.79-3.07-6.97-.95-1.77-1.78-3.57-2.61-5.37l-1.08-2.33c-.29-.58-.52-1.3-.67-2.07-.28-1.55.01-2.83.85-4,.99-1.21,2.02-1.63,2.57-1.85.58-.24,2.56-1.16,2.56-1.16l2.65-1.54s1.79-1.19,2.23-1.52c.55-.41,3.06-2.48,3.17-2.57h0s3.11-2.87,4.6-4.52c.98-1.09,3.65-5.22,5.23-7.8.47-.78,1.21-1.36,2.08-1.65.42-.14.87-.22,1.3-.22,1.56,0,2.84.71,3.81,2.12.55.65,1.83,2.18,1.83,2.18l13.92,18.82,2.07,3.36,2.91,5.82,2.88,4.68c.08.14.16.28.22.43l2.53,5.63,2.08,4.99,4.4,9.81,1.54,4.27,1.56,4.65.55,2.11.44,1.16c.18.5,1.14,3.17,1.43,4.81.3,1.8-.53,4.1-2.65,4.87h0c-.46.16-.97.25-1.43.25"/>
    <path class="st2" d="M346.57,69.23c-.83,0-1.67.14-2.47.41-1.72.56-3.21,1.71-4.18,3.3-1.91,3.11-4.17,6.5-4.83,7.26-1.07,1.18-3.4,3.38-4.33,4.24-.56.46-2.32,1.9-2.83,2.28-.43.32-1.6,1.09-2.08,1.41l-2.46,1.41c-.54.25-1.63.75-1.99.9-.82.33-2.55,1.03-4,2.77-.12.15-.24.3-.36.46-1.43,2.01-1.95,4.29-1.52,6.79.25,1.28.6,2.33,1.07,3.28.3.63.66,1.4,1.01,2.18.83,1.8,1.68,3.66,2.69,5.53,1.11,2.02,1.98,4.23,2.89,6.58.54,1.39,1.09,2.78,1.68,4.16.46,1.04.95,2.17,1.28,3.18.61,1.85,1.21,3.75,1.81,5.65.46,1.45.92,2.9,1.38,4.35.17.58.4,1.32.63,2.05.24.75.48,1.51.7,2.27.21.72.41,1.5.61,2.3.17.65.34,1.32.52,1.98,1.1,4.3,4.83,7.18,9.3,7.18,1.16,0,2.26-.04,3.37-.09,3.3-.11,6.74-.21,10.2-.27.57.02,4.17.32,7.08.59,0,0,2.13.22,3.18.39,1.7.32,3.58.72,5.46,1.12l2.08.45c1.65.34,3.38.91,4.91,1.62,1.34.62,2.61.98,3.63,1.28l.59.17c.52.15,1.74.47,3.05.47.93,0,1.9-.17,2.79-.5h0c4.07-1.51,5.66-5.83,5.08-9.13-.33-1.86-1.23-4.45-1.61-5.48l-.41-1.14-.39-1.5c-.05-.17-.09-.34-.15-.5l-1.53-4.58-1.48-4.14c-.07-.19-.14-.37-.23-.56l-4.4-9.81-1.99-4.79c-.03-.07-.05-.14-.08-.2l-2.53-5.63c-.14-.3-.28-.58-.45-.85l-2.87-4.69-.56-1.14-2.05-4.1c-.1-.2-.21-.39-.32-.58l-1.88-3.08c-.12-.19-.24-.37-.37-.55l-.8-1.08-12.98-17.57c-.09-.12-.18-.25-.28-.36,0,0-1.04-1.25-1.75-2.07-2.22-3.12-5.24-3.6-6.85-3.6M346.57,76.92c.42,0,.51.29.81.68.64.73,1.88,2.22,1.88,2.22l12.98,17.57.8,1.08,1.88,3.08,2.03,4.07.71,1.44,3.04,4.98,2.53,5.63,2.03,4.89,4.45,9.91,1.43,3.99,1.53,4.58.48,1.85.54,1.5s1.02,2.77,1.25,4.16c.03.18-.09.57-.18.6-.02.01-.07.02-.12.02-.2,0-.59-.07-.85-.14-1.1-.33-2.2-.61-3.2-1.07-2.05-.95-4.33-1.7-6.55-2.16-2.62-.55-5.27-1.15-7.89-1.63-1.22-.2-3.7-.46-3.7-.46,0,0-6.75-.62-7.89-.62h-.04c-3.5.07-6.97.17-10.44.28-.98.05-1.95.08-2.93.08h-.05c-.97,0-1.62-.44-1.86-1.44-.42-1.52-.77-3.03-1.19-4.51-.45-1.5-.93-2.99-1.38-4.48-1.08-3.33-2.12-6.72-3.22-10.07-.43-1.28-.97-2.55-1.52-3.8-1.63-3.79-2.86-7.69-4.86-11.33-1.31-2.43-2.41-5.01-3.6-7.5-.18-.37-.3-.76-.37-1.15-.08-.5-.02-.72.19-1.02.25-.29.67-.44,1.03-.59.36-.14,2.6-1.17,2.6-1.17l2.97-1.7s2.14-1.42,2.62-1.78c.49-.36,3.3-2.67,3.3-2.67,0,0,3.34-3.07,5-4.9,1.67-1.86,5.66-8.37,5.66-8.37.03,0,.06-.03.09-.03"/>
    <path class="st1" d="M316.89,93.18c-1.87,0-3.79-1.08-4.89-2.77l-.45-.63c-.72-1.03-1.54-2.19-2.18-3.54-.77-1.66-1.85-3.28-3.43-5.16-1.83-2.22-3.26-4.55-4.65-6.81-.44-.72-.88-1.43-1.32-2.14-.15-.22-.29-.48-.43-.74-1.22-1.5-2.27-2.85-3.32-4.21-1.62-2.09-3.15-4.06-4.89-5.79-1.88-1.88-3.49-3.92-4.83-5.66-1.31-1.71-2.88-3.25-4.54-4.88l-.82-.81c-2.58-2.46-4.55-4.43-6.33-6.35-1.06-1.15-2.37-2.15-3.75-3.22-.72-.55-1.44-1.11-2.15-1.69,0,0-1.61-1.37-1.85-1.59-.21-.19-.4-.4-.63-.54-2.2-1.23-3.9-2.7-5.33-4-1.64-1.55-3.42-2.9-5.36-4.07-3.54-2.1-7.1-4.18-10.71-6.25-.63-.38-1.31-.66-2.26-.95-1.25-.36-2.4-.89-3.43-1.36-.49-.22-.98-.45-1.48-.65-1.15-.47-2.29-.9-3.43-1.33-1.23-.47-2.45-.93-3.66-1.42-.37-.13-1.43-.66-1.43-.66-.43-.21-.79-.49-1.12-.85l-.3-.33c-1.37-1.52-1.32-3.84.13-5.29l.67-.67c.73-.73,1.71-1.13,2.72-1.13.12,0,.25,0,.38.02l1.19.12c.15.02.29.03.43.07l7.58,1.63,7.96,2.01c.32.1,10.31,3.57,11.22,3.85h0c.57.18,1.54.52,3.51,1.21v.03c1.1.37,3.42,1.28,9.15,3.53l17.21,8.13,21.84,13.1c.2.12.39.26.56.41l4.29,3.77c.97.75,1.68,1.31,2.21,1.78l.02-.02c.26.22,12.39,10.03,12.39,10.03l.84.72,2.57,2.52c.17.17.32.35.46.55l1.14,1.65,1.74,2c.17.19.32.4.44.62l.67,1.18c1.19,1.81,1.37,2.66,1.45,3.02.25,1.27-.03,2.67-.85,4.19l-2.94,4.93c-.07.12-.14.23-.22.34l-1.67,2.23c-.4.48-2.64,3.08-3.87,4.23-.85.75-1.95,1.59-2.82,2.25-.4.3-.75.56-.93.71-.79.75-2.42,1.62-3.31,2.07l-2.86,1.27-1.62.67c-.53.23-1.42.56-2.22.65-.15.02-.33.03-.48.03"/>
    <path class="st2" d="M231.44,3.85c-2.04,0-3.99.81-5.44,2.25l-.67.67c-2.9,2.89-3.02,7.55-.28,10.59l.3.33c.63.7,1.39,1.28,2.24,1.71.49.25,1.18.58,1.82.83,1.2.48,2.42.95,3.64,1.41,1.12.43,2.25.85,3.37,1.3.44.18.87.38,1.31.58,1.09.5,2.45,1.12,4.01,1.57.55.17.97.33,1.28.52,3.61,2.08,7.2,4.18,10.78,6.3,1.65,1,3.21,2.18,4.58,3.48,1.68,1.52,3.54,3.13,5.89,4.47.07.06.13.12.2.18.29.27.58.52.87.77l.37.32.58.49c.05.05.11.09.16.13.74.61,1.5,1.2,2.25,1.78,1.31,1,2.43,1.87,3.27,2.77,1.85,1.98,3.87,4.01,6.56,6.58l.75.73c1.55,1.53,3.02,2.97,4.16,4.46,1.42,1.84,3.13,3.99,5.13,6.01,1.62,1.6,3.07,3.48,4.62,5.47.97,1.25,1.97,2.55,3.06,3.84.19.35.36.63.53.9.39.61.82,1.31,1.25,2.01,1.45,2.37,2.95,4.82,4.94,7.22,1.39,1.66,2.3,3.01,2.9,4.31.82,1.72,1.78,3.09,2.55,4.19l.45.65c1.75,2.65,4.85,4.37,8.02,4.37.1,0,.23,0,.33,0,.2,0,.39-.02.58-.05,1.03-.12,2.17-.44,3.38-.97l1.38-.57c.07-.03.13-.06.2-.08,0,0,1.95-.86,2.64-1.17.13-.06.26-.11.38-.18,1.77-.89,3.15-1.76,4.1-2.58.18-.15.44-.34.75-.57.91-.68,2.04-1.54,2.97-2.37.05-.05.1-.09.15-.14,1.32-1.24,3.4-3.64,4.01-4.35.1-.12.2-.25.3-.38l1.67-2.22c.17-.22.32-.45.46-.68l2.85-4.78c.06-.1.12-.21.17-.32.86-1.6,1.77-4.08,1.23-6.75-.19-.93-.58-2.18-1.99-4.37l-.55-.98c-.26-.45-.56-.87-.9-1.26l-1.6-1.83-1.02-1.47c-.27-.39-.58-.76-.92-1.09l-2.36-2.33c-.13-.13-.26-.25-.4-.37l-.74-.63c-.06-.06-.13-.11-.19-.16l-6.9-5.58c-2.75-2.22-5.13-4.15-5.45-4.42l-.03.04c-.66-.6-1.43-1.2-2.29-1.87l-4.12-3.62c-.35-.3-.72-.58-1.12-.82l-21.5-12.92c-.22-.13-.44-.25-.67-.36l-16.97-8.03c-.16-.08-.32-.15-.48-.21-5.27-2.07-7.84-3.08-9.3-3.57l.02-.04c-1.8-.63-2.88-1.01-3.62-1.24h0c-.67-.22-6.06-2.08-10.78-3.72-.21-.07-.42-.13-.63-.19l-7.82-1.98c-.09-.02-.18-.04-.27-.06l-7.59-1.63c-.29-.06-.57-.11-.87-.13l-1.19-.12c-.25-.02-.5-.03-.75-.03M231.44,11.54l1.19.12,7.58,1.63,7.82,1.98s10.98,3.81,11.09,3.81c.03,0,3.31,1.15,3.31,1.15.06,0,9.01,3.51,9.01,3.51l16.97,8.03,21.5,12.92,4.29,3.77s2.28,1.78,2.28,1.8c.02.03,8.3,6.72,12.45,10.09.24.21.77.66.77.66l2.36,2.34,1.27,1.83,1.88,2.16.67,1.18s.92,1.4,1.02,1.9c.11.53-.47,1.6-.47,1.6l-2.85,4.78-1.67,2.23s-2.31,2.69-3.43,3.74c-1.16,1.03-3.17,2.43-3.66,2.88-.47.44-1.83,1.18-2.48,1.51-.71.31-2.7,1.19-2.7,1.19l-1.52.62s-.8.35-1.21.4h-.03c-.44,0-1.23-.34-1.68-1.03-.82-1.19-1.73-2.38-2.36-3.7-1.01-2.2-2.42-4.16-3.96-5.99-2.19-2.65-3.84-5.65-5.67-8.53-.3-.45-.5-.98-.86-1.38-2.83-3.3-5.22-6.97-8.33-10.04-1.63-1.64-3.07-3.44-4.48-5.27-1.7-2.22-3.72-4.12-5.7-6.08-2.13-2.03-4.22-4.08-6.21-6.23-1.87-2.03-4.17-3.52-6.27-5.25-.37-.32-.75-.64-1.12-.95-.67-.55-1.29-1.25-2.04-1.63-1.68-.94-3.12-2.16-4.53-3.44-1.83-1.73-3.82-3.22-5.95-4.51-3.59-2.13-7.16-4.22-10.78-6.3-.97-.57-1.97-.96-3.07-1.29-1.58-.46-3.04-1.28-4.57-1.89-2.36-.95-4.75-1.8-7.09-2.75-.37-.13-1.14-.52-1.14-.52l-.3-.33.67-.67"/>
    <path class="st1" d="M9.27,226.08c-.48,0-.97-.09-1.44-.28-.06-.02-.12-.05-.18-.08-1.2-.51-2.37-1.71-2.63-4.42l-.42-6.46-.41-.9c-.23-.53-.35-1.1-.33-1.68l.67-25.61c0-.14.01-.27.03-.41l1.56-11.68.36-5.38c.01-.19.04-.38.08-.57l1.04-4.68,1.76-10.62,1.18-5.54c.05-.25.13-.48.23-.72l2.46-5.7.27-2.18c.13-1.06.69-2.02,1.55-2.65l6.39-4.66,14.14-10.51,12.65-9.11,7.99-6.1c.38-.6.93-1.09,1.59-1.41l3.82-1.83,1.63-1.67c.75-.77,1.75-1.16,2.75-1.16.83,0,1.67.27,2.37.82h.01c2.19.37,7.46,1.23,9.33,1.52,2.05-.67,5.42-1.52,11.03-2.93.31-.08.62-.12.94-.12.37,0,.74.05,1.1.16l1.3.38c.12-.02.25-.02.38-.02.57,0,1.13.12,1.65.37l4.3,2.05,3.21-2.53c.22-.36.49-.68.79-.91l16.52-12.76c.69-.53,1.52-.8,2.35-.8.67,0,1.34.18,1.95.53l.52.3,3.53.12c.33.01.66.07.97.16l14.18-.09c.41-.15.84-.22,1.28-.22.12,0,.24,0,.36.02l7.32.69c.22-.21.46-.39.73-.55l17.72-10.23c.6-.35,1.26-.51,1.92-.51.43,0,.86.07,1.27.22l10.2-.77c.46-.24.97-.39,1.48-.43,0,0,4.97-.39,5.07-.39.43,0,.85.07,1.26.21,0,0,24.32-1.28,24.38-1.28.5,0,.98.1,1.45.28l6.44,2.62s7.34-.53,7.43-.53c.86,0,1.7.29,2.38.82l1.67.57c.08,0,.16,0,.24,0,.19,0,.38.02.57.04l4.27.64c1.39.21,2.55,1.16,3.03,2.45l2.04,1.84c.5.13.97.35,1.38.67l4.92,3.74,9.46.74c.41-.14.83-.21,1.26-.22.42,0,.84.07,1.24.21l12.71,4.35h0c.06,0,7.38,1.82,10.48,2.27l8.97,1.17h3.26c.37,0,.73.05,1.08.15,3.63-.29,6.09-.48,6.97-.48.54,0,2.32-.15,4.67-.42l.44-.07c.52-.08.95-.13,1.34-.13.91,0,1.77.23,2.54.68,1.44.79,2.06,1.95,2.36,2.52l-3.18,2.22,3.38-1.84c.18.33.3.58.43.87l1.28,2.42c1.72,3.27,3.34,6.37,4.67,10.14.14.43.31.78.47,1.15.19.45.39.9.57,1.36.25.71.47,1.37.68,2.04.31.99.61,1.98,1.05,2.9,1.03,2.07,1.75,4.23,2.44,6.31.3.88.59,1.77.92,2.65.84,2.32,1.52,4.56,2.21,6.83.38,1.26.76,2.52,1.18,3.82.69,2.15.13,3.67-.45,4.57-.58.91-1.77,2.05-4.07,2.31-1.87.2-3.72.38-5.57.56l-2.4.24c-3.19.33-6.37.65-9.55.89-4.68.39-13.46,1.45-16.11,1.78l-.16.1c-.59.34-1.25.52-1.93.52-.76,0-1.5-.22-2.13-.64,0,0-2.24.15-2.33.15-.47,0-.94-.08-1.38-.26l-5.38-2.07-5.48-.82c-.56-.08-1.1-.29-1.57-.61l-.08-.06-.08.02c-.28.07-.57.1-.87.1-.33,0-.65-.04-.97-.13l-7.12-1.85-1.42.33c-.05.03-2.35,1.09-2.35,1.09-.23.1-.46.18-.7.25-.73.72-1.71,1.11-2.71,1.11-.64,0-1.29-.16-1.88-.49l-3.51-1.97h-.25c-.55-.02-1.1-.15-1.59-.4l-3.25-1.59-.53.17c-.23.16-.47.29-.72.38l-12.37,4.72c-.4.43-.89.76-1.45.97l-3.99,1.51c-.3.27-.65.5-1.02.66l-4.54,2.03c-.39.18-.81.28-1.24.32l-2.18.98c-.5.53-1.15.92-1.87,1.1l-1.52.38c-.31.08-.62.11-.93.11-.44,0-.88-.08-1.31-.23l-7.92-.38c-.63.45-1.38.69-2.15.7l-10.92.19c-.54.28-1.14.42-1.74.42-.88,0-1.77-.3-2.49-.92l-4.4-3.75-3.4.58c-.46.27-.97.45-1.5.52l-4.76.58c-.62.39-1.33.58-2.04.58-.57,0-1.13-.12-1.64-.37l-6.17-2.92-10.85,1.39-7.56,7.2c-.24.23-.5.42-.79.58l-10,10.2c-.54.55-1.23.93-1.99,1.08l-5.82,1.17c-.25.05-.5.07-.75.07-.12,0-.24,0-.37-.02l-7.46-.71c-.48-.05-.95-.18-1.37-.4l-16.27-.23-5.77,3.95-5.87,3.63-1.27,1.67c-.75.98-1.89,1.52-3.07,1.52-.44,0-.9-.08-1.33-.24l-.14-.05h-3.4c-.42.22-.89.36-1.36.42l-13.13,1.47-4.92,5.64c-.68.79-1.66,1.26-2.7,1.31l-8,.41-8.94,3.6-30.83,31.89c-.74.77-1.74,1.17-2.77,1.17"/>
    <path class="st2" d="M215.42,69.23c-.13,0-.27,0-.4.01l-23.57,1.24c-.55-.12-1.11-.18-1.67-.18-.2,0-.4,0-.61.02l-4.77.38c-.73.06-1.45.22-2.13.48l-8.88.67c-.54-.12-1.09-.18-1.65-.18-1.32,0-2.65.34-3.85,1.03l-17.57,10.14-5.92-.55c-.24-.02-.48-.03-.72-.03-.62,0-1.23.07-1.83.22l-13.18.08c-.42-.08-.85-.14-1.29-.15l-2.58-.09c-1.12-.58-2.33-.87-3.55-.87-1.7,0-3.35.57-4.7,1.61l-16.52,12.76c-.52.4-.98.86-1.37,1.37l-.78.62-2.15-1.02c-1.01-.48-2.09-.73-3.17-.75l-.71-.21c-.71-.21-1.44-.32-2.18-.32-.63,0-1.27.08-1.89.23,0,0-2.96.75-5.92,1.52-1.73.45-3.22.83-4.47,1.2-1.7-.27-4.63-.75-7.59-1.23-1.18-.68-2.5-1.01-3.82-1.01-2.01,0-4,.78-5.5,2.32l-1.15,1.18-3.22,1.54c-1.06.51-1.98,1.25-2.7,2.16l-7.55,5.76-12.51,9.01-14.27,10.6-6.33,4.62c-1.73,1.26-2.85,3.17-3.11,5.29l-.2,1.62-2.24,5.2c-.2.46-.35.95-.46,1.44l-1.15,5.37c-.03.12-.05.23-.07.35l-1.77,10.62-1,4.47c-.08.38-.14.77-.17,1.15l-.37,5.37-1.52,11.43c-.04.27-.06.54-.07.81L0,212.15c-.03,1.15.2,2.3.67,3.35l.12.27.37,5.65c0,.08.01.15.02.23.36,3.79,2.07,5.83,3.73,6.92.45.31.94.58,1.46.79.94.38,1.92.56,2.88.56,2.05,0,4.05-.82,5.53-2.35l30.27-31.3,7.58-3.06,7.35-.37c2.08-.11,4.03-1.05,5.4-2.63l3.94-4.51,11.64-1.31c.58-.06,1.16-.2,1.71-.39h2c.69.2,1.4.29,2.1.29,2.35,0,4.64-1.08,6.12-3.03l.84-1.1,5.1-3.16c.1-.06.2-.13.3-.2l4.77-3.27,14.32.2c.57.2,1.17.33,1.79.39l7.46.71c.75.07,1.5.03,2.24-.12l5.82-1.17c1.51-.3,2.9-1.05,3.98-2.16l9.67-9.87c.37-.24.71-.52,1.03-.82l6.65-6.33,8.48-1.09,5.16,2.43c1.03.49,2.15.74,3.28.74,1.11,0,2.21-.24,3.22-.7l4.05-.5c.78-.1,1.55-.31,2.26-.64l1.05-.18,3.03,2.58c1.45,1.23,3.22,1.83,4.98,1.83.86,0,1.72-.14,2.54-.43l10.18-.18c1.03-.02,2.05-.24,2.98-.65l6.36.3c.64.17,1.31.26,1.97.26.62,0,1.24-.07,1.85-.23l1.52-.38c1.15-.29,2.21-.83,3.1-1.58l1.11-.5c.59-.11,1.17-.29,1.72-.53l4.54-2.03c.48-.22.94-.48,1.37-.79l3.42-1.3c.78-.29,1.51-.71,2.15-1.24l11.46-4.38,1.67.82c.75.37,1.56.61,2.4.72l2.75,1.55c1.15.65,2.45.99,3.77.98,1.65,0,3.29-.53,4.63-1.54.13-.05.27-.11.4-.17l2.02-.93.08-.02,6.18,1.62c.63.17,1.29.25,1.94.25.07,0,.14,0,.21,0,.58.25,1.19.42,1.83.51l5.07.76,4.99,1.92c.88.34,1.82.51,2.76.51.17,0,.35,0,.53-.02,0,0,.44-.03,1.01-.07.93.38,1.92.58,2.93.58,1.13,0,2.25-.25,3.27-.73,3.23-.4,11-1.33,15.27-1.68,3.22-.24,6.5-.57,9.68-.9l1.57-.16.84-.08c1.82-.17,3.67-.35,5.5-.55,4.01-.45,6.03-2.73,6.88-4.04.85-1.31,2.08-4.07.88-7.83-.4-1.26-.78-2.5-1.15-3.72-.68-2.27-1.39-4.6-2.27-7.04-.33-.89-.61-1.74-.9-2.6-.7-2.1-1.5-4.47-2.67-6.84-.23-.5-.51-1.38-.81-2.31-.22-.71-.45-1.42-.7-2.12-.23-.63-.46-1.16-.69-1.68-.11-.25-.23-.5-.32-.77-1.45-4.13-3.22-7.5-4.93-10.76-.42-.8-.85-1.62-1.28-2.46-.12-.27-.26-.54-.43-.87l-.11-.2s-.07-.14-.09-.17c-.4-.75-1.45-2.72-3.96-4.1-1.22-.7-2.72-1.11-4.32-1.11-.84,0-1.52.11-1.96.18l-.3.05c-2.2.25-3.78.38-4.19.38-.93,0-2.88.14-6.69.45-.44-.08-.89-.12-1.34-.12h-3.01l-8.78-1.15c-2-.29-7.05-1.46-9.98-2.19l-5.37-1.85-7.03-2.4c-.8-.27-1.64-.41-2.48-.41-.55,0-1.09.06-1.63.17l-7.67-.6-4.02-3.06c-.53-.4-1.1-.73-1.72-.98l-.88-.8c-1.13-2.08-3.19-3.56-5.62-3.92l-4.27-.64c-.25-.03-.49-.06-.74-.07l-.55-.19c-1.24-.79-2.67-1.21-4.14-1.21-.19,0-.37,0-.56.02l-6.25.46-5.61-2.28c-.92-.38-1.91-.57-2.9-.57M215.41,76.92l7.28,2.97,8.04-.59.4.36,3.5,1.21.39-.18,4.27.64.15.72,3.83,3.45.72.05,6.15,4.68.34-.2,10.95.85.53-.28,7,2.39,5.69,1.97s7.79,1.94,11.17,2.43l9.28,1.21h3.51l.67.2c2.88-.23,6.51-.52,7.37-.52.95,0,3.27-.23,5.11-.44.59-.07.99-.18,1.33-.18.22,0,.42.04.62.16.53.29.7.65.91,1.05.2.39.32.57.42.82,2.16,4.24,4.3,7.88,5.89,12.4.3.88.73,1.7,1.06,2.58.63,1.75,1.06,3.57,1.85,5.23,1.38,2.78,2.17,5.75,3.23,8.65,1.28,3.53,2.18,6.92,3.33,10.5.42,1.29-.16,1.75-1.28,1.88-2.1.23-4.19.43-6.27.62-3.71.37-7.4.77-11.11,1.05-5.7.47-17.07,1.9-17.07,1.9l-.84.49s-1.05-.72-1.09-.72c-.03,0-3.37.23-3.37.23l-5.78-2.22-5.91-.88-1.47-.98-1.7.39-8.03-2.09-3.14.74-.09.14-2.2,1.02-.13-.05-1.34.64-.32.41-4.34-2.44-1.2-.03-3.9-1.91-.67-.74-.52.53-2.37.75-.1.2-13.45,5.13-.37.56-4.84,1.83-.37.43-4.54,2.03-.46-.03-3.93,1.77-.27.44-1.52.38-.55-.2-9.85-.47-1.05.77-12.25.21-.34.39-5.99-5.1-.49.31-5.49.93-.3.32-5.85.72-.48.42-6.61-3.12-.57-.56-.49.35-12.74,1.63-8.47,8.06h-.21s-10.67,10.88-10.67,10.88l-5.82,1.17-7.46-.71-.13-.39-19.04-.27-6.78,4.64-6.32,3.91-1.7,2.24-.78-.29h-5.29l-.6.44-14.13,1.58-.64-.29-.51,1.11-5.23,6-8.64.44-10.3,4.15-31.4,32.48s0,0-.03-.03c-.28-.05-.39-1.28-.39-1.28l-.46-7.03-.69-1.54.67-25.61,1.55-11.68.38-5.63,1.04-4.68,1.8-10.83,1.15-5.37,2.68-6.21.33-2.73,6.39-4.66,14.17-10.53,12.6-9.08,8.88-6.79.1-.38,4.44-2.13,2.11-2.15.78.62s10.87,1.79,11.11,1.79h0c-.12-.1,11.79-3.12,11.79-3.12l2.38.71.38-.18,6.47,3.08,5.79-4.58.05-.33,16.51-12.76,1.36.8,4.51.15.32.17,15.75-.1.49-.21,8.9.83.42.29.8-.73.21-.75,17.72-10.23.34.3,12.42-.94.5-.35,4.77-.38.4.26,25.23-1.33"/>
    <path class="st1" d="M107.02,344.62c-.32,0-.63-.04-.94-.12l-12.85-3.25-.39.25c-.33.21-.69.37-1.07.47l-3.33,1.83c-.57.31-1.2.48-1.85.48-.75,0-1.5-.22-2.15-.65,0,0-.69-.46-1.29-.87-.69-.06-1.35-.3-1.91-.7-.13-.03-.27-.08-.4-.13l-8.67-3.36s-.04,0-.05,0c-.76,0-1.49-.27-2.12-.71-2.68-.83-4.2-1.31-5.12-1.67l-.02.04c-.27-.1-3.83-1.29-4.22-1.43-.67-.07-1.2-.15-1.78-.42h0c-.65-.3-1.58-.94-2.09-2.23l-7.14-7.75-4.98-6.38-5.73-8.75-7.43-10.28c-.7-.97-.91-2.21-.57-3.35l.53-1.78c.21-.7.62-1.33,1.18-1.82l5.54-4.78c.61-.52,1.37-.84,2.16-.92l13.69-1.25,9.37-22.72c-.1-1.28.45-2.53,1.47-3.33l16.55-12.88c.48-.37,1.04-.63,1.64-.74l.1-.02,8.71-6.73c.13-.25.29-.49.47-.71.73-.87,1.81-1.37,2.94-1.37.14,0,.28,0,.42.02l.81.08,2.1-.88c.48-.2.98-.3,1.5-.3.05,0,2.58.11,2.58.11l3.4-.68,7.67-8.3c.73-.79,1.75-1.23,2.83-1.23.08,0,8.05.48,8.05.48l1.11-.38c.41-.14.83-.22,1.26-.22.15,0,.3,0,.45.03l7.38.87c11.29-6.27,15.6-8.67,17.32-9.61.77-.89,1.89-1.51,3.01-1.51.05,0,.63.03.63.03l10.06-1.75c.62-.41,1.34-.64,2.08-.65l2.2-.03s13.1-14.93,13.1-14.94c.16-.3.35-.58.58-.83l10.29-11.22c.16-.49.42-.93.77-1.32l2.23-2.52c.73-.82,1.77-1.29,2.87-1.29.09,0,12.84.87,12.84.87l.88-.75c.58-.49,1.29-.8,2.04-.89l1.87-.22,6.04-3.55c.59-.35,1.27-.53,1.95-.53h.05l11.56-8.92c.53-.41,1.17-.68,1.84-.77l12.08-1.6,5.34-4.96c.6-.55,1.34-.9,2.14-1l4.92-3.63c.28-.48.65-.9,1.12-1.22.65-.47,1.43-.7,2.22-.7.4,0,.8.06,1.19.18l2,.65,21.86.59,15.35-5.35c.27-.09.53-.15.81-.18,2.65-.32,5.22-.55,7.8-.79,2.83-.26,5.67-.52,8.59-.89l.53-.07c.9-.11,1.99-.23,2.8-.4.3-.06.57-.1.81-.13.95-.12,1.58-.17,2.13-.17,5.11,0,6.04,4.35,6.39,5.99.44,2.03.8,3.96,1.17,5.94l.8,4.34c.36,1.98.72,3.98,1.02,5.97.53,3.48,1.02,6.94,1.39,10.47.18,1.9.27,3.75.36,5.59l.15,2.76.07.73c.05.52.1,1.03.12,1.54l.35,6.55c.01.23.04.42.07.6.07.52.13,1.02.13,1.66,0,.85-.03,1.15-.07,1.72-.11.97-.31,2.62-1.83,4.03-1.4,1.2-2.8,1.4-3.48,1.5-.78.12-2.1.29-2.1.29l-2.63.16-4.02.67-3.33.62c-.4.12-2.46.73-2.46.73-1.7.58-3.47,1.18-5.24,1.83-.63.23-1.26.43-1.9.63-.67.21-1.35.42-2.03.68-3.1,1.19-10.71,4.76-10.79,4.8-.52.24-1.07.37-1.63.37-.15,0-.3,0-.45-.03l-1.79-.21-2.97-.42c-.37-.05-.72-.15-1.05-.3-.7-.1-1.76-.24-2.66-.37l-.48.47c-.23.22-.48.41-.76.57l-2.31,2.73c-.56.65-1.31,1.1-2.15,1.28l-6.59,1.39c-.36.24-.76.43-1.18.54l-3.99,1.07-1.49,2.84.02.43c.07,1.57-.83,3.03-2.27,3.68l-10.62,4.75c-.65.69-1.53,1.13-2.48,1.21-.11.01-.23.02-.34.02-.82,0-1.62-.26-2.28-.75l-5.6-.25-4.67,3.25c-.51.35-1.1.58-1.72.66l-5.79.72-3.3,1.43-1.28,4.31c-.18.59-.49,1.14-.93,1.58-.48,1.43-1.75,2.45-3.27,2.6l-.39.04-15.79,7.26c-.38.46-.87.83-1.42,1.07l-5.2,2.29c-.26.11-.53.2-.8.25-.78.44-1.98,1.16-1.98,1.17-.43.25-.89.42-1.38.5-.09.07-.19.12-.29.18l-3.82,2.17-2.39,4.64c-.32.61-.79,1.13-1.37,1.49l-5.98,9.68c-.12,1.68-1.33,3.09-2.98,3.47l-.85.2c-.23.13-.46.23-.67.3l-3.23.96-1.89,6.89.38,1.38c.29,1.04.13,2.16-.44,3.07-.47.75-1.17,1.31-2,1.6l-1.82,1.88c-2.65,2.83-3.65,3.9-4.48,4.31l-2.32,2.41-5.35,4.89c-.03.07-.07.13-.1.19-.19.36-.43.68-.72.96-.06.06-3.45,3.2-3.45,3.2-.3.28-.65.51-1.02.68-.85.85-2.21,2.24-3.23,3.25l-9.41,15.17c-.63,1.02-1.7,1.68-2.89,1.8l-22.82,2.25-9.97,5.1c-.55.28-1.15.42-1.75.42"/>
    <path class="st2" d="M330.74,142.31c-.71,0-1.47.05-2.42.17-.03,0-.18.02-.21.03-.33.05-.67.1-1.02.17-.76.15-1.72.26-2.51.36l-.58.07c-2.85.37-5.58.61-8.47.88-2.61.24-5.23.48-7.91.8-.55.07-1.09.19-1.62.37l-14.68,5.12-20.6-.55-1.46-.48c-.77-.25-1.57-.37-2.38-.38-1.57,0-3.12.48-4.44,1.41-.65.46-1.23,1.02-1.71,1.66l-3.73,2.75c-1.17.33-2.25.94-3.14,1.77l-4.44,4.13-10.87,1.43c-1.34.18-2.62.71-3.69,1.53l-10.69,8.25c-.86.16-1.69.48-2.45.92l-5.34,3.14-1.07.13c-1.37.16-2.67.69-3.76,1.52l-11.03-.75c-.18-.01-.35-.02-.53-.02-2.2,0-4.29.94-5.75,2.58l-2.23,2.52c-.47.53-.87,1.12-1.18,1.76l-9.84,10.72c-.34.37-.64.77-.9,1.2l-11.72,13.37h-.5c-1.16.03-2.31.31-3.35.83l-8.96,1.56h-.03c-.14-.01-.27-.02-.41-.02-2.15,0-4.17.9-5.6,2.42-2.23,1.23-6.61,3.65-15.47,8.58l-6.15-.73c-.3-.03-.6-.05-.9-.05-.86,0-1.71.15-2.52.43l-.39.13-7.05-.43c-.16,0-.31-.02-.47-.02-2.13,0-4.18.89-5.65,2.47l-6.82,7.38-1.73.35-1.94-.08c-.12,0-.23,0-.34,0-1.03,0-2.05.2-3,.61l-1.18.5c-.21-.02-.43-.03-.64-.03-2.25,0-4.41.99-5.88,2.73-.16.18-.3.38-.44.58l-7.53,5.82c-.86.27-1.66.7-2.38,1.25l-16.54,12.88c-1.77,1.37-2.82,3.42-2.95,5.6l-8.2,19.87-11.37,1.03c-1.6.15-3.11.79-4.32,1.83l-5.54,4.78c-1.12.96-1.93,2.22-2.35,3.63l-.53,1.78c-.68,2.29-.27,4.77,1.13,6.71l7.43,10.28,5.46,8.34c.11.18.24.35.37.51l4.77,6.13c.13.17.27.33.42.5l6.72,7.28c.89,1.74,2.28,2.9,3.71,3.57.97.45,1.87.62,2.57.71.4.13.87.3,1.44.49.98.33,2.01.67,2.31.78l.02-.05c1.05.4,2.49.85,4.53,1.49,1.03.61,2.15.97,3.25,1.08l8.09,3.13s.1.04.14.05c.65.38,1.35.67,2.09.84.35.23.61.41.61.41,1.29.87,2.79,1.31,4.29,1.31,1.29,0,2.57-.33,3.7-.95l3.02-1.66c.15-.05.3-.11.45-.17l11.4,2.88c.61.15,1.24.23,1.88.23,1.22,0,2.42-.29,3.51-.85l9.32-4.77,22.1-2.18c2.38-.24,4.52-1.57,5.78-3.6l9.17-14.78c.84-.84,1.69-1.69,2.52-2.54.47-.28.91-.61,1.31-.98,0,0,3.53-3.27,3.59-3.34.43-.43.8-.9,1.12-1.42l4.7-4.29c.12-.11.24-.23.36-.35l2.04-2.12c1.27-.87,2.65-2.34,4.83-4.68l1.21-1.25c1.24-.63,2.28-1.59,3.02-2.77,1.14-1.83,1.47-4.06.88-6.14l-.1-.36,1.05-3.81,1.18-.35c.32-.1.64-.21.94-.35l.34-.08c2.95-.67,5.18-2.99,5.81-5.87l5.18-8.39c.78-.65,1.43-1.46,1.91-2.38l1.87-3.63,2.67-1.51c.66-.19,1.29-.46,1.88-.8.01,0,.8-.48,1.48-.88.3-.09.6-.2.89-.33l5.2-2.29c.79-.34,1.51-.82,2.13-1.4l14.55-6.69c2.63-.35,4.87-2.03,5.96-4.38.58-.75,1.01-1.6,1.28-2.51l.77-2.58,1.14-.49,5.24-.65c1.24-.16,2.42-.61,3.45-1.32l3.6-2.5,3.35.15c1.06.52,2.22.8,3.4.8.23,0,.46-.01.69-.03,1.59-.14,3.08-.78,4.29-1.79l10.03-4.49c2.68-1.2,4.43-3.81,4.54-6.71l.25-.48,2.37-.63c.56-.15,1.09-.36,1.6-.63l5.97-1.25c1.68-.35,3.19-1.25,4.3-2.57l1.86-2.2c.15.02.3.04.44.06.48.17.97.29,1.48.36l2.88.41,1.96.23c.3.04.6.05.91.05,1.13,0,2.24-.25,3.27-.73,2.1-.98,8.07-3.74,10.55-4.69.58-.22,1.19-.41,1.79-.6.69-.21,1.37-.43,2.03-.67,1.78-.64,3.52-1.24,5.26-1.83.3-.1.71-.21,1.12-.33.32-.09.63-.18.95-.28l3.2-.59,3.67-.61,2.17-.12c.18-.01.36-.03.53-.05,0,0,1.35-.18,1.87-.25.1-.02.19-.03.28-.05.97-.14,3.23-.5,5.32-2.28.08-.06.15-.13.23-.2,2.57-2.38,2.9-5.16,3-6.07.01-.07.04-.32.05-.4.06-.72.09-1.08.09-2.11,0-.96-.1-1.69-.17-2.18-.01-.09-.03-.18-.04-.29l-.18-3.36-.17-3.2c-.02-.5-.08-1.07-.13-1.65l-.06-.71c-.05-.83-.1-1.75-.14-2.66-.1-1.89-.19-3.78-.37-5.69-.4-3.8-.92-7.4-1.42-10.75-.3-2.02-.68-4.1-1.05-6.14l-.36-2.01-.43-2.28c-.37-2.01-.73-3.97-1.18-6.05-1.67-7.84-7.08-9.01-10.15-9.01M330.74,150c1.67,0,2.15.7,2.63,2.94.6,2.76,1.03,5.3,1.55,8.06.47,2.62.99,5.3,1.38,7.95.52,3.44,1.01,6.84,1.37,10.3.25,2.75.33,5.47.5,8.19.05.74.15,1.48.18,2.21.12,2.19.23,4.38.35,6.58.04.78.19,1.27.19,2.05,0,.71-.02.95-.07,1.45-.06.45-.05.98-.6,1.49-.55.47-1.28.47-1.73.57-.47.07-1.71.23-1.71.23l-2.58.15-4.22.7-3.63.67c-.9.29-1.77.51-2.7.8-1.8.61-3.6,1.23-5.4,1.88-1.28.46-2.62.8-3.99,1.32-3.27,1.27-11.05,4.91-11.05,4.91l-1.79-.21-2.88-.41-.27-.2s-5.23-.72-5.3-.72c-.04.03-1.83,1.77-1.83,1.77l-.37.08-2.96,3.5-7.7,1.62-.27.36-5.62,1.5-2.76,5.25.07,1.47-11.44,5.12-.43.53-.8-.69-8.22-.36-5.73,3.99-6.33.79-5.46,2.35-1.79,6.03-.67.51-.21.95-1.03.1-17.3,7.95-.44.62-5.2,2.29h-.33c-.13,0-2.88,1.63-2.88,1.63l-.96-.15-.64.78-4.81,2.73-2.92,5.65-.65.3-7.09,11.48-.03.88-1.57.35-.2.2-5.28,1.57-2.73,9.98.67,2.4-.69.13-2.63,2.71s-3.17,3.39-3.26,3.39c-.08.02-.71.4-.71.4l-2.83,2.94-6.07,5.55s.03.34,0,.41c-.06.06-3.38,3.14-3.38,3.14h-.37s-2.75,2.82-4.29,4.33l-9.65,15.55-23.55,2.33-10.62,5.43-14.47-3.65-1.79,1.15-.19-.02-3.99,2.19s-2.2-1.47-2.26-1.5h-.85l-.52-.62-.72.03-9.53-3.7s-.54.08-.57.08c-.07,0-.13-.28-.13-.28,0,0-5.73-1.77-5.75-1.8-.03-.03-4.66-1.57-4.7-1.6-.03-.04-.92-.09-1.07-.15-.17-.05-.21-.64-.21-.64l-7.8-8.46-4.77-6.13-5.55-8.49-7.53-10.43.53-1.78,5.55-4.78,16.88-1.54-.41-1.04,10.22-24.77-.14-.75,16.55-12.88,1-.19,10.61-8.2-.11-.37,1.8.2,3.02-1.28,2.88.13,5.08-1.03,8.52-9.21,8.58.52,1.84-.64,8.62,1.02s19.13-10.63,19.22-10.66c.04-.04.28-.58.28-.58l.91.05,11.66-2.03.31-.39,3.91-.07,14.2-16.19.44-.1.12-.7,11.15-12.15-.05-.43,2.23-2.52,12.9.88.69.55,2.63-2.24,2.67-.32,6.73-3.96,1.31.04,12.64-9.75,13.85-1.83.3-.72,5.38-5,.96-.1,6.81-5.02v-.41s2.53.82,2.53.82l23.12.62,16.01-5.58c5.58-.67,10.83-.96,16.42-1.68,1.06-.13,2.55-.3,3.61-.51.24-.05.49-.08.71-.11.57-.07,1.05-.11,1.46-.11"/>
    <path class="st1" d="M195.03,395.28l-2.4-.1-4.97-.08-4.5-.22-6.53-.53c-4.49-.5-7.39-.81-7.39-4.4,0-.73.2-1.44.59-2.06l1.17-1.85c.33-.51.77-.94,1.29-1.25l9.88-5.85c.57-.34,1.22-.52,1.88-.54l4.25-2.51c.06-.42.18-1.37.29-2.17-.37-.78-.47-1.66-.27-2.51.23-1.02.87-1.9,1.77-2.44,4.65-2.78,7.16-4.28,8.63-5.1,1.44-2.02,6.09-8.58,7.74-10.92.08-.52.27-1.03.56-1.48l2.53-3.98c.36-.57.87-1.03,1.47-1.34l8.67-13.74c-.03-.77.17-1.53.59-2.2l.82-5.51c-.12-.62-.08-1.26.11-1.86l2.66-8.51c.11-.35.27-.67.47-.98l1.84-8.36c.39-1.77,1.95-3.02,3.76-3.02h.86l6.95-3.33c-.18-.66-.19-1.36,0-2.02l7.27-26.86c.18-.68.55-1.29,1.05-1.77l1.01-.97,1.7-6.77c.2-.79.64-1.5,1.27-2.02l2.83-2.36c.48-.4,1.04-.67,1.63-.8l17.02-10.94.87-1.43c.16-1.15.82-2.16,1.81-2.76l2.92-5.12c.1-.71.39-1.37.85-1.92.22-1.41,1.2-2.62,2.6-3.08l8.15-2.7c.55-.36,1.17-.6,1.78-.63l1.22-.07,4-4.25c.31-.33.68-.6,1.08-.81,3.4-1.69,10.88-5.33,11.67-5.72,1.31-.62,2.69-1.15,4.07-1.68,1-.38,2-.76,2.94-1.18,2-.89,4.05-1.47,6.02-2.03l.99-.29c1.47-.41,2.9-.73,4.35-1.06l1.85-.42c.28-.11.87-.2,1.48-.28l3.28-.51c.08-.01,2.49-.31,3-.31,1.7,0,3.31.69,4.39,1.9,1.51,1.6,1.42,3.76,1.37,4.69l-.09,2.82c-.13,3.26-.28,6.5-.55,9.71-.15,1.8-.41,3.6-.68,5.38l-.51,3.57c-.39,2.72-.78,5.45-1.22,8.18-.47,3.16-1.02,6.33-1.56,9.53l-.19,1.08c-.1.65-.23,1.52-.58,2.42-.94,2.48-1.53,5.1-2.15,7.87-.35,1.56-.7,3.12-1.11,4.66-1.82,6.88-3.55,12.43-5.46,17.46-1.65,4.28-3.43,8.52-5.21,12.75l-1.25,2.98c-1.32,3.15-3,6.11-4.62,8.96l-.31.55c-1.55,2.68-2.99,5.38-4.44,8.08l-1.3,2.41c-1.37,2.58-3.01,4.98-4.59,7.3-.57.83-1.14,1.67-1.7,2.51l-1.03,1.58c-1.22,1.88-2.45,3.76-3.74,5.6-1,1.43-2.18,2.84-3.44,4.09-.4.4-.83.8-1.27,1.21-.87.82-1.7,1.58-2.18,2.36-.64.99-1.33,1.71-1.93,2.35l-.82.84c-.55.54-1.08,1.05-1.23,1.43-.38.96-1.04,1.59-1.39,1.93l-4.89,4.89c-1.68,1.65-3.33,3.26-5.02,4.87-4.53,4.3-9.48,8.05-14.28,11.68l-1.66,1.26c-3.38,2.53-10.32,6.2-10.61,6.35l-2.9,1.67c-.17.09-.33.18-.51.25l-8.6,3.4-7.08,2.08-6.28,1.72-8.57,1.52-14.03,1.69s-4.23.13-4.27.13c-.03,0-3.93-.1-3.93-.1"/>
    <path class="st2" d="M336.61,204.61c-.35,0-.93,0-3.43.33l-3.4.53c-.48.06-1.18.16-2,.38l-1.55.36c-1.53.35-3.06.7-4.57,1.12l-1.03.3c-2.01.58-4.28,1.23-6.53,2.22-.9.4-1.83.75-2.76,1.11-1.41.54-2.85,1.09-4.33,1.79-.83.4-8.33,4.06-11.75,5.76-.81.4-1.55.95-2.17,1.61l-2.96,3.15c-1.11.11-2.17.47-3.12,1.02l-7.48,2.47c-2.46.81-4.28,2.77-4.97,5.14-.41.66-.71,1.38-.91,2.13l-2.2,3.87c-1.22,1.02-2.1,2.4-2.51,3.94l-.07.11-15.79,10.16c-.9.3-1.75.77-2.5,1.38l-2.83,2.36c-1.25,1.05-2.14,2.46-2.54,4.04l-1.43,5.7-.21.2c-1.01.97-1.74,2.2-2.1,3.54l-7.27,26.86c-.05.2-.1.4-.13.61l-3.97,1.9c-3.61,0-6.72,2.51-7.5,6.03l-1.72,7.8c-.21.39-.37.81-.5,1.23l-2.66,8.51c-.3.97-.41,1.98-.32,2.98l-.64,4.31c-.33.7-.55,1.45-.66,2.21l-7.7,12.18c-.76.56-1.41,1.26-1.92,2.06l-2.53,3.97c-.38.6-.68,1.24-.88,1.92-1.72,2.43-5.18,7.32-6.82,9.62-1.72.98-4.2,2.46-7.97,4.72-1.79,1.08-3.07,2.83-3.54,4.87-.25,1.08-.26,2.21-.04,3.3l-1.73,1.02c-.92.16-1.8.48-2.61.96l-9.88,5.85c-1.05.62-1.93,1.48-2.58,2.51l-1.17,1.85c-.78,1.23-1.19,2.66-1.19,4.11,0,7.03,6.71,7.77,10.72,8.21.07,0,.14.02.21.02l6.39.53c.09,0,.17.01.26.02l4.38.22c.08,0,.17,0,.25,0l4.97.08,2.25.09,3.94.11c.07,0,.13,0,.2,0,.07,0,.14,0,.21,0l3.81-.1c.24,0,.48-.02.72-.05l13.82-1.67c.14-.02.27-.04.41-.06l8.22-1.44c.23-.04.47-.1.7-.16l6.21-1.7,6.86-2c.23-.07.45-.15.68-.23l8.6-3.41c.35-.14.69-.3,1.02-.49l.62-.35,2.27-1.3c1.16-.62,7.58-4.06,10.98-6.6l1.72-1.3c4.87-3.69,9.9-7.51,14.58-11.95,1.71-1.63,3.38-3.25,5.05-4.9l2.1-2.1c.87-.87,1.73-1.73,2.6-2.6.06-.05.11-.11.17-.17.5-.48,1.45-1.41,2.13-2.88.17-.17.35-.34.52-.51l.4-.4c.07-.07.14-.14.21-.22l.32-.34c.64-.68,1.53-1.61,2.33-2.85.28-.45.99-1.11,1.62-1.69.47-.43.93-.87,1.38-1.32,1.38-1.38,2.72-2.97,3.85-4.58,1.33-1.89,2.58-3.82,3.83-5.74l1.02-1.56c.54-.81,1.09-1.62,1.64-2.42,1.65-2.41,3.35-4.9,4.83-7.7l1.22-2.28c1.5-2.79,2.91-5.43,4.42-8.05l.32-.56c1.69-2.96,3.43-6.02,4.85-9.42l1.18-2.8c1.78-4.23,3.63-8.6,5.32-13,1.96-5.17,3.73-10.84,5.6-17.89.42-1.57.78-3.17,1.14-4.78.59-2.64,1.15-5.14,2-7.37.49-1.28.67-2.44.78-3.21l.12-.72c.57-3.31,1.13-6.6,1.63-9.91.45-2.77.85-5.62,1.26-8.47l.23-1.6.24-1.64c.27-1.8.54-3.67.7-5.64.28-3.34.43-6.71.57-9.85l.04-1.01.05-1.68c.06-1.28.22-4.83-2.47-7.69-1.7-1.89-4.33-3.05-7.13-3.05M336.61,212.3c.4,0,1.06.1,1.53.62.51.54.41,1.55.38,2.16-.02.6-.04,1.6-.04,1.6,0,0-.03.71-.04,1.05-.13,3.18-.28,6.36-.54,9.52-.19,2.29-.57,4.56-.89,6.83-.48,3.33-.95,6.68-1.48,10.02-.53,3.53-1.14,7.03-1.74,10.57-.09.55-.17,1.15-.38,1.7-1.59,4.18-2.23,8.6-3.38,12.91-1.52,5.77-3.22,11.5-5.34,17.08-2.01,5.23-4.23,10.41-6.41,15.61-1.31,3.13-3.05,6.13-4.73,9.09-2.01,3.48-3.87,7.03-5.78,10.57-1.77,3.32-4.03,6.36-6.12,9.52-1.55,2.38-3.08,4.77-4.7,7.09-.88,1.25-1.91,2.49-3.01,3.58-1.36,1.37-2.95,2.59-3.99,4.25-.51.79-1.19,1.44-1.83,2.13-.93.93-1.93,1.8-2.46,3.08-.13.32-.49.58-.74.87-1.58,1.55-3.12,3.12-4.68,4.67-1.65,1.62-3.29,3.22-4.96,4.81-4.88,4.63-10.29,8.62-15.62,12.67-3.15,2.36-10.08,6.02-10.08,6.02l-2.42,1.38-.62.36-8.6,3.4-6.74,1.96-6.21,1.7-8.23,1.44-13.82,1.66-3.81.1-3.83-.1-2.35-.09-5.07-.08-4.38-.21-6.39-.53s-3.87-.42-3.87-.57l1.17-1.85,9.88-5.85.71.16,6.75-3.99,1.32-.41-.82-1.38s.5-3.66.5-3.77l-.51-.78s9.21-5.51,9.32-5.51c.02,0,8.81-12.42,8.81-12.42l.07-.8,2.53-3.97.77-.23,10.35-16.39-.37-.69.41-.5,1.08-7.31-.15-.46,2.66-8.5.33-.3,2.06-9.37h1.74l10.76-5.15-.97-3.05,7.27-26.85,1.81-1.73,1.97-7.85,2.83-2.36.4.03,18.61-11.97c.94-1.54,1.78-2.91,1.78-2.91l.08-.76.57-.03,4.14-7.26v-.57s.93-.9.93-.9l-.08-.98,8.81-2.91.15-.23,2.72-.17.58.26.16-1.01,4.34-4.61c3.38-1.69,10.82-5.32,11.61-5.69,2.21-1.05,4.69-1.83,6.9-2.82,2.07-.92,4.33-1.5,6.52-2.14,1.98-.55,3.99-.96,6-1.44.36-.12.73-.16,1.12-.21l3.35-.52s1.99-.27,2.4-.27"/>
  </g>
</svg>