<?xml version="1.0" encoding="UTF-8"?>
<svg id="Ebene_1" xmlns="http://www.w3.org/2000/svg" xmlns:xlink="http://www.w3.org/1999/xlink" version="1.1" viewBox="0 0 462.87 307.56">
  <!-- Generator: Adobe Illustrator 29.7.1, SVG Export Plug-In . SVG Version: 2.1.1 Build 8)  -->
  <defs>
    <style>
      .st0 {
        fill: none;
      }

      .st1 {
        mask: url(#mask);
      }

      .st2 {
        fill: #fff;
        fill-rule: evenodd;
      }

      .st3 {
        fill: #f9a11a;
      }

      .st4 {
        fill: #2b5134;
      }

      .st5 {
        fill: #fefefe;
      }

      .st6 {
        fill: #0b223e;
      }
    </style>
    <mask id="mask" x="0" y="0" width="462.87" height="307.56" maskUnits="userSpaceOnUse">
      <g id="b">
        <path id="a" class="st2" d="M462.87,307.56V0H0v307.56h462.87Z"/>
      </g>
    </mask>
  </defs>
  <g class="st1">
    <path class="st5" d="M167.71,167.55L240.79,0h222.07l-40.24,92.28h-187.57c-8.14,18.63-48.47,111.14-53.14,121.87v4.31c0,38.82-32.77,89.11-90.98,89.11C40.8,307.56,0,266.69,0,216.49s40.8-91.06,90.94-91.06c31.66,0,61.31,17.09,76.77,42.12"/>
  </g>
  <path class="st6" d="M5.44,220.55c1.06,22.58,10.83,42.81,25.96,57.55,16.1-14.24,26.65-34.67,27.77-57.55H5.44Z"/>
  <path class="st3" d="M66.71,220.55c-1.12,24.81-12.35,47.01-29.64,62.58,13.78,11.21,31.13,18.26,50.14,19.09v-81.67h-20.5Z"/>
  <path class="st6" d="M5.41,213.04h53.78c-.96-23.14-11.52-43.83-27.79-58.15-15.27,14.86-25.07,35.35-25.99,58.15"/>
  <path class="st3" d="M37.08,149.86c17.45,15.68,28.69,38.11,29.64,63.19h20.5v-82.31c-19.01.83-36.34,7.88-50.14,19.12"/>
  <path class="st6" d="M176.47,220.55h-53.71c1.12,22.88,11.65,43.3,27.76,57.55,15.15-14.74,24.9-34.96,25.96-57.55"/>
  <path class="st4" d="M115.23,220.55h-20.51v81.67c18.99-.83,36.34-7.88,50.15-19.09-17.29-15.56-28.53-37.77-29.64-62.58M144.87,149.86c-13.81-11.24-31.15-18.3-50.15-19.12v82.31h20.49c.95-25.07,12.23-47.51,29.66-63.19"/>
  <path class="st6" d="M244.33,5.42l-76.05,174.42c-4.44-9.37-10.45-17.82-17.77-24.94-16.26,14.32-26.83,35.01-27.78,58.15h53.76l54.99-126.19h160.65L427.64,5.42h-183.31,0Z"/>
  <path class="st4" d="M419.09,86.86L454.6,5.41h-15.14l-35.5,81.45h15.13Z"/>
  <path class="st0" d="M-19.23-93.39h500v500H-19.23V-93.39Z"/>
</svg>