<?xml version="1.0" encoding="UTF-8"?>
<svg id="Ebene_1" xmlns="http://www.w3.org/2000/svg" version="1.1" viewBox="0 0 382.73 383.01">
  <!-- Generator: Adobe Illustrator 29.7.1, SVG Export Plug-In . SVG Version: 2.1.1 Build 8)  -->
  <defs>
    <style>
      .st0 {
        fill: none;
      }

      .st1 {
        fill: #e21836;
      }

      .st2 {
        fill: #002a5b;
      }

      .st3 {
        fill: #fefefe;
      }

      .st4 {
        fill: #c4cdd3;
      }
    </style>
  </defs>
  <path class="st3" d="M191.69,4.27h-.33C88.16,4.28,4.44,87.91,4.26,191.2v.33c.01,103.31,83.63,187.1,186.9,187.23h.25c103.23-.04,186.93-83.7,187.07-187.02v-.24c-.02-103.26-83.58-187.03-186.79-187.23"/>
  <path class="st4" d="M378.47,191.63v.11c-.12,103.32-83.82,186.98-187.05,187.01h-.25c-103.27-.11-186.9-83.91-186.91-187.21v-.33C4.44,87.92,88.16,4.27,191.36,4.27h.33c103.22.19,186.76,83.95,186.79,187.23v.13h0ZM382.72,191.09C382.48,85.5,296.87.01,191.37,0h-.41C85.43.24.04,85.91.01,191.41v.21s-.01.12-.01.12c.13,105.66,85.73,191.22,191.31,191.27h.27c105.58-.13,191.07-85.75,191.14-191.38,0-.07.01-.15.01-.25-.01,0,0-.07-.01-.29h0Z"/>
  <path class="st2" d="M128.81,148.98c19.44-19.44,27.62-42.18,27.62-42.18l4.34-15.79,1.03-3.68-19.92-11.16s-11.61-8.07-37.58,7.01c-30.42,17.94-55.16,41.15-67.96,65.78-7.1,13.64-12.72,29.34-15.64,47.19.91,33.8,11.57,65.15,29.34,91.3-5.07-48.69,41.96-102.03,78.77-138.46M278.7,83.18c-25.97-15.08-37.59-7.01-37.59-7.01l-19.9,11.16,1.02,3.69,4.34,15.79s8.17,22.72,27.63,42.17c36.7,36.32,83.56,89.44,78.83,138.03,17.84-26.46,28.43-58.19,29.05-92.37-2.99-17.23-8.51-32.43-15.41-45.68-12.81-24.61-37.56-47.83-67.96-65.78"/>
  <path class="st1" d="M216.23,53.99c68.25,7.72,113.1,46.48,136.27,80.85-17.42-49.61-57.09-88.73-107.02-105.42-11.02,3.25-23.23,10.1-29.25,24.56M166.78,53.99c-6.06-14.53-18.37-21.38-29.42-24.61-50.24,16.76-90.09,56.24-107.38,106.28,23-34.57,68.02-73.9,136.8-81.66M177.95,52.06l13.54-19.95,13.57,19.95c5.44-14.87,14.01-23.07,22.61-27.54-11.64-2.52-23.72-3.88-36.12-3.9-12.46-.01-24.6,1.36-36.3,3.87,8.62,4.47,17.23,12.63,22.7,27.56"/>
  <path class="st2" d="M284.25,201.76c-27.75-44.94-90.78-90.32-92.75-91.73-1.97,1.42-65,46.79-92.75,91.73-37.46,60.65-32.6,95.63-22.9,115.59,24.14,22.22,54.69,37.55,88.56,42.92l14.61-207.14,12.18-12.22.16-.17h0s.01,0,.01,0l.16.17,12.16,12.22,14.72,206.99-.21.11c34.14-5.4,64.92-20.86,89.18-43.34,9.54-20.04,14.06-54.93-23.13-115.12"/>
  <path class="st4" d="M203.69,153.12l-12.16-12.22.13,234.45,26.54-15.14.19-.11-14.7-206.99ZM191.43,94.3l-5.31,3.92-22.26,16.43,5.83-21.19,1-3.67,1.96-7.1-6.47-3.5-20.94-11.29c10.57-2.34,21.37-3.85,32.27-4.55l5.33-.33.22-.45,2.13-4.37.34-.68,5.97-12.15,6.17,12.56.13.27,2.15,4.37.21.45,5.34.33c10.89.7,21.71,2.21,32.26,4.55l-20.93,11.29-6.48,3.5,1.96,7.1,1.02,3.67,5.83,21.19-22.26-16.43-5.31-3.92v-.11l-.08.06-.07-.06v.11h0Z"/>
  <path class="st4" d="M191.58,94.19v.11l5.31,3.92,22.26,16.43-5.83-21.19-1-3.68-1.96-7.09,6.47-3.48,20.94-11.3c-10.58-2.32-21.37-3.85-32.27-4.55l-5.33-.34-.22-.44-2.15-4.36-.13-.28-6.17-12.55-5.96,12.14h-.01l-.34.69-2.13,4.36-.22.44-5.33.34c-10.91.7-21.71,2.23-32.27,4.55l20.94,11.3,6.48,3.48-1.97,7.09-1,3.68-5.83,21.19,22.26-16.43,5.31-3.92v-.11l.07.06.08-.06h0Z"/>
  <path class="st0" d="M-57.69-58.36h500v500H-57.69V-58.36Z"/>
</svg>