<?xml version="1.0" encoding="UTF-8"?>
<svg xmlns="http://www.w3.org/2000/svg" id="Layer_1" data-name="Layer 1" version="1.1" viewBox="0 0 648 648">
  <defs>
    <style>
      .cls-1 {
        fill: #c8102e;
      }

      .cls-1, .cls-2, .cls-3, .cls-4 {
        stroke-width: 0px;
      }

      .cls-2 {
        fill: #12173f;
      }

      .cls-3 {
        fill: #4891ce;
      }

      .cls-4 {
        fill: #fff;
      }
    </style>
  </defs>
  <circle class="cls-1" cx="324" cy="324" r="288"></circle>
  <circle class="cls-2" cx="324" cy="324" r="273.63"></circle>
  <circle class="cls-3" cx="324" cy="324" r="199.79"></circle>
  <path class="cls-4" d="M515.81,324c0,105.93-85.88,191.81-191.81,191.81s-191.81-85.88-191.81-191.81,85.88-191.81,191.81-191.81,191.81,85.88,191.81,191.81ZM132.82,492.45c2.85,3.32,6.34,5.75,9.77,6.6l4.78-4.1-.27-.32c-4.27-.47-7.36-2.11-9.71-4.85-3.73-4.34-3.7-9.24.56-12.89l6.2-5.32c4.06-3.48,8.97-2.52,12.56,1.67,2.26,2.63,3.52,5.99,3.18,9.78l.3.35,4.75-4.07c-.35-3.23-2.22-7.01-4.99-10.25-6.79-7.91-16.94-10.13-25.78-2.55-8.81,7.56-8.24,17.89-1.34,25.94ZM183.48,503.73l-15.09,21.3,19.63,13.91,4.33-3.49-13.08-9.27,16.67-23.54-9.93-7.03-.27.38c-.06,2.41-.31,3.94-.88,5.31-.31.75-.73,1.51-1.39,2.44ZM230.26,531.82l-10.26,24,8.77,3.75,13.44-31.44-11.18-4.78-.18.43c.45,2.37.53,3.92.26,5.37-.14.8-.39,1.63-.84,2.68ZM269.79,545.83l-4.6,25.69,9.39,1.68,1.78-9.91,7.32,1.36c8.49,1.57,14.31-1.93,15.66-9.46,1.35-7.53-2.91-12.76-11.4-14.31l-19.3-3.48-.08.46c.98,2.21,1.39,3.7,1.46,5.18.04.81-.02,1.68-.22,2.8ZM277.26,558.18l2.42-13.51,5.88,1.05c3.16.57,4.76,2.32,4.17,5.59l-.74,4.14c-.59,3.27-2.7,4.41-5.86,3.82l-5.88-1.1ZM329.62,552.22l2.2,26,9.5-.81-.85-10.03,7.42-.58c8.6-.68,13.32-5.56,12.68-13.19-.65-7.62-6.12-11.57-14.71-10.87l-19.54,1.63.04.46c1.51,1.88,2.3,3.21,2.75,4.62.25.77.42,1.62.51,2.76ZM340.04,562.22l-1.16-13.67,5.96-.5c3.2-.27,5.2,1.01,5.48,4.32l.36,4.19c.28,3.31-1.47,4.96-4.67,5.2l-5.96.46ZM389.08,542.81l8.78,24.57,23.74-8.48-.31-5.5-16.23,5.8-3.36-9.39,10.51-3.75-.38-5.35-11.87,4.24-2.88-8.06,15.46-5.52-3.18-4.4-25.49,9.1.16.44c1.94,1.43,3.05,2.52,3.84,3.76.44.68.82,1.46,1.2,2.53ZM441.32,519.94l14.86,21.46,7.84-5.43-7.31-10.56,2.1-1.46,14.2,5.79,9.55-6.61-15.52-5.78c3.74-4.12,4.2-8.85,1.24-13.14-3.72-5.38-9.96-5.89-16.72-1.22l-17.01,11.77.26.38c2.25.88,3.6,1.64,4.69,2.64.6.54,1.17,1.2,1.82,2.14ZM453.89,521.34l-6.42-9.28,5.89-4.08c2.14-1.48,4.24-1.4,5.85.93l1.76,2.54c1.62,2.33.95,4.32-1.19,5.8l-5.89,4.08ZM516.95,490.39c5.93-6.93,7.31-14.53,1.84-19.3-3.97-3.45-8.59-2.88-13.93.54l-6.71,4.3c-2.03,1.3-3.79,1.6-5.06.54-1.82-1.52-.94-4.41,1.54-7.31,2.51-2.93,6.27-5.47,10.01-5.73l.3-.35-4.67-3.99c-3.29,1.02-6.8,3.62-9.62,6.92-6.02,7.04-6.16,14.23-1.44,18.29,3.59,3.07,7.89,2.58,12.95-.65l6.65-4.26c2.31-1.48,3.98-1.47,5.39-.26,2.21,1.89,1.31,4.95-1.53,8.27-2.87,3.36-6.91,6-11.47,6.51l-.29.34,4.83,4.13c3.57-.92,7.93-4.15,11.21-7.99ZM91.87,242.18l24.19,9.78,9.01-22.3-4.39-3.41-6.01,14.86-26.74-10.81-4.56,11.28.43.17c2.36-.5,3.91-.6,5.37-.37.8.12,1.64.36,2.69.79ZM146.01,196.54c6.51-9.07,5.06-19.25-3.71-25.54-8.77-6.29-18.88-4.42-25.39,4.65-6.51,9.07-5.06,19.25,3.71,25.54,8.77,6.29,18.88,4.42,25.39-4.65ZM130.21,195.33l-7.1-5.1c-4.31-3.09-4.91-7.39-1.94-11.53,2.97-4.14,7.24-4.94,11.55-1.85l7.11,5.1c4.31,3.09,4.91,7.39,1.94,11.53-2.97,4.14-7.24,4.94-11.55,1.85ZM181.72,157.62c6.96-5.89,9.54-13.17,4.91-18.75-3.36-4.04-8.02-4.22-13.84-1.69l-7.31,3.17c-2.21.96-3.99.97-5.08-.27-1.55-1.8-.22-4.51,2.69-6.97,2.95-2.49,7.07-4.4,10.8-4.05l.36-.3-3.97-4.69c-3.41.48-7.29,2.48-10.61,5.29-7.07,5.98-8.36,13.05-4.35,17.83,3.05,3.6,7.37,3.81,12.89,1.43l7.24-3.14c2.52-1.09,4.16-.81,5.36.61,1.88,2.22.5,5.09-2.84,7.92-3.37,2.86-7.78,4.82-12.36,4.58l-.34.29,4.1,4.85c3.68-.34,8.49-2.83,12.34-6.09ZM250.57,90.78l-3.64,26.46,5.85-1.61.98-7.43,16.17-4.44,4.63,5.89,9.96-2.73-22.99-29.14-13.07,3.59.12.45c2.53,2.73,2.71,3.89,2,8.95ZM254.5,102.65l2.09-15.86,9.87,12.58-11.95,3.28ZM307.65,78.3l-.12,26.1,6.17.03.1-23.47,19.07,23.56,7.79.03.15-34.2-6.16-.03-.09,21.05-17.12-21.13-12.38-.06v.47c1.34,2.01,2.01,3.41,2.33,4.85.18.79.27,1.65.27,2.79ZM382.24,112.91c5.15,1.36,10.22,1.31,14.92-.46l4.34-16.39-13.9-3.68-2.7,4.58,5.96,1.58-2.61,9.85c-1.32.16-2.84.02-4.49-.42-5.37-1.42-8.01-5.18-6.5-10.91l2.01-7.6c1.45-5.46,5.83-7.5,11.72-5.94,3.4.9,6.96,2.9,8.71,6.18l.45.12,1.59-6.03c-2.61-2.78-6.51-4.49-10.09-5.43-11.98-3.17-20.7,2.05-23.45,12.44-2.72,10.3,2.17,18.98,14.02,22.11ZM430.98,102.27l-12.52,22.89,22.12,12.1,3.9-3.88-15.12-8.27,4.79-8.75,9.79,5.36,3.74-3.84-11.06-6.05,4.11-7.51,14.41,7.88,1.17-5.3-23.75-12.99-.22.41c.22,2.4.15,3.95-.26,5.37-.22.78-.55,1.58-1.09,2.58ZM478.84,132.74l-17.32,19.53,17.99,15.96,4.68-3-11.99-10.64,19.14-21.58-9.1-8.07-.31.35c-.32,2.39-.74,3.88-1.45,5.18-.39.72-.89,1.42-1.64,2.27ZM516.88,171.09l-21.22,15.19,14.67,20.5,5.2-1.81-10.03-14.01,8.11-5.81,6.5,9.08,5.04-1.83-7.34-10.25,6.96-4.98,9.56,13.35,3.36-4.26-15.75-22.01-.38.27c-.84,2.26-1.58,3.62-2.57,4.73-.53.61-1.18,1.19-2.11,1.85ZM526.05,239.59c3.47,8.43,9.61,13.12,16.34,10.42,4.88-1.96,6.47-6.34,5.85-12.65l-.78-7.93c-.23-2.39.3-4.1,1.82-4.75,2.18-.93,4.36,1.17,5.81,4.7,1.47,3.57,2.02,8.07.55,11.52l.18.43,5.68-2.34c.59-3.39-.13-7.7-1.78-11.72-3.53-8.56-9.86-11.96-15.63-9.61-4.37,1.8-5.89,5.85-5.31,11.82l.77,7.86c.27,2.73-.5,4.21-2.23,4.92-2.69,1.11-5-1.08-6.67-5.13-1.68-4.09-2.2-8.88-.57-13.17l-.17-.41-5.87,2.42c-.8,3.6.09,8.94,2.01,13.61Z"></path>
  <path class="cls-2" d="M195.17,312.15l-34.26,5.32c3.43-87.16,75.17-156.77,163.18-156.77h0s0,.86,0,.86v52.98h0v15.84h0s0,8.64,0,8.64h0v8.93l.81.27,2.4-9.2h42.7l.35,1.07c-.42,3.12-.2,12.44,15.45,19.14l.41,1.24-62.13-1.54-62.13,1.54.41-1.24c15.65-6.7,15.87-16.01,15.45-19.14l.35-1.07h42.71l-2.2-8.46-31.09,1.06.27-.8c9.24-5.23,9.57-12.6,9.35-15.27l.34-1.02h16.96l-4.99-19.17c-60.75,6.8-108.8,55.66-114.35,116.78ZM434.36,256.17l-5,15.12,1.08,2.26h45.18l1.88-5.66c-22.16-60.57-79.18-104.35-146.76-107.06l5.36,34.27c41.57,3.82,77.45,27.3,98.27,61.06ZM430.44,374.46l-1.08,2.26,5,15.12c-20.79,33.72-56.61,57.19-98.12,61.05l-5.35,34.28c67.52-2.77,124.46-46.53,146.61-107.05l-1.88-5.66h-45.18ZM389.14,269.19l-.43-1.29h-129.25l-.43,1.29c-.1,3.87-1.9,16.17-18.81,32.97l-.46,1.4c9.46-4.08,17.96-7.51,25.96-10.46,9.84-3.63,18.98-6.56,27.93-8.97,4.89-1.32,9.77-2.48,14.49-3.46,4.99-1.04,9.98-1.9,14.82-2.57l1.05-.15,1.05.14c4.13.54,8.39,1.24,12.67,2.1,4.05.81,8.24,1.77,12.46,2.86,7.71,2,15.66,4.46,24.28,7.51,11.64,4.12,23.02,8.81,34.13,13.56l-.65-1.95c-16.9-16.79-18.7-29.09-18.81-32.97ZM360.31,230.82c-9.24-5.23-9.57-12.6-9.35-15.27l-.34-1.02h-16.95l-4.18,16.03,31.08,1.06-.27-.8ZM352.96,400.46c.12.18.26.36.42.54h.01s.01.03.01.03c.34.43.89.85,1.47,1.27.6.39,1.34.83,2.21,1.18h.01s.01.01.01.01c1.51.68,3.43,1.3,5.86,1.89,4.46,1.08,9.52,1.66,13.92,2.12,1.23.12,2.47.23,3.72.33,2-5.78,4.49-11.52,7.31-17.22-5.24,2.36-10.83,4.38-16.72,6.05-7.4,2.09-13.85,3.21-18.24,3.8ZM285.2,405.39c2.43-.59,4.35-1.21,5.86-1.89h.02c.87-.37,1.61-.81,2.21-1.19.59-.43,1.14-.85,1.47-1.27v-.02s.03-.01.03-.01c.16-.18.3-.36.42-.54-4.38-.59-10.84-1.71-18.24-3.8-5.89-1.67-11.49-3.69-16.72-6.05,2.83,5.7,5.32,11.44,7.31,17.22,1.25-.1,2.49-.21,3.72-.33,4.39-.46,9.46-1.04,13.91-2.12ZM487.22,323.99v6.53l-34.22,5.4-35.82,5.65c-7.67,12.44-15.89,24.83-22.99,37.32-.85.52-1.71,1.03-2.58,1.53-11.35,6.45-24.12,10.34-37.96,11.57,1.25-2.96,3.12-5.95,4.97-8.77,1.03-1.56,2.19-3.2,3.65-5.17,1.2-1.64,2.47-3.33,3.89-5.16,3.57-4.62,7.35-9.32,11.01-13.86,1.79-2.23,3.65-4.53,5.46-6.81l4.12-5.25c.17-.22.35-.45.52-.67,1.2-1.57,2.37-3.13,3.48-4.66,1.25-1.72,2.58-3.56,3.84-5.46.39-.58.76-1.18,1.12-1.77.21-.35.44-.7.66-1.05h0s0-.03.01-.03l-6.94-1.96s-.05.08-.07.12c-.34.55-.69,1.11-1.06,1.66-1.04,1.57-2.21,3.23-3.68,5.22-2.05,2.67-4.75,6.14-7.74,9.57-.16.18-.32.37-.48.55h0c-3.66,4.25-7.62,8.46-11.45,12.54-2.2,2.34-4.47,4.76-6.68,7.18-2.74,3-5.93,6.58-8.84,10.38-1.43,1.84-2.77,3.75-3.97,5.69-1.02,1.65-2.31,3.86-3.28,6.35-.69,1.78-1.6,4.5-1.49,7.64.03,3.02,1.3,6.19,3.4,8.49,1.14,1.34,2.52,2.34,3.72,3.14h.01s.01.02.01.02c1.44.89,2.84,1.59,4.13,2.1,2.49,1,5.14,1.75,8.31,2.35,2.78.54,5.53.79,8.11,1,2.78.24,5.56.27,7.95.28.11,0,.23,0,.34,0,.52,0,1.04,0,1.56-.01-.41,1.56-.78,3.13-1.1,4.71h0s0,0,0,0c0,0,0,0,0,0-.02,0-.04.01-.06.02l-23.92,8.59-14.85,5.53-10.3-106.54-.94-9.69-1.89-19.54-1.09.38v19.15s0,5.6,0,5.6v2.55s0,116.75,0,116.75h0s0,43.34,0,43.34v.86c-90.15,0-163.24-73.05-163.31-163.19h.02s0-.13,0-.13h105.64l.34-1.01-15.63-4.31-14.72-4.05.53-1.59c26.86-11.91,56.18-23.37,87.13-27.65,30.37,3.97,59.57,16.11,87.28,28.09l.38,1.15-14.75,4.06-15.6,4.3.34,1.01h105.48ZM312.14,452.91l-2.95-18.7-14.17-5.28-23.88-8.58s-.07-.02-.1-.03c0,0,0,0,0,0h0s0,0,0,0c-.32-1.57-.69-3.14-1.1-4.71.52,0,1.04.01,1.56.01.11,0,.23,0,.34,0,2.39-.01,5.17-.05,7.95-.28,2.58-.21,5.33-.46,8.11-1,3.18-.6,5.82-1.35,8.31-2.35,1.3-.51,2.69-1.22,4.14-2.1h.01s.01-.02.01-.02c1.2-.8,2.58-1.8,3.72-3.14,2.1-2.3,3.37-5.47,3.4-8.49.05-1.51-.05-3.93-1.49-7.64-.97-2.49-2.26-4.7-3.28-6.35-1.2-1.94-2.54-3.85-3.97-5.68-2.92-3.8-6.11-7.38-8.85-10.38-2.21-2.42-4.49-4.84-6.68-7.18-3.83-4.08-7.78-8.29-11.45-12.53h0c-.15-.18-.3-.35-.45-.52-3-3.44-5.71-6.92-7.77-9.6-1.47-1.99-2.64-3.65-3.68-5.22-.37-.55-.72-1.11-1.06-1.66-.02-.04-.05-.08-.07-.12l-6.94,1.96s0,.01.01.02h0c.22.36.44.72.66,1.06.36.58.74,1.18,1.12,1.77,1.26,1.9,2.58,3.74,3.84,5.46,1.12,1.54,2.3,3.12,3.5,4.69.16.21.33.43.49.64l4.12,5.25c1.81,2.28,3.67,4.58,5.46,6.81,3.66,4.54,7.44,9.24,11.01,13.86,1.42,1.83,2.69,3.52,3.89,5.17,1.46,1.97,2.62,3.62,3.65,5.17,1.86,2.81,3.73,5.8,4.97,8.77-13.83-1.23-26.59-5.12-37.93-11.55-.88-.5-1.75-1.01-2.62-1.54-7.09-12.48-15.31-24.86-22.97-37.29l-35.84-5.65c5.67,61.96,55,111.29,116.96,116.96ZM324.09,443.1h0s0,0,0,0h0Z"></path>
</svg>
